<?xml version="1.0" encoding="UTF-8" standalone="no"?>
<svg
   xmlns:dc="http://purl.org/dc/elements/1.1/"
   xmlns:cc="http://creativecommons.org/ns#"
   xmlns:rdf="http://www.w3.org/1999/02/22-rdf-syntax-ns#"
   xmlns:svg="http://www.w3.org/2000/svg"
   xmlns="http://www.w3.org/2000/svg"
   xmlns:sodipodi="http://sodipodi.sourceforge.net/DTD/sodipodi-0.dtd"
   xmlns:inkscape="http://www.inkscape.org/namespaces/inkscape"
   viewBox="0 0 40 32"
   version="1.1"
   id="svg835"
   sodipodi:docname="newspaper.svg"
   width="40"
   height="32"
   inkscape:version="1.0.2 (e86c8708, 2021-01-15)">
  <metadata
     id="metadata841">
    <rdf:RDF>
      <cc:Work
         rdf:about="">
        <dc:format>image/svg+xml</dc:format>
        <dc:type
           rdf:resource="http://purl.org/dc/dcmitype/StillImage" />
        <dc:title />
      </cc:Work>
    </rdf:RDF>
  </metadata>
  <defs
     id="defs839" />
  <sodipodi:namedview
     pagecolor="#000000"
     bordercolor="#666666"
     borderopacity="1"
     objecttolerance="10"
     gridtolerance="10"
     guidetolerance="10"
     inkscape:pageopacity="1"
     inkscape:pageshadow="2"
     inkscape:window-width="1920"
     inkscape:window-height="987"
     id="namedview837"
     showgrid="false"
     fit-margin-top="0"
     fit-margin-left="0"
     fit-margin-right="0"
     fit-margin-bottom="0"
     inkscape:zoom="1.1597222"
     inkscape:cx="223.32934"
     inkscape:cy="176.47904"
     inkscape:window-x="0"
     inkscape:window-y="23"
     inkscape:window-maximized="1"
     inkscape:current-layer="svg835"
     inkscape:document-rotation="0"
     inkscape:pagecheckerboard="true" />
  <!-- Font Awesome Free 5.15.3 by @fontawesome - https://fontawesome.com License - https://fontawesome.com/license/free (Icons: CC BY 4.0, Fonts: SIL OFL 1.1, Code: MIT License) -->
  <path
     d="M 38.333332,0 H 6.111111 C 5.190625,0 4.4444445,0.895417 4.4444445,2 V 2.666667 H 1.6666666 C 0.74618055,2.666667 0,3.562083 0,4.666667 V 27.333333 C 0,29.910667 1.741111,32 3.888889,32 H 36.666668 C 38.507638,32 40,30.209167 40,28 V 2 C 40,0.895417 39.253821,0 38.333332,0 Z M 3.888889,28 A 0.55555555,0.66666667 0 0 1 3.3333333,27.333333 V 6.666667 H 4.4444445 V 27.333333 A 0.55555555,0.66666667 0 0 1 3.888889,28 Z M 20.277777,26.666667 H 9.7222223 c -0.4602083,0 -0.8333333,-0.44775 -0.8333333,-1 V 25 c 0,-0.55225 0.373125,-1 0.8333333,-1 H 20.277777 c 0.460209,0 0.833333,0.44775 0.833333,1 v 0.666667 c 0,0.55225 -0.373124,1 -0.833333,1 z m 14.444445,0 H 24.166667 c -0.460208,0 -0.833335,-0.44775 -0.833335,-1 V 25 c 0,-0.55225 0.373127,-1 0.833335,-1 h 10.555555 c 0.460207,0 0.833333,0.44775 0.833333,1 v 0.666667 c 0,0.55225 -0.373126,1 -0.833333,1 z m -14.444445,-8 H 9.7222223 c -0.4602083,0 -0.8333333,-0.44775 -0.8333333,-1 V 17 c 0,-0.55225 0.373125,-1 0.8333333,-1 H 20.277777 c 0.460209,0 0.833333,0.44775 0.833333,1 v 0.666667 c 0,0.55225 -0.373124,1 -0.833333,1 z m 14.444445,0 H 24.166667 c -0.460208,0 -0.833335,-0.44775 -0.833335,-1 V 17 c 0,-0.55225 0.373127,-1 0.833335,-1 h 10.555555 c 0.460207,0 0.833333,0.44775 0.833333,1 v 0.666667 c 0,0.55225 -0.373126,1 -0.833333,1 z m 0,-8 H 9.7222223 c -0.4602083,0 -0.8333333,-0.44775 -0.8333333,-1 V 6.333333 c 0,-0.55225 0.373125,-1 0.8333333,-1 H 34.722222 c 0.460207,0 0.833333,0.44775 0.833333,1 v 3.333334 c 0,0.55225 -0.373126,1 -0.833333,1 z"
     id="path833"
     style="stroke-width:0.0760726;fill:#1ea7e1;fill-opacity:1" />
</svg>
