<?xml version="1.0" encoding="UTF-8" standalone="no"?>
<!-- Created with Inkscape (http://www.inkscape.org/) -->

<svg
   xmlns:dc="http://purl.org/dc/elements/1.1/"
   xmlns:cc="http://creativecommons.org/ns#"
   xmlns:rdf="http://www.w3.org/1999/02/22-rdf-syntax-ns#"
   xmlns:svg="http://www.w3.org/2000/svg"
   xmlns="http://www.w3.org/2000/svg"
   xmlns:sodipodi="http://sodipodi.sourceforge.net/DTD/sodipodi-0.dtd"
   xmlns:inkscape="http://www.inkscape.org/namespaces/inkscape"
   version="1.1"
   id="svg8835"
   width="101"
   height="149"
   viewBox="0 0 101 149"
   sodipodi:docname="tail2.svg"
   inkscape:version="0.92.3 (2405546, 2018-03-11)">
  <metadata
     id="metadata8841">
    <rdf:RDF>
      <cc:Work
         rdf:about="">
        <dc:format>image/svg+xml</dc:format>
        <dc:type
           rdf:resource="http://purl.org/dc/dcmitype/StillImage" />
        <dc:title></dc:title>
      </cc:Work>
    </rdf:RDF>
  </metadata>
  <defs
     id="defs8839" />
  <sodipodi:namedview
     pagecolor="#ffffff"
     bordercolor="#666666"
     borderopacity="1"
     objecttolerance="10"
     gridtolerance="10"
     guidetolerance="10"
     inkscape:pageopacity="0"
     inkscape:pageshadow="2"
     inkscape:window-width="1920"
     inkscape:window-height="1001"
     id="namedview8837"
     showgrid="false"
     fit-margin-top="0"
     fit-margin-left="0"
     fit-margin-right="0"
     fit-margin-bottom="0"
     inkscape:zoom="4.4799248"
     inkscape:cx="46.192249"
     inkscape:cy="95.174441"
     inkscape:window-x="-9"
     inkscape:window-y="-9"
     inkscape:window-maximized="1"
     inkscape:current-layer="layer9"
     inkscape:pagecheckerboard="true" />
  <g
     inkscape:groupmode="layer"
     id="layer8"
     inkscape:label="Original"
     transform="translate(-47.991524,-63.135593)"
     sodipodi:insensitive="true" />
  <g
     inkscape:groupmode="layer"
     id="layer9"
     inkscape:label="Re-ink">
    <path
       style="fill:#0282b1;fill-opacity:1;stroke:none;stroke-width:1px;stroke-linecap:butt;stroke-linejoin:miter;stroke-opacity:1"
       d="M 4.4509363,28.047312 C 16.696056,13.694959 44.649769,22.53598 52.219599,29.386621 67.547141,59.830038 35.947916,95.482394 46.415926,105.9504 c 8.45455,8.45455 28.95292,8.73822 39.28638,3.57149 2.24732,-1.12366 5.80207,-1.29338 7.81263,-2.90183 0.41143,-0.32915 4.95607,-5.26668 5.58045,-4.01793 -0.30524,18.95982 -25.7564,38.50766 -43.08108,31.25053 -16.01962,-7.28165 -54.4253397,-20.41915 -45.09005,-45.313256 3.09768,-8.26046 11.74829,-23.519226 9.821599,-35.71489 C 19.203323,43.060524 3.8712563,30.945726 4.4509363,28.047312 Z"
       id="path3854-7"
       inkscape:connector-curvature="0"
       sodipodi:nodetypes="ccsscccsac" />
    <path
       style="fill:#ffffff;stroke:none;stroke-width:1px;stroke-linecap:butt;stroke-linejoin:miter;stroke-opacity:1"
       d="m 16.281497,68.003346 c 2.5555,-2.15973 3.89453,-5.91251 5.80367,-8.92872 19.71822,-31.152371 4.837088,11.954796 7.812628,12.946646 4.85561,1.61854 9.66396,-21.008965 11.607342,-22.321806 4.480942,-3.027075 6.528329,19.028548 10.268029,22.768238 0.68267,0.68268 1.309566,-10.342463 2.901831,-14.955608 1.592265,-4.613145 4.799012,-12.924418 -3.12505,-28.348689 C 43.625885,13.739136 19.854876,12.643375 4.4509363,28.047312 14.448746,35.12967 13.266147,38.734204 16.058277,43.226146 c 8.5263,4.26315 7.05835,18.79646 0.22322,24.7772 z"
       id="path8170"
       inkscape:connector-curvature="0"
       sodipodi:nodetypes="csssszzccc" />
    <path
       style="fill:none;stroke:#000000;stroke-width:4;stroke-linecap:butt;stroke-linejoin:miter;stroke-miterlimit:4;stroke-dasharray:none;stroke-opacity:1"
       d="M 4.4509363,28.047317 C 16.696056,13.694964 33.26335,8.6963785 50.657073,28.716971 68.050796,48.737565 35.947916,95.482394 46.415926,105.9504 c 8.45455,8.45455 28.95292,8.73822 39.28638,3.57149 2.24732,-1.12366 5.80207,-1.29338 7.81263,-2.90183 0.41143,-0.32915 4.95607,-5.26668 5.58045,-4.01793 -0.30524,18.95983 -25.7564,38.50767 -43.08108,31.25054 C 39.994686,126.57102 1.5889663,113.43351 10.924256,88.539404 14.021936,80.278944 23.06188,63.751343 20.745855,51.03877 19.062233,41.797438 3.8712563,30.945731 4.4509363,28.047317 Z"
       id="path3854"
       inkscape:connector-curvature="0"
       sodipodi:nodetypes="czsscccsac" />
  </g>
</svg>
