<?xml version="1.0" encoding="UTF-8" standalone="no"?>
<!-- Created with Inkscape (http://www.inkscape.org/) -->

<svg
   xmlns:dc="http://purl.org/dc/elements/1.1/"
   xmlns:cc="http://creativecommons.org/ns#"
   xmlns:rdf="http://www.w3.org/1999/02/22-rdf-syntax-ns#"
   xmlns:svg="http://www.w3.org/2000/svg"
   xmlns="http://www.w3.org/2000/svg"
   xmlns:sodipodi="http://sodipodi.sourceforge.net/DTD/sodipodi-0.dtd"
   xmlns:inkscape="http://www.inkscape.org/namespaces/inkscape"
   version="1.1"
   id="svg3283"
   width="101"
   height="149"
   viewBox="0 0 101 149"
   sodipodi:docname="tail0.svg"
   inkscape:version="0.92.3 (2405546, 2018-03-11)">
  <metadata
     id="metadata3289">
    <rdf:RDF>
      <cc:Work
         rdf:about="">
        <dc:format>image/svg+xml</dc:format>
        <dc:type
           rdf:resource="http://purl.org/dc/dcmitype/StillImage" />
        <dc:title></dc:title>
      </cc:Work>
    </rdf:RDF>
  </metadata>
  <defs
     id="defs3287" />
  <sodipodi:namedview
     pagecolor="#ffffff"
     bordercolor="#666666"
     borderopacity="1"
     objecttolerance="10"
     gridtolerance="10"
     guidetolerance="10"
     inkscape:pageopacity="0"
     inkscape:pageshadow="2"
     inkscape:window-width="1920"
     inkscape:window-height="1001"
     id="namedview3285"
     showgrid="false"
     fit-margin-top="0"
     fit-margin-left="0"
     fit-margin-right="0"
     fit-margin-bottom="0"
     inkscape:pagecheckerboard="true"
     inkscape:zoom="4.4799248"
     inkscape:cx="114.88333"
     inkscape:cy="62.16387"
     inkscape:window-x="-9"
     inkscape:window-y="-9"
     inkscape:window-maximized="1"
     inkscape:current-layer="layer4" />
  <g
     inkscape:groupmode="layer"
     id="layer5"
     inkscape:label="Color">
    <path
       style="fill:#0282b1;stroke:none;stroke-width:1px;stroke-linecap:butt;stroke-linejoin:miter;stroke-opacity:1;fill-opacity:1"
       d="m 4.017919,34.265927 c 12.24512,-14.352353 43.99354,-9.752475 51.56337,-2.901834 26.934881,24.862967 -20.06639,70.336917 -9.59838,80.804927 8.45455,8.45455 28.952921,8.73822 39.286381,3.57149 2.24732,-1.12366 5.80207,-1.29338 7.81263,-2.90183 0.41143,-0.32915 4.95607,-5.26668 5.58045,-4.01793 -0.30524,18.95982 -25.7564,38.50766 -43.081081,31.25053 -16.01962,-7.28165 -54.42534,-20.41915 -45.09005,-45.313262 3.09768,-8.260462 21.43212,-24.095373 18.75032,-37.94707 C 27.098069,45.739669 3.438239,37.164341 4.017919,34.265927 Z"
       id="path3854-7"
       inkscape:connector-curvature="0"
       sodipodi:nodetypes="ccsscccsac" />
    <path
       style="fill:#ffffff;stroke:none;stroke-width:1px;stroke-linecap:butt;stroke-linejoin:miter;stroke-opacity:1"
       d="m 23.884329,73.329088 c 2.555501,-2.159728 3.894528,-5.912514 5.803669,-8.928722 19.718224,-31.152368 2.38169,13.740543 5.357233,14.73239 4.855614,1.618538 13.012228,-27.25907 14.062736,-24.107547 1.71003,5.130092 -1.507514,19.921417 2.23218,23.661111 0.682677,0.682677 10.208556,-13.736032 10.937684,-15.84848 2.455398,-7.113843 1.63111,-24.440587 -3.125053,-28.34869 C 45.382204,23.173974 19.421856,18.86199 4.017919,34.265927 c 9.997814,7.082358 16.851062,9.79402 19.643192,14.285959 8.526303,4.263151 7.058351,18.79646 0.223218,24.777202 z"
       id="path8170"
       inkscape:connector-curvature="0"
       sodipodi:nodetypes="cssssssccc" />
  </g>
  <g
     inkscape:groupmode="layer"
     id="layer4"
     inkscape:label="Re-ink"
     transform="translate(206.44492,-11.364407)">
    <path
       style="fill:none;stroke:#000000;stroke-width:4;stroke-linecap:butt;stroke-linejoin:miter;stroke-opacity:1;stroke-miterlimit:4;stroke-dasharray:none"
       d="m -202.427,45.630339 c 12.24512,-14.352353 43.99354,-9.752475 51.56337,-2.901834 26.93488,24.862967 -20.06639,70.336915 -9.59838,80.804925 8.45455,8.45455 28.95292,8.73822 39.28638,3.57149 2.24732,-1.12366 5.80207,-1.29338 7.81263,-2.90183 0.41143,-0.32915 4.95607,-5.26668 5.58045,-4.01793 -0.30524,18.95982 -25.7564,38.50766 -43.08108,31.25053 -16.01962,-7.28165 -54.42534,-20.41915 -45.09005,-45.31326 3.09768,-8.260462 21.43212,-24.095373 18.75032,-37.94707 -2.14349,-11.071279 -25.80332,-19.646607 -25.22364,-22.545021 z"
       id="path3854"
       inkscape:connector-curvature="0"
       sodipodi:nodetypes="ccsscccsac" />
  </g>
</svg>
