<?xml version="1.0" encoding="UTF-8" standalone="no"?>
<!-- Created with Inkscape (http://www.inkscape.org/) -->

<svg
   xmlns:dc="http://purl.org/dc/elements/1.1/"
   xmlns:cc="http://creativecommons.org/ns#"
   xmlns:rdf="http://www.w3.org/1999/02/22-rdf-syntax-ns#"
   xmlns:svg="http://www.w3.org/2000/svg"
   xmlns="http://www.w3.org/2000/svg"
   xmlns:sodipodi="http://sodipodi.sourceforge.net/DTD/sodipodi-0.dtd"
   xmlns:inkscape="http://www.inkscape.org/namespaces/inkscape"
   width="126.30465mm"
   height="16.950974mm"
   viewBox="0 0 126.30465 16.950974"
   version="1.1"
   id="svg8"
   inkscape:version="0.92.3 (2405546, 2018-03-11)"
   sodipodi:docname="dressup_title.svg"
   inkscape:export-filename="dressup_title.png"
   inkscape:export-xdpi="141.11099"
   inkscape:export-ydpi="141.11099">
  <defs
     id="defs2" />
  <sodipodi:namedview
     id="base"
     pagecolor="#ffffff"
     bordercolor="#666666"
     borderopacity="1.0"
     inkscape:pageopacity="0.0"
     inkscape:pageshadow="2"
     inkscape:zoom="0.98994949"
     inkscape:cx="289.38072"
     inkscape:cy="194.95805"
     inkscape:document-units="mm"
     inkscape:current-layer="layer1"
     showgrid="false"
     inkscape:pagecheckerboard="true"
     fit-margin-top="0"
     fit-margin-left="0"
     fit-margin-right="0"
     fit-margin-bottom="0"
     inkscape:window-width="1920"
     inkscape:window-height="1001"
     inkscape:window-x="-9"
     inkscape:window-y="-9"
     inkscape:window-maximized="1" />
  <metadata
     id="metadata5">
    <rdf:RDF>
      <cc:Work
         rdf:about="">
        <dc:format>image/svg+xml</dc:format>
        <dc:type
           rdf:resource="http://purl.org/dc/dcmitype/StillImage" />
        <dc:title></dc:title>
      </cc:Work>
    </rdf:RDF>
  </metadata>
  <g
     inkscape:label="Layer 1"
     inkscape:groupmode="layer"
     id="layer1"
     transform="translate(-45.88631,-57.28246)">
    <g
       aria-label="Zack's Dress Up"
       style="font-style:normal;font-weight:normal;font-size:10.58333302px;line-height:1.25;font-family:sans-serif;letter-spacing:0px;word-spacing:0px;fill:#fcfcfc;fill-opacity:1;stroke:none;stroke-width:0.26458332"
       id="text817">
      <path
         d="m 54.93506,60.386904 q -0.582083,0.635 -1.411111,1.658056 -0.829028,1.005416 -1.710972,2.204861 -0.881945,1.181805 -1.74625,2.451806 -0.846667,1.252361 -1.499306,2.38125 h 6.561667 v 1.887361 H 45.88631 v -1.393473 q 0.352778,-0.652638 0.811389,-1.411111 0.47625,-0.776111 1.005417,-1.5875 0.529166,-0.811389 1.093611,-1.640416 0.582083,-0.829028 1.146528,-1.5875 0.564444,-0.776112 1.093611,-1.464028 0.546805,-0.705556 1.023055,-1.252361 h -5.87375 v -1.887362 h 8.748889 z"
         style="font-style:normal;font-variant:normal;font-weight:500;font-stretch:normal;font-size:17.63888931px;font-family:Ubuntu;-inkscape-font-specification:'Ubuntu Medium';stroke-width:0.26458332;fill:#fcfcfc;fill-opacity:1"
         id="path819" />
      <path
         d="m 60.330631,69.470932 q 0.987778,0 1.499306,-0.105833 v -2.363611 q -0.176389,-0.05292 -0.511528,-0.105834 -0.335139,-0.05292 -0.740833,-0.05292 -0.352778,0 -0.723195,0.05292 -0.352778,0.05292 -0.652639,0.194028 -0.282222,0.141111 -0.458611,0.405695 -0.176389,0.246944 -0.176389,0.635 0,0.758472 0.47625,1.058333 0.47625,0.282222 1.287639,0.282222 z m -0.176389,-7.955139 q 1.058334,0 1.781528,0.264583 0.723195,0.264584 1.146528,0.740834 0.440972,0.47625 0.617361,1.164166 0.194028,0.670278 0.194028,1.481667 v 5.591528 q -0.493889,0.105833 -1.499306,0.246945 -0.987778,0.15875 -2.240139,0.15875 -0.829028,0 -1.516944,-0.15875 -0.687917,-0.15875 -1.181806,-0.511528 -0.47625,-0.352778 -0.758472,-0.917223 -0.264583,-0.564444 -0.264583,-1.393472 0,-0.79375 0.299861,-1.340555 0.3175,-0.546806 0.846666,-0.881945 0.529167,-0.352778 1.217084,-0.493889 0.705555,-0.15875 1.464028,-0.15875 0.352777,0 0.740833,0.05292 0.388055,0.03528 0.829028,0.141111 v -0.352778 q 0,-0.370416 -0.08819,-0.705555 -0.08819,-0.335139 -0.3175,-0.582084 -0.211666,-0.264583 -0.582083,-0.405694 -0.352778,-0.141111 -0.899583,-0.141111 -0.740834,0 -1.358195,0.105833 -0.617361,0.105833 -1.005417,0.246945 l -0.264583,-1.728612 q 0.405695,-0.141111 1.181806,-0.282222 0.776111,-0.141111 1.658055,-0.141111 z"
         style="font-style:normal;font-variant:normal;font-weight:500;font-stretch:normal;font-size:17.63888931px;font-family:Ubuntu;-inkscape-font-specification:'Ubuntu Medium';stroke-width:0.26458332;fill:#fcfcfc;fill-opacity:1"
         id="path821" />
      <path
         d="m 65.978659,66.366488 q 0,-1.023056 0.3175,-1.905 0.3175,-0.899584 0.899583,-1.552223 0.599723,-0.652639 1.446389,-1.023055 0.846667,-0.370417 1.905,-0.370417 1.305278,0 2.469445,0.47625 l -0.458611,1.74625 q -0.370417,-0.15875 -0.846667,-0.264583 -0.458611,-0.105834 -0.987778,-0.105834 -1.252361,0 -1.905,0.79375 -0.652639,0.776112 -0.652639,2.204862 0,1.375833 0.617361,2.187222 0.617362,0.79375 2.081389,0.79375 0.546806,0 1.075973,-0.105833 0.529166,-0.105834 0.917222,-0.264584 l 0.299861,1.763889 q -0.352778,0.176389 -1.075972,0.3175 -0.705556,0.141111 -1.464028,0.141111 -1.181806,0 -2.06375,-0.352777 -0.864306,-0.370417 -1.446389,-1.005417 -0.564445,-0.652639 -0.846667,-1.534584 -0.282222,-0.899583 -0.282222,-1.940277 z"
         style="font-style:normal;font-variant:normal;font-weight:500;font-stretch:normal;font-size:17.63888931px;font-family:Ubuntu;-inkscape-font-specification:'Ubuntu Medium';stroke-width:0.26458332;fill:#fcfcfc;fill-opacity:1"
         id="path823" />
      <path
         d="m 76.961624,65.343432 q 0.405694,-0.423333 0.864306,-0.899583 0.458611,-0.493889 0.899583,-0.970139 0.440972,-0.493889 0.829028,-0.934861 0.405694,-0.458611 0.687916,-0.79375 h 2.522362 q -0.881945,0.987777 -1.869723,2.046111 -0.970139,1.058333 -1.957916,2.06375 0.529166,0.440972 1.11125,1.075972 0.582083,0.617361 1.128888,1.322917 0.546806,0.705555 1.023056,1.411111 0.47625,0.705555 0.79375,1.305278 H 80.52468 q -0.3175,-0.546806 -0.740834,-1.146528 -0.405694,-0.599722 -0.881944,-1.164167 -0.47625,-0.564444 -0.970139,-1.058333 -0.493889,-0.511528 -0.970139,-0.864306 v 4.233334 H 74.827318 V 57.635237 l 2.134306,-0.352777 z"
         style="font-style:normal;font-variant:normal;font-weight:500;font-stretch:normal;font-size:17.63888931px;font-family:Ubuntu;-inkscape-font-specification:'Ubuntu Medium';stroke-width:0.26458332;fill:#fcfcfc;fill-opacity:1"
         id="path825" />
      <path
         d="m 86.55332,57.564682 v 1.093611 q 0,0.846667 -0.123473,1.834444 -0.123472,0.970139 -0.282222,1.957917 h -1.358194 q -0.176389,-0.987778 -0.282222,-1.957917 -0.105834,-0.970138 -0.105834,-1.852083 v -1.075972 z"
         style="font-style:normal;font-variant:normal;font-weight:500;font-stretch:normal;font-size:17.63888931px;font-family:Ubuntu;-inkscape-font-specification:'Ubuntu Medium';stroke-width:0.26458332;fill:#fcfcfc;fill-opacity:1"
         id="path827" />
      <path
         d="m 91.435159,69.435654 q 0.846666,0 1.234722,-0.194027 0.388055,-0.211667 0.388055,-0.705556 0,-0.458611 -0.423333,-0.758472 -0.405694,-0.299861 -1.358194,-0.652639 -0.582084,-0.211667 -1.075973,-0.440972 -0.47625,-0.246945 -0.829027,-0.564445 -0.352778,-0.3175 -0.564445,-0.758472 -0.194028,-0.458611 -0.194028,-1.11125 0,-1.27 0.934862,-1.993195 0.934861,-0.740833 2.54,-0.740833 0.811388,0 1.552222,0.15875 0.740833,0.141111 1.11125,0.282222 l -0.388056,1.728611 q -0.352777,-0.15875 -0.899583,-0.282222 -0.546806,-0.141111 -1.27,-0.141111 -0.652639,0 -1.058333,0.229306 -0.405695,0.211666 -0.405695,0.670277 0,0.229306 0.07056,0.405695 0.08819,0.176389 0.282222,0.335139 0.194028,0.141111 0.511528,0.299861 0.3175,0.141111 0.776111,0.299861 0.758472,0.282222 1.287639,0.564445 0.529166,0.264583 0.864305,0.617361 0.352778,0.335139 0.511528,0.776111 0.15875,0.440972 0.15875,1.058333 0,1.322917 -0.987778,2.010833 -0.970139,0.670278 -2.786944,0.670278 -1.217084,0 -1.957917,-0.211666 -0.740833,-0.194028 -1.040694,-0.3175 l 0.370416,-1.781528 q 0.47625,0.194028 1.128889,0.370416 0.670278,0.176389 1.516945,0.176389 z"
         style="font-style:normal;font-variant:normal;font-weight:500;font-stretch:normal;font-size:17.63888931px;font-family:Ubuntu;-inkscape-font-specification:'Ubuntu Medium';stroke-width:0.26458332;fill:#fcfcfc;fill-opacity:1"
         id="path829" />
      <path
         d="m 103.61398,69.135793 q 0.19403,0.01764 0.51153,0.03528 0.3175,0 0.86431,0 2.24014,0 3.33375,-1.128889 1.11125,-1.146528 1.11125,-3.192639 0,-2.081389 -1.07598,-3.192639 -1.07597,-1.11125 -3.33375,-1.11125 -0.98777,0 -1.41111,0.05292 z m 8.14917,-4.28625 q 0,1.5875 -0.49389,2.769306 -0.49389,1.164166 -1.41111,1.957916 -0.89958,0.776112 -2.18722,1.164167 -1.27,0.370417 -2.82222,0.370417 -0.74084,0 -1.6757,-0.07056 -0.93486,-0.05292 -1.78153,-0.246944 V 58.922876 q 0.84667,-0.194027 1.79917,-0.246944 0.9525,-0.05292 1.69333,-0.05292 1.53459,0 2.80459,0.370417 1.27,0.352778 2.16958,1.128889 0.91722,0.758472 1.41111,1.940278 0.49389,1.164166 0.49389,2.786944 z"
         style="font-style:normal;font-variant:normal;font-weight:500;font-stretch:normal;font-size:17.63888931px;font-family:Ubuntu;-inkscape-font-specification:'Ubuntu Medium';stroke-width:0.26458332;fill:#fcfcfc;fill-opacity:1"
         id="path831" />
      <path
         d="m 119.3578,63.667738 q -0.26459,-0.08819 -0.74084,-0.176389 -0.45861,-0.105834 -1.07597,-0.105834 -0.35278,0 -0.75847,0.07056 -0.38806,0.07055 -0.54681,0.123472 v 7.390695 h -2.1343 v -8.784167 q 0.61736,-0.229306 1.53458,-0.423333 0.93486,-0.211667 2.06375,-0.211667 0.21167,0 0.49389,0.03528 0.28222,0.01764 0.56444,0.07055 0.28223,0.03528 0.54681,0.105834 0.26458,0.05292 0.42333,0.105833 z"
         style="font-style:normal;font-variant:normal;font-weight:500;font-stretch:normal;font-size:17.63888931px;font-family:Ubuntu;-inkscape-font-specification:'Ubuntu Medium';stroke-width:0.26458332;fill:#fcfcfc;fill-opacity:1"
         id="path833" />
      <path
         d="m 120.68677,66.401765 q 0,-1.217083 0.35278,-2.134305 0.37042,-0.917222 0.97014,-1.516945 0.59972,-0.617361 1.37583,-0.917222 0.77611,-0.3175 1.5875,-0.3175 1.905,0 2.96334,1.181806 1.07597,1.181805 1.07597,3.527778 0,0.176388 -0.0176,0.405694 0,0.211667 -0.0176,0.388056 h -6.08542 q 0.0882,1.11125 0.77612,1.728611 0.70555,0.599722 2.02847,0.599722 0.77611,0 1.41111,-0.141111 0.65264,-0.141111 1.02305,-0.299861 l 0.28223,1.74625 q -0.17639,0.08819 -0.49389,0.194028 -0.29986,0.08819 -0.70556,0.15875 -0.38805,0.08819 -0.84666,0.141111 -0.45862,0.05292 -0.93487,0.05292 -1.21708,0 -2.11666,-0.352777 -0.89959,-0.370417 -1.48167,-1.005417 -0.58208,-0.652639 -0.8643,-1.516945 -0.28223,-0.881944 -0.28223,-1.922639 z m 6.19125,-0.9525 q 0,-0.440972 -0.12347,-0.829027 -0.12347,-0.405695 -0.37042,-0.687917 -0.2293,-0.299861 -0.58208,-0.458611 -0.33514,-0.176389 -0.81139,-0.176389 -0.49389,0 -0.8643,0.194028 -0.37042,0.176389 -0.635,0.47625 -0.24695,0.299861 -0.38806,0.687916 -0.14111,0.388056 -0.19403,0.79375 z"
         style="font-style:normal;font-variant:normal;font-weight:500;font-stretch:normal;font-size:17.63888931px;font-family:Ubuntu;-inkscape-font-specification:'Ubuntu Medium';stroke-width:0.26458332;fill:#fcfcfc;fill-opacity:1"
         id="path835" />
      <path
         d="m 133.56868,69.435654 q 0.84667,0 1.23472,-0.194027 0.38806,-0.211667 0.38806,-0.705556 0,-0.458611 -0.42333,-0.758472 -0.4057,-0.299861 -1.3582,-0.652639 -0.58208,-0.211667 -1.07597,-0.440972 -0.47625,-0.246945 -0.82903,-0.564445 -0.35278,-0.3175 -0.56444,-0.758472 -0.19403,-0.458611 -0.19403,-1.11125 0,-1.27 0.93486,-1.993195 0.93486,-0.740833 2.54,-0.740833 0.81139,0 1.55222,0.15875 0.74084,0.141111 1.11125,0.282222 l -0.38805,1.728611 q -0.35278,-0.15875 -0.89959,-0.282222 -0.5468,-0.141111 -1.27,-0.141111 -0.65264,0 -1.05833,0.229306 -0.40569,0.211666 -0.40569,0.670277 0,0.229306 0.0705,0.405695 0.0882,0.176389 0.28222,0.335139 0.19403,0.141111 0.51153,0.299861 0.3175,0.141111 0.77611,0.299861 0.75847,0.282222 1.28764,0.564445 0.52917,0.264583 0.86431,0.617361 0.35277,0.335139 0.51152,0.776111 0.15875,0.440972 0.15875,1.058333 0,1.322917 -0.98777,2.010833 -0.97014,0.670278 -2.78695,0.670278 -1.21708,0 -1.95791,-0.211666 -0.74084,-0.194028 -1.0407,-0.3175 l 0.37042,-1.781528 q 0.47625,0.194028 1.12889,0.370416 0.67027,0.176389 1.51694,0.176389 z"
         style="font-style:normal;font-variant:normal;font-weight:500;font-stretch:normal;font-size:17.63888931px;font-family:Ubuntu;-inkscape-font-specification:'Ubuntu Medium';stroke-width:0.26458332;fill:#fcfcfc;fill-opacity:1"
         id="path837" />
      <path
         d="m 141.6302,69.435654 q 0.84667,0 1.23473,-0.194027 0.38805,-0.211667 0.38805,-0.705556 0,-0.458611 -0.42333,-0.758472 -0.4057,-0.299861 -1.3582,-0.652639 -0.58208,-0.211667 -1.07597,-0.440972 -0.47625,-0.246945 -0.82903,-0.564445 -0.35277,-0.3175 -0.56444,-0.758472 -0.19403,-0.458611 -0.19403,-1.11125 0,-1.27 0.93486,-1.993195 0.93486,-0.740833 2.54,-0.740833 0.81139,0 1.55223,0.15875 0.74083,0.141111 1.11125,0.282222 l -0.38806,1.728611 q -0.35278,-0.15875 -0.89958,-0.282222 -0.54681,-0.141111 -1.27,-0.141111 -0.65264,0 -1.05834,0.229306 -0.40569,0.211666 -0.40569,0.670277 0,0.229306 0.0705,0.405695 0.0882,0.176389 0.28223,0.335139 0.19402,0.141111 0.51152,0.299861 0.3175,0.141111 0.77612,0.299861 0.75847,0.282222 1.28763,0.564445 0.52917,0.264583 0.86431,0.617361 0.35278,0.335139 0.51153,0.776111 0.15875,0.440972 0.15875,1.058333 0,1.322917 -0.98778,2.010833 -0.97014,0.670278 -2.78694,0.670278 -1.21709,0 -1.95792,-0.211666 -0.74083,-0.194028 -1.0407,-0.3175 l 0.37042,-1.781528 q 0.47625,0.194028 1.12889,0.370416 0.67028,0.176389 1.51694,0.176389 z"
         style="font-style:normal;font-variant:normal;font-weight:500;font-stretch:normal;font-size:17.63888931px;font-family:Ubuntu;-inkscape-font-specification:'Ubuntu Medium';stroke-width:0.26458332;fill:#fcfcfc;fill-opacity:1"
         id="path839" />
      <path
         d="m 156.29611,71.234821 q -1.25236,0 -2.15194,-0.352778 -0.89959,-0.370416 -1.49931,-1.023055 -0.58208,-0.652639 -0.8643,-1.534584 -0.28223,-0.881944 -0.28223,-1.940277 v -7.63764 h 2.24014 v 7.425973 q 0,0.829028 0.17639,1.42875 0.19403,0.582083 0.52917,0.9525 0.35278,0.370417 0.81139,0.546805 0.47625,0.176389 1.05833,0.176389 0.58208,0 1.05833,-0.176389 0.47625,-0.176388 0.81139,-0.546805 0.35278,-0.370417 0.52917,-0.9525 0.19403,-0.599722 0.19403,-1.42875 v -7.425973 h 2.24014 v 7.63764 q 0,1.058333 -0.29986,1.940277 -0.28223,0.881945 -0.88195,1.534584 -0.58208,0.652639 -1.4993,1.023055 -0.91723,0.352778 -2.16959,0.352778 z"
         style="font-style:normal;font-variant:normal;font-weight:500;font-stretch:normal;font-size:17.63888931px;font-family:Ubuntu;-inkscape-font-specification:'Ubuntu Medium';stroke-width:0.26458332;fill:#fcfcfc;fill-opacity:1"
         id="path841" />
      <path
         d="m 170.00373,66.401765 q 0,-1.42875 -0.65263,-2.2225 -0.635,-0.79375 -2.06375,-0.79375 -0.29987,0 -0.635,0.03528 -0.3175,0.01764 -0.635,0.105833 v 5.274028 q 0.28222,0.194028 0.74083,0.370417 0.47625,0.15875 1.00542,0.15875 1.16416,0 1.69333,-0.79375 0.5468,-0.79375 0.5468,-2.134306 z m 2.18723,-0.03528 q 0,1.058333 -0.28223,1.940277 -0.26458,0.881945 -0.77611,1.516945 -0.51152,0.635 -1.28764,0.987778 -0.75847,0.352778 -1.72861,0.352778 -0.65264,0 -1.19944,-0.15875 -0.54681,-0.15875 -0.89958,-0.352778 v 3.580694 h -2.13431 V 62.04496 q 0.65264,-0.176389 1.60514,-0.335139 0.9525,-0.15875 2.01083,-0.15875 1.09361,0 1.95792,0.335139 0.8643,0.335139 1.46403,0.970139 0.61736,0.617361 0.93486,1.516944 0.33514,0.881945 0.33514,1.993195 z"
         style="font-style:normal;font-variant:normal;font-weight:500;font-stretch:normal;font-size:17.63888931px;font-family:Ubuntu;-inkscape-font-specification:'Ubuntu Medium';stroke-width:0.26458332;fill:#fcfcfc;fill-opacity:1"
         id="path843" />
    </g>
  </g>
</svg>
