<?xml version="1.0" encoding="UTF-8" standalone="no"?>
<!DOCTYPE svg PUBLIC "-//W3C//DTD SVG 1.1//EN" "http://www.w3.org/Graphics/SVG/1.1/DTD/svg11.dtd">
<svg width="100%" height="100%" viewBox="0 0 84 96" version="1.1" xmlns="http://www.w3.org/2000/svg" xmlns:xlink="http://www.w3.org/1999/xlink" xml:space="preserve" xmlns:serif="http://www.serif.com/" style="fill-rule:evenodd;clip-rule:evenodd;">
    <g id="Color" transform="matrix(1,0,0,1,-0.311807,3.9386)">
        <path id="path2567-7" d="M74.437,-2.53C74.358,-2.535 74.278,-2.529 74.195,-2.51C60.752,0.463 38.712,-1.81 29.746,-1.138C27.585,-0.975 20.45,46.617 3.253,67.485C-3.144,75.247 31.556,74.434 32.832,70.17C35.841,50.723 50.345,33.416 50.345,33.416C50.345,33.416 52.329,54.385 49.456,65.405C47.174,74.163 76.162,73.153 76.7,64.12C78.141,39.903 79.36,-2.243 74.437,-2.53ZM28.447,40.58C31.03,40.745 36.046,47.686 31.388,50.628C30.664,51.085 21.818,47.961 21.602,47.085C21.552,46.881 23.441,43.188 23.744,42.887C24.781,41.638 26.561,40.779 28.204,40.586C28.282,40.577 28.364,40.575 28.447,40.58L28.447,40.58Z" style="fill:rgb(107,166,255);fill-rule:nonzero;"/>
    </g>
    <g id="Re-ink" transform="matrix(1,0,0,1,-0.311807,3.9386)">
        <path id="path2567" d="M3.252,67.484C20.449,46.616 27.585,-0.975 29.746,-1.138C38.712,-1.81 60.752,0.463 74.195,-2.51C79.495,-3.682 78.164,38.019 76.7,62.62C76.163,71.653 47.173,72.663 49.456,63.905C52.328,52.885 50.345,33.415 50.345,33.415C50.345,33.415 34.099,52.598 32.832,70.17C32.511,74.609 -3.144,75.246 3.252,67.484Z" style="fill:none;fill-rule:nonzero;stroke:black;stroke-width:2.83px;"/>
        <path id="path2571" d="M50.345,33.415C50.345,33.415 55.459,27.022 54.9,21.679C54.341,16.337 54.605,2.175 54.605,2.175" style="fill:none;fill-rule:nonzero;stroke:black;stroke-width:1.42px;"/>
        <path id="path2573" d="M54.9,21.679L58.763,2.105" style="fill:none;fill-rule:nonzero;stroke:black;stroke-width:1.42px;"/>
        <path id="path2569" d="M25.073,16.765C25.073,16.765 32.974,19.361 35.29,16.293C37.606,13.226 37.355,1.36 37.355,1.36L28.498,2.801L25.073,16.765Z" style="fill:rgb(103,103,103);fill-rule:nonzero;stroke:black;stroke-width:1.7px;"/>
        <path id="path2583" d="M27.783,2.547C27.783,2.547 29.006,-0.13 30.184,-0.057C42.542,0.715 60.983,-0.21 74.27,-1.261C75.328,-1.344 75.36,1.731 74.684,1.867C64.47,3.916 27.783,2.547 27.783,2.547Z" style="fill:rgb(152,152,152);fill-rule:nonzero;"/>
        <path id="path2579" d="M27.783,2.547L54.393,3.343L75.36,1.731" style="fill:none;fill-rule:nonzero;stroke:black;stroke-width:1.42px;"/>
    </g>
</svg>
