<?xml version="1.0" encoding="UTF-8" standalone="no"?>
<!DOCTYPE svg PUBLIC "-//W3C//DTD SVG 1.1//EN" "http://www.w3.org/Graphics/SVG/1.1/DTD/svg11.dtd">
<svg width="100%" height="100%" viewBox="0 0 84 96" version="1.1" xmlns="http://www.w3.org/2000/svg" xmlns:xlink="http://www.w3.org/1999/xlink" xml:space="preserve" xmlns:serif="http://www.serif.com/" style="fill-rule:evenodd;clip-rule:evenodd;">
    <g id="Re-ink" transform="matrix(1,0,0,1,0.567137,-3.81307)">
        <path id="path824" d="M29.774,5.524L73.558,5.241C73.558,5.241 76.709,28.726 78.046,50.604C78.241,53.795 71.692,52.542 68.497,52.119C67.424,51.977 66.619,50.813 65.537,50.793C61.997,50.728 59.239,54.92 55.701,54.771C54.023,54.7 52.89,52.597 51.213,52.498C47.624,52.285 45.302,56.617 41.091,56.191C39.914,56.072 39.027,54.799 37.844,54.771C34.299,54.686 31.458,58.422 27.913,58.559C24.794,58.679 22.044,56.216 18.937,55.907C15.757,55.591 8.029,59.628 9.388,56.759C22.784,28.494 29.774,5.524 29.774,5.524Z" style="fill:rgb(71,145,255);fill-rule:nonzero;stroke:black;stroke-width:2.84px;"/>
        <path id="path826" d="M22.929,51.74C38.839,18.784 35.619,19.826 35.619,19.826" style="fill:none;fill-rule:nonzero;stroke:black;stroke-width:0.75px;"/>
        <path id="path828" d="M35.714,30.337C33.536,42.459 35.051,51.077 35.051,51.077" style="fill:none;fill-rule:nonzero;stroke:black;stroke-width:0.75px;"/>
        <path id="path830" d="M44.521,49.373C50.109,29.864 47.741,19.731 47.741,19.731" style="fill:none;fill-rule:nonzero;stroke:black;stroke-width:0.75px;"/>
        <path id="path828-1" d="M50.075,28.129C51.098,40.402 54.785,48.338 54.785,48.338" style="fill:none;fill-rule:nonzero;stroke:black;stroke-width:0.75px;"/>
        <path id="path828-1-6" d="M65.042,46.945C64.02,34.672 60.333,26.736 60.333,26.736" style="fill:none;fill-rule:nonzero;stroke:black;stroke-width:0.75px;"/>
        <path id="path830-6" d="M69.021,48.559C63.434,29.05 65.802,18.917 65.802,18.917" style="fill:none;fill-rule:nonzero;stroke:black;stroke-width:0.75px;"/>
    </g>
</svg>
