<?xml version="1.0" encoding="UTF-8" standalone="no"?>
<!DOCTYPE svg PUBLIC "-//W3C//DTD SVG 1.1//EN" "http://www.w3.org/Graphics/SVG/1.1/DTD/svg11.dtd">
<svg width="100%" height="100%" viewBox="0 0 84 97" version="1.1" xmlns="http://www.w3.org/2000/svg" xmlns:xlink="http://www.w3.org/1999/xlink" xml:space="preserve" xmlns:serif="http://www.serif.com/" style="fill-rule:evenodd;clip-rule:evenodd;">
    <g id="Re-ink" transform="matrix(1,0,0,1,3.78547,0.55964)">
        <path id="path2567" d="M-1.662,72.921C14.964,51.595 22.307,3.585 24.463,3.364C33.407,2.449 56.999,4.204 70.357,0.868C75.623,-0.447 72.545,45.854 71.748,70.486C71.456,79.53 42.504,81.325 44.549,72.509C47.121,61.414 47.489,37.426 47.489,37.426C47.489,37.426 32.541,57.906 27.979,74.804C26.819,79.101 -7.846,80.853 -1.662,72.921Z" style="fill:rgb(0,51,102);fill-rule:nonzero;stroke:black;stroke-width:2.83px;"/>
        <path id="path2616" d="M18.906,29.424C20.48,30.405 18.779,33.492 19.658,34.905C20.749,36.659 25.767,34.949 26.788,36.59C31.93,44.854 18.845,45.167 14.669,42.752" style="fill:rgb(204,204,204);fill-rule:nonzero;"/>
        <path id="path2614" d="M41.642,42.972C38.066,44.929 34.683,42.295 31.176,42.832C28.305,43.272 30.94,53.534 36.104,50.24" style="fill:rgb(204,204,204);fill-rule:nonzero;"/>
        <path id="path2571" d="M47.503,37.223C47.503,37.223 50.975,31.5 51.496,26.335C52.017,21.171 50.87,6.651 50.87,6.651" style="fill:none;fill-rule:nonzero;stroke:black;stroke-width:2.27px;"/>
        <path id="path2573" d="M51.561,24.992L55.018,6.658" style="fill:none;fill-rule:nonzero;stroke:black;stroke-width:2.27px;"/>
        <path id="path2612" d="M23.168,21.22C19.896,38.728 50.562,39.526 39.428,23.982C37.373,21.113 35.873,18.985 32.627,18.119" style="fill:rgb(204,204,204);fill-rule:nonzero;"/>
        <path id="path2622" d="M12.345,47.392C17.748,46.58 16.622,50.31 19.401,53.601C20.805,55.265 24.103,54.558 25.256,55.729C25.593,56.071 25.433,58.581 25.231,59.043C21.862,66.743 13.152,61.118 8.29,57.589" style="fill:rgb(204,204,204);fill-rule:nonzero;"/>
        <path id="path2569" d="M19.55,20.819C19.55,20.819 29.267,21.122 31.824,18.253C34.382,15.384 33.088,7.413 33.088,7.413L24.098,7.18L19.55,20.819Z" style="fill:rgb(51,51,51);fill-rule:nonzero;stroke:black;stroke-width:1.42px;"/>
        <path id="path2579" d="M24.098,7.18L50.721,7.255L71.636,5.075" style="fill:none;fill-rule:nonzero;stroke:black;stroke-width:1.42px;"/>
        <path id="path2598" d="M45.057,27.221C47.968,24.828 53.463,23.172 57.002,25.202" style="fill:none;fill-rule:nonzero;stroke:black;stroke-width:0.85px;"/>
        <path id="path2600" d="M47.762,29.546C44.089,30.911 41.013,33.206 37.615,34.886" style="fill:none;fill-rule:nonzero;stroke:black;stroke-width:0.85px;"/>
        <path id="path2602" d="M54.522,27.251C54.654,30.868 56.325,34.498 57.184,37.824" style="fill:none;fill-rule:nonzero;stroke:black;stroke-width:0.85px;"/>
        <path id="path2610" d="M52.458,33.969C52.962,35.072 52.707,36.417 52.64,37.677" style="fill:none;fill-rule:nonzero;stroke:black;stroke-width:0.85px;"/>
        <path id="path2618" d="M71.861,15.086C70.142,14.926 66.288,15.11 65.404,17.019C63.896,20.275 66.296,22.251 67.366,24.71C69.89,30.51 58.333,40.049 71.672,40.018" style="fill:rgb(204,204,204);fill-rule:nonzero;"/>
        <path id="path2620" d="M48.563,46.565C52.2,46.201 55.352,46.027 58.154,48.118C59.621,49.214 66.25,51.916 67.957,51.011C69.012,50.452 70.942,47.794 70.91,48.987C70.568,61.851 72.809,57.084 56.995,53.842C53.905,53.208 49.445,57.527 48.404,54.902C48.404,54.902 47.935,49.272 48.563,46.565L48.563,46.565Z" style="fill:rgb(204,204,204);fill-rule:nonzero;"/>
        <path id="path2630" d="M5.247,65.058C19.854,71.595 5.994,79.898 0.224,73.116" style="fill:rgb(204,204,204);fill-rule:nonzero;"/>
        <path id="path2624" d="M0.326,72.638C7.274,73.785 12.92,73.195 19.256,71.559" style="fill:none;fill-rule:nonzero;stroke:black;stroke-width:0.85px;"/>
        <path id="path2632" d="M70.266,70.006C56.179,61.261 55.609,65.928 53.219,76.686C59.684,78.01 69.256,75.88 70.266,70.006Z" style="fill:rgb(204,204,204);fill-rule:nonzero;"/>
        <path id="path2626" d="M48.707,72.368C55.516,73.649 62.013,75.276 67.931,71.115" style="fill:none;fill-rule:nonzero;stroke:black;stroke-width:0.85px;"/>
        <g id="g2657" transform="matrix(0.998587,0.0531475,-0.0531475,0.998587,-2.56451,-4.90154)">
            <path id="path2604" d="M53.856,9.307C53.72,13.714 52.262,17.537 49.718,20.929" style="fill:none;fill-rule:nonzero;stroke:black;stroke-width:0.75px;"/>
            <ellipse id="path2634" cx="49.529" cy="20.881" rx="0.71" ry="0.805"/>
        </g>
        <g id="g2653" transform="matrix(0.998587,0.0531475,-0.0531475,0.998587,-2.56451,-4.90154)">
            <path id="path2606" d="M58.115,8.483C59.708,11.672 61.187,15.3 63.356,18.088" style="fill:none;fill-rule:nonzero;stroke:black;stroke-width:0.75px;"/>
            <ellipse id="path2634-8" cx="63.403" cy="18.088" rx="0.71" ry="0.805"/>
        </g>
    </g>
</svg>
