<?xml version="1.0" encoding="UTF-8" standalone="no"?>
<svg
   xmlns:dc="http://purl.org/dc/elements/1.1/"
   xmlns:cc="http://creativecommons.org/ns#"
   xmlns:rdf="http://www.w3.org/1999/02/22-rdf-syntax-ns#"
   xmlns:svg="http://www.w3.org/2000/svg"
   xmlns="http://www.w3.org/2000/svg"
   xmlns:sodipodi="http://sodipodi.sourceforge.net/DTD/sodipodi-0.dtd"
   xmlns:inkscape="http://www.inkscape.org/namespaces/inkscape"
   sodipodi:docname="blue_camo_jeans.svg"
   inkscape:version="1.0 (4035a4fb49, 2020-05-01)"
   id="svg2007"
   version="1.1"
   viewBox="0 0 29.433051 33.900688"
   height="33.900688mm"
   width="29.43305mm">
  <defs
     id="defs2001" />
  <sodipodi:namedview
     inkscape:document-rotation="0"
     inkscape:lockguides="true"
     inkscape:window-maximized="1"
     inkscape:window-y="-9"
     inkscape:window-x="-9"
     inkscape:window-height="1001"
     inkscape:window-width="1920"
     showguides="false"
     fit-margin-bottom="0"
     fit-margin-right="0"
     fit-margin-left="0"
     fit-margin-top="0"
     inkscape:pagecheckerboard="true"
     showgrid="false"
     inkscape:current-layer="layer2"
     inkscape:document-units="mm"
     inkscape:cy="89.706083"
     inkscape:cx="44.629081"
     inkscape:zoom="11.2"
     inkscape:pageshadow="2"
     inkscape:pageopacity="0.0"
     borderopacity="1.0"
     bordercolor="#666666"
     pagecolor="#ffffff"
     id="base" />
  <metadata
     id="metadata2004">
    <rdf:RDF>
      <cc:Work
         rdf:about="">
        <dc:format>image/svg+xml</dc:format>
        <dc:type
           rdf:resource="http://purl.org/dc/dcmitype/StillImage" />
        <dc:title></dc:title>
      </cc:Work>
    </rdf:RDF>
  </metadata>
  <g
     sodipodi:insensitive="true"
     transform="translate(1.3354295,0.19742842)"
     inkscape:label="legs"
     id="layer1"
     inkscape:groupmode="layer">
    <path
       style="opacity:1;fill:#ffffff;fill-opacity:1;stroke:none;stroke-width:1.2;stroke-linecap:butt;stroke-linejoin:miter;stroke-miterlimit:4;stroke-dasharray:none;stroke-opacity:1"
       d="m 24.890736,0.662101 c 0.123737,9.510183 1.595726,13.002971 0.897695,23.699107 5.989076,7.622458 -5.466143,9.257208 -8.45722,1.795388 0,-4.946536 0.06144,-10.808711 0.04725,-15.73326 -3.051778,4.577667 -6.271659,11.54185 -7.8430062,17.103424 6.0667862,9.10018 -9.274496,5.51039 -10.15811,0.188989 C 4.4667089,21.451916 8.8344109,8.602317 9.4448298,0.761711 15.619398,0.577389 18.18774,0.706101 24.890736,0.662101 Z"
       id="path831-5"
       inkscape:connector-curvature="0"
       sodipodi:nodetypes="cccccccc" />
    <path
       style="fill:#0276b1;fill-opacity:1;stroke:none;stroke-width:0.264583px;stroke-linecap:butt;stroke-linejoin:miter;stroke-opacity:1"
       d="m 8.8834461,1.351909 c -0.52762,2.533268 6.4466289,6.5124 8.9202379,7.984749 4.741466,-1.55146 7.056167,-4.214834 7.606771,-7.654018 0.550603,-3.439184 0.377976,22.678568 0.377976,22.678568 0,0 2.678821,4.233217 0.566965,5.764141 -2.111855,1.530925 -7.638158,-0.210531 -9.024185,-3.968753 C 15.945184,22.398375 17.803684,9.336658 17.803684,9.336658 L 9.535455,27.526757 c 0,0 2.807966,4.177086 0.330729,5.764141 C 7.3889471,34.877957 -1.9371501,29.547573 -0.622655,27.715749 2.6393606,23.169948 7.6455742,9.360282 7.6455742,9.360282 c 0,0 1.7654918,-10.541641 1.2378719,-8.008373 z"
       id="path857"
       inkscape:connector-curvature="0"
       sodipodi:nodetypes="zczczzcczscz" />
    <path
       style="display:inline;opacity:1;fill:none;fill-opacity:1;stroke:#000000;stroke-width:1.2;stroke-linecap:butt;stroke-linejoin:miter;stroke-miterlimit:4;stroke-dasharray:none;stroke-opacity:1"
       d="m 24.890736,0.662101 c -0.05112,9.15583 1.595726,13.00297 0.897695,23.699107 5.989074,7.622458 -5.466143,9.257205 -8.45722,1.795387 0,-4.946535 0.06144,-10.808709 0.04725,-15.733259 C 14.326683,15.001004 11.106802,21.965185 9.5354548,27.526757 15.602241,36.62694 0.2609592,33.03715 -0.6226553,27.715747 4.4667091,21.451914 9.330505,7.680999 9.44483,0.761711"
       id="path831"
       inkscape:connector-curvature="0"
       sodipodi:nodetypes="ccccccc" />
  </g>
  <g
     transform="translate(1.3354295,0.19742842)"
     style="display:inline"
     inkscape:label="Re-ink"
     id="layer2"
     inkscape:groupmode="layer">
    <path
       sodipodi:nodetypes="ssssscss"
       inkscape:connector-curvature="0"
       id="path2567"
       d="M -0.5863583,25.724853 C 5.278864,18.201395 7.8693518,1.2645951 8.6299896,1.1867485 11.785348,0.86381764 20.107907,1.4830208 24.820359,0.3061408 c 1.857679,-0.46393371 0.771809,15.8701792 0.490795,24.5596352 -0.103181,3.190654 -10.316649,3.823866 -9.595386,0.713627 0.907598,-3.913753 1.037215,-12.376365 1.037215,-12.376365 0,0 -5.273276,7.224881 -6.8824952,13.18617 -0.4091834,1.515803 -12.6383874,2.133958 -10.4568461,-0.664355 z"
       style="fill:#003366;fill-opacity:1;stroke:#000000;stroke-width:0.997624;stroke-linecap:butt;stroke-linejoin:miter;stroke-miterlimit:4;stroke-dasharray:none;stroke-opacity:1" />
    <path
       inkscape:transform-center-y="-0.25892104"
       inkscape:transform-center-x="-1.671289"
       inkscape:connector-curvature="0"
       id="path2616"
       d="m 6.6696771,10.380127 c 0.555092,0.34611 -0.045033,1.435245 0.2650641,1.933682 0.3849519,0.618756 2.1553051,0.01525 2.5155576,0.594295 1.8137462,2.915341 -2.8020927,3.025838 -4.2752348,2.173941"
       style="fill:#cccccc;fill-opacity:1;stroke:none;stroke-width:0.264583px;stroke-linecap:butt;stroke-linejoin:miter;stroke-opacity:1" />
    <path
       inkscape:connector-curvature="0"
       id="path2614"
       d="m 14.690229,15.159541 c -1.261278,0.690392 -2.454935,-0.238953 -3.691994,-0.04944 -1.0128301,0.155164 -0.0832,3.775604 1.738496,2.61356"
       style="fill:#cccccc;fill-opacity:1;stroke:none;stroke-width:0.162872px;stroke-linecap:butt;stroke-linejoin:miter;stroke-opacity:1" />
    <path
       sodipodi:nodetypes="czc"
       inkscape:connector-curvature="0"
       id="path2571"
       d="m 16.757856,13.131431 c 0,0 1.224964,-2.018981 1.408762,-3.8408618 C 18.350416,7.4686881 17.945843,2.346381 17.945843,2.346381"
       style="fill:none;stroke:#000000;stroke-width:0.8;stroke-linecap:butt;stroke-linejoin:miter;stroke-miterlimit:4;stroke-dasharray:none;stroke-opacity:1" />
    <path
       sodipodi:nodetypes="cc"
       inkscape:connector-curvature="0"
       id="path2573"
       d="M 18.189728,8.8164889 19.409099,2.3487545"
       style="fill:none;stroke:#000000;stroke-width:0.8;stroke-linecap:butt;stroke-linejoin:miter;stroke-miterlimit:4;stroke-dasharray:none;stroke-opacity:1" />
    <path
       inkscape:connector-curvature="0"
       id="path2612"
       d="M 8.1732589,7.4858313 C 7.0190077,13.66248 17.837118,13.943902 13.909282,8.4602377 13.184383,7.4482052 12.655046,6.6974885 11.510155,6.3921031"
       style="fill:#cccccc;fill-opacity:1;stroke:none;stroke-width:0.264583px;stroke-linecap:butt;stroke-linejoin:miter;stroke-opacity:1" />
    <path
       inkscape:transform-center-y="0.77423231"
       inkscape:transform-center-x="-2.2448198"
       sodipodi:nodetypes="csscc"
       inkscape:connector-curvature="0"
       id="path2622"
       d="m 4.3549494,16.7188 c 1.9063217,-0.2863 1.5090357,1.029299 2.489173,2.190433 0.4953766,0.586856 1.6589461,0.337648 2.0657263,0.750621 0.1188447,0.120654 0.062478,1.006279 -0.00884,1.16927 -1.1885021,2.716303 -4.2612352,0.731942 -5.9764509,-0.512891"
       style="fill:#cccccc;fill-opacity:1;stroke:none;stroke-width:0.264583px;stroke-linecap:butt;stroke-linejoin:miter;stroke-opacity:1" />
    <path
       sodipodi:nodetypes="czccc"
       inkscape:connector-curvature="0"
       id="path2569"
       d="m 6.8968071,7.3444741 c 0,0 3.4278519,0.107044 4.3300779,-0.9050751 0.902227,-1.0121195 0.445846,-3.8242353 0.445846,-3.8242353 l -3.1713919,-0.08228 z"
       style="fill:#333333;fill-opacity:1;stroke:#000000;stroke-width:0.5;stroke-linecap:butt;stroke-linejoin:miter;stroke-miterlimit:4;stroke-dasharray:none;stroke-opacity:1" />
    <path
       inkscape:connector-curvature="0"
       id="path2579"
       d="m 8.5013391,2.5328836 9.3917649,0.02652 7.378419,-0.7689"
       style="fill:none;stroke:#000000;stroke-width:0.5;stroke-linecap:butt;stroke-linejoin:miter;stroke-miterlimit:4;stroke-dasharray:none;stroke-opacity:1" />
    <path
       inkscape:connector-curvature="0"
       id="path2598"
       d="M 15.895222,9.6030701 C 16.921943,8.7586679 18.860543,8.1746798 20.10919,8.8905817"
       style="fill:none;stroke:#000000;stroke-width:0.3;stroke-linecap:butt;stroke-linejoin:miter;stroke-miterlimit:4;stroke-dasharray:none;stroke-opacity:1" />
    <path
       inkscape:connector-curvature="0"
       id="path2600"
       d="m 16.849294,10.423336 c -1.295761,0.481249 -2.380667,1.29087 -3.579679,1.883749"
       style="fill:none;stroke:#000000;stroke-width:0.3;stroke-linecap:butt;stroke-linejoin:miter;stroke-miterlimit:4;stroke-dasharray:none;stroke-opacity:1" />
    <path
       inkscape:connector-curvature="0"
       id="path2602"
       d="m 19.234314,9.6135052 c 0.04632,1.2760788 0.635951,2.5566518 0.938976,3.7301318"
       style="fill:none;stroke:#000000;stroke-width:0.3;stroke-linecap:butt;stroke-linejoin:miter;stroke-miterlimit:4;stroke-dasharray:none;stroke-opacity:1" />
    <path
       inkscape:connector-curvature="0"
       id="path2610"
       d="m 18.505965,11.983571 c 0.177753,0.389095 0.08786,0.863524 0.0642,1.3082"
       style="fill:none;stroke:#000000;stroke-width:0.3;stroke-linecap:butt;stroke-linejoin:miter;stroke-miterlimit:4;stroke-dasharray:none;stroke-opacity:1" />
    <path
       sodipodi:nodetypes="cssc"
       inkscape:connector-curvature="0"
       id="path2618"
       d="m 25.350965,5.3221259 c -0.606287,-0.05665 -1.966005,0.00833 -2.277834,0.681711 -0.531888,1.1485861 0.31452,1.8459511 0.69199,2.7133075 0.890438,2.0460616 -3.186634,5.4113026 1.5192,5.4003566"
       style="fill:#cccccc;fill-opacity:1;stroke:none;stroke-width:0.264583px;stroke-linecap:butt;stroke-linejoin:miter;stroke-opacity:1" />
    <path
       sodipodi:nodetypes="cscsssc"
       inkscape:connector-curvature="0"
       id="path2620"
       d="m 17.13197,16.427 c 1.283095,-0.128434 2.395013,-0.189572 3.383339,0.548086 0.517712,0.386405 2.856293,1.339592 3.458565,1.020474 0.371983,-0.197098 1.052873,-1.134871 1.041683,-0.714047 -0.12067,4.538159 0.669848,2.856431 -4.908812,1.712643 -1.090253,-0.223534 -2.663764,1.300075 -3.030942,0.37398 0,0 -0.165319,-1.985921 0.05617,-2.941136 z"
       style="fill:#cccccc;fill-opacity:1;stroke:none;stroke-width:0.264583px;stroke-linecap:butt;stroke-linejoin:miter;stroke-opacity:1" />
    <path
       sodipodi:nodetypes="cc"
       inkscape:connector-curvature="0"
       id="path2630"
       d="m 1.8511145,22.951154 c 5.152952,2.306146 0.2634372,5.23501 -1.77201905,2.842573"
       style="fill:#cccccc;fill-opacity:1;stroke:none;stroke-width:0.264583px;stroke-linecap:butt;stroke-linejoin:miter;stroke-opacity:1" />
    <path
       inkscape:connector-curvature="0"
       id="path2624"
       d="M 0.11517487,25.625025 C 2.5661966,26.029741 4.5580555,25.821581 6.793171,25.244415"
       style="fill:none;stroke:#000000;stroke-width:0.3;stroke-linecap:butt;stroke-linejoin:miter;stroke-miterlimit:4;stroke-dasharray:none;stroke-opacity:1" />
    <path
       sodipodi:nodetypes="ccc"
       inkscape:connector-curvature="0"
       id="path2632"
       d="m 24.788185,24.696638 c -4.969457,-3.085242 -5.170693,-1.438702 -6.013668,2.356414 2.280802,0.46697 5.657381,-0.284347 6.013668,-2.356414 z"
       style="fill:#cccccc;fill-opacity:1;stroke:none;stroke-width:0.264583px;stroke-linecap:butt;stroke-linejoin:miter;stroke-opacity:1" />
    <path
       inkscape:connector-curvature="0"
       id="path2626"
       d="m 17.182794,25.52973 c 2.40185,0.452026 4.693937,1.025831 6.781632,-0.442007"
       style="fill:none;stroke:#000000;stroke-width:0.3;stroke-linecap:butt;stroke-linejoin:miter;stroke-miterlimit:4;stroke-dasharray:none;stroke-opacity:1" />
    <g
       transform="rotate(3.0465628,32.059698,-17.875049)"
       id="g2657">
      <path
         style="fill:none;stroke:#000000;stroke-width:0.264583px;stroke-linecap:butt;stroke-linejoin:miter;stroke-opacity:1"
         d="m 18.999166,3.2834423 c -0.04805,1.5545165 -0.562287,2.9032809 -1.459603,4.0997026"
         id="path2604"
         inkscape:connector-curvature="0" />
      <ellipse
         style="opacity:1;fill:#000000;fill-opacity:1;stroke:none;stroke-width:0.313172;stroke-miterlimit:4;stroke-dasharray:none;stroke-opacity:1"
         id="path2634"
         cx="17.472746"
         cy="7.3664403"
         rx="0.25056517"
         ry="0.28397387" />
    </g>
    <g
       transform="rotate(3.0465628,32.059698,-17.875049)"
       id="g2653">
      <path
         style="fill:none;stroke:#000000;stroke-width:0.264583px;stroke-linecap:butt;stroke-linejoin:miter;stroke-opacity:1"
         d="m 20.501823,2.9925195 c 0.561916,1.1250721 1.083725,2.4049651 1.848591,3.3883647"
         id="path2606"
         inkscape:connector-curvature="0" />
      <ellipse
         style="opacity:1;fill:#000000;fill-opacity:1;stroke:none;stroke-width:0.313172;stroke-miterlimit:4;stroke-dasharray:none;stroke-opacity:1"
         id="path2634-8"
         cx="22.367119"
         cy="6.3808842"
         rx="0.25056517"
         ry="0.28397387" />
    </g>
  </g>
</svg>
