<?xml version="1.0" encoding="UTF-8" standalone="no"?>
<!-- Created with Inkscape (http://www.inkscape.org/) -->

<svg
   xmlns:dc="http://purl.org/dc/elements/1.1/"
   xmlns:cc="http://creativecommons.org/ns#"
   xmlns:rdf="http://www.w3.org/1999/02/22-rdf-syntax-ns#"
   xmlns:svg="http://www.w3.org/2000/svg"
   xmlns="http://www.w3.org/2000/svg"
   xmlns:sodipodi="http://sodipodi.sourceforge.net/DTD/sodipodi-0.dtd"
   xmlns:inkscape="http://www.inkscape.org/namespaces/inkscape"
   version="1.1"
   id="svg815"
   width="106"
   height="112"
   viewBox="0 0 106 112"
   sodipodi:docname="dj_shorts.svg"
   inkscape:version="0.92.3 (2405546, 2018-03-11)">
  <metadata
     id="metadata821">
    <rdf:RDF>
      <cc:Work
         rdf:about="">
        <dc:format>image/svg+xml</dc:format>
        <dc:type
           rdf:resource="http://purl.org/dc/dcmitype/StillImage" />
        <dc:title></dc:title>
      </cc:Work>
    </rdf:RDF>
  </metadata>
  <defs
     id="defs819" />
  <sodipodi:namedview
     pagecolor="#ffffff"
     bordercolor="#666666"
     borderopacity="1"
     objecttolerance="10"
     gridtolerance="10"
     guidetolerance="10"
     inkscape:pageopacity="0"
     inkscape:pageshadow="2"
     inkscape:window-width="1920"
     inkscape:window-height="1001"
     id="namedview817"
     showgrid="false"
     inkscape:zoom="10.202541"
     inkscape:cx="63.855679"
     inkscape:cy="78.557618"
     inkscape:window-x="-9"
     inkscape:window-y="-9"
     inkscape:window-maximized="1"
     inkscape:current-layer="layer3"
     inkscape:pagecheckerboard="true"
     fit-margin-top="0"
     fit-margin-left="0"
     fit-margin-right="0"
     fit-margin-bottom="0" />
  <g
     inkscape:groupmode="layer"
     id="layer1"
     inkscape:label="Original"
     transform="translate(0.60396188,-1.5247525)"
     style="display:inline"
     sodipodi:insensitive="true" />
  <g
     inkscape:groupmode="layer"
     id="layer3"
     inkscape:label="Color">
    <path
       style="opacity:1;fill:#0000ff;fill-opacity:1;stroke:none;stroke-width:2.64566922;stroke-linecap:butt;stroke-linejoin:miter;stroke-miterlimit:4;stroke-dasharray:none;stroke-opacity:1"
       d="M 34.4447,14.931388 C 29.720644,11.370567 13.57583,72.83923 11.485249,83.86308 c -0.796543,4.20025 37.728541,13.054932 42.989999,0.275532 2.572162,-6.24744 13.861385,-39.089108 13.861385,-39.089108 0,0 -10.724331,38.354248 -5.128712,43.663368 4.527582,4.29576 34.983259,-2.41573 36.732673,-9.42574 C 102.66076,68.387252 96.65377,16.078352 95.643564,8.1782169 95.385101,6.1569519 92.505753,3.7763701 91.200954,5.3415589 81.345543,17.163745 43.301389,21.607237 34.4447,14.931388 Z"
       id="path842-9"
       inkscape:connector-curvature="0"
       sodipodi:nodetypes="ssscsssss" />
    <path
       style="fill:#ffffff;stroke:none;stroke-width:1px;stroke-linecap:butt;stroke-linejoin:miter;stroke-opacity:1"
       d="m 28.835569,26.074735 c 7.560103,23.666394 37.20214,24.101791 37.20214,24.101791 l -2.703816,11.830238 c 0,0 -37.056397,-7.153127 -38.476332,-23.905761 -0.356605,-4.207284 1.637558,-19.352888 3.978008,-12.026268 z"
       id="path854"
       inkscape:connector-curvature="0"
       sodipodi:nodetypes="sccss" />
    <path
       style="fill:#ffffff;stroke:none;stroke-width:1px;stroke-linecap:butt;stroke-linejoin:miter;stroke-opacity:1"
       d="m 24.254346,44.833977 c 7.560103,23.666394 36.516036,20.45146 36.516036,20.45146 l -2.84243,11.55301 c 0,0 -32.610284,-6.935031 -37.790228,-20.25543 -1.504021,-3.867641 1.776172,-19.07566 4.116622,-11.74904 z"
       id="path854-2"
       inkscape:connector-curvature="0"
       sodipodi:nodetypes="sccas" />
    <path
       style="fill:#ffffff;fill-opacity:1;stroke:none;stroke-width:1px;stroke-linecap:butt;stroke-linejoin:miter;stroke-opacity:1"
       d="m 67.50495,49.623762 c 0,0 26.680952,-6.998162 31.188119,-15.663366 1.949711,-3.748386 0.587416,4.47474 0.831683,9.148514 0.318216,6.08876 -34.099009,17.603961 -34.099009,17.603961 z"
       id="path938"
       inkscape:connector-curvature="0"
       sodipodi:nodetypes="csscc" />
    <path
       style="fill:#ffffff;fill-opacity:1;stroke:none;stroke-width:1.06605935px;stroke-linecap:butt;stroke-linejoin:miter;stroke-opacity:1"
       d="m 64.332489,67.435529 c 0,0 29.511212,-7.404035 35.44475,-15.663366 2.468641,-3.436279 -0.19874,6.097672 1.001951,10.257425 1.94564,6.740614 -38.809683,14.554456 -38.809683,14.554456 z"
       id="path938-9"
       inkscape:connector-curvature="0"
       sodipodi:nodetypes="csscc" />
  </g>
  <g
     inkscape:groupmode="layer"
     id="layer2"
     inkscape:label="Re-ink"
     style="display:inline">
    <path
       style="fill:none;stroke:#000000;stroke-width:2.5999999;stroke-linecap:butt;stroke-linejoin:miter;stroke-miterlimit:4;stroke-dasharray:none;stroke-opacity:1"
       d="M 34.052641,14.049255 C 30.426972,9.3747839 13.57583,72.349155 11.485249,83.373002 10.688706,87.573255 49.21379,96.918009 54.475248,84.138614 57.04741,77.891169 68.336633,45.049505 68.336633,45.049505 c 0,0 -10.724331,38.354249 -5.128712,43.663366 4.527582,4.295765 34.983259,-2.415733 36.732673,-9.425742 C 102.66076,68.387255 96.66427,16.077003 95.643564,8.1782178 95.091057,3.9026122 91.285705,4.1044003 85.418081,9.5561956 79.550457,15.007991 40.066901,21.803268 34.052641,14.049255 Z"
       id="path842"
       inkscape:connector-curvature="0"
       sodipodi:nodetypes="ssscssszs" />
    <path
       style="fill:none;stroke:#000000;stroke-width:2.5999999;stroke-linecap:butt;stroke-linejoin:miter;stroke-miterlimit:4;stroke-dasharray:none;stroke-opacity:1"
       d="m 67.504951,47.128713 c 0,0 3.999326,-8.830457 4.158415,-15.386139 0.159089,-6.555682 -2.495049,-17.188119 -2.495049,-17.188119"
       id="path957"
       inkscape:connector-curvature="0"
       sodipodi:nodetypes="czc" />
    <ellipse
       style="opacity:1;fill:#ffff00;fill-opacity:1;stroke:#000000;stroke-width:1.51181102;stroke-miterlimit:4;stroke-dasharray:none;stroke-opacity:1"
       id="path852"
       cx="66.488861"
       cy="21.361532"
       rx="7.6451545"
       ry="5.6358509" />
    <path
       style="fill:#ff0000;fill-opacity:1;stroke:#000000;stroke-width:1.51181102;stroke-linecap:butt;stroke-linejoin:miter;stroke-miterlimit:4;stroke-dasharray:none;stroke-opacity:1"
       d="M 27.235088,27.527733 C 18.253381,26.665769 5.4320913,49.597184 18.614856,53.99144 c 12.991966,4.330655 43.94592,-17.067986 47.740585,-22.315637 -1.835821,-2.596141 -5.694488,-6.6466 -7.762376,-9.009901 -3.875759,2.600135 -28.365736,21.34457 -34.104781,18.475047 -2.028226,-1.014113 1.80693,-11.921442 2.746804,-13.613216 z"
       id="path844"
       inkscape:connector-curvature="0"
       sodipodi:nodetypes="csccsc" />
    <path
       style="fill:#ff0000;fill-opacity:1;stroke:#000000;stroke-width:1.5186137;stroke-linecap:butt;stroke-linejoin:miter;stroke-miterlimit:4;stroke-dasharray:none;stroke-opacity:1"
       d="m 58.707896,21.043134 c -6.86408,14.982581 55.765564,33.20927 45.638714,-5.750085 -1.54752,-7.1735659 -7.430997,-8.3143675 -9.836898,-9.3740972 -0.637929,4.6451152 3.216803,11.5036772 2.634997,17.5760972 -0.581806,6.07242 -22.848135,10.178732 -23.09001,-1.41231 -0.331483,3.253131 -6.569759,5.839391 -9.542442,4.366336 -1.904124,-0.943552 -4.487512,-3.937729 -5.804361,-5.405941 z"
       id="path850"
       inkscape:connector-curvature="0"
       sodipodi:nodetypes="ccczcsc" />
    <path
       style="fill:#ff0000;fill-opacity:1;stroke:#000000;stroke-width:0.5;stroke-linecap:butt;stroke-linejoin:miter;stroke-miterlimit:4;stroke-dasharray:none;stroke-opacity:1"
       d="m 45.917706,17.152095 c -2.80724,-0.03648 -14.452359,2.531073 -14.452359,2.531073 l -1.247525,2.633664 c 0,0 15.001373,-3.95413 18.749389,-4.333054 3.748016,-0.378924 -0.242265,-0.795202 -3.049505,-0.831683 z"
       id="path959"
       inkscape:connector-curvature="0"
       sodipodi:nodetypes="zcczz" />
    <path
       style="fill:#ff0000;fill-opacity:1;stroke:#000000;stroke-width:0.5;stroke-linecap:butt;stroke-linejoin:miter;stroke-miterlimit:4;stroke-dasharray:none;stroke-opacity:1"
       d="m 84.772232,11.287132 c 2.80724,-0.03648 11.021841,5.863576 11.021841,5.863576 l 1.247525,2.633664 c 0,0 -11.570855,-7.286633 -15.318871,-7.665557 -3.748016,-0.378925 0.242265,-0.795203 3.049505,-0.831683 z"
       id="path959-8"
       inkscape:connector-curvature="0"
       sodipodi:nodetypes="zcczz" />
  </g>
</svg>
