<?xml version="1.0" encoding="UTF-8" standalone="no"?>
<!DOCTYPE svg PUBLIC "-//W3C//DTD SVG 1.1//EN" "http://www.w3.org/Graphics/SVG/1.1/DTD/svg11.dtd">
<svg width="100%" height="100%" viewBox="0 0 114 126" version="1.1" xmlns="http://www.w3.org/2000/svg" xmlns:xlink="http://www.w3.org/1999/xlink" xml:space="preserve" xmlns:serif="http://www.serif.com/" style="fill-rule:evenodd;clip-rule:evenodd;">
    <g id="Color" transform="matrix(1,0,0,1,7.05509,-3.89859)">
        <path id="path842-9" d="M32.974,11.893C27.892,8.865 10.439,71.859 8.349,82.883C7.552,87.083 49.214,96.918 54.475,84.139C57.047,77.891 68.337,45.05 68.337,45.05C68.337,45.05 57.612,83.404 63.208,88.713C67.736,93.009 98.191,86.297 99.941,79.287C102.661,68.387 96.654,16.078 95.644,8.178C95.385,6.157 92.506,3.776 91.201,5.342C81.346,17.164 40.067,16.118 32.974,11.893Z" style="fill:rgb(0,0,255);fill-rule:nonzero;"/>
        <path id="path854" d="M28.836,26.075C36.396,49.741 66.038,50.177 66.038,50.177L63.334,62.007C63.334,62.007 26.277,54.854 24.858,38.101C24.501,33.894 26.495,18.748 28.836,26.075Z" style="fill:white;fill-rule:nonzero;"/>
        <path id="path854-2" d="M24.254,44.834C31.814,68.5 60.77,65.285 60.77,65.285L57.928,76.838C57.928,76.838 25.318,69.903 20.138,56.583C18.634,52.715 21.914,37.507 24.254,44.834Z" style="fill:white;fill-rule:nonzero;"/>
        <path id="path938" d="M67.505,49.624C67.505,49.624 94.186,42.626 98.693,33.96C100.643,30.212 99.28,38.435 99.525,43.109C99.843,49.198 65.426,60.713 65.426,60.713L67.505,49.624Z" style="fill:white;fill-rule:nonzero;"/>
        <path id="path938-9" d="M64.332,67.436C64.332,67.436 93.844,60.031 99.777,51.772C102.246,48.336 99.578,57.87 100.779,62.03C102.725,68.77 61.97,76.584 61.97,76.584L64.332,67.436Z" style="fill:white;fill-rule:nonzero;"/>
    </g>
    <g id="Re-ink" transform="matrix(1,0,0,1,7.05509,-3.89859)">
        <path id="path842" d="M32.19,12.383C27.815,10.066 10.733,71.761 8.643,82.785C7.846,86.985 49.214,96.918 54.475,84.139C57.047,77.891 68.337,45.05 68.337,45.05C68.337,45.05 57.612,83.404 63.208,88.713C67.736,93.009 98.191,86.297 99.941,79.287C102.661,68.387 96.664,16.077 95.644,8.178C95.091,3.903 91.286,4.104 85.418,9.556C79.55,15.008 40.166,16.606 32.19,12.383Z" style="fill:none;fill-rule:nonzero;stroke:black;stroke-width:3.02px;"/>
        <ellipse id="path852" cx="66.489" cy="21.362" rx="7.645" ry="5.636" style="fill:rgb(255,255,0);stroke:black;stroke-width:1.51px;"/>
        <path id="path1467" d="M45.775,30.657C51.541,40.918 63.886,37.144 68.337,45.05C73.355,35.563 85.084,40.034 87.725,29.48" style="fill:none;fill-rule:nonzero;stroke:black;stroke-width:3.02px;"/>
        <path id="path844" d="M27.235,27.528C18.253,26.666 5.432,49.597 18.615,53.991C31.607,58.322 62.561,36.923 66.355,31.676C64.52,29.08 60.661,25.029 58.593,22.666C54.717,25.266 30.227,44.01 24.488,41.141C22.46,40.127 26.295,29.22 27.235,27.528Z" style="fill:rgb(255,0,0);fill-rule:nonzero;stroke:black;stroke-width:1.51px;"/>
        <path id="path850" d="M58.708,21.043C51.844,36.026 114.473,54.252 104.347,15.293C102.799,8.119 96.916,6.979 94.51,5.919C93.872,10.564 97.727,17.423 97.145,23.495C96.563,29.567 74.297,33.674 74.055,22.083C73.723,25.336 67.485,27.922 64.512,26.449C62.608,25.506 60.025,22.511 58.708,21.043Z" style="fill:rgb(255,0,0);fill-rule:nonzero;stroke:black;stroke-width:1.52px;"/>
        <path id="path959" d="M46.604,15.486C43.797,15.449 28.133,20.271 28.133,20.271L26.885,22.905C26.885,22.905 45.905,16.696 49.653,16.318C53.401,15.939 49.411,15.522 46.604,15.486Z" style="fill:rgb(255,0,0);fill-rule:nonzero;stroke:black;stroke-width:0.5px;"/>
        <path id="path959-8" d="M84.772,11.287C87.579,11.251 95.794,17.151 95.794,17.151L97.042,19.784C97.042,19.784 85.471,12.498 81.723,12.119C77.975,11.74 81.965,11.324 84.772,11.287Z" style="fill:rgb(255,0,0);fill-rule:nonzero;stroke:black;stroke-width:0.5px;"/>
    </g>
</svg>
