<?xml version="1.0" encoding="UTF-8" standalone="no"?>
<svg
   xmlns:dc="http://purl.org/dc/elements/1.1/"
   xmlns:cc="http://creativecommons.org/ns#"
   xmlns:rdf="http://www.w3.org/1999/02/22-rdf-syntax-ns#"
   xmlns:svg="http://www.w3.org/2000/svg"
   xmlns="http://www.w3.org/2000/svg"
   xmlns:sodipodi="http://sodipodi.sourceforge.net/DTD/sodipodi-0.dtd"
   xmlns:inkscape="http://www.inkscape.org/namespaces/inkscape"
   inkscape:version="1.0 (4035a4fb49, 2020-05-01)"
   sodipodi:docname="dj_shorts.svg"
   viewBox="0 0 112.67261 129.13097"
   height="129.13097"
   width="112.67261"
   id="svg815"
   version="1.1">
  <metadata
     id="metadata821">
    <rdf:RDF>
      <cc:Work
         rdf:about="">
        <dc:format>image/svg+xml</dc:format>
        <dc:type
           rdf:resource="http://purl.org/dc/dcmitype/StillImage" />
        <dc:title></dc:title>
      </cc:Work>
    </rdf:RDF>
  </metadata>
  <defs
     id="defs819" />
  <sodipodi:namedview
     inkscape:document-rotation="0"
     fit-margin-bottom="0"
     fit-margin-right="0"
     fit-margin-left="0"
     fit-margin-top="0"
     inkscape:pagecheckerboard="true"
     inkscape:current-layer="layer1"
     inkscape:window-maximized="1"
     inkscape:window-y="-9"
     inkscape:window-x="-9"
     inkscape:cy="23.771797"
     inkscape:cx="70.325068"
     inkscape:zoom="10.202541"
     showgrid="false"
     id="namedview817"
     inkscape:window-height="1001"
     inkscape:window-width="1920"
     inkscape:pageshadow="2"
     inkscape:pageopacity="0"
     guidetolerance="10"
     gridtolerance="10"
     objecttolerance="10"
     borderopacity="1"
     bordercolor="#666666"
     pagecolor="#ffffff" />
  <g
     style="display:inline"
     transform="translate(7.0733513,-5.3428782)"
     inkscape:label="Original"
     id="layer1"
     inkscape:groupmode="layer">
    <g
       transform="matrix(3.7795276,0,0,3.7795276,-7.0733513,0.30754327)"
       id="g3892">
      <g
         style="display:inline"
         transform="translate(-81.705925,-154.45556)"
         id="layer1-7"
         inkscape:label="Layer 1" />
      <g
         transform="translate(-5.1279453,-51.149461)"
         inkscape:label="Color"
         id="layer3-5">
        <path
           sodipodi:nodetypes="cccccccc"
           inkscape:connector-curvature="0"
           id="path831-5"
           d="m 31.277528,52.54814 c 0.123737,9.510183 1.595727,14.061304 0.897694,24.75744 5.989076,7.622458 -5.466142,9.257207 -8.457219,1.795388 0,-4.946536 0.06144,-10.808711 0.04725,-15.73326 -3.051778,4.577667 -6.271659,11.54185 -7.843006,17.103423 6.066786,9.10018 -9.274496,5.51039 -10.15811,0.18899 5.089364,-6.263833 7.053048,-18.83034 9.506101,-26.36384 4.854488,-0.358329 10.773571,-0.405305 16.00729,-1.748141 z"
           style="opacity:1;fill:#ffffff;fill-opacity:1;stroke:none;stroke-width:1.2;stroke-linecap:butt;stroke-linejoin:miter;stroke-miterlimit:4;stroke-dasharray:none;stroke-opacity:1" />
        <path
           sodipodi:nodetypes="zczczzcczscz"
           inkscape:connector-curvature="0"
           id="path857"
           d="m 15.270238,54.296281 c -0.52762,2.533268 6.446629,6.5124 8.920238,7.984749 4.741466,-1.55146 7.056167,-4.214834 7.606771,-7.654018 0.550604,-3.439184 0.377976,22.678568 0.377976,22.678568 0,0 2.67882,4.233216 0.566965,5.76414 -2.111855,1.530924 -7.638158,-0.210531 -9.024185,-3.968752 -1.386027,-3.758221 0.472473,-16.819938 0.472473,-16.819938 l -8.268229,18.1901 c 0,0 2.807966,4.177084 0.330729,5.764141 -2.477237,1.587057 -11.6490399,-3.641913 -10.488839,-5.57515 2.8840394,-4.80566 7.654018,-18.520832 7.654018,-18.520832 0,0 2.379703,-10.376276 1.852083,-7.843008 z"
           style="fill:#0276b1;fill-opacity:1;stroke:none;stroke-width:0.264583px;stroke-linecap:butt;stroke-linejoin:miter;stroke-opacity:1" />
      </g>
      <g
         transform="translate(-5.1279453,-51.149461)"
         style="display:inline"
         inkscape:label="Re-ink"
         id="layer2-1">
        <path
           sodipodi:nodetypes="ccccccc"
           inkscape:connector-curvature="0"
           id="path831"
           d="m 31.277528,52.54814 c 1.05918,9.510183 1.595725,14.061303 0.897695,24.75744 5.989074,7.622458 -5.466143,9.257205 -8.45722,1.795387 0,-4.946535 0.06144,-10.808709 0.04725,-15.733259 -3.051778,4.577668 -6.271659,11.541849 -7.843006,17.103422 6.066786,9.10018 -9.2744956,5.510391 -10.1581101,0.188989 C 10.853501,74.396286 12.817185,61.82978 15.270238,54.296281"
           style="opacity:1;fill:none;fill-opacity:1;stroke:#000000;stroke-width:1.2;stroke-linecap:butt;stroke-linejoin:miter;stroke-miterlimit:4;stroke-dasharray:none;stroke-opacity:1" />
      </g>
    </g>
    <path
       id="path3894"
       d="m 40.660268,12.698439 10.095524,9.899495"
       style="fill:none;stroke:#000000;stroke-width:1px;stroke-linecap:butt;stroke-linejoin:miter;stroke-opacity:1" />
    <path
       id="path3896"
       d="M 82.610602,9.4639512 76.23964,19.167417"
       style="fill:none;stroke:#000000;stroke-width:1px;stroke-linecap:butt;stroke-linejoin:miter;stroke-opacity:1" />
    <path
       sodipodi:nodetypes="ccccc"
       id="path3900"
       d="m 61.359454,10.952431 c 1.695362,2.584202 2.533515,0.427596 4.816188,1.157737 -2.055795,1.154981 -2.441879,2.636708 -4.705474,2.646859 1.778709,0.992537 0.357817,3.842463 1.956894,4.771002 -2.47447,1.154839 -1.926432,-1.412419 -4.431659,-1.653742"
       style="fill:none;stroke:#000000;stroke-width:1px;stroke-linecap:butt;stroke-linejoin:miter;stroke-opacity:1" />
  </g>
  <g
     transform="translate(6.4693894,-3.8181257)"
     sodipodi:insensitive="true"
     inkscape:label="Color"
     id="layer3"
     inkscape:groupmode="layer">
    <path
       sodipodi:nodetypes="ssscsssss"
       inkscape:connector-curvature="0"
       id="path842-9"
       d="M 32.974478,11.892929 C 27.892309,8.8651065 13.57583,72.83923 11.485249,83.86308 c -0.796543,4.20025 37.728541,13.054932 42.989999,0.275532 2.572162,-6.24744 13.861385,-39.089108 13.861385,-39.089108 0,0 -10.724331,38.354248 -5.128712,43.663368 4.527582,4.29576 34.983259,-2.41573 36.732673,-9.42574 C 102.66076,68.387252 96.65377,16.078352 95.643564,8.1782169 95.385101,6.1569519 92.505753,3.7763701 91.200954,5.3415589 81.345543,17.163745 40.066901,16.118408 32.974478,11.892929 Z"
       style="opacity:1;fill:#0000ff;fill-opacity:1;stroke:none;stroke-width:2.64567;stroke-linecap:butt;stroke-linejoin:miter;stroke-miterlimit:4;stroke-dasharray:none;stroke-opacity:1" />
    <path
       sodipodi:nodetypes="sccss"
       inkscape:connector-curvature="0"
       id="path854"
       d="m 28.835569,26.074735 c 7.560103,23.666394 37.20214,24.101791 37.20214,24.101791 l -2.703816,11.830238 c 0,0 -37.056397,-7.153127 -38.476332,-23.905761 -0.356605,-4.207284 1.637558,-19.352888 3.978008,-12.026268 z"
       style="fill:#ffffff;stroke:none;stroke-width:1px;stroke-linecap:butt;stroke-linejoin:miter;stroke-opacity:1" />
    <path
       sodipodi:nodetypes="sccas"
       inkscape:connector-curvature="0"
       id="path854-2"
       d="m 24.254346,44.833977 c 7.560103,23.666394 36.516036,20.45146 36.516036,20.45146 l -2.84243,11.55301 c 0,0 -32.610284,-6.935031 -37.790228,-20.25543 -1.504021,-3.867641 1.776172,-19.07566 4.116622,-11.74904 z"
       style="fill:#ffffff;stroke:none;stroke-width:1px;stroke-linecap:butt;stroke-linejoin:miter;stroke-opacity:1" />
    <path
       sodipodi:nodetypes="csscc"
       inkscape:connector-curvature="0"
       id="path938"
       d="m 67.50495,49.623762 c 0,0 26.680952,-6.998162 31.188119,-15.663366 1.949711,-3.748386 0.587416,4.47474 0.831683,9.148514 0.318216,6.08876 -34.099009,17.603961 -34.099009,17.603961 z"
       style="fill:#ffffff;fill-opacity:1;stroke:none;stroke-width:1px;stroke-linecap:butt;stroke-linejoin:miter;stroke-opacity:1" />
    <path
       sodipodi:nodetypes="csscc"
       inkscape:connector-curvature="0"
       id="path938-9"
       d="m 64.332489,67.435529 c 0,0 29.511212,-7.404035 35.44475,-15.663366 2.468641,-3.436279 -0.19874,6.097672 1.001951,10.257425 1.94564,6.740614 -38.809683,14.554456 -38.809683,14.554456 z"
       style="fill:#ffffff;fill-opacity:1;stroke:none;stroke-width:1.06606px;stroke-linecap:butt;stroke-linejoin:miter;stroke-opacity:1" />
  </g>
  <g
     transform="translate(6.4693894,-3.8181257)"
     sodipodi:insensitive="true"
     style="display:inline"
     inkscape:label="Re-ink"
     id="layer2"
     inkscape:groupmode="layer">
    <path
       sodipodi:nodetypes="ssscssszs"
       inkscape:connector-curvature="0"
       id="path842"
       d="M 32.19036,12.383003 C 27.814906,10.066328 13.57583,72.349155 11.485249,83.373002 10.688706,87.573255 49.21379,96.918009 54.475248,84.138614 57.04741,77.891169 68.336633,45.049505 68.336633,45.049505 c 0,0 -10.724331,38.354249 -5.128712,43.663366 4.527582,4.295765 34.983259,-2.415733 36.732673,-9.425742 C 102.66076,68.387255 96.66427,16.077003 95.643564,8.1782178 95.091057,3.9026122 91.285705,4.1044003 85.418081,9.5561956 79.550457,15.007991 40.166495,16.606136 32.19036,12.383003 Z"
       style="fill:none;stroke:#000000;stroke-width:2.6;stroke-linecap:butt;stroke-linejoin:miter;stroke-miterlimit:4;stroke-dasharray:none;stroke-opacity:1" />
    <path
       sodipodi:nodetypes="czc"
       inkscape:connector-curvature="0"
       id="path957"
       d="m 67.504951,47.128713 c 0,0 3.999326,-8.830457 4.158415,-15.386139 0.159089,-6.555682 -2.495049,-17.188119 -2.495049,-17.188119"
       style="fill:none;stroke:#000000;stroke-width:2.6;stroke-linecap:butt;stroke-linejoin:miter;stroke-miterlimit:4;stroke-dasharray:none;stroke-opacity:1" />
    <ellipse
       ry="5.6358509"
       rx="7.6451545"
       cy="21.361532"
       cx="66.488861"
       id="path852"
       style="opacity:1;fill:#ffff00;fill-opacity:1;stroke:#000000;stroke-width:1.51181;stroke-miterlimit:4;stroke-dasharray:none;stroke-opacity:1" />
    <path
       sodipodi:nodetypes="csccsc"
       inkscape:connector-curvature="0"
       id="path844"
       d="M 27.235088,27.527733 C 18.253381,26.665769 5.4320913,49.597184 18.614856,53.99144 c 12.991966,4.330655 43.94592,-17.067986 47.740585,-22.315637 -1.835821,-2.596141 -5.694488,-6.6466 -7.762376,-9.009901 -3.875759,2.600135 -28.365736,21.34457 -34.104781,18.475047 -2.028226,-1.014113 1.80693,-11.921442 2.746804,-13.613216 z"
       style="fill:#ff0000;fill-opacity:1;stroke:#000000;stroke-width:1.51181;stroke-linecap:butt;stroke-linejoin:miter;stroke-miterlimit:4;stroke-dasharray:none;stroke-opacity:1" />
    <path
       sodipodi:nodetypes="ccczcsc"
       inkscape:connector-curvature="0"
       id="path850"
       d="m 58.707896,21.043134 c -6.86408,14.982581 55.765564,33.20927 45.638714,-5.750085 -1.54752,-7.1735659 -7.430997,-8.3143675 -9.836898,-9.3740972 -0.637929,4.6451152 3.216803,11.5036772 2.634997,17.5760972 -0.581806,6.07242 -22.848135,10.178732 -23.09001,-1.41231 -0.331483,3.253131 -6.569759,5.839391 -9.542442,4.366336 -1.904124,-0.943552 -4.487512,-3.937729 -5.804361,-5.405941 z"
       style="fill:#ff0000;fill-opacity:1;stroke:#000000;stroke-width:1.51861;stroke-linecap:butt;stroke-linejoin:miter;stroke-miterlimit:4;stroke-dasharray:none;stroke-opacity:1" />
    <path
       sodipodi:nodetypes="zcczz"
       inkscape:connector-curvature="0"
       id="path959"
       d="m 46.60381,15.485843 c -2.80724,-0.03648 -18.470967,4.785414 -18.470967,4.785414 l -1.247525,2.633664 c 0,0 19.019981,-6.208471 22.767997,-6.587395 3.748016,-0.378924 -0.242265,-0.795202 -3.049505,-0.831683 z"
       style="fill:#ff0000;fill-opacity:1;stroke:#000000;stroke-width:0.5;stroke-linecap:butt;stroke-linejoin:miter;stroke-miterlimit:4;stroke-dasharray:none;stroke-opacity:1" />
    <path
       sodipodi:nodetypes="zcczz"
       inkscape:connector-curvature="0"
       id="path959-8"
       d="m 84.772232,11.287132 c 2.80724,-0.03648 11.021841,5.863576 11.021841,5.863576 l 1.247525,2.633664 c 0,0 -11.570855,-7.286633 -15.318871,-7.665557 -3.748016,-0.378925 0.242265,-0.795203 3.049505,-0.831683 z"
       style="fill:#ff0000;fill-opacity:1;stroke:#000000;stroke-width:0.5;stroke-linecap:butt;stroke-linejoin:miter;stroke-miterlimit:4;stroke-dasharray:none;stroke-opacity:1" />
  </g>
</svg>
