<?xml version="1.0" encoding="UTF-8" standalone="no"?>
<!DOCTYPE svg PUBLIC "-//W3C//DTD SVG 1.1//EN" "http://www.w3.org/Graphics/SVG/1.1/DTD/svg11.dtd">
<svg width="100%" height="100%" viewBox="0 0 70 85" version="1.1" xmlns="http://www.w3.org/2000/svg" xmlns:xlink="http://www.w3.org/1999/xlink" xml:space="preserve" xmlns:serif="http://www.serif.com/" style="fill-rule:evenodd;clip-rule:evenodd;">
    <g id="Re-ink" transform="matrix(1,0,0,1,-300.556,-39.5066)">
        <path id="path827-1" d="M315.403,44.588C312.791,56.697 312.257,77.314 312.868,87.936C313.086,91.725 321.693,88.352 323.307,91.766C326.175,97.833 311.959,120.994 319.655,121.957C333.281,123.661 354.092,122.708 365.503,121.42C368.913,121.035 366.284,107.043 368.191,96.464C370.098,85.884 369.766,44.466 362.738,41.554C355.709,38.641 356.733,47.401 345.376,44.282C337.89,42.541 316.672,38.705 315.403,44.588L315.403,44.588Z" style="fill:rgb(51,51,51);fill-rule:nonzero;stroke:black;stroke-width:2.39px;"/>
        <path id="path829-0" d="M324.201,94.752L324.649,56.689" style="fill:none;fill-rule:nonzero;stroke:black;stroke-width:1.36px;"/>
        <path id="path833-5" d="M360.288,67.717C360.288,67.717 359.561,80.902 360.586,86.711C361.611,92.519 367.836,105.913 367.836,105.913" style="fill:none;fill-rule:nonzero;stroke:black;stroke-width:1.36px;"/>
        <path id="path829" d="M324.201,94.752L324.649,56.689" style="fill:none;fill-rule:nonzero;stroke:black;stroke-width:1.36px;"/>
        <path id="path833" d="M360.288,67.717C360.288,67.717 359.561,80.902 360.586,86.711C361.611,92.519 367.836,105.913 367.836,105.913" style="fill:none;fill-rule:nonzero;stroke:black;stroke-width:1.36px;"/>
        <g id="g1537" transform="matrix(0.375652,0.188155,-0.174562,0.348514,258.456,3.44775)">
            <path id="path1468" d="M294.05,80.602C293.266,85.305 288.259,88.44 281.116,88.44C273.974,88.44 268.968,85.305 268.184,80.602C267.999,79.493 268.301,74.512 268.975,73.548C270.894,70.8 271.58,81.321 281.116,81.321C291.502,81.321 291.346,70.8 293.266,73.548C293.939,74.512 294.235,79.493 294.05,80.602Z" style="fill:rgb(255,172,51);fill-rule:nonzero;"/>
            <path id="path1470" d="M281.116,67.437C274.118,67.437 268.445,70.875 268.445,75.116C268.445,79.357 274.118,82.796 281.116,82.796C288.114,82.796 293.788,79.357 293.788,75.116C293.788,70.875 288.114,67.437 281.116,67.437ZM281.116,77.467C278.736,77.467 276.805,76.941 276.805,76.291C276.805,75.642 278.736,75.116 281.116,75.116C283.496,75.116 285.427,75.642 285.427,76.291C285.427,76.941 283.497,77.467 281.116,77.467Z" style="fill:rgb(138,75,56);fill-rule:nonzero;"/>
            <path id="path1472" d="M268.837,73.908C268.348,74.691 268.147,78.028 269.197,79.59C270.797,81.975 271.581,80.766 272.757,81.126C274.508,81.662 274.638,83.046 276.022,83.738C277.59,84.522 278.502,84.294 280.725,83.738C283.861,82.954 285.853,84.554 287.779,83.738C289.359,83.068 290.263,80.635 291.143,80.342C293.939,79.41 294.529,74.999 292.449,73.189C291.796,74.561 288.595,79.492 286.538,79.722C284.48,79.95 278.308,80.472 275.695,79.134C273.082,77.795 270.438,76.129 270.111,75.672C269.784,75.213 268.837,73.908 268.837,73.908Z" style="fill:rgb(138,75,56);fill-rule:nonzero;"/>
            <path id="path1474" d="M281.116,73.352C278.302,73.352 276.022,74.273 276.022,75.409C276.022,75.851 276.369,76.259 276.955,76.594C276.861,76.497 276.805,76.396 276.805,76.291C276.805,75.642 278.736,75.116 281.116,75.116C283.496,75.116 285.427,75.642 285.427,76.291C285.427,76.396 285.372,76.497 285.277,76.594C285.863,76.259 286.211,75.851 286.211,75.409C286.212,74.273 283.931,73.352 281.117,73.352L281.116,73.352Z" style="fill:rgb(244,144,12);fill-rule:nonzero;"/>
            <path id="path1476" d="M270.862,76.553C270.861,76.553 270.86,76.553 270.859,76.553C270.429,76.553 270.076,76.199 270.076,75.77C270.076,75.479 270.238,75.211 270.496,75.076L272.227,74.161C272.34,74.101 272.466,74.07 272.593,74.07C272.883,74.07 273.151,74.231 273.286,74.488C273.488,74.871 273.342,75.345 272.959,75.547L271.228,76.462C271.115,76.521 270.99,76.553 270.862,76.553L270.862,76.553ZM279.778,82.398C279.47,82.398 279.178,82.217 279.053,81.914L278.498,80.574C278.452,80.473 278.428,80.362 278.428,80.251C278.428,79.821 278.782,79.467 279.212,79.467C279.538,79.467 279.831,79.67 279.946,79.975L280.501,81.315C280.54,81.41 280.561,81.512 280.561,81.615C280.561,82.045 280.207,82.398 279.778,82.398C279.778,82.398 279.778,82.398 279.778,82.398Z" style="fill:rgb(244,171,186);fill-rule:nonzero;"/>
            <path id="path1478" d="M288.661,79.263C288.661,79.263 288.661,79.263 288.661,79.263C288.231,79.263 287.878,78.91 287.878,78.48C287.878,78.34 287.915,78.201 287.987,78.081L288.836,76.644C288.978,76.407 289.234,76.261 289.509,76.261C289.939,76.261 290.293,76.615 290.293,77.045C290.293,77.185 290.256,77.321 290.185,77.442L289.336,78.878C289.19,79.125 288.929,79.263 288.661,79.263Z" style="fill:rgb(85,172,238);fill-rule:nonzero;"/>
            <path id="path1480" d="M289.967,73.44C289.547,73.44 289.2,73.08 289.185,72.656C289.169,72.223 289.508,71.853 289.94,71.831L290.854,71.792C291.294,71.786 291.65,72.111 291.664,72.544C291.681,72.977 291.341,73.366 290.909,73.381L289.996,73.44L289.967,73.44ZM282.391,70.347C281.962,70.346 281.61,69.992 281.61,69.563C281.61,69.223 281.831,68.92 282.154,68.816L282.774,68.62C282.85,68.596 282.93,68.584 283.01,68.584C283.44,68.584 283.794,68.938 283.794,69.368C283.794,69.709 283.572,70.012 283.247,70.115L282.628,70.311C282.551,70.335 282.472,70.347 282.391,70.347L282.391,70.347Z" style="fill:rgb(244,171,186);fill-rule:nonzero;"/>
            <path id="path1482" d="M278.046,71.621C277.928,71.621 277.809,71.594 277.696,71.538L277.108,71.244C276.859,71.106 276.703,70.843 276.703,70.557C276.703,70.127 277.057,69.773 277.487,69.773C277.598,69.773 277.708,69.796 277.809,69.842L278.397,70.136C278.661,70.269 278.828,70.541 278.828,70.836C278.828,71.266 278.476,71.62 278.046,71.621L278.046,71.621ZM284.872,81.581C284.751,81.581 284.632,81.553 284.524,81.499L283.936,81.206C283.675,81.072 283.51,80.802 283.51,80.508C283.51,80.079 283.864,79.725 284.294,79.725C284.411,79.725 284.528,79.751 284.634,79.803L285.222,80.096C285.487,80.228 285.656,80.5 285.656,80.797C285.656,81.227 285.302,81.58 284.872,81.581Z" style="fill:rgb(136,201,249);fill-rule:nonzero;"/>
            <path id="path1484" d="M274.617,79.851C274.187,79.851 273.833,79.497 273.833,79.068C273.833,78.961 273.855,78.856 273.897,78.759L274.191,78.073C274.314,77.785 274.598,77.598 274.911,77.598C275.341,77.598 275.695,77.952 275.695,78.382C275.695,78.488 275.674,78.593 275.632,78.691L275.338,79.377C275.21,79.673 274.921,79.851 274.617,79.851ZM286.311,72.438C286.309,72.438 286.307,72.438 286.305,72.438C285.876,72.438 285.522,72.084 285.522,71.655C285.522,71.342 285.709,71.059 285.996,70.935L286.518,70.707C286.915,70.533 287.377,70.714 287.55,71.11C287.722,71.504 287.54,71.97 287.146,72.143L286.624,72.372C286.526,72.415 286.419,72.437 286.311,72.437L286.311,72.438ZM273.574,72.405C273.515,72.405 273.456,72.398 273.397,72.385L272.973,72.288C272.633,72.195 272.395,71.883 272.395,71.531C272.395,71.1 272.749,70.746 273.18,70.746C273.228,70.746 273.277,70.751 273.325,70.76L273.749,70.857C274.102,70.941 274.353,71.258 274.353,71.621C274.353,72.049 274.002,72.403 273.574,72.405L273.574,72.405Z" style="fill:rgb(85,172,238);fill-rule:nonzero;"/>
        </g>
        <g id="text1543" transform="matrix(0.894114,0.447839,-0.447839,0.894114,0,0)">
            <path id="path1559" d="M325.471,-81.459L325.471,-83.039L325.079,-83.039L325.079,-83.315L325.471,-83.315L325.471,-83.483C325.471,-83.627 325.491,-83.745 325.531,-83.839C325.571,-83.935 325.623,-84.012 325.687,-84.071C325.753,-84.129 325.829,-84.171 325.915,-84.195C326.003,-84.219 326.095,-84.231 326.191,-84.231C326.287,-84.231 326.383,-84.22 326.479,-84.199C326.577,-84.177 326.669,-84.152 326.755,-84.123L326.695,-83.839C326.636,-83.868 326.563,-83.893 326.475,-83.915C326.387,-83.936 326.297,-83.947 326.207,-83.947C326.151,-83.947 326.098,-83.939 326.047,-83.923C325.999,-83.909 325.956,-83.884 325.919,-83.847C325.881,-83.812 325.852,-83.764 325.831,-83.703C325.81,-83.644 325.799,-83.569 325.799,-83.479L325.799,-83.315L326.547,-83.315L326.547,-83.039L325.799,-83.039L325.799,-81.459L325.471,-81.459Z" style="fill:rgb(0,255,0);fill-rule:nonzero;"/>
            <path id="path1561" d="M328.543,-81.511C328.471,-81.492 328.375,-81.472 328.255,-81.451C328.137,-81.429 327.999,-81.419 327.839,-81.419C327.697,-81.419 327.58,-81.439 327.487,-81.479C327.393,-81.521 327.317,-81.58 327.259,-81.655C327.2,-81.732 327.159,-81.823 327.135,-81.927C327.111,-82.031 327.099,-82.145 327.099,-82.271L327.099,-83.315L327.427,-83.315L327.427,-82.343C327.427,-82.113 327.46,-81.951 327.527,-81.855C327.596,-81.759 327.711,-81.711 327.871,-81.711C327.905,-81.711 327.94,-81.712 327.975,-81.715C328.012,-81.717 328.047,-81.72 328.079,-81.723C328.111,-81.728 328.139,-81.732 328.163,-81.735C328.187,-81.74 328.203,-81.744 328.211,-81.746L328.211,-83.314L328.543,-83.314L328.543,-81.511Z" style="fill:rgb(0,255,0);fill-rule:nonzero;"/>
            <path id="path1563" d="M330.179,-81.415C330.061,-81.415 329.964,-81.431 329.887,-81.463C329.809,-81.495 329.748,-81.543 329.703,-81.607C329.657,-81.671 329.625,-81.749 329.607,-81.843C329.588,-81.939 329.578,-82.049 329.578,-82.175L329.578,-83.931L329.042,-83.931L329.042,-84.211L329.906,-84.211L329.906,-82.175C329.906,-82.081 329.912,-82.005 329.923,-81.947C329.937,-81.888 329.955,-81.84 329.979,-81.803C330.006,-81.768 330.038,-81.744 330.076,-81.731C330.113,-81.717 330.157,-81.711 330.208,-81.711C330.285,-81.711 330.357,-81.72 330.424,-81.739C330.49,-81.757 330.542,-81.777 330.58,-81.799L330.627,-81.519C330.612,-81.511 330.59,-81.5 330.559,-81.487C330.53,-81.476 330.495,-81.465 330.455,-81.455C330.415,-81.444 330.371,-81.435 330.323,-81.427C330.278,-81.419 330.23,-81.415 330.179,-81.415L330.179,-81.415Z" style="fill:rgb(0,255,0);fill-rule:nonzero;"/>
            <path id="path1565" d="M332.179,-81.415C332.061,-81.415 331.964,-81.431 331.887,-81.463C331.809,-81.495 331.748,-81.543 331.703,-81.607C331.657,-81.671 331.625,-81.749 331.607,-81.843C331.588,-81.939 331.578,-82.049 331.578,-82.175L331.578,-83.931L331.042,-83.931L331.042,-84.211L331.906,-84.211L331.906,-82.175C331.906,-82.081 331.912,-82.005 331.923,-81.947C331.937,-81.888 331.955,-81.84 331.979,-81.803C332.006,-81.768 332.038,-81.744 332.075,-81.731C332.113,-81.717 332.157,-81.711 332.208,-81.711C332.285,-81.711 332.357,-81.72 332.424,-81.739C332.49,-81.757 332.542,-81.777 332.579,-81.799L332.627,-81.519C332.612,-81.511 332.59,-81.5 332.559,-81.487C332.53,-81.476 332.495,-81.465 332.455,-81.455C332.415,-81.444 332.371,-81.435 332.323,-81.427C332.278,-81.419 332.23,-81.415 332.179,-81.415L332.179,-81.415Z" style="fill:rgb(0,255,0);fill-rule:nonzero;"/>
            <path id="path1567" d="M334.231,-81.923C334.231,-81.989 334.203,-82.044 334.147,-82.087C334.093,-82.129 334.025,-82.167 333.943,-82.199C333.863,-82.231 333.775,-82.261 333.679,-82.291C333.583,-82.323 333.493,-82.361 333.411,-82.407C333.331,-82.452 333.263,-82.508 333.207,-82.575C333.154,-82.641 333.127,-82.728 333.127,-82.835C333.127,-82.984 333.187,-83.108 333.307,-83.207C333.43,-83.308 333.62,-83.359 333.879,-83.359C333.98,-83.359 334.084,-83.351 334.191,-83.335C334.3,-83.321 334.394,-83.303 334.471,-83.279L334.411,-82.983C334.389,-82.993 334.36,-83.004 334.323,-83.015C334.286,-83.028 334.243,-83.039 334.195,-83.047C334.147,-83.057 334.095,-83.065 334.039,-83.071C333.986,-83.076 333.934,-83.079 333.883,-83.079C333.595,-83.079 333.451,-83 333.451,-82.843C333.451,-82.787 333.478,-82.739 333.531,-82.699C333.587,-82.661 333.656,-82.627 333.739,-82.595C333.822,-82.563 333.911,-82.529 334.007,-82.495C334.103,-82.463 334.192,-82.423 334.275,-82.375C334.358,-82.327 334.426,-82.268 334.479,-82.199C334.535,-82.132 334.563,-82.047 334.563,-81.943C334.563,-81.775 334.497,-81.644 334.367,-81.551C334.236,-81.46 334.03,-81.415 333.747,-81.415C333.619,-81.415 333.502,-81.425 333.395,-81.447C333.288,-81.468 333.187,-81.5 333.091,-81.543L333.155,-81.843C333.248,-81.8 333.346,-81.764 333.447,-81.735C333.551,-81.708 333.662,-81.695 333.779,-81.695C334.08,-81.695 334.231,-81.771 334.231,-81.923L334.231,-81.923Z" style="fill:rgb(0,255,0);fill-rule:nonzero;"/>
            <path id="path1569" d="M335.111,-83.263C335.231,-83.292 335.349,-83.315 335.467,-83.331C335.587,-83.347 335.699,-83.355 335.803,-83.355C336.051,-83.355 336.237,-83.291 336.363,-83.163C336.491,-83.035 336.555,-82.829 336.555,-82.547L336.555,-81.459L336.227,-81.459L336.227,-82.487C336.227,-82.607 336.216,-82.704 336.195,-82.779C336.173,-82.853 336.142,-82.911 336.102,-82.951C336.065,-82.994 336.018,-83.023 335.962,-83.039C335.909,-83.055 335.85,-83.063 335.786,-83.063C335.733,-83.063 335.676,-83.059 335.614,-83.051C335.556,-83.046 335.498,-83.038 335.442,-83.027L335.442,-81.459L335.11,-81.459L335.111,-83.263Z" style="fill:rgb(0,255,0);fill-rule:nonzero;"/>
            <path id="path1571" d="M337.847,-81.695C337.929,-81.695 338.003,-81.697 338.067,-81.703C338.133,-81.708 338.188,-81.715 338.231,-81.723L338.231,-82.275C338.188,-82.288 338.136,-82.299 338.075,-82.307C338.016,-82.315 337.953,-82.319 337.887,-82.319C337.825,-82.319 337.765,-82.313 337.707,-82.303C337.648,-82.295 337.596,-82.279 337.551,-82.255C337.505,-82.231 337.468,-82.199 337.439,-82.159C337.409,-82.121 337.395,-82.073 337.395,-82.015C337.395,-81.895 337.435,-81.811 337.515,-81.763C337.598,-81.717 337.708,-81.695 337.847,-81.695L337.847,-81.695ZM337.815,-83.359C337.953,-83.359 338.069,-83.341 338.163,-83.307C338.259,-83.272 338.336,-83.224 338.395,-83.163C338.453,-83.101 338.495,-83.027 338.519,-82.939C338.543,-82.851 338.555,-82.755 338.555,-82.651L338.555,-81.491C338.477,-81.477 338.375,-81.461 338.247,-81.443C338.121,-81.424 337.992,-81.415 337.859,-81.415C337.757,-81.415 337.659,-81.424 337.563,-81.443C337.467,-81.459 337.381,-81.488 337.307,-81.531C337.232,-81.576 337.172,-81.637 337.127,-81.715C337.081,-81.792 337.059,-81.891 337.059,-82.011C337.059,-82.117 337.081,-82.207 337.127,-82.279C337.175,-82.353 337.235,-82.413 337.307,-82.459C337.381,-82.504 337.465,-82.536 337.559,-82.555C337.655,-82.576 337.751,-82.587 337.847,-82.587C337.977,-82.587 338.105,-82.572 338.231,-82.543L338.231,-82.635C338.231,-82.691 338.224,-82.744 338.211,-82.795C338.2,-82.848 338.177,-82.896 338.143,-82.939C338.111,-82.981 338.066,-83.015 338.007,-83.039C337.951,-83.065 337.878,-83.079 337.787,-83.079C337.672,-83.079 337.572,-83.071 337.487,-83.055C337.401,-83.039 337.336,-83.023 337.291,-83.007L337.251,-83.279C337.296,-83.3 337.371,-83.319 337.475,-83.335C337.581,-83.351 337.695,-83.359 337.815,-83.359L337.815,-83.359Z" style="fill:rgb(0,255,0);fill-rule:nonzero;"/>
            <path id="path1573" d="M339.023,-82.383C339.023,-82.551 339.049,-82.696 339.103,-82.819C339.156,-82.941 339.229,-83.043 339.323,-83.123C339.416,-83.203 339.524,-83.261 339.647,-83.299C339.772,-83.339 339.905,-83.359 340.047,-83.359C340.137,-83.359 340.227,-83.352 340.314,-83.339C340.405,-83.328 340.501,-83.307 340.602,-83.275L340.527,-82.991C340.438,-83.023 340.357,-83.043 340.282,-83.051C340.21,-83.061 340.137,-83.066 340.062,-83.066C339.966,-83.066 339.876,-83.053 339.79,-83.026C339.705,-83.002 339.63,-82.962 339.566,-82.906C339.505,-82.853 339.456,-82.783 339.418,-82.694C339.381,-82.609 339.363,-82.505 339.363,-82.382C339.363,-82.265 339.38,-82.164 339.414,-82.078C339.449,-81.996 339.497,-81.927 339.558,-81.87C339.623,-81.817 339.699,-81.777 339.786,-81.75C339.874,-81.724 339.972,-81.711 340.078,-81.711C340.164,-81.711 340.245,-81.714 340.322,-81.722C340.402,-81.733 340.489,-81.754 340.582,-81.786L340.63,-81.51C340.537,-81.476 340.442,-81.452 340.346,-81.438C340.25,-81.422 340.146,-81.414 340.034,-81.414C339.885,-81.414 339.748,-81.434 339.622,-81.474C339.5,-81.517 339.393,-81.578 339.302,-81.658C339.214,-81.738 339.145,-81.838 339.094,-81.958C339.046,-82.081 339.022,-82.222 339.022,-82.382L339.023,-82.383Z" style="fill:rgb(0,255,0);fill-rule:nonzero;"/>
            <path id="path1575" d="M341.779,-82.479C341.851,-82.425 341.932,-82.357 342.023,-82.275C342.113,-82.195 342.203,-82.108 342.291,-82.015C342.381,-81.921 342.467,-81.825 342.547,-81.727C342.627,-81.631 342.69,-81.541 342.738,-81.459L342.346,-81.459C342.296,-81.541 342.233,-81.625 342.159,-81.711C342.084,-81.799 342.004,-81.883 341.918,-81.963C341.836,-82.043 341.752,-82.116 341.666,-82.183C341.584,-82.249 341.509,-82.305 341.443,-82.351L341.443,-81.459L341.111,-81.459L341.111,-84.175L341.443,-84.231L341.443,-82.539C341.589,-82.667 341.736,-82.793 341.883,-82.919C342.029,-83.047 342.161,-83.179 342.279,-83.315L342.667,-83.315C342.552,-83.179 342.413,-83.039 342.251,-82.895C342.09,-82.751 341.933,-82.612 341.779,-82.479L341.779,-82.479Z" style="fill:rgb(0,255,0);fill-rule:nonzero;"/>
            <path id="path1577" d="M344.363,-84.023C344.115,-83.831 343.925,-83.609 343.795,-83.359C343.664,-83.108 343.599,-82.835 343.599,-82.539C343.599,-82.389 343.613,-82.248 343.643,-82.115C343.675,-81.981 343.721,-81.853 343.783,-81.731C343.847,-81.608 343.927,-81.489 344.023,-81.375C344.122,-81.26 344.238,-81.145 344.371,-81.031L344.191,-80.791C343.884,-81.017 343.655,-81.28 343.503,-81.579C343.354,-81.88 343.279,-82.197 343.279,-82.531C343.279,-82.861 343.355,-83.177 343.507,-83.479C343.659,-83.78 343.887,-84.041 344.191,-84.263L344.367,-84.023L344.363,-84.023Z" style="fill:rgb(0,255,0);fill-rule:nonzero;"/>
            <path id="path1579" d="M357.287,-81.031C357.535,-81.223 357.724,-81.444 357.855,-81.695C357.988,-81.945 358.055,-82.219 358.055,-82.515C358.055,-82.664 358.039,-82.805 358.007,-82.939C357.978,-83.072 357.931,-83.2 357.867,-83.323C357.803,-83.445 357.721,-83.564 357.623,-83.679C357.527,-83.793 357.412,-83.908 357.279,-84.023L357.459,-84.263C357.765,-84.036 357.993,-83.772 358.143,-83.471C358.295,-83.172 358.371,-82.856 358.371,-82.523C358.371,-82.357 358.351,-82.195 358.311,-82.035C358.273,-81.875 358.216,-81.72 358.139,-81.571C358.064,-81.424 357.969,-81.285 357.855,-81.155C357.742,-81.021 357.61,-80.9 357.459,-80.791L357.283,-81.031L357.287,-81.031Z" style="fill:rgb(0,255,0);fill-rule:nonzero;"/>
        </g>
    </g>
</svg>
