<?xml version="1.0" encoding="UTF-8" standalone="no"?>
<svg
   width="83.959602"
   height="108.65147"
   viewBox="0 0 83.959602 108.65147"
   version="1.1"
   xml:space="preserve"
   style="clip-rule:evenodd;fill-rule:evenodd"
   id="svg1"
   sodipodi:docname="fullsnack_shirt.svg"
   inkscape:version="1.3.2 (091e20e, 2023-11-25)"
   xmlns:inkscape="http://www.inkscape.org/namespaces/inkscape"
   xmlns:sodipodi="http://sodipodi.sourceforge.net/DTD/sodipodi-0.dtd"
   xmlns="http://www.w3.org/2000/svg"
   xmlns:svg="http://www.w3.org/2000/svg"><defs
   id="defs1" /><sodipodi:namedview
   id="namedview1"
   pagecolor="#ffffff"
   bordercolor="#000000"
   borderopacity="0.25"
   inkscape:showpageshadow="2"
   inkscape:pageopacity="0.0"
   inkscape:pagecheckerboard="0"
   inkscape:deskcolor="#d1d1d1"
   inkscape:zoom="6.7106969"
   inkscape:cx="34.720686"
   inkscape:cy="43.438111"
   inkscape:window-width="1392"
   inkscape:window-height="1184"
   inkscape:window-x="647"
   inkscape:window-y="35"
   inkscape:window-maximized="0"
   inkscape:current-layer="g2" />
    <g
   id="g2"
   style="clip-rule:evenodd;fill-rule:evenodd"
   transform="matrix(1.4238965,0,0,1.3002913,-443.4379,-51.293635)"><path
     id="path827-1-6"
     d="m 312.868,87.936 c 0.218,3.789 8.825,0.416 10.439,3.83 2.868,6.067 -7.51195,29.07765 0.18405,30.04065 13.626,0.1465 33.06893,-2.7792 44.47993,-1.28894 3.41,-0.385 -1.68698,-13.47475 0.22002,-24.05375 1.907,-10.58 0.52846,-46.038703 -6.49954,-48.950703 -7.029,-2.913 -11.43011,-1.517981 -18.46511,-1.632981 -6.711,-0.109 -11.22531,-3.645492 -18.11031,-3.028492 -6.457,0.58 -9.41404,0.351176 -10.38404,4.849176 -1.941,8.996 -2.475,29.613 -1.864,40.235 z"
     style="fill:#333333;fill-opacity:1;fill-rule:nonzero;stroke:#000000;stroke-width:2.39px"
     sodipodi:nodetypes="ccccccccccc" /><path
     id="path829-5"
     d="m 324.201,94.752 0.448,-38.063"
     style="fill:none;fill-rule:nonzero;stroke:#000000;stroke-width:1.36px" /><path
     id="path833-7"
     d="m 360.288,67.717 c 0,0 -0.727,13.185 0.298,18.994 1.025,5.808 7.25,19.202 7.25,19.202"
     style="fill:none;fill-rule:nonzero;stroke:#000000;stroke-width:1.36px" /></g><g
   id="Re-ink"
   transform="translate(-289.85224,-32.318958)">
        
        
        
        
        
        
        <g
   id="g1"
   transform="matrix(1.2352723,-0.40513908,0.4445068,1.2427295,-124.449,120.62664)"><g
     id="g1537"
     transform="matrix(0.375652,0.188155,-0.174562,0.348514,258.456,3.44775)">
            <path
   id="path1468"
   d="m 294.05,80.602 c -0.784,4.703 -5.791,7.838 -12.934,7.838 -7.142,0 -12.148,-3.135 -12.932,-7.838 -0.185,-1.109 0.117,-6.09 0.791,-7.054 1.919,-2.748 2.605,7.773 12.141,7.773 10.386,0 10.23,-10.521 12.15,-7.773 0.673,0.964 0.969,5.945 0.784,7.054 z"
   style="fill:#ffac33;fill-rule:nonzero" />
            <path
   id="path1470"
   d="m 281.116,67.437 c -6.998,0 -12.671,3.438 -12.671,7.679 0,4.241 5.673,7.68 12.671,7.68 6.998,0 12.672,-3.439 12.672,-7.68 0,-4.241 -5.674,-7.679 -12.672,-7.679 z m 0,10.03 c -2.38,0 -4.311,-0.526 -4.311,-1.176 0,-0.649 1.931,-1.175 4.311,-1.175 2.38,0 4.311,0.526 4.311,1.175 0,0.65 -1.93,1.176 -4.311,1.176 z"
   style="fill:#8a4b38;fill-rule:nonzero" />
            <path
   id="path1472"
   d="m 268.837,73.908 c -0.489,0.783 -0.69,4.12 0.36,5.682 1.6,2.385 2.384,1.176 3.56,1.536 1.751,0.536 1.881,1.92 3.265,2.612 1.568,0.784 2.48,0.556 4.703,0 3.136,-0.784 5.128,0.816 7.054,0 1.58,-0.67 2.484,-3.103 3.364,-3.396 2.796,-0.932 3.386,-5.343 1.306,-7.153 -0.653,1.372 -3.854,6.303 -5.911,6.533 -2.058,0.228 -8.23,0.75 -10.843,-0.588 -2.613,-1.339 -5.257,-3.005 -5.584,-3.462 -0.327,-0.459 -1.274,-1.764 -1.274,-1.764 z"
   style="fill:#8a4b38;fill-rule:nonzero" />
            <path
   id="path1474"
   d="m 281.116,73.352 c -2.814,0 -5.094,0.921 -5.094,2.057 0,0.442 0.347,0.85 0.933,1.185 -0.094,-0.097 -0.15,-0.198 -0.15,-0.303 0,-0.649 1.931,-1.175 4.311,-1.175 2.38,0 4.311,0.526 4.311,1.175 0,0.105 -0.055,0.206 -0.15,0.303 0.586,-0.335 0.934,-0.743 0.934,-1.185 10e-4,-1.136 -2.28,-2.057 -5.094,-2.057 z"
   style="fill:#f4900c;fill-rule:nonzero" />
            <path
   id="path1476"
   d="m 270.862,76.553 c -0.001,0 -0.002,0 -0.003,0 -0.43,0 -0.783,-0.354 -0.783,-0.783 0,-0.291 0.162,-0.559 0.42,-0.694 l 1.731,-0.915 c 0.113,-0.06 0.239,-0.091 0.366,-0.091 0.29,0 0.558,0.161 0.693,0.418 0.202,0.383 0.056,0.857 -0.327,1.059 l -1.731,0.915 c -0.113,0.059 -0.238,0.091 -0.366,0.091 z m 8.916,5.845 c -0.308,0 -0.6,-0.181 -0.725,-0.484 l -0.555,-1.34 c -0.046,-0.101 -0.07,-0.212 -0.07,-0.323 0,-0.43 0.354,-0.784 0.784,-0.784 0.326,0 0.619,0.203 0.734,0.508 l 0.555,1.34 c 0.039,0.095 0.06,0.197 0.06,0.3 0,0.43 -0.354,0.783 -0.783,0.783 z"
   style="fill:#f4abba;fill-rule:nonzero" />
            <path
   id="path1478"
   d="m 288.661,79.263 c 0,0 0,0 0,0 -0.43,0 -0.783,-0.353 -0.783,-0.783 0,-0.14 0.037,-0.279 0.109,-0.399 l 0.849,-1.437 c 0.142,-0.237 0.398,-0.383 0.673,-0.383 0.43,0 0.784,0.354 0.784,0.784 0,0.14 -0.037,0.276 -0.108,0.397 l -0.849,1.436 c -0.146,0.247 -0.407,0.385 -0.675,0.385 z"
   style="fill:#55acee;fill-rule:nonzero" />
            <path
   id="path1480"
   d="m 289.967,73.44 c -0.42,0 -0.767,-0.36 -0.782,-0.784 -0.016,-0.433 0.323,-0.803 0.755,-0.825 l 0.914,-0.039 c 0.44,-0.006 0.796,0.319 0.81,0.752 0.017,0.433 -0.323,0.822 -0.755,0.837 l -0.913,0.059 z m -7.576,-3.093 c -0.429,-10e-4 -0.781,-0.355 -0.781,-0.784 0,-0.34 0.221,-0.643 0.544,-0.747 l 0.62,-0.196 c 0.076,-0.024 0.156,-0.036 0.236,-0.036 0.43,0 0.784,0.354 0.784,0.784 0,0.341 -0.222,0.644 -0.547,0.747 l -0.619,0.196 c -0.077,0.024 -0.156,0.036 -0.237,0.036 z"
   style="fill:#f4abba;fill-rule:nonzero" />
            <path
   id="path1482"
   d="m 278.046,71.621 c -0.118,0 -0.237,-0.027 -0.35,-0.083 l -0.588,-0.294 c -0.249,-0.138 -0.405,-0.401 -0.405,-0.687 0,-0.43 0.354,-0.784 0.784,-0.784 0.111,0 0.221,0.023 0.322,0.069 l 0.588,0.294 c 0.264,0.133 0.431,0.405 0.431,0.7 0,0.43 -0.352,0.784 -0.782,0.785 z m 6.826,9.96 c -0.121,0 -0.24,-0.028 -0.348,-0.082 l -0.588,-0.293 c -0.261,-0.134 -0.426,-0.404 -0.426,-0.698 0,-0.429 0.354,-0.783 0.784,-0.783 0.117,0 0.234,0.026 0.34,0.078 l 0.588,0.293 c 0.265,0.132 0.434,0.404 0.434,0.701 0,0.43 -0.354,0.783 -0.784,0.784 z"
   style="fill:#88c9f9;fill-rule:nonzero" />
            <path
   id="path1484"
   d="m 274.617,79.851 c -0.43,0 -0.784,-0.354 -0.784,-0.783 0,-0.107 0.022,-0.212 0.064,-0.309 l 0.294,-0.686 c 0.123,-0.288 0.407,-0.475 0.72,-0.475 0.43,0 0.784,0.354 0.784,0.784 0,0.106 -0.021,0.211 -0.063,0.309 l -0.294,0.686 c -0.128,0.296 -0.417,0.474 -0.721,0.474 z m 11.694,-7.413 c -0.002,0 -0.004,0 -0.006,0 -0.429,0 -0.783,-0.354 -0.783,-0.783 0,-0.313 0.187,-0.596 0.474,-0.72 l 0.522,-0.228 c 0.397,-0.174 0.859,0.007 1.032,0.403 0.172,0.394 -0.01,0.86 -0.404,1.033 l -0.522,0.229 c -0.098,0.043 -0.205,0.065 -0.313,0.065 z m -12.737,-0.033 c -0.059,0 -0.118,-0.007 -0.177,-0.02 l -0.424,-0.097 c -0.34,-0.093 -0.578,-0.405 -0.578,-0.757 0,-0.431 0.354,-0.785 0.785,-0.785 0.048,0 0.097,0.005 0.145,0.014 l 0.424,0.097 c 0.353,0.084 0.604,0.401 0.604,0.764 0,0.428 -0.351,0.782 -0.779,0.784 z"
   style="fill:#55acee;fill-rule:nonzero" />
        </g><g
     id="text1543"
     transform="rotate(26.605126)">
            <path
   id="path1559"
   d="m 325.471,-81.459 v -1.58 h -0.392 v -0.276 h 0.392 v -0.168 c 0,-0.144 0.02,-0.262 0.06,-0.356 0.04,-0.096 0.092,-0.173 0.156,-0.232 0.066,-0.058 0.142,-0.1 0.228,-0.124 0.088,-0.024 0.18,-0.036 0.276,-0.036 0.096,0 0.192,0.011 0.288,0.032 0.098,0.022 0.19,0.047 0.276,0.076 l -0.06,0.284 c -0.059,-0.029 -0.132,-0.054 -0.22,-0.076 -0.088,-0.021 -0.178,-0.032 -0.268,-0.032 -0.056,0 -0.109,0.008 -0.16,0.024 -0.048,0.014 -0.091,0.039 -0.128,0.076 -0.038,0.035 -0.067,0.083 -0.088,0.144 -0.021,0.059 -0.032,0.134 -0.032,0.224 v 0.164 h 0.748 v 0.276 h -0.748 v 1.58 z"
   style="fill:#00ff00;fill-rule:nonzero" />
            <path
   id="path1561"
   d="m 328.543,-81.511 c -0.072,0.019 -0.168,0.039 -0.288,0.06 -0.118,0.022 -0.256,0.032 -0.416,0.032 -0.142,0 -0.259,-0.02 -0.352,-0.06 -0.094,-0.042 -0.17,-0.101 -0.228,-0.176 -0.059,-0.077 -0.1,-0.168 -0.124,-0.272 -0.024,-0.104 -0.036,-0.218 -0.036,-0.344 v -1.044 h 0.328 v 0.972 c 0,0.23 0.033,0.392 0.1,0.488 0.069,0.096 0.184,0.144 0.344,0.144 0.034,0 0.069,-0.001 0.104,-0.004 0.037,-0.002 0.072,-0.005 0.104,-0.008 0.032,-0.005 0.06,-0.009 0.084,-0.012 0.024,-0.005 0.04,-0.009 0.048,-0.011 v -1.568 h 0.332 z"
   style="fill:#00ff00;fill-rule:nonzero" />
            <path
   id="path1563"
   d="m 330.179,-81.415 c -0.118,0 -0.215,-0.016 -0.292,-0.048 -0.078,-0.032 -0.139,-0.08 -0.184,-0.144 -0.046,-0.064 -0.078,-0.142 -0.096,-0.236 -0.019,-0.096 -0.029,-0.206 -0.029,-0.332 v -1.756 h -0.536 v -0.28 h 0.864 v 2.036 c 0,0.094 0.006,0.17 0.017,0.228 0.014,0.059 0.032,0.107 0.056,0.144 0.027,0.035 0.059,0.059 0.097,0.072 0.037,0.014 0.081,0.02 0.132,0.02 0.077,0 0.149,-0.009 0.216,-0.028 0.066,-0.018 0.118,-0.038 0.156,-0.06 l 0.047,0.28 c -0.015,0.008 -0.037,0.019 -0.068,0.032 -0.029,0.011 -0.064,0.022 -0.104,0.032 -0.04,0.011 -0.084,0.02 -0.132,0.028 -0.045,0.008 -0.093,0.012 -0.144,0.012 z"
   style="fill:#00ff00;fill-rule:nonzero" />
            <path
   id="path1565"
   d="m 332.179,-81.415 c -0.118,0 -0.215,-0.016 -0.292,-0.048 -0.078,-0.032 -0.139,-0.08 -0.184,-0.144 -0.046,-0.064 -0.078,-0.142 -0.096,-0.236 -0.019,-0.096 -0.029,-0.206 -0.029,-0.332 v -1.756 h -0.536 v -0.28 h 0.864 v 2.036 c 0,0.094 0.006,0.17 0.017,0.228 0.014,0.059 0.032,0.107 0.056,0.144 0.027,0.035 0.059,0.059 0.096,0.072 0.038,0.014 0.082,0.02 0.133,0.02 0.077,0 0.149,-0.009 0.216,-0.028 0.066,-0.018 0.118,-0.038 0.155,-0.06 l 0.048,0.28 c -0.015,0.008 -0.037,0.019 -0.068,0.032 -0.029,0.011 -0.064,0.022 -0.104,0.032 -0.04,0.011 -0.084,0.02 -0.132,0.028 -0.045,0.008 -0.093,0.012 -0.144,0.012 z"
   style="fill:#00ff00;fill-rule:nonzero" />
            <path
   id="path1567"
   d="m 334.231,-81.923 c 0,-0.066 -0.028,-0.121 -0.084,-0.164 -0.054,-0.042 -0.122,-0.08 -0.204,-0.112 -0.08,-0.032 -0.168,-0.062 -0.264,-0.092 -0.096,-0.032 -0.186,-0.07 -0.268,-0.116 -0.08,-0.045 -0.148,-0.101 -0.204,-0.168 -0.053,-0.066 -0.08,-0.153 -0.08,-0.26 0,-0.149 0.06,-0.273 0.18,-0.372 0.123,-0.101 0.313,-0.152 0.572,-0.152 0.101,0 0.205,0.008 0.312,0.024 0.109,0.014 0.203,0.032 0.28,0.056 l -0.06,0.296 c -0.022,-0.01 -0.051,-0.021 -0.088,-0.032 -0.037,-0.013 -0.08,-0.024 -0.128,-0.032 -0.048,-0.01 -0.1,-0.018 -0.156,-0.024 -0.053,-0.005 -0.105,-0.008 -0.156,-0.008 -0.288,0 -0.432,0.079 -0.432,0.236 0,0.056 0.027,0.104 0.08,0.144 0.056,0.038 0.125,0.072 0.208,0.104 0.083,0.032 0.172,0.066 0.268,0.1 0.096,0.032 0.185,0.072 0.268,0.12 0.083,0.048 0.151,0.107 0.204,0.176 0.056,0.067 0.084,0.152 0.084,0.256 0,0.168 -0.066,0.299 -0.196,0.392 -0.131,0.091 -0.337,0.136 -0.62,0.136 -0.128,0 -0.245,-0.01 -0.352,-0.032 -0.107,-0.021 -0.208,-0.053 -0.304,-0.096 l 0.064,-0.3 c 0.093,0.043 0.191,0.079 0.292,0.108 0.104,0.027 0.215,0.04 0.332,0.04 0.301,0 0.452,-0.076 0.452,-0.228 z"
   style="fill:#00ff00;fill-rule:nonzero" />
            <path
   id="path1569"
   d="m 335.111,-83.263 c 0.12,-0.029 0.238,-0.052 0.356,-0.068 0.12,-0.016 0.232,-0.024 0.336,-0.024 0.248,0 0.434,0.064 0.56,0.192 0.128,0.128 0.192,0.334 0.192,0.616 v 1.088 h -0.328 v -1.028 c 0,-0.12 -0.011,-0.217 -0.032,-0.292 -0.022,-0.074 -0.053,-0.132 -0.093,-0.172 -0.037,-0.043 -0.084,-0.072 -0.14,-0.088 -0.053,-0.016 -0.112,-0.024 -0.176,-0.024 -0.053,0 -0.11,0.004 -0.172,0.012 -0.058,0.005 -0.116,0.013 -0.172,0.024 v 1.568 h -0.332 z"
   style="fill:#00ff00;fill-rule:nonzero" />
            <path
   id="path1571"
   d="m 337.847,-81.695 c 0.082,0 0.156,-0.002 0.22,-0.008 0.066,-0.005 0.121,-0.012 0.164,-0.02 v -0.552 c -0.043,-0.013 -0.095,-0.024 -0.156,-0.032 -0.059,-0.008 -0.122,-0.012 -0.188,-0.012 -0.062,0 -0.122,0.006 -0.18,0.016 -0.059,0.008 -0.111,0.024 -0.156,0.048 -0.046,0.024 -0.083,0.056 -0.112,0.096 -0.03,0.038 -0.044,0.086 -0.044,0.144 0,0.12 0.04,0.204 0.12,0.252 0.083,0.046 0.193,0.068 0.332,0.068 z m -0.032,-1.664 c 0.138,0 0.254,0.018 0.348,0.052 0.096,0.035 0.173,0.083 0.232,0.144 0.058,0.062 0.1,0.136 0.124,0.224 0.024,0.088 0.036,0.184 0.036,0.288 v 1.16 c -0.078,0.014 -0.18,0.03 -0.308,0.048 -0.126,0.019 -0.255,0.028 -0.388,0.028 -0.102,0 -0.2,-0.009 -0.296,-0.028 -0.096,-0.016 -0.182,-0.045 -0.256,-0.088 -0.075,-0.045 -0.135,-0.106 -0.18,-0.184 -0.046,-0.077 -0.068,-0.176 -0.068,-0.296 0,-0.106 0.022,-0.196 0.068,-0.268 0.048,-0.074 0.108,-0.134 0.18,-0.18 0.074,-0.045 0.158,-0.077 0.252,-0.096 0.096,-0.021 0.192,-0.032 0.288,-0.032 0.13,0 0.258,0.015 0.384,0.044 v -0.092 c 0,-0.056 -0.007,-0.109 -0.02,-0.16 -0.011,-0.053 -0.034,-0.101 -0.068,-0.144 -0.032,-0.042 -0.077,-0.076 -0.136,-0.1 -0.056,-0.026 -0.129,-0.04 -0.22,-0.04 -0.115,0 -0.215,0.008 -0.3,0.024 -0.086,0.016 -0.151,0.032 -0.196,0.048 l -0.04,-0.272 c 0.045,-0.021 0.12,-0.04 0.224,-0.056 0.106,-0.016 0.22,-0.024 0.34,-0.024 z"
   style="fill:#00ff00;fill-rule:nonzero" />
            <path
   id="path1573"
   d="m 339.023,-82.383 c 0,-0.168 0.026,-0.313 0.08,-0.436 0.053,-0.122 0.126,-0.224 0.22,-0.304 0.093,-0.08 0.201,-0.138 0.324,-0.176 0.125,-0.04 0.258,-0.06 0.4,-0.06 0.09,0 0.18,0.007 0.267,0.02 0.091,0.011 0.187,0.032 0.288,0.064 l -0.075,0.284 c -0.089,-0.032 -0.17,-0.052 -0.245,-0.06 -0.072,-0.01 -0.145,-0.015 -0.22,-0.015 -0.096,0 -0.186,0.013 -0.272,0.04 -0.085,0.024 -0.16,0.064 -0.224,0.12 -0.061,0.053 -0.11,0.123 -0.148,0.212 -0.037,0.085 -0.055,0.189 -0.055,0.312 0,0.117 0.017,0.218 0.051,0.304 0.035,0.082 0.083,0.151 0.144,0.208 0.065,0.053 0.141,0.093 0.228,0.12 0.088,0.026 0.186,0.039 0.292,0.039 0.086,0 0.167,-0.003 0.244,-0.011 0.08,-0.011 0.167,-0.032 0.26,-0.064 l 0.048,0.276 c -0.093,0.034 -0.188,0.058 -0.284,0.072 -0.096,0.016 -0.2,0.024 -0.312,0.024 -0.149,0 -0.286,-0.02 -0.412,-0.06 -0.122,-0.043 -0.229,-0.104 -0.32,-0.184 -0.088,-0.08 -0.157,-0.18 -0.208,-0.3 -0.048,-0.123 -0.072,-0.264 -0.072,-0.424 z"
   style="fill:#00ff00;fill-rule:nonzero" />
            <path
   id="path1575"
   d="m 341.779,-82.479 c 0.072,0.054 0.153,0.122 0.244,0.204 0.09,0.08 0.18,0.167 0.268,0.26 0.09,0.094 0.176,0.19 0.256,0.288 0.08,0.096 0.143,0.186 0.191,0.268 h -0.392 c -0.05,-0.082 -0.113,-0.166 -0.187,-0.252 -0.075,-0.088 -0.155,-0.172 -0.241,-0.252 -0.082,-0.08 -0.166,-0.153 -0.252,-0.22 -0.082,-0.066 -0.157,-0.122 -0.223,-0.168 v 0.892 h -0.332 v -2.716 l 0.332,-0.056 v 1.692 c 0.146,-0.128 0.293,-0.254 0.44,-0.38 0.146,-0.128 0.278,-0.26 0.396,-0.396 h 0.388 c -0.115,0.136 -0.254,0.276 -0.416,0.42 -0.161,0.144 -0.318,0.283 -0.472,0.416 z"
   style="fill:#00ff00;fill-rule:nonzero" />
            <path
   id="path1577"
   d="m 344.363,-84.023 c -0.248,0.192 -0.438,0.414 -0.568,0.664 -0.131,0.251 -0.196,0.524 -0.196,0.82 0,0.15 0.014,0.291 0.044,0.424 0.032,0.134 0.078,0.262 0.14,0.384 0.064,0.123 0.144,0.242 0.24,0.356 0.099,0.115 0.215,0.23 0.348,0.344 l -0.18,0.24 c -0.307,-0.226 -0.536,-0.489 -0.688,-0.788 -0.149,-0.301 -0.224,-0.618 -0.224,-0.952 0,-0.33 0.076,-0.646 0.228,-0.948 0.152,-0.301 0.38,-0.562 0.684,-0.784 l 0.176,0.24 z"
   style="fill:#00ff00;fill-rule:nonzero" />
            <path
   id="path1579"
   d="m 357.287,-81.031 c 0.248,-0.192 0.437,-0.413 0.568,-0.664 0.133,-0.25 0.2,-0.524 0.2,-0.82 0,-0.149 -0.016,-0.29 -0.048,-0.424 -0.029,-0.133 -0.076,-0.261 -0.14,-0.384 -0.064,-0.122 -0.146,-0.241 -0.244,-0.356 -0.096,-0.114 -0.211,-0.229 -0.344,-0.344 l 0.18,-0.24 c 0.306,0.227 0.534,0.491 0.684,0.792 0.152,0.299 0.228,0.615 0.228,0.948 0,0.166 -0.02,0.328 -0.06,0.488 -0.038,0.16 -0.095,0.315 -0.172,0.464 -0.075,0.147 -0.17,0.286 -0.284,0.416 -0.113,0.134 -0.245,0.255 -0.396,0.364 l -0.176,-0.24 z"
   style="fill:#00ff00;fill-rule:nonzero" />
        </g></g>
    </g>
</svg>
