<?xml version="1.0" encoding="UTF-8" standalone="no"?>
<svg
   xmlns:dc="http://purl.org/dc/elements/1.1/"
   xmlns:cc="http://creativecommons.org/ns#"
   xmlns:rdf="http://www.w3.org/1999/02/22-rdf-syntax-ns#"
   xmlns:svg="http://www.w3.org/2000/svg"
   xmlns="http://www.w3.org/2000/svg"
   xmlns:sodipodi="http://sodipodi.sourceforge.net/DTD/sodipodi-0.dtd"
   xmlns:inkscape="http://www.inkscape.org/namespaces/inkscape"
   sodipodi:docname="fullsnack_shirt.svg"
   inkscape:version="1.0 (4035a4fb49, 2020-05-01)"
   id="svg8"
   version="1.1"
   viewBox="0 0 24.636646 29.835097"
   height="29.835096mm"
   width="24.636646mm">
  <defs
     id="defs2" />
  <sodipodi:namedview
     inkscape:document-rotation="0"
     inkscape:window-maximized="1"
     inkscape:window-y="-9"
     inkscape:window-x="-9"
     inkscape:window-height="1001"
     inkscape:window-width="1920"
     fit-margin-bottom="0"
     fit-margin-right="0"
     fit-margin-left="0"
     fit-margin-top="0"
     inkscape:pagecheckerboard="true"
     showgrid="false"
     inkscape:current-layer="layer1"
     inkscape:document-units="mm"
     inkscape:cy="16.861876"
     inkscape:cx="57.951723"
     inkscape:zoom="11.2"
     inkscape:pageshadow="2"
     inkscape:pageopacity="0.0"
     borderopacity="1.0"
     bordercolor="#666666"
     pagecolor="#ffffff"
     id="base" />
  <metadata
     id="metadata5">
    <rdf:RDF>
      <cc:Work
         rdf:about="">
        <dc:format>image/svg+xml</dc:format>
        <dc:type
           rdf:resource="http://purl.org/dc/dcmitype/StillImage" />
        <dc:title />
      </cc:Work>
    </rdf:RDF>
  </metadata>
  <g
     style="display:inline"
     transform="translate(-329.97283,-265.24728)"
     id="layer1"
     inkscape:groupmode="layer"
     inkscape:label="Layer 1">
    <g
       transform="translate(329.97283,264.31884)"
       id="g5165"
       style="display:inline">
      <g
         inkscape:label="Layer 1"
         id="layer1-0"
         transform="translate(-84.473399,-131.83647)"
         style="display:inline" />
      <g
         transform="translate(-7.8954188,-28.530371)"
         id="layer3-1"
         inkscape:label="Color">
        <path
           style="opacity:1;fill:#ffffff;fill-opacity:1;stroke:none;stroke-width:1.2;stroke-linecap:butt;stroke-linejoin:miter;stroke-miterlimit:4;stroke-dasharray:none;stroke-opacity:1"
           d="m 28.94971,30.372591 c 1.635877,2.807358 3.434163,11.019746 2.186079,19.813197 -0.03749,2.612124 -0.948812,7.588671 -0.948812,8.244208 0,0 -3.899134,0.09989 -7.229493,0.03625 -3.330358,-0.06364 -4.796869,0.06737 -8.216413,0.06336 0.02949,-1.657652 -5.3976359,-4.790926 -2.267857,-8.343822 0,-5.167442 -0.342243,-10.519109 0.47247,-15.449778 0.254528,-4.326972 4.855698,-2.933067 7.181548,-4.677457 2.923695,-0.409606 4.488693,-0.526788 8.822478,0.314035 z"
           id="path831-5"
           inkscape:connector-curvature="0"
           sodipodi:nodetypes="ccczcccccc" />
        <path
           style="fill:#0276b1;fill-opacity:1;stroke:none;stroke-width:0.264583px;stroke-linecap:butt;stroke-linejoin:miter;stroke-opacity:1"
           d="m 16.725446,36.81488 c 0.260421,-2.556769 3.987942,-6.623181 3.987942,-6.623181 0,0 -4.511124,-0.378288 -5.879929,1.069079 -4.368124,4.618829 -2.360245,18.925011 -2.360245,18.925011 0,0 -4.5795761,2.614718 -4.1562481,4.060169 0.59027,2.01547 5.9800391,4.399895 6.4241051,2.696156 0.444066,-1.703739 1.28661,-13.276693 1.984375,-20.127234 z"
           id="path847"
           inkscape:connector-curvature="0"
           sodipodi:nodetypes="scscszs" />
        <path
           style="fill:#0276b1;fill-opacity:1;stroke:none;stroke-width:0.264583px;stroke-linecap:butt;stroke-linejoin:miter;stroke-opacity:1"
           d="m 27.746123,29.879918 c -2.953319,-0.167836 1.604089,3.784547 1.358041,8.54136 -0.246048,4.756813 2.173364,14.126862 2.173364,14.126862 0,0 2.178654,-16.525137 -1.476976,-21.955536 -0.567383,-0.842841 -1.103416,-0.65864 -2.054429,-0.712686 z"
           id="path849"
           inkscape:connector-curvature="0"
           sodipodi:nodetypes="szcss" />
      </g>
      <g
         transform="translate(-7.8954188,-28.530371)"
         id="layer2-2"
         inkscape:label="Re-ink"
         style="display:inline">
        <path
           sodipodi:nodetypes="cc"
           id="path905"
           d="m 15.306227,52.99312 c -0.423415,4.241926 -0.479826,2.928287 -0.565156,5.536486"
           style="fill:none;stroke:#000000;stroke-width:1.2;stroke-linecap:butt;stroke-linejoin:miter;stroke-miterlimit:4;stroke-dasharray:none;stroke-opacity:1" />
        <path
           style="opacity:1;fill:none;fill-opacity:1;stroke:#000000;stroke-width:1.2;stroke-linecap:butt;stroke-linejoin:miter;stroke-miterlimit:4;stroke-dasharray:none;stroke-opacity:1"
           d="m 28.94971,30.372591 c 0.955508,0.116443 2.429233,6.042953 2.71946,9.24064 0.470339,5.182141 -0.391642,12.934909 -1.638964,15.524046"
           id="path831"
           inkscape:connector-curvature="0"
           sodipodi:nodetypes="cac" />
        <path
           style="fill:none;stroke:#000000;stroke-width:1.2;stroke-linecap:butt;stroke-linejoin:miter;stroke-miterlimit:4;stroke-dasharray:none;stroke-opacity:1"
           d="m 16.394717,36.578645 c -1.648817,5.874613 0.179145,15.295667 -1.702701,18.200412 -1.273861,7.360232 -11.7741761,-1.890817 -2.218802,-4.593268 0,-5.167441 -0.342243,-10.519106 0.47247,-15.449777 0.254528,-4.326971 2.647247,-4.225527 5.173549,-4.29948"
           id="path856"
           inkscape:connector-curvature="0"
           sodipodi:nodetypes="ccccc" />
        <path
           style="fill:none;stroke:#000000;stroke-width:1.2;stroke-linecap:butt;stroke-linejoin:miter;stroke-miterlimit:4;stroke-dasharray:none;stroke-opacity:1"
           d="m 29.104165,38.421279 c -0.654058,4.302781 1.087122,12.790482 1.082812,20.008717"
           id="path858"
           inkscape:connector-curvature="0"
           sodipodi:nodetypes="cc" />
      </g>
    </g>
  </g>
  <g
     sodipodi:insensitive="true"
     style="display:inline"
     transform="translate(-106.0295,-13.937037)"
     inkscape:label="Re-ink"
     id="layer2"
     inkscape:groupmode="layer">
    <path
       sodipodi:nodetypes="csssszzcsc"
       inkscape:connector-curvature="0"
       id="path827-1"
       d="m 111.2673,15.729671 c -0.92152,4.271598 -1.10981,11.545021 -0.89428,15.292256 0.0769,1.336512 3.11298,0.146572 3.68236,1.350904 1.01203,2.140575 -4.00328,10.311165 -1.2883,10.650772 4.80707,0.601296 12.1488,0.265189 16.17434,-0.189436 1.20285,-0.135844 0.2755,-5.071641 0.94819,-8.803929 0.67269,-3.732287 0.55569,-18.343536 -1.92387,-19.371054 -2.47958,-1.027521 -2.11828,2.062706 -6.12475,0.962401 -2.64074,-0.614126 -10.12597,-1.967194 -10.57366,0.108076 z"
       style="display:inline;opacity:1;fill:#333333;fill-opacity:1;stroke:#000000;stroke-width:0.844482px;stroke-linecap:butt;stroke-linejoin:miter;stroke-opacity:1" />
    <path
       sodipodi:nodetypes="cc"
       inkscape:connector-curvature="0"
       id="path829-0"
       d="M 114.37102,33.426539 114.5288,19.998533"
       style="display:inline;fill:none;stroke:#000000;stroke-width:0.478761;stroke-linecap:butt;stroke-linejoin:miter;stroke-miterlimit:4;stroke-dasharray:none;stroke-opacity:1" />
    <path
       sodipodi:nodetypes="czc"
       inkscape:connector-curvature="0"
       id="path833-5"
       d="m 127.1015,23.889142 c 0,0 -0.25634,4.651306 0.1052,6.700494 0.36149,2.049185 2.55769,6.774269 2.55769,6.774269"
       style="display:inline;fill:none;stroke:#000000;stroke-width:0.478761;stroke-linecap:butt;stroke-linejoin:miter;stroke-miterlimit:4;stroke-dasharray:none;stroke-opacity:1" />
    <path
       sodipodi:nodetypes="cc"
       inkscape:connector-curvature="0"
       id="path829"
       d="M 114.37102,33.426539 114.5288,19.998533"
       style="fill:none;stroke:#000000;stroke-width:0.478761;stroke-linecap:butt;stroke-linejoin:miter;stroke-miterlimit:4;stroke-dasharray:none;stroke-opacity:1" />
    <path
       sodipodi:nodetypes="czc"
       inkscape:connector-curvature="0"
       id="path833"
       d="m 127.1015,23.889142 c 0,0 -0.25634,4.651306 0.1052,6.700494 0.36149,2.049185 2.55769,6.774269 2.55769,6.774269"
       style="fill:none;stroke:#000000;stroke-width:0.478761;stroke-linecap:butt;stroke-linejoin:miter;stroke-miterlimit:4;stroke-dasharray:none;stroke-opacity:1" />
    <g
       id="g1537"
       transform="matrix(0.37565234,0.1881546,-0.17456175,0.34851411,91.177397,1.2162896)">
      <path
         style="stroke-width:0.264583"
         id="path1468"
         d="m 103.73439,28.434599 c -0.27675,1.658937 -2.04311,2.76516 -4.562738,2.76516 -2.519627,0 -4.285721,-1.106223 -4.562211,-2.76516 -0.06535,-0.391319 0.04127,-2.148417 0.278871,-2.488671 0.677069,-0.969433 0.919163,2.742406 4.28334,2.742406 3.663688,0 3.608918,-3.711575 4.285988,-2.742406 0.23759,0.340254 0.34184,2.097352 0.27675,2.488671 z"
         fill="#ffac33" />
      <path
         style="stroke-width:0.264583"
         id="path1470"
         d="m 99.171652,23.790103 c -2.468827,0 -4.470136,1.21285 -4.470136,2.709069 0,1.496219 2.001309,2.709333 4.470136,2.709333 2.468558,0 4.470138,-1.213114 4.470138,-2.709333 0,-1.496219 -2.00158,-2.709069 -4.470138,-2.709069 z m 0,3.538538 c -0.839788,0 -1.520825,-0.185738 -1.520825,-0.414867 0,-0.229129 0.681037,-0.414602 1.520825,-0.414602 0.839518,0 1.520558,0.185473 1.520558,0.414602 2.7e-4,0.229129 -0.68077,0.414867 -1.520558,0.414867 z"
         fill="#8a4b38" />
      <path
         style="stroke-width:0.264583"
         id="path1472"
         d="m 94.839893,26.072928 c -0.172773,0.27649 -0.243416,1.453621 0.126736,2.004748 0.564621,0.841375 0.84111,0.414602 1.255977,0.541602 0.617802,0.189177 0.663575,0.677333 1.151996,0.921544 0.552979,0.276489 0.874712,0.196056 1.658937,0 1.106221,-0.27649 1.808961,0.287866 2.488411,0 0.55747,-0.236273 0.8763,-1.094581 1.18692,-1.198034 0.98636,-0.328612 1.19459,-1.884891 0.46064,-2.523331 -0.23019,0.483923 -1.35943,2.223559 -2.08519,2.304521 -0.72601,0.0807 -2.903533,0.264583 -3.825077,-0.207433 -0.921808,-0.472282 -1.854729,-1.059921 -1.970087,-1.221317 -0.115359,-0.16166 -0.449263,-0.6223 -0.449263,-0.6223 z"
         fill="#8a4b38" />
      <path
         style="stroke-width:0.264583"
         id="path1474"
         d="m 99.171652,25.876872 c -0.992717,0 -1.797315,0.324908 -1.797315,0.725752 0,0.155839 0.122502,0.299773 0.329406,0.418042 -0.03334,-0.03413 -0.05292,-0.06985 -0.05292,-0.106892 0,-0.229129 0.681037,-0.414602 1.520825,-0.414602 0.839522,0 1.520562,0.185473 1.520562,0.414602 0,0.03704 -0.0193,0.0725 -0.0529,0.106892 0.2069,-0.118269 0.32967,-0.262203 0.32967,-0.418042 2.6e-4,-0.400844 -0.8046,-0.725752 -1.797322,-0.725752 z"
         fill="#f4900c" />
      <path
         style="stroke-width:0.264583"
         id="path1476"
         d="m 95.554268,27.006113 a 0.276225,0.276225 0 0 1 -0.129381,-0.520964 l 0.610658,-0.322792 a 0.27596041,0.27596041 0 0 1 0.373592,0.115359 c 0.07144,0.134937 0.01984,0.302418 -0.115358,0.373591 l -0.610659,0.322792 a 0.27648958,0.27648958 0 0 1 -0.128852,0.03201 z m 3.145102,2.062163 c -0.108479,0 -0.211402,-0.06403 -0.255587,-0.170921 l -0.195792,-0.472546 a 0.27648958,0.27648958 0 1 1 0.510646,-0.211402 l 0.195792,0.472546 a 0.276225,0.276225 0 0 1 -0.255059,0.382323 z"
         fill="#f4abba" />
      <path
         style="stroke-width:0.264583"
         id="path1478"
         d="m 101.8331,27.962318 a 0.276225,0.276225 0 0 1 -0.2376,-0.417248 l 0.29951,-0.506942 a 0.27650215,0.27650215 0 0 1 0.47598,0.281517 l -0.29951,0.506677 c -0.0516,0.08731 -0.14366,0.135996 -0.23838,0.135996 z"
         fill="#55acee" />
      <path
         style="stroke-width:0.264583"
         id="path1480"
         d="m 102.294,25.908093 c -0.14817,0 -0.27067,-0.127265 -0.27596,-0.276755 a 0.2809875,0.2809875 0 0 1 0.26643,-0.291041 l 0.32227,-0.01376 c 0.15531,-0.0019 0.28098,0.112713 0.28601,0.265378 0.006,0.152664 -0.11403,0.289983 -0.26643,0.295275 l -0.32227,0.0209 z m -2.672557,-1.091142 a 0.27675416,0.27675416 0 0 1 -0.08361,-0.540279 l 0.218546,-0.06906 a 0.27668249,0.27668249 0 0 1 0.166952,0.527579 l -0.218546,0.06906 a 0.27728333,0.27728333 0 0 1 -0.08334,0.0127 z"
         fill="#f4abba" />
      <path
         style="stroke-width:0.264583"
         id="path1482"
         d="m 98.088447,25.266213 c -0.04154,0 -0.08361,-0.0095 -0.123295,-0.0291 l -0.207434,-0.103716 a 0.27675416,0.27675416 0 0 1 0.247121,-0.494771 l 0.207433,0.103716 a 0.27675416,0.27675416 0 0 1 -0.123825,0.523875 z m 2.408233,3.513667 a 0.2778125,0.2778125 0 0 1 -0.12303,-0.02884 l -0.20743,-0.103453 a 0.27648958,0.27648958 0 0 1 0.24633,-0.495035 l 0.20743,0.103452 a 0.27648958,0.27648958 0 0 1 -0.1233,0.523876 z"
         fill="#88c9f9" />
      <path
         style="stroke-width:0.264583"
         id="path1484"
         d="m 96.878772,28.169751 a 0.27648958,0.27648958 0 0 1 -0.254,-0.385498 l 0.103717,-0.241829 a 0.27652519,0.27652519 0 1 1 0.508265,0.218017 l -0.103717,0.241829 c -0.04498,0.10451 -0.146844,0.167481 -0.254265,0.167481 z m 4.125388,-2.615406 a 0.276225,0.276225 0 0 1 -0.11113,-0.529961 l 0.18415,-0.0807 c 0.14023,-0.06138 0.30321,0.0026 0.36407,0.142346 a 0.27701875,0.27701875 0 0 1 -0.14235,0.364331 l -0.18415,0.0807 a 0.27516666,0.27516666 0 0 1 -0.11059,0.02328 z m -4.493423,-0.01138 c -0.02064,0 -0.04154,-0.0024 -0.06218,-0.0071 l -0.149754,-0.0344 a 0.27675416,0.27675416 0 0 1 0.124089,-0.538956 l 0.149755,0.0344 a 0.27675416,0.27675416 0 0 1 -0.06191,0.5461 z"
         fill="#55acee" />
    </g>
    <g
       style="font-style:normal;font-weight:normal;font-size:2.11667px;line-height:1.25;font-family:sans-serif;letter-spacing:0px;word-spacing:0px;fill:#000000;fill-opacity:1;stroke:none;stroke-width:0.264583"
       id="text1543"
       transform="rotate(26.605111)"
       aria-label="fullsnack(      )">
      <path
         id="path1559"
         style="font-style:normal;font-variant:normal;font-weight:normal;font-stretch:normal;font-size:1.41111px;font-family:'Ubuntu Mono';-inkscape-font-specification:'Ubuntu Mono';text-align:center;text-anchor:middle;fill:#00ff00;stroke-width:0.264583"
         d="m 114.81883,-28.736828 v -0.557388 h -0.13829 v -0.09737 h 0.13829 v -0.05927 q 0,-0.0762 0.0212,-0.125588 0.0212,-0.0508 0.055,-0.08185 0.0353,-0.03104 0.0804,-0.04374 0.0466,-0.0127 0.0974,-0.0127 0.0508,0 0.1016,0.01129 0.0522,0.01129 0.0974,0.02681 l -0.0212,0.100189 q -0.031,-0.01552 -0.0776,-0.02681 -0.0466,-0.01129 -0.0945,-0.01129 -0.0296,0 -0.0564,0.0085 -0.0254,0.0071 -0.0452,0.02681 -0.0198,0.01835 -0.031,0.0508 -0.0113,0.03104 -0.0113,0.07902 v 0.05785 h 0.26388 v 0.09737 h -0.26388 v 0.557388 z" />
      <path
         id="path1561"
         style="font-style:normal;font-variant:normal;font-weight:normal;font-stretch:normal;font-size:1.41111px;font-family:'Ubuntu Mono';-inkscape-font-specification:'Ubuntu Mono';text-align:center;text-anchor:middle;fill:#00ff00;stroke-width:0.264583"
         d="m 115.90256,-28.755172 q -0.0381,0.0099 -0.1016,0.02117 -0.0621,0.01129 -0.14675,0.01129 -0.0748,0 -0.12418,-0.02117 -0.0494,-0.02258 -0.0804,-0.06209 -0.0311,-0.04092 -0.0438,-0.09596 -0.0127,-0.05503 -0.0127,-0.121355 v -0.3683 h 0.11571 v 0.3429 q 0,0.121355 0.0353,0.172155 0.0367,0.0508 0.12136,0.0508 0.0183,0 0.0367,-0.0014 0.0198,-0.0014 0.0367,-0.0028 0.0169,-0.0028 0.0296,-0.0042 0.0127,-0.0028 0.0169,-0.0042 v -0.553155 h 0.11712 z" />
      <path
         id="path1563"
         style="font-style:normal;font-variant:normal;font-weight:normal;font-stretch:normal;font-size:1.41111px;font-family:'Ubuntu Mono';-inkscape-font-specification:'Ubuntu Mono';text-align:center;text-anchor:middle;fill:#00ff00;stroke-width:0.264583"
         d="m 116.47971,-28.721306 q -0.0621,0 -0.10301,-0.01693 -0.0409,-0.01693 -0.0649,-0.0508 -0.024,-0.03387 -0.0339,-0.08326 -0.01,-0.0508 -0.01,-0.117123 v -0.619477 h -0.18909 v -0.09878 h 0.3048 v 0.718255 q 0,0.04939 0.006,0.08043 0.007,0.03104 0.0198,0.0508 0.0141,0.01834 0.0339,0.0254 0.0198,0.0071 0.0466,0.0071 0.0409,0 0.0762,-0.0099 0.0353,-0.0099 0.055,-0.02117 l 0.0169,0.09878 q -0.008,0.0042 -0.024,0.01129 -0.0155,0.0056 -0.0367,0.01129 -0.0212,0.0056 -0.0466,0.0099 -0.024,0.0042 -0.0508,0.0042 z" />
      <path
         id="path1565"
         style="font-style:normal;font-variant:normal;font-weight:normal;font-stretch:normal;font-size:1.41111px;font-family:'Ubuntu Mono';-inkscape-font-specification:'Ubuntu Mono';text-align:center;text-anchor:middle;fill:#00ff00;stroke-width:0.264583"
         d="m 117.18526,-28.721306 q -0.0621,0 -0.10301,-0.01693 -0.0409,-0.01693 -0.0649,-0.0508 -0.024,-0.03387 -0.0339,-0.08326 -0.01,-0.0508 -0.01,-0.117123 v -0.619477 h -0.18909 v -0.09878 h 0.3048 v 0.718255 q 0,0.04939 0.006,0.08043 0.007,0.03104 0.0198,0.0508 0.0141,0.01834 0.0339,0.0254 0.0198,0.0071 0.0466,0.0071 0.0409,0 0.0762,-0.0099 0.0353,-0.0099 0.055,-0.02117 l 0.0169,0.09878 q -0.008,0.0042 -0.024,0.01129 -0.0155,0.0056 -0.0367,0.01129 -0.0212,0.0056 -0.0466,0.0099 -0.024,0.0042 -0.0508,0.0042 z" />
      <path
         id="path1567"
         style="font-style:normal;font-variant:normal;font-weight:normal;font-stretch:normal;font-size:1.41111px;font-family:'Ubuntu Mono';-inkscape-font-specification:'Ubuntu Mono';text-align:center;text-anchor:middle;fill:#00ff00;stroke-width:0.264583"
         d="m 117.90916,-28.900517 q 0,-0.03528 -0.0296,-0.05785 -0.0282,-0.02258 -0.072,-0.03951 -0.0423,-0.01693 -0.0931,-0.03246 -0.0508,-0.01693 -0.0945,-0.04092 -0.0423,-0.02399 -0.072,-0.05927 -0.0282,-0.03528 -0.0282,-0.09172 0,-0.07902 0.0635,-0.131233 0.0649,-0.05362 0.20178,-0.05362 0.0536,0 0.11007,0.0085 0.0579,0.0071 0.0988,0.01975 l -0.0212,0.104422 q -0.0113,-0.0056 -0.031,-0.01129 -0.0198,-0.0071 -0.0452,-0.01129 -0.0254,-0.0056 -0.055,-0.0085 -0.0282,-0.0028 -0.055,-0.0028 -0.1524,0 -0.1524,0.08325 0,0.02963 0.0282,0.0508 0.0296,0.01976 0.0734,0.03669 0.0437,0.01693 0.0945,0.03528 0.0508,0.01693 0.0945,0.04233 0.0438,0.0254 0.072,0.06209 0.0296,0.03528 0.0296,0.09031 0,0.0889 -0.0691,0.138289 -0.0691,0.04798 -0.21872,0.04798 -0.0677,0 -0.12418,-0.01129 -0.0564,-0.01129 -0.10724,-0.03387 l 0.0226,-0.105833 q 0.0494,0.02258 0.10301,0.0381 0.055,0.01411 0.11713,0.01411 0.15945,0 0.15945,-0.08043 z" />
      <path
         id="path1569"
         style="font-style:normal;font-variant:normal;font-weight:normal;font-stretch:normal;font-size:1.41111px;font-family:'Ubuntu Mono';-inkscape-font-specification:'Ubuntu Mono';text-align:center;text-anchor:middle;fill:#00ff00;stroke-width:0.264583"
         d="m 118.21961,-29.373238 q 0.0635,-0.01552 0.12558,-0.02399 0.0635,-0.0085 0.11854,-0.0085 0.13123,0 0.19755,0.06773 0.0677,0.06773 0.0677,0.217311 v 0.383822 h -0.11571 v -0.362655 q 0,-0.0635 -0.0113,-0.103011 -0.0113,-0.03951 -0.0325,-0.06068 -0.0198,-0.02258 -0.0494,-0.03104 -0.0282,-0.0085 -0.0621,-0.0085 -0.0282,0 -0.0607,0.0042 -0.031,0.0028 -0.0607,0.0085 v 0.553155 h -0.11712 z" />
      <path
         id="path1571"
         style="font-style:normal;font-variant:normal;font-weight:normal;font-stretch:normal;font-size:1.41111px;font-family:'Ubuntu Mono';-inkscape-font-specification:'Ubuntu Mono';text-align:center;text-anchor:middle;fill:#00ff00;stroke-width:0.264583"
         d="m 119.18481,-28.820083 q 0.0437,0 0.0776,-0.0028 0.0353,-0.0028 0.0578,-0.0071 v -0.194733 q -0.0226,-0.0071 -0.055,-0.01129 -0.0311,-0.0042 -0.0663,-0.0042 -0.0325,0 -0.0635,0.0056 -0.031,0.0042 -0.055,0.01693 -0.024,0.0127 -0.0395,0.03387 -0.0155,0.01975 -0.0155,0.0508 0,0.0635 0.0423,0.0889 0.0438,0.02399 0.11713,0.02399 z m -0.0113,-0.587022 q 0.0734,0 0.12276,0.01834 0.0508,0.01835 0.0819,0.0508 0.031,0.03246 0.0437,0.07902 0.0127,0.04657 0.0127,0.1016 v 0.409222 q -0.0409,0.0071 -0.10865,0.01693 -0.0663,0.0099 -0.13688,0.0099 -0.0536,0 -0.10442,-0.0099 -0.0508,-0.0085 -0.0903,-0.03104 -0.0395,-0.02399 -0.0635,-0.06491 -0.024,-0.04092 -0.024,-0.104422 0,-0.05644 0.024,-0.09454 0.0254,-0.03951 0.0635,-0.0635 0.0395,-0.02399 0.0889,-0.03387 0.0508,-0.01129 0.1016,-0.01129 0.0691,0 0.13546,0.01552 v -0.03245 q 0,-0.02963 -0.007,-0.05645 -0.006,-0.02822 -0.024,-0.0508 -0.0169,-0.02258 -0.048,-0.03528 -0.0296,-0.01411 -0.0776,-0.01411 -0.0607,0 -0.10583,0.0085 -0.0452,0.0085 -0.0692,0.01693 l -0.0141,-0.09596 q 0.024,-0.01129 0.079,-0.01975 0.0565,-0.0085 0.11995,-0.0085 z" />
      <path
         id="path1573"
         style="font-style:normal;font-variant:normal;font-weight:normal;font-stretch:normal;font-size:1.41111px;font-family:'Ubuntu Mono';-inkscape-font-specification:'Ubuntu Mono';text-align:center;text-anchor:middle;fill:#00ff00;stroke-width:0.264583"
         d="m 119.59967,-29.062794 q 0,-0.0889 0.0282,-0.153811 0.0282,-0.06491 0.0776,-0.107245 0.0494,-0.04233 0.1143,-0.06209 0.0663,-0.02117 0.14112,-0.02117 0.048,0 0.0945,0.0071 0.048,0.0056 0.1016,0.02258 l -0.0268,0.100189 q -0.0466,-0.01693 -0.0861,-0.02117 -0.0381,-0.0056 -0.0776,-0.0056 -0.0508,0 -0.096,0.01411 -0.0451,0.0127 -0.079,0.04233 -0.0324,0.02822 -0.0522,0.07479 -0.0197,0.04516 -0.0197,0.110067 0,0.06209 0.0183,0.107244 0.0183,0.04374 0.0508,0.07338 0.0339,0.02822 0.0804,0.04233 0.0466,0.01411 0.10301,0.01411 0.0452,0 0.0861,-0.0042 0.0423,-0.0056 0.0917,-0.02258 l 0.0169,0.09737 q -0.0494,0.01834 -0.10019,0.0254 -0.0508,0.0085 -0.11007,0.0085 -0.079,0 -0.14534,-0.02117 -0.0649,-0.02258 -0.11289,-0.06491 -0.0466,-0.04233 -0.0734,-0.105834 -0.0254,-0.06491 -0.0254,-0.149577 z" />
      <path
         id="path1575"
         style="font-style:normal;font-variant:normal;font-weight:normal;font-stretch:normal;font-size:1.41111px;font-family:'Ubuntu Mono';-inkscape-font-specification:'Ubuntu Mono';text-align:center;text-anchor:middle;fill:#00ff00;stroke-width:0.264583"
         d="m 120.57193,-29.096661 q 0.0381,0.02822 0.0861,0.07197 0.048,0.04233 0.0945,0.09172 0.048,0.04939 0.0903,0.1016 0.0423,0.0508 0.0677,0.09454 h -0.13829 q -0.0268,-0.04374 -0.0663,-0.0889 -0.0395,-0.04657 -0.0847,-0.0889 -0.0438,-0.04233 -0.0889,-0.07761 -0.0438,-0.03528 -0.079,-0.05927 v 0.314677 h -0.11712 v -0.958144 l 0.11712,-0.01975 v 0.596899 q 0.0776,-0.06773 0.15523,-0.134055 0.0776,-0.06773 0.13969,-0.1397 h 0.13688 q -0.0607,0.07197 -0.14675,0.148167 -0.0847,0.0762 -0.16651,0.146755 z" />
      <path
         id="path1577"
         style="font-style:normal;font-variant:normal;font-weight:normal;font-stretch:normal;font-size:1.41111px;font-family:'Ubuntu Mono';-inkscape-font-specification:'Ubuntu Mono';text-align:center;text-anchor:middle;fill:#00ff00;stroke-width:0.264583"
         d="m 121.4835,-29.641349 q -0.13123,0.1016 -0.20037,0.234244 -0.0691,0.132644 -0.0691,0.289277 0,0.07902 0.0155,0.149578 0.0169,0.07056 0.0494,0.135467 0.0339,0.06491 0.0847,0.125588 0.0522,0.06068 0.12277,0.121356 l -0.0635,0.08467 q -0.16228,-0.119945 -0.24272,-0.277989 -0.079,-0.159456 -0.079,-0.335844 0,-0.174978 0.0804,-0.334433 0.0804,-0.159456 0.2413,-0.276578 l 0.0621,0.08467 z" />
      <path
         id="path1579"
         style="font-style:normal;font-variant:normal;font-weight:normal;font-stretch:normal;font-size:1.41111px;font-family:'Ubuntu Mono';-inkscape-font-specification:'Ubuntu Mono';text-align:center;text-anchor:middle;fill:#00ff00;stroke-width:0.264583"
         d="m 126.0428,-28.585839 q 0.13123,-0.1016 0.20038,-0.234244 0.0706,-0.132645 0.0706,-0.289278 0,-0.07902 -0.0169,-0.149578 -0.0155,-0.07055 -0.0494,-0.135466 -0.0339,-0.06491 -0.0861,-0.125589 -0.0508,-0.06068 -0.12135,-0.121355 l 0.0635,-0.08467 q 0.16228,0.119944 0.2413,0.2794 0.0804,0.158044 0.0804,0.334433 0,0.08749 -0.0212,0.172155 -0.0198,0.08467 -0.0607,0.163689 -0.0395,0.07761 -0.10019,0.146756 -0.0593,0.07055 -0.1397,0.128411 l -0.0621,-0.08467 z" />
    </g>
  </g>
</svg>
