<?xml version="1.0" encoding="UTF-8" standalone="no"?>
<!DOCTYPE svg PUBLIC "-//W3C//DTD SVG 1.1//EN" "http://www.w3.org/Graphics/SVG/1.1/DTD/svg11.dtd">
<svg width="100%" height="100%" viewBox="0 0 84 98" version="1.1" xmlns="http://www.w3.org/2000/svg" xmlns:xlink="http://www.w3.org/1999/xlink" xml:space="preserve" xmlns:serif="http://www.serif.com/" style="fill-rule:evenodd;clip-rule:evenodd;">
    <g id="Re-ink" transform="matrix(1,0,0,1,-98.8467,-1.35641)">
        <g id="path2567-7" transform="matrix(0.264583,0,0,0.264583,98.8336,0.906042)">
            <g id="Color">
                <path id="path2567-71" serif:id="path2567-7" d="M277.28,6.976C276.985,6.982 276.684,7.031 276.378,7.125C226.632,22.399 142.912,20.515 109.339,25.766C101.245,27.032 66.183,210.31 7.718,294.139C-14.028,325.319 116.454,311.74 119.969,295.29C133.79,230.597 197.412,149.699 197.412,149.699C197.412,149.699 200.846,240.307 193.365,282.695C187.419,316.381 296.324,303.79 295.611,269.596C293.7,177.927 295.916,6.565 277.28,6.976Z" style="fill:rgb(0,102,255);fill-rule:nonzero;"/>
            </g>
        </g>
        <g id="Re-ink1" serif:id="Re-ink" transform="matrix(1,0,0,1,98.8336,0.906042)">
            <path id="path2567-5" d="M2.041,77.824C17.51,55.644 26.787,7.152 28.929,6.817C37.812,5.428 59.963,5.927 73.125,1.886C78.314,0.293 77.701,46.692 78.214,71.331C78.403,80.378 49.588,83.709 51.161,74.797C53.14,63.582 52.232,39.607 52.232,39.607C52.232,39.607 35.398,61.012 31.741,78.129C30.811,82.481 -3.712,86.074 2.041,77.824Z" style="fill:none;fill-rule:nonzero;stroke:black;stroke-width:2.83px;"/>
            <path id="path2571-1" d="M52.232,39.607C52.232,39.607 56.817,32.825 55.831,27.544C54.845,22.264 53.973,8.126 53.973,8.126" style="fill:none;fill-rule:nonzero;stroke:black;stroke-width:1.42px;"/>
            <path id="path2573-1" d="M55.831,27.544L58.112,7.723" style="fill:none;fill-rule:nonzero;stroke:black;stroke-width:1.42px;"/>
            <path id="path2569-1" d="M23.45,24.509C23.45,24.509 31.275,27.326 33.677,24.325C36.078,21.324 36.162,9.455 36.162,9.455L27.267,10.647L23.45,24.509Z" style="fill:rgb(103,103,103);fill-rule:nonzero;stroke:black;stroke-width:1.7px;"/>
            <path id="path2583-3" d="M27.267,10.647C27.267,10.647 28.272,7.881 29.452,7.86C41.832,7.638 60.139,5.237 73.299,3.125C74.347,2.956 74.626,6.019 73.963,6.209C63.946,9.071 27.267,10.647 27.267,10.647Z" style="fill:rgb(212,212,212);fill-rule:nonzero;"/>
            <path id="path2579-3" d="M27.267,10.647L53.856,9.307L74.626,6.019" style="fill:none;fill-rule:nonzero;stroke:black;stroke-width:1.42px;"/>
        </g>
    </g>
</svg>
