<?xml version="1.0" encoding="UTF-8" standalone="no"?>
<svg
   xmlns:dc="http://purl.org/dc/elements/1.1/"
   xmlns:cc="http://creativecommons.org/ns#"
   xmlns:rdf="http://www.w3.org/1999/02/22-rdf-syntax-ns#"
   xmlns:svg="http://www.w3.org/2000/svg"
   xmlns="http://www.w3.org/2000/svg"
   xmlns:sodipodi="http://sodipodi.sourceforge.net/DTD/sodipodi-0.dtd"
   xmlns:inkscape="http://www.inkscape.org/namespaces/inkscape"
   sodipodi:docname="jeans.svg"
   inkscape:version="1.0 (4035a4fb49, 2020-05-01)"
   id="svg2007"
   version="1.1"
   viewBox="0 0 29.473656 34.394779"
   height="34.394779mm"
   width="29.473656mm">
  <defs
     id="defs2001" />
  <sodipodi:namedview
     inkscape:document-rotation="0"
     inkscape:window-maximized="1"
     inkscape:window-y="-9"
     inkscape:window-x="-9"
     inkscape:window-height="1001"
     inkscape:window-width="1920"
     showguides="false"
     fit-margin-bottom="0"
     fit-margin-right="0"
     fit-margin-left="0"
     fit-margin-top="0"
     inkscape:pagecheckerboard="true"
     showgrid="false"
     inkscape:current-layer="layer1"
     inkscape:document-units="mm"
     inkscape:cy="39.164862"
     inkscape:cx="45.927747"
     inkscape:zoom="7.9195959"
     inkscape:pageshadow="2"
     inkscape:pageopacity="0.0"
     borderopacity="1.0"
     bordercolor="#666666"
     pagecolor="#ffffff"
     id="base" />
  <metadata
     id="metadata2004">
    <rdf:RDF>
      <cc:Work
         rdf:about="">
        <dc:format>image/svg+xml</dc:format>
        <dc:type
           rdf:resource="http://purl.org/dc/dcmitype/StillImage" />
        <dc:title></dc:title>
      </cc:Work>
    </rdf:RDF>
  </metadata>
  <g
     transform="translate(-78.963857,-134.17554)"
     id="layer1"
     inkscape:groupmode="layer"
     inkscape:label="Layer 1">
    <g
       transform="translate(79.04197,133.14299)"
       id="g5876">
      <g
         style="display:inline"
         transform="translate(-81.705925,-154.45556)"
         id="layer1-2"
         inkscape:label="Layer 1" />
      <g
         transform="translate(-5.1279453,-51.149461)"
         inkscape:label="Color"
         id="layer3">
        <path
           sodipodi:nodetypes="cccccccc"
           inkscape:connector-curvature="0"
           id="path831-5"
           d="m 31.177302,52.67103 c 0.123737,9.510183 1.695953,13.938414 0.99792,24.63455 5.989076,7.622458 -5.466142,9.257207 -8.457219,1.795388 0,-4.946536 0.06144,-10.808711 0.04725,-15.73326 -3.051778,4.577667 -6.271659,11.54185 -7.843006,17.103423 6.066786,9.10018 -9.274496,5.51039 -10.15811,0.18899 5.089364,-6.263833 7.487361,-18.941311 9.940414,-26.474811 5.154703,-0.604627 9.953305,-1.073545 15.472751,-1.51428 z"
           style="opacity:1;fill:#ffffff;fill-opacity:1;stroke:none;stroke-width:1.2;stroke-linecap:butt;stroke-linejoin:miter;stroke-miterlimit:4;stroke-dasharray:none;stroke-opacity:1" />
        <path
           sodipodi:nodetypes="zczczzcczscz"
           inkscape:connector-curvature="0"
           id="path857"
           d="m 15.270238,54.296281 c -0.52762,2.533268 6.446629,6.5124 8.920238,7.984749 4.741466,-1.55146 7.056167,-4.214834 7.606771,-7.654018 0.550604,-3.439184 0.377976,22.678568 0.377976,22.678568 0,0 2.67882,4.233216 0.566965,5.76414 -2.111855,1.530924 -7.638158,-0.210531 -9.024185,-3.968752 -1.386027,-3.758221 0.472473,-16.819938 0.472473,-16.819938 l -8.268229,18.1901 c 0,0 2.807966,4.177084 0.330729,5.764141 -2.477237,1.587057 -11.6490399,-3.641913 -10.488839,-5.57515 2.8840394,-4.80566 7.654018,-18.520832 7.654018,-18.520832 0,0 2.379703,-10.376276 1.852083,-7.843008 z"
           style="fill:#0276b1;fill-opacity:1;stroke:none;stroke-width:0.264583px;stroke-linecap:butt;stroke-linejoin:miter;stroke-opacity:1" />
      </g>
      <g
         transform="translate(-5.1279453,-51.149461)"
         style="display:inline"
         inkscape:label="Re-ink"
         id="layer2-6">
        <path
           sodipodi:nodetypes="ccccccc"
           inkscape:connector-curvature="0"
           id="path831"
           d="m 31.177302,52.67103 c 1.05918,9.510183 1.695951,13.938413 0.997921,24.63455 5.989074,7.622458 -5.466143,9.257205 -8.45722,1.795387 0,-4.946535 0.06144,-10.808709 0.04725,-15.733259 -3.051778,4.577668 -6.271659,11.541849 -7.843006,17.103422 6.066786,9.10018 -9.2744956,5.510391 -10.1581101,0.188989 5.0893641,-6.263833 7.4873611,-18.94131 9.9404141,-26.474809"
           style="opacity:1;fill:none;fill-opacity:1;stroke:#000000;stroke-width:1.2;stroke-linecap:butt;stroke-linejoin:miter;stroke-miterlimit:4;stroke-dasharray:none;stroke-opacity:1" />
      </g>
    </g>
  </g>
  <g
     transform="translate(-0.00462819,-0.15888097)"
     sodipodi:insensitive="true"
     inkscape:label="Re-ink"
     id="layer2"
     inkscape:groupmode="layer">
    <path
       sodipodi:nodetypes="ssssscss"
       inkscape:connector-curvature="0"
       id="path2567"
       d="M 0.7201694,27.454536 C 6.1772493,19.62999 9.4499316,2.5232009 10.205357,2.4050384 13.339093,1.9148645 21.153632,2.0908693 25.796875,0.66519761 27.627272,0.10318858 27.411054,16.471927 27.59226,25.164037 c 0.06654,3.191629 -10.098839,4.366766 -9.543897,1.22259 0.698309,-3.956459 0.377976,-12.413999 0.377976,-12.413999 0,0 -5.938677,7.551179 -7.228794,13.589569 -0.328044,1.535408 -12.5071103,2.802641 -10.4773756,-0.107661 z"
       style="fill:#0066ff;fill-opacity:1;stroke:#000000;stroke-width:0.997624;stroke-linecap:butt;stroke-linejoin:miter;stroke-miterlimit:4;stroke-dasharray:none;stroke-opacity:1" />
    <path
       sodipodi:nodetypes="czc"
       inkscape:connector-curvature="0"
       id="path2571"
       d="m 18.426339,13.972628 c 0,0 1.617341,-2.392754 1.269607,-4.2556557 C 19.348213,7.8540704 19.040519,2.8667529 19.040519,2.8667529"
       style="fill:none;stroke:#000000;stroke-width:0.5;stroke-linecap:butt;stroke-linejoin:miter;stroke-miterlimit:4;stroke-dasharray:none;stroke-opacity:1" />
    <path
       sodipodi:nodetypes="cc"
       inkscape:connector-curvature="0"
       id="path2573"
       d="M 19.695946,9.7169723 20.500613,2.7246489"
       style="fill:none;stroke:#000000;stroke-width:0.5;stroke-linecap:butt;stroke-linejoin:miter;stroke-miterlimit:4;stroke-dasharray:none;stroke-opacity:1" />
    <path
       sodipodi:nodetypes="czccc"
       inkscape:connector-curvature="0"
       id="path2569"
       d="m 8.2727251,8.6461754 c 0,0 2.7605219,0.9937891 3.6076819,-0.064851 0.84716,-1.0586401 0.876732,-5.245691 0.876732,-5.245691 l -3.1378736,0.420475 z"
       style="fill:#999999;fill-opacity:1;stroke:#000000;stroke-width:0.6;stroke-linecap:butt;stroke-linejoin:miter;stroke-miterlimit:4;stroke-dasharray:none;stroke-opacity:1" />
    <path
       sodipodi:nodetypes="csssc"
       inkscape:connector-curvature="0"
       id="path2583"
       d="m 9.6192654,3.7561084 c 0,0 0.3544121,-0.9759023 0.7708376,-0.9833627 4.367213,-0.07824 10.825706,-0.9252221 15.468224,-1.6704345 0.369698,-0.059344 0.467965,1.0211734 0.234104,1.0879908 C 22.558728,3.1999315 9.6192654,3.7561084 9.6192654,3.7561084 Z"
       style="fill:#d4d4d4;fill-opacity:1;stroke:none;stroke-width:0.265;stroke-linecap:butt;stroke-linejoin:miter;stroke-miterlimit:4;stroke-dasharray:none;stroke-opacity:1" />
    <path
       inkscape:connector-curvature="0"
       id="path2579"
       d="M 9.6192654,3.7561084 18.999166,3.2834424 26.326292,2.1234846"
       style="fill:none;stroke:#000000;stroke-width:0.5;stroke-linecap:butt;stroke-linejoin:miter;stroke-miterlimit:4;stroke-dasharray:none;stroke-opacity:1" />
  </g>
</svg>
