<?xml version="1.0" encoding="UTF-8" standalone="no"?>
<svg
   xmlns:dc="http://purl.org/dc/elements/1.1/"
   xmlns:cc="http://creativecommons.org/ns#"
   xmlns:rdf="http://www.w3.org/1999/02/22-rdf-syntax-ns#"
   xmlns:svg="http://www.w3.org/2000/svg"
   xmlns="http://www.w3.org/2000/svg"
   xmlns:sodipodi="http://sodipodi.sourceforge.net/DTD/sodipodi-0.dtd"
   xmlns:inkscape="http://www.inkscape.org/namespaces/inkscape"
   width="24.304409mm"
   height="29.322479mm"
   viewBox="0 0 24.304409 29.322479"
   version="1.1"
   id="svg8"
   inkscape:version="1.0 (4035a4fb49, 2020-05-01)"
   sodipodi:docname="raw_shirt.svg">
  <defs
     id="defs2" />
  <sodipodi:namedview
     id="base"
     pagecolor="#ffffff"
     bordercolor="#666666"
     borderopacity="1.0"
     inkscape:pageopacity="0.0"
     inkscape:pageshadow="2"
     inkscape:zoom="3.959798"
     inkscape:cx="55.423097"
     inkscape:cy="61.865623"
     inkscape:document-units="mm"
     inkscape:current-layer="layer2"
     showgrid="false"
     inkscape:pagecheckerboard="true"
     fit-margin-top="0"
     fit-margin-left="0"
     fit-margin-right="0"
     fit-margin-bottom="0"
     inkscape:window-width="1920"
     inkscape:window-height="1001"
     inkscape:window-x="-9"
     inkscape:window-y="-9"
     inkscape:window-maximized="1"
     inkscape:document-rotation="0" />
  <metadata
     id="metadata5">
    <rdf:RDF>
      <cc:Work
         rdf:about="">
        <dc:format>image/svg+xml</dc:format>
        <dc:type
           rdf:resource="http://purl.org/dc/dcmitype/StillImage" />
        <dc:title></dc:title>
      </cc:Work>
    </rdf:RDF>
  </metadata>
  <g
     sodipodi:insensitive="true"
     inkscape:label="Layer 1"
     inkscape:groupmode="layer"
     id="layer1"
     transform="translate(-329.74222,-265.111)"
     style="display:inline">
    <g
       style="display:inline;stroke-width:1;stroke-miterlimit:4;stroke-dasharray:none"
       id="g5165"
       transform="translate(329.6421,264.0826)">
      <g
         style="display:inline;stroke-width:1;stroke-miterlimit:4;stroke-dasharray:none"
         transform="translate(-84.473399,-131.83647)"
         id="layer1-0"
         inkscape:label="Layer 1" />
      <g
         style="stroke-width:1;stroke-miterlimit:4;stroke-dasharray:none"
         inkscape:label="Color"
         id="layer3-1"
         transform="translate(-7.8954188,-28.530371)">
        <path
           sodipodi:nodetypes="ccczcccccc"
           inkscape:connector-curvature="0"
           id="path831-5"
           d="m 28.94971,30.372591 c 1.635877,2.807358 3.434163,11.019746 2.186079,19.813197 -0.03749,2.612124 -0.948812,7.588671 -0.948812,8.244208 0,0 -3.899134,0.09989 -7.229493,0.03625 -3.330358,-0.06364 -4.796869,0.06737 -8.216413,0.06336 0.02949,-1.657652 -5.3976359,-4.790926 -2.267857,-8.343822 0,-5.167442 -0.342243,-10.519109 0.47247,-15.449778 0.254528,-4.326972 4.855698,-2.933067 7.181548,-4.677457 2.923695,-0.409606 4.488693,-0.526788 8.822478,0.314035 z"
           style="opacity:1;fill:#ffffff;fill-opacity:1;stroke:none;stroke-width:1;stroke-linecap:butt;stroke-linejoin:miter;stroke-miterlimit:4;stroke-dasharray:none;stroke-opacity:1" />
        <path
           sodipodi:nodetypes="scscszs"
           inkscape:connector-curvature="0"
           id="path847"
           d="m 16.725446,36.81488 c 0.260421,-2.556769 3.987942,-6.623181 3.987942,-6.623181 0,0 -4.511124,-0.378288 -5.879929,1.069079 -4.368124,4.618829 -2.360245,18.925011 -2.360245,18.925011 0,0 -4.5795761,2.614718 -4.1562481,4.060169 0.59027,2.01547 5.9800391,4.399895 6.4241051,2.696156 0.444066,-1.703739 1.28661,-13.276693 1.984375,-20.127234 z"
           style="fill:#0276b1;fill-opacity:1;stroke:none;stroke-width:1;stroke-linecap:butt;stroke-linejoin:miter;stroke-miterlimit:4;stroke-dasharray:none;stroke-opacity:1" />
        <path
           sodipodi:nodetypes="czcsc"
           inkscape:connector-curvature="0"
           id="path849"
           d="m 27.662397,29.985876 c 0,0 1.687815,3.678589 1.441767,8.435402 -0.246048,4.756813 1.171103,15.262757 1.171103,15.262757 0,0 3.180915,-17.661032 -0.474715,-23.091431 -0.567383,-0.842841 -2.138155,-0.606728 -2.138155,-0.606728 z"
           style="fill:#0276b1;fill-opacity:1;stroke:none;stroke-width:1;stroke-linecap:butt;stroke-linejoin:miter;stroke-miterlimit:4;stroke-dasharray:none;stroke-opacity:1" />
      </g>
      <g
         style="display:inline;stroke-width:1;stroke-miterlimit:4;stroke-dasharray:none"
         inkscape:label="Re-ink"
         id="layer2-2"
         transform="translate(-7.8954188,-28.530371)">
        <path
           style="fill:none;stroke:#000000;stroke-width:1;stroke-linecap:butt;stroke-linejoin:miter;stroke-miterlimit:4;stroke-dasharray:none;stroke-opacity:1"
           d="m 15.306227,52.99312 c -0.423415,4.241926 -0.479826,2.928287 -0.565156,5.536486"
           id="path905"
           sodipodi:nodetypes="cc" />
        <path
           sodipodi:nodetypes="cac"
           inkscape:connector-curvature="0"
           id="path831"
           d="m 28.94971,30.372591 c 0.955508,0.116443 2.429233,6.042953 2.71946,9.24064 0.470339,5.182141 -0.391642,12.934909 -1.638964,15.524046"
           style="opacity:1;fill:none;fill-opacity:1;stroke:#000000;stroke-width:1;stroke-linecap:butt;stroke-linejoin:miter;stroke-miterlimit:4;stroke-dasharray:none;stroke-opacity:1" />
        <path
           sodipodi:nodetypes="ccccc"
           inkscape:connector-curvature="0"
           id="path856"
           d="m 16.394717,36.578645 c -1.648817,5.874613 0.179145,15.295667 -1.702701,18.200412 -1.273861,7.360232 -11.7741761,-1.890817 -2.218802,-4.593268 0,-5.167441 -0.342243,-10.519106 0.47247,-15.449777 0.254528,-4.326971 4.655246,-4.603503 7.181548,-4.677456"
           style="fill:none;stroke:#000000;stroke-width:1;stroke-linecap:butt;stroke-linejoin:miter;stroke-miterlimit:4;stroke-dasharray:none;stroke-opacity:1" />
        <path
           sodipodi:nodetypes="cc"
           inkscape:connector-curvature="0"
           id="path858"
           d="m 29.104165,38.421279 c -0.654058,4.302781 1.087122,12.790482 1.082812,20.008717"
           style="fill:none;stroke:#000000;stroke-width:1;stroke-linecap:butt;stroke-linejoin:miter;stroke-miterlimit:4;stroke-dasharray:none;stroke-opacity:1" />
      </g>
    </g>
  </g>
  <g
     inkscape:groupmode="layer"
     id="layer2"
     inkscape:label="Re-ink"
     transform="translate(-105.79889,-13.800755)"
     style="display:inline">
    <path
       style="opacity:1;fill:#333333;fill-opacity:1;stroke:#000000;stroke-width:0.844482px;stroke-linecap:butt;stroke-linejoin:miter;stroke-opacity:1"
       d="m 110.37302,32.080261 c 0.0769,1.336512 3.77708,0.02213 3.68236,1.350904 -0.19068,2.675114 -4.16233,9.264403 -1.42731,9.186161 4.67343,-0.133696 12.20535,0.175194 15.36226,0.05466 -0.15677,-3.292719 2.4008,-25.527714 -1.23727,-28.057407 -2.47958,-1.027521 -1.41443,2.454473 -4.91207,2.065344 -3.49764,-0.389129 -4.46747,-4.466828 -9.63822,-1.094637 -3.31569,1.795846 -2.02889,12.632317 -1.82975,16.494979 z"
       id="path827"
       inkscape:connector-curvature="0"
       sodipodi:nodetypes="csscczccc" />
    <path
       style="fill:none;stroke:#000000;stroke-width:0.478761;stroke-linecap:butt;stroke-linejoin:miter;stroke-miterlimit:4;stroke-dasharray:none;stroke-opacity:1"
       d="M 114.23739,33.683064 114.5288,21.056867"
       id="path829"
       inkscape:connector-curvature="0"
       sodipodi:nodetypes="cc" />
    <path
       style="fill:none;stroke:#000000;stroke-width:0.478761;stroke-linecap:butt;stroke-linejoin:miter;stroke-miterlimit:4;stroke-dasharray:none;stroke-opacity:1"
       d="m 127.1015,24.947476 c 0,0 -0.25634,4.651306 0.1052,6.700494 0.36149,2.049185 0.87192,6.278051 0.87192,6.278051"
       id="path833"
       inkscape:connector-curvature="0"
       sodipodi:nodetypes="czc" />
    <g
       aria-label="PAW"
       transform="matrix(1.4855401,-0.0817837,0.06524991,1.3627427,-55.936131,-3.3636711)"
       style="font-style:normal;font-weight:normal;font-size:7.37017px;line-height:1.25;font-family:sans-serif;letter-spacing:0px;word-spacing:0px;opacity:0.463;fill:#ff0000;fill-opacity:1;stroke:none;stroke-width:0.184254"
       id="text831">
      <path
         d="m 115.10089,31.233654 q -0.0221,0.02211 -0.0354,0.02211 -0.0265,0 -0.0265,-0.01769 0,-0.0088 0.0265,-0.0088 0.0177,0 0.0354,0.0044 z m -0.84462,1.202813 q 0,0.02211 -0.0221,0.02211 -0.0133,0 -0.031,-0.0044 -0.0133,0 -0.0221,0 h -0.0133 q 0,-0.03538 0.0442,-0.03538 0.0265,0 0.0442,0.01769 z m 0.28744,-0.07075 q -0.009,-0.01769 -0.0265,-0.01327 -0.0177,0.0044 -0.0619,-0.0044 -0.0221,0.0088 -0.0221,0.01327 0,0.0088 0.0133,0.02653 0.0133,0.01327 0.0133,0.03096 0,0.02211 -0.0177,0.02211 -0.0177,-0.0044 -0.0309,-0.0044 -0.0221,0 -0.0442,-0.0044 -0.0177,-0.0088 -0.0221,-0.03095 -0.0177,0.01327 -0.0221,0.02653 -0.004,0.0088 -0.0309,0.0088 v -0.02211 q 0,-0.01769 -0.009,-0.02653 -0.004,-0.0088 -0.004,-0.01769 0,-0.0088 0.0133,-0.02211 -0.0486,0.02653 -0.084,0.02653 -0.031,-0.0044 -0.0752,0.0088 -0.004,-0.0088 -0.004,-0.01769 0,-0.02653 0.009,-0.03538 0.0133,-0.01327 0.0133,-0.03538 0,-0.05306 -0.0265,-0.05306 -0.009,0 -0.0221,0.0044 -0.009,0.0044 -0.0221,0.0044 -0.009,0 -0.0221,-0.01327 0.004,-0.03095 0.004,-0.06191 0,-0.03095 0,-0.05749 0,-0.06191 -0.004,-0.123819 0,-0.06633 0,-0.141507 v -0.06191 q 0.0221,0.01769 0.0309,0.04422 0.009,0.02653 0.0442,0.02653 -0.0177,-0.03095 -0.0133,-0.04422 0.004,-0.01327 -0.0442,-0.02653 v -0.02211 q 0,-0.03095 -0.0177,-0.03538 v -0.194573 q 0.0221,0.02653 0.0398,0.04422 0.0177,0.01327 0.0177,0.06191 0.0354,-0.0088 0.0354,-0.04422 0,-0.01769 -0.009,-0.02211 -0.009,-0.0044 -0.0221,-0.0088 -0.009,-0.0044 -0.0177,-0.0088 -0.009,-0.0088 -0.009,-0.03096 v -0.03095 q 0,-0.02211 -0.0133,-0.02211 -0.0133,0 -0.0221,0.0044 v -0.04864 q 0,-0.03538 -0.004,-0.06633 0,-0.03538 0,-0.07075 0,-0.101709 0.0442,-0.137085 -0.009,-0.02211 -0.0265,-0.03095 -0.0177,-0.0088 -0.0177,-0.03538 0,-0.01327 0.004,-0.02211 v -0.0088 q 0,-0.02653 0.0398,-0.02653 -0.009,-0.02211 -0.0221,-0.03538 -0.009,-0.01327 -0.0177,-0.03538 0.004,-0.03096 0.004,-0.06191 0,-0.03538 0,-0.07075 0,-0.07075 -0.004,-0.14593 0,-0.07518 0,-0.159195 v -0.06633 q 0.0177,0.01327 0.0265,0.01327 0.009,0 0.009,-0.01327 0,-0.01327 -0.009,-0.03538 -0.004,-0.02211 -0.009,-0.0398 0.0177,0.01769 0.031,0.01769 0.0221,0 0.0265,-0.02211 0.009,-0.02653 0.0177,-0.04864 0.0133,0.0088 0.0177,0.02653 0.009,0.01327 0.0177,0.02653 0.0442,-0.0398 0.0442,-0.114974 0,-0.02653 -0.004,-0.04864 0,-0.02653 -0.004,-0.04864 -0.0221,0.0088 -0.0177,0.04422 0.009,0.03095 -0.0221,0.03095 -0.0486,0 -0.0663,-0.02211 -0.0177,-0.02653 -0.0575,-0.03538 0,-0.0398 0,-0.0796 0.004,-0.0398 0.004,-0.0796 0,-0.101708 -0.004,-0.203417 -0.004,-0.101708 -0.004,-0.203417 0,-0.08844 0.004,-0.172462 0.004,-0.08402 0.0177,-0.163617 0.009,0 0.0221,0.0044 0.0133,0 0.0221,0 0.0309,0 0.0575,0 0.0265,-0.0044 0.0575,-0.0044 0.0442,0 0.0752,0.0088 0.0354,0.0044 0.0575,0.02653 0.0177,-0.0398 0.1194,-0.0398 0.031,0 0.0752,0.0044 0.0486,0 0.0929,0.0088 0.0442,0.0044 0.0752,0.01327 0.031,0.0044 0.031,0.01769 0,0.03538 0.0265,0.03538 0.0265,0 0.0265,-0.02211 0.004,-0.02211 0.0177,-0.03538 0.0177,0.01769 0.0398,0.01769 0.0221,0 0.0442,-0.0088 0.0221,-0.01327 0.0531,-0.01327 0.009,0 0.0133,0.0044 0.004,0 0.0133,0 -0.0177,0.02211 -0.0177,0.07518 0.0354,-0.02211 0.0708,-0.05307 0.0354,-0.03095 0.0707,-0.03095 0.0177,0 0.0265,0.01769 0.009,0.01327 0.009,0.03538 0.004,0.01769 0.009,0.0398 0.004,0.01769 0.0133,0.02653 0.009,-0.01327 0.0177,-0.02653 0.0133,-0.01327 0.0398,-0.01327 0.0486,0 0.0486,0.07518 v 0.01769 q 0.0486,-0.0044 0.0486,-0.0398 0,-0.0088 -0.004,-0.02211 0,-0.01769 0,-0.03095 0,-0.03095 0.0221,-0.03095 0.0265,0 0.031,0.01769 0.009,0.01769 0.009,0.0398 v 0.08402 q 0.0177,0 0.031,-0.01327 0.0177,-0.01327 0.0265,-0.03095 0.0133,-0.01769 0.0221,-0.04422 0.0221,0 0.0354,0.03538 0.0133,0.03095 0.0221,0.03095 0,0 0.009,-0.01327 0,0.02653 0.0177,0.05749 0.0221,0.03095 0.0221,0.06191 0,0.01327 -0.004,0.02211 0.0133,0.0044 0.0309,0.0044 0.0531,0 0.0531,-0.03538 0,-0.02211 -0.031,-0.0398 0.0177,-0.0088 0.0265,-0.0088 0.0221,0 0.031,0.03095 0.009,0.03095 0.0133,0.07075 0.004,0.03538 0.009,0.07518 0.009,0.03538 0.031,0.04864 0.009,-0.0044 0.009,-0.02653 0,-0.0088 -0.004,-0.01769 0,-0.0088 0,-0.01769 0,-0.02653 0.031,-0.04422 0.1194,0.114974 0.19015,0.291859 0.0708,0.172462 0.0708,0.371456 0,0.194573 -0.0752,0.362613 -0.0752,0.16804 -0.18573,0.283014 -0.031,-0.0044 -0.031,-0.02653 0,-0.01327 0.009,-0.03095 0.009,-0.01769 0.009,-0.0398 0,-0.02653 -0.0265,-0.02653 -0.0398,0 -0.0398,0.03538 0,0.0044 0,0.0088 0.004,0 0.004,0.0088 0.0133,0 0.0133,-0.01327 0.004,-0.01327 0.009,-0.02211 0.009,0.0088 0.009,0.03096 0,0.03538 -0.0398,0.06633 -0.0354,0.03096 -0.0796,0.03096 0,0.03095 0.004,0.04864 0.004,0.01769 0.004,0.03095 0,0.02211 -0.0265,0.06191 -0.0133,-0.01327 -0.0133,-0.03095 0,-0.01327 0.004,-0.02653 0.004,-0.01769 0.009,-0.03095 -0.009,0 -0.0133,0 -0.004,-0.0044 -0.009,-0.0044 -0.0221,0 -0.0309,0.01769 -0.009,0.01327 -0.0133,0.03538 -0.004,0.01769 -0.0133,0.03538 -0.009,0.01327 -0.031,0.01327 -0.004,0 -0.031,-0.0088 0.031,-0.01327 0.031,-0.03538 0,-0.02211 -0.0398,-0.02211 -0.0354,0 -0.0486,0.01769 -0.0133,0.01769 -0.0221,0.04422 -0.004,0.02653 -0.0133,0.05749 -0.004,0.02653 -0.0177,0.04422 -0.0486,0 -0.0486,-0.01769 0,-0.0088 0.004,-0.02653 0.009,-0.02211 0.009,-0.04422 -0.031,0.02211 -0.0708,0.02653 -0.0354,0.0044 -0.0354,0.05307 v 0.0088 q -0.0177,-0.0044 -0.0442,-0.0044 h -0.0265 q -0.0265,0 -0.0398,-0.03095 -0.0177,0.0044 -0.031,0.0088 -0.0133,0.0044 -0.0221,0.0044 -0.0177,0 -0.0354,-0.03095 -0.0354,0 -0.0354,0.03095 0,0.01327 0.004,0.03095 0.004,0.01327 0.004,0.02211 0,0.0088 -0.0133,0.01327 -0.0133,0 -0.0177,0 -0.0265,0 -0.031,-0.02211 -0.004,-0.02211 -0.0265,-0.02211 h -0.0133 v -0.05307 q -0.0354,0.0088 -0.0398,0.02211 0,0.0088 -0.0133,0.0088 -0.009,0 -0.0354,-0.01327 -0.004,0.0044 -0.004,0.01769 0,0.02653 0.0309,0.02653 0.0354,-0.0044 0.0442,0.01327 -0.0398,0.03095 -0.0796,0.03095 -0.031,0 -0.0442,-0.03095 -0.0221,0.0398 -0.0796,0.0398 -0.009,0 -0.0177,0 -0.004,-0.0044 -0.0133,-0.0044 v 1.185124 h -0.10613 q 0.009,-0.02211 0.009,-0.04864 0.004,-0.03095 0.0265,-0.0398 z m -0.42895,-0.25206 q -0.004,-0.02211 -0.004,-0.04422 0.004,-0.02211 -0.0133,-0.02653 -0.0177,0.01327 -0.0177,0.03538 0,0.03538 0.0354,0.03538 z m 0.0708,-0.340502 q -0.0486,0 -0.0486,-0.02211 0,-0.01327 0.031,-0.03538 h -0.009 q -0.0265,0 -0.0398,-0.01327 -0.009,-0.01769 -0.0221,-0.01769 -0.009,0 -0.0221,0.01327 0.009,0.03095 0.0265,0.04864 0.0177,0.01769 0.031,0.04422 v -0.0088 q 0,-0.0088 0.004,-0.0088 0.004,0 0.0133,0.01327 0.0133,0.0088 0.0221,0.0088 0.0133,0 0.0133,-0.02211 z m 0.84462,-1.945726 q -0.10613,0.02653 -0.21226,0.02653 -0.10613,0 -0.20342,0.0088 v 0.831356 q 0.0221,0.01769 0.084,0.01769 h 0.0486 q 0.0221,0 0.0265,0.0088 0.009,0.0044 0.009,0.01327 0,0.0044 0,0.0088 0,0.0044 0.0133,0.0044 0.004,-0.02211 0.0221,-0.02211 0.0133,0 0.0265,0.01769 0.0133,0.01769 0.0221,0.02211 -0.004,-0.0088 -0.004,-0.02211 0,-0.03095 0.0442,-0.03095 0.0221,0 0.0486,0 0.0265,-0.0044 0.0265,0.01769 0,0.01769 -0.0133,0.03095 -0.009,0.0088 -0.009,0.01769 0,0.0044 0.0398,0.0044 0.009,0 0.009,-0.0044 0,-0.0088 -0.009,-0.02211 -0.009,-0.01769 -0.009,-0.02653 0,-0.0088 0.0177,-0.01769 0.0221,-0.0088 0.0309,-0.0088 0.0265,0 0.0221,0.02653 0,0.02653 0.0221,0.03538 v -0.01769 q 0,-0.02653 0.0133,-0.03538 0.0177,-0.01327 0.0354,-0.01769 0.0221,-0.0088 0.0398,-0.0088 0.0177,0 0.0177,0 0.0177,0 0.0398,0.0088 0,-0.0044 -0.004,-0.0044 0,-0.0044 0,-0.0088 0,-0.02211 0.0221,-0.02211 0.0221,-0.0044 0.0354,-0.02211 0.004,0.01327 0.004,0.02653 0,0.0088 0.0133,0.0088 0.0133,-0.04864 0.0442,-0.07075 0.0354,-0.02211 0.0619,-0.05306 0.004,0.0088 0.004,0.02211 0.004,0.01327 0.0133,0.01327 0.0177,-0.06191 0.0221,-0.128241 0.004,-0.07075 0.0354,-0.159196 -0.004,-0.07075 -0.0265,-0.119397 -0.0177,-0.05307 -0.0442,-0.09729 -0.0265,-0.04422 -0.0575,-0.08402 -0.031,-0.04422 -0.0531,-0.09286 -0.0929,0 -0.14593,-0.02653 -0.0531,-0.03095 -0.12382,-0.04864 z m -0.82693,0.596984 q 0,-0.01327 -0.009,-0.01327 -0.009,0 -0.009,0.01327 0,0.0088 0.009,0.0088 0.004,0 0.009,-0.0088 z m 0.37588,1.976681 q 0.004,-0.0088 0.009,-0.01769 0.009,-0.0088 0.009,-0.01769 0,-0.01327 -0.0177,-0.01769 0,0.0088 -0.009,0.02211 -0.004,0.0088 -0.004,0.01769 0,0.0088 0.0133,0.01327 z m 0.63236,-3.077785 -0.0133,-0.01327 q 0,-0.0044 0.0133,0.01327 0.0133,0.01327 0.0133,0.01769 -0.004,0 -0.004,-0.0044 -0.004,-0.0044 -0.009,-0.01327 z"
         style="font-style:normal;font-variant:normal;font-weight:normal;font-stretch:normal;font-size:4.4221px;font-family:'Catenary Stamp';-inkscape-font-specification:'Catenary Stamp';fill:#ff0000;fill-opacity:1;stroke-width:0.184254"
         id="path861"
         inkscape:connector-curvature="0" />
      <path
         d="m 118.01458,31.282297 q -0.009,0.01327 -0.0133,0.01327 -0.009,0 -0.0133,-0.02211 -0.004,-0.02653 -0.004,-0.04864 v -0.02653 q 0.009,0 0.0133,0.04864 0,0.0088 0.009,0.01769 0.009,0.0044 0.009,0.01769 z m -0.0531,-0.181306 q 0,0.03538 -0.0177,0.03538 -0.0177,-0.0044 -0.0221,0.01769 0.004,0.03095 0.009,0.05749 0.004,0.02211 0.004,0.04422 0,0.01769 -0.004,0.03095 0,0.01327 -0.009,0.03095 0.009,0.02211 0.0177,0.02211 0.009,0 0.0221,-0.01327 0.0133,-0.01327 0.0354,-0.01327 0.0133,0 0.0177,0.0044 0.0973,0.274171 0.17688,0.561607 0.0796,0.283015 0.16362,0.570452 -0.0265,0 -0.0531,0.0044 -0.0265,0 -0.0531,0 -0.0884,0 -0.18131,-0.0044 -0.0929,-0.0044 -0.16804,-0.0044 -0.0354,0 -0.0663,0 -0.0265,0 -0.0531,0.0044 -0.0177,-0.03095 -0.0221,-0.05307 -0.004,-0.02653 -0.009,-0.04864 -0.004,-0.02653 -0.0133,-0.04864 -0.004,-0.02211 -0.0265,-0.04864 -0.009,-0.114975 -0.0575,-0.238793 -0.0486,-0.123819 -0.10613,-0.318392 -0.0265,-0.08844 -0.0442,-0.176884 -0.0177,-0.09286 -0.0619,-0.163618 -0.0177,0 -0.0354,0.0044 -0.0133,0 -0.031,0 -0.0531,0 -0.11055,-0.0044 -0.0575,-0.0044 -0.11055,-0.0044 -0.0575,0 -0.10613,0.01327 -0.0486,0.0088 -0.084,0.0088 -0.0354,0 -0.0442,-0.02653 -0.009,-0.02653 -0.0442,-0.02653 -0.0398,0 -0.0398,0.02211 0,0.01327 0.004,0.02653 0.004,0.01327 0.004,0.02653 0,0.02653 -0.0265,0.07518 -0.0221,0.04422 -0.0531,0.09286 -0.031,0.04422 -0.0575,0.0796 -0.0221,0.03095 -0.0221,0.02653 0,0.02211 0.004,0.04422 0.009,0.01769 0.009,0.0398 0,0.03095 -0.031,0.03538 0.009,0.01769 0.009,0.04422 0,0 -0.004,0.03538 -0.004,0.03538 -0.0177,0.0796 -0.009,0.0398 -0.031,0.07518 -0.0177,0.03538 -0.0486,0.03538 0.0265,0.01327 0.0265,0.03538 0,0.02653 -0.0133,0.0796 -0.0133,0.04864 -0.031,0.101709 -0.0177,0.04864 -0.0398,0.08844 -0.0177,0.03538 -0.0309,0.03538 -0.009,0.0088 -0.009,0.02211 0,0.01327 0.0265,0.01327 -0.0354,0.01327 -0.0752,0.01769 -0.0398,0.0044 -0.0884,0.0044 -0.0486,0 -0.10171,-0.0044 -0.0531,-0.0044 -0.10171,-0.0044 -0.031,0 -0.0575,0.0044 -0.0265,0.0044 -0.0486,0.0044 -0.0265,0 -0.031,-0.01769 -0.004,-0.02211 -0.0398,-0.02211 -0.0133,0 -0.0133,0.0044 0,0.0044 0.009,0.01327 0.009,0.0044 0.009,0.01327 0,0.0044 -0.0265,0.0044 -0.0265,0 -0.0265,-0.0088 0,-0.0088 0.0221,-0.08402 0.0221,-0.0796 0.0575,-0.198995 0.0354,-0.123819 0.0796,-0.27417 0.0486,-0.154774 0.0973,-0.31397 0.0531,-0.163618 0.1017,-0.318391 0.0531,-0.159196 0.0929,-0.291859 0,-0.03538 0.004,-0.03538 0.009,0 0.0133,0.0044 0.004,0.0044 0.0133,0.0044 0.0133,0 0.0221,-0.01327 -0.031,-0.01769 -0.031,-0.0398 0,0 0.004,-0.02211 0.004,-0.02211 0.009,-0.04864 0.009,-0.02653 0.0221,-0.04422 0.0133,-0.02211 0.031,-0.02211 -0.004,-0.01327 -0.004,-0.04422 0,-0.0796 0.0177,-0.154774 0.0221,-0.0796 0.0486,-0.150351 0.0265,-0.07518 0.0531,-0.14593 0.0309,-0.07075 0.0486,-0.137085 0.0354,-0.16804 0.084,-0.318392 0.0486,-0.150351 0.0929,-0.309547 0.031,-0.0044 0.0354,-0.02653 0.004,-0.02653 0.0177,-0.04422 0.0619,-0.04422 0.13266,-0.08402 0.0752,-0.04422 0.17246,-0.04422 0.0929,0 0.16804,0.05307 0.0796,0.04864 0.14151,0.09286 0.0752,0.198995 0.12824,0.424522 0.0575,0.221105 0.14151,0.4201 0,0.09286 0.0309,0.185728 0.031,0.09286 0.0663,0.185728 0.0398,0.09286 0.0707,0.190151 0.031,0.09286 0.0354,0.19015 0,0.02211 -0.009,0.05749 0,0.0088 0.009,0.0088 0.009,0 0.009,0 0.004,-0.0044 0.0133,-0.0044 0.009,0 0.009,0.01327 z m -1.00824,-1.671555 q -0.0177,0.0044 -0.0354,0.0044 -0.0177,-0.0044 -0.0177,0.01327 0.0133,-0.0044 0.031,0 0.0177,0 0.0221,-0.01769 z m 0.0354,1.36643 h 0.28743 q -0.0309,-0.114975 -0.0663,-0.229949 -0.031,-0.119397 -0.0752,-0.221106 -0.0442,0.106131 -0.0796,0.221106 -0.031,0.114974 -0.0663,0.229949 z m -0.68543,0.468743 q -0.009,0 -0.009,0.0088 0,0.01327 0.0177,0.01327 0.0133,0 0.0221,-0.0088 0.009,-0.0088 0.004,-0.01769 -0.009,0 -0.0177,0.0044 -0.009,0 -0.0177,0 z m 0.43337,0.269748 q 0,-0.01327 -0.0177,-0.01327 -0.0177,0 -0.0177,0.01327 0,0.01327 0.009,0.01327 0.009,0 0.0133,-0.0044 0.004,-0.0044 0.0133,-0.0088 z m 1.33105,0.07075 q 0,-0.03096 -0.004,-0.05749 0,-0.03095 -0.031,-0.03095 0,0.0088 -0.004,0.01769 0,0.0044 0,0.01327 0,0.05307 0.0398,0.05749 z m -1.47256,0.35819 q 0,-0.0088 -0.0133,-0.0088 -0.009,0 -0.009,0.0088 0,0.01327 0.009,0.01327 0.004,0 0.0133,-0.01327 z m -0.12824,0.234372 q 0.0265,0.0088 0.0265,0.02211 0,0.02211 -0.0265,0.06191 -0.0221,0.03538 -0.0221,0.07075 0,0.02653 0.0221,0.04422 0.0531,-0.05307 0.0575,-0.128241 0.004,-0.0796 0.0133,-0.141508 0.0177,0 0.0177,-0.0088 0,-0.0088 -0.004,-0.0088 -0.0442,0 -0.0531,0.03538 -0.004,0.03095 -0.0309,0.05307 z m 1.36643,0.145929 q 0,-0.01327 -0.009,-0.01327 -0.009,0 -0.009,0.01327 0,0.0088 0.009,0.0088 0.004,0 0.009,-0.0088 z m 0.0884,0.08844 v -0.05306 q -0.0221,0.01327 -0.0354,0.01327 -0.009,0 -0.0177,0 -0.009,-0.0044 -0.0177,-0.0044 -0.0133,0 -0.0177,0.0088 0.0265,0.0088 0.0398,0.02211 0.0133,0.01327 0.0486,0.01327 z"
         style="font-style:normal;font-variant:normal;font-weight:normal;font-stretch:normal;font-size:4.4221px;font-family:'Catenary Stamp';-inkscape-font-specification:'Catenary Stamp';fill:#ff0000;fill-opacity:1;stroke-width:0.184254"
         id="path863"
         inkscape:connector-curvature="0" />
      <path
         d="m 118.65032,32.303803 q 0,-0.01327 0.0177,-0.01327 0.0177,0 0.0177,0.01327 -0.0133,0.01327 -0.0265,0.01327 -0.009,0 -0.009,-0.01327 z m 1.34874,-1.852861 q 0.0398,0.01769 0.0752,0.08844 0.0354,0.06633 0.0354,0.110553 0,0.02653 -0.0265,0.03095 -0.0221,0 -0.0309,0.02211 0.004,0.02211 0.0177,0.02211 0.0133,0 0.0221,-0.01769 0.0133,-0.02211 0.0354,-0.02211 0.009,0 0.0398,0.06633 0.0354,0.06633 0.0708,0.150352 0.0398,0.08402 0.0708,0.163617 0.0354,0.0796 0.0486,0.106131 0.0487,-0.128241 0.0663,-0.278593 0.0177,-0.150351 0.0442,-0.296281 0.0486,-0.269748 0.0929,-0.543918 0.0442,-0.274171 0.084,-0.552763 0.009,0 0.0133,0.0088 0.009,0.0088 0.0221,0.0088 -0.0133,-0.03095 -0.0133,-0.06633 0,-0.0398 0.009,-0.0796 0.0133,-0.0398 0.0221,-0.08844 0.0531,0.0044 0.0973,0.0044 0.0486,0 0.0884,0 0.084,0 0.16362,0 0.084,-0.0044 0.20784,-0.0044 -0.11055,0.738492 -0.23879,1.463717 -0.12824,0.720803 -0.22553,1.468138 -0.0177,0.02211 -0.031,0.04864 -0.009,0.02653 -0.0221,0.05307 -0.0133,0.02211 -0.0354,0.0398 -0.0177,0.01769 -0.0531,0.01769 -0.0221,0 -0.0398,-0.01769 0.004,-0.01327 0.0133,-0.01327 0.009,0 0.0177,0.0088 0.0133,0.0044 0.0221,0.0044 0.004,0.0044 -0.009,-0.01769 -0.0133,-0.02653 -0.0133,-0.03538 -0.0221,0 -0.031,0.01327 -0.009,0.01327 -0.0133,0.03095 -0.004,0.01769 -0.009,0.03538 0,0.01769 -0.0133,0.03095 -0.0354,-0.01769 -0.0398,-0.01769 -0.009,0 -0.009,0.01327 0,0.01327 0.0133,0.0398 h -0.0929 q 0.0265,-0.0398 0.0221,-0.04864 -0.004,-0.01327 0.0177,-0.04422 -0.0221,-0.02211 -0.0575,-0.03538 -0.004,0.03538 -0.009,0.05749 -0.009,0.05749 -0.031,0.05749 -0.0221,0 -0.031,-0.0088 -0.009,-0.0088 -0.0177,-0.02211 -0.009,-0.01327 -0.0221,-0.02211 -0.009,-0.0088 -0.031,-0.0088 0.031,-0.01769 0.031,-0.03538 0,-0.01327 -0.009,-0.02211 -0.009,-0.01327 -0.0221,-0.03095 -0.0133,0 -0.0133,0.01327 0,0.01327 -0.004,0.02211 -0.0177,-0.02211 -0.0486,-0.07075 -0.031,-0.04864 -0.031,-0.08402 0,-0.03096 0.0265,-0.04422 -0.0354,-0.0088 -0.0752,-0.04864 -0.0354,-0.0398 -0.0354,-0.06633 0,-0.02211 0.0177,-0.02211 0.0177,0 0.0177,-0.0088 0,-0.02211 -0.0309,-0.01327 -0.0265,0.0044 -0.0265,-0.01769 0,-0.01769 0.0133,-0.01769 0.009,0 0.009,0.01769 0,-0.0044 0,-0.0044 0.004,-0.0044 0.004,-0.01327 0,-0.02653 -0.0221,-0.04864 -0.0221,-0.02653 -0.0221,-0.07075 0,-0.0088 0,-0.01327 0.004,-0.0044 0.004,-0.01327 0,-0.01327 -0.0133,-0.02211 -0.0133,-0.01327 -0.0265,-0.01327 -0.0133,0 -0.0133,0.01769 -0.031,-0.05749 -0.0708,-0.128241 -0.0398,-0.07075 -0.0796,-0.14593 -0.0398,-0.07517 -0.0708,-0.154773 -0.0265,-0.08402 -0.031,-0.163618 -0.004,-0.01769 -0.0265,-0.04422 -0.0221,-0.02653 -0.0309,-0.02653 -0.0221,0 -0.0354,0.01327 -0.009,0.0088 -0.0177,0.02211 -0.004,0.01327 -0.0133,0.02653 -0.004,0.0088 -0.0177,0.0088 -0.0177,0 -0.0398,-0.01769 -0.004,0.0044 -0.004,0.01769 0,0.01769 0.009,0.02653 0.0133,0.0088 0.0133,0.01769 0,0.0088 -0.0177,0.02653 -0.0133,0.01327 -0.031,0.03538 -0.0133,0.01769 -0.031,0.04422 -0.0133,0.02211 -0.0133,0.04864 0,0.02211 0.009,0.03095 0.0133,0.0044 0.0133,0.02653 0,0.0088 -0.0133,0.03095 -0.0133,0.01769 -0.031,0.0398 -0.0133,0.02211 -0.0309,0.04422 -0.0177,0.01769 -0.031,0.02211 0,0.01327 0.0133,0.01769 0.0133,0 0.0221,0 -0.0177,0.04422 -0.0442,0.0796 -0.0221,0.03096 -0.0663,0.04864 0,0.0088 0.009,0.0088 0.009,0 0.0177,-0.0044 0.0133,-0.0044 0.0309,-0.0044 -0.0354,0.04864 -0.0575,0.110552 -0.0177,0.05749 -0.0708,0.08844 0.009,0.02653 0.009,0.0398 0,0.04864 -0.0398,0.101709 -0.0398,0.04864 -0.0398,0.110552 -0.0133,-0.01327 -0.0265,-0.01327 -0.009,0 -0.0133,0.0044 0,0.0044 -0.009,0.0044 -0.009,0 -0.0221,-0.01327 0,0.02211 -0.009,0.03095 -0.009,0.0044 -0.009,0.01769 0,0.02653 0.009,0.04422 0.009,0.01327 0.009,0.04422 0,0.0044 -0.009,0.02211 -0.004,0.01327 -0.0177,0.03538 -0.0133,0.01769 -0.031,0.03538 -0.0177,0.01327 -0.0354,0.01327 -0.0133,0 -0.0177,-0.01327 -0.031,0.04422 -0.084,0.06191 -0.0486,0.01327 -0.1194,0.01327 -0.004,0 -0.0442,-0.01327 -0.0398,-0.01327 -0.0398,-0.05307 0,-0.02211 0.0177,-0.02211 0.0177,0 0.0177,-0.02211 -0.0221,-0.03538 -0.0442,-0.07518 -0.0221,-0.0398 -0.0575,-0.0398 -0.0265,0 -0.0398,0.0088 -0.004,-0.02211 -0.004,-0.04864 0,-0.02653 0,-0.06191 0,-0.05307 0.004,-0.110552 0.004,-0.05749 0.0177,-0.101709 -0.009,-0.0044 -0.0265,-0.0044 -0.031,0 -0.031,0.03096 0,0.01769 0.004,0.02653 -0.0398,-0.03095 -0.0442,-0.09286 0,-0.06633 -0.0133,-0.123819 l 0.009,-0.0088 q 0.004,0 0.009,0.01769 0.004,0.01327 0.004,0.03095 0.004,0.01769 0.009,0.03538 0.009,0.01327 0.0221,0.01327 0.0133,0 0.0177,-0.01327 0.004,-0.01327 0.004,-0.02653 0,-0.01769 -0.004,-0.03538 0,-0.01769 0,-0.0398 0,-0.01769 0.004,-0.02653 -0.0177,-0.03096 -0.0442,-0.03096 -0.0265,0 -0.0309,0.03096 -0.0177,-0.01327 -0.0177,-0.02653 0,-0.02211 0.0265,-0.04422 0.031,-0.02211 0.031,-0.05749 -0.009,-0.0044 -0.009,-0.0044 -0.0133,0 -0.0265,0.01327 -0.0133,0.0088 -0.0221,0.0088 -0.009,0 -0.0221,-0.05307 -0.0133,-0.05306 -0.031,-0.132663 -0.0133,-0.08402 -0.031,-0.185728 -0.0133,-0.106131 -0.0309,-0.203417 -0.0133,-0.101708 -0.0265,-0.185728 -0.0133,-0.08844 -0.0177,-0.137086 0.0354,0 0.0354,-0.03095 0,-0.02211 -0.0221,-0.02211 -0.0221,-0.0044 -0.0309,-0.01769 -0.0133,-0.16804 -0.0442,-0.31397 -0.031,-0.145929 -0.0486,-0.313969 0.009,0 0.009,0 0.004,-0.0044 0.009,-0.0044 0.0221,0 0.0221,0.03095 0,0.01769 -0.004,0.03538 0,0.01327 0,0.02653 0.0398,-0.01327 0.0398,-0.110553 0,-0.02211 -0.004,-0.04422 0,-0.02653 0,-0.04864 0,-0.04422 0.004,-0.06633 -0.0354,0 -0.0354,0.0088 0,0.0088 0.004,0.01769 0.004,0.0088 0.004,0.01769 0,0.0088 -0.0133,0.0088 -0.0354,0 -0.0531,-0.02211 -0.0133,-0.02211 -0.0221,-0.05307 -0.004,-0.03096 -0.0133,-0.06191 -0.004,-0.03538 -0.0177,-0.06191 0.0133,-0.01769 0.0133,-0.0398 0,-0.01769 -0.004,-0.03095 0,-0.01327 0,-0.02211 0,-0.02653 0.0265,-0.03096 0,-0.03095 -0.0177,-0.03095 -0.009,0 -0.0133,0.0044 -0.004,0.0044 -0.0133,0.0044 -0.009,0 -0.009,-0.01769 0,-0.01327 0.004,-0.01327 0.009,-0.0044 0.009,-0.01327 0,-0.0044 -0.004,-0.0044 0,-0.0044 0,-0.0088 -0.004,-0.0044 -0.004,-0.0088 0.009,0 0.031,0.01769 0,-0.0088 0,-0.01327 0.004,-0.0044 0.004,-0.01327 0,-0.0398 -0.0221,-0.06191 -0.0177,-0.02211 -0.0177,-0.05749 0.031,0 0.0398,0.01327 0.009,0.0088 0.031,0.0088 0.009,0 0.0177,-0.0044 v 0.110552 q 0.0354,-0.0088 0.0398,-0.04864 0.004,-0.04422 0.0354,-0.06191 0.0221,0.01327 0.0265,0.02211 0.009,0.0088 0.0221,0.0088 0.004,0 0.0398,-0.01327 -0.0177,0.01769 -0.0177,0.02211 0,0 0.0442,0.01769 0.0177,0.0088 0.0486,0.01327 0.0221,0 0.0133,-0.02653 -0.004,-0.03096 0.0177,-0.03096 0.0133,0 0.031,0.02653 0.0177,0.02653 0.031,0.06191 0.0177,0.03538 0.031,0.07518 0.0133,0.03538 0.0177,0.05749 0.031,-0.03095 0.031,-0.0796 0,-0.03095 -0.0133,-0.06633 0.0708,0 0.0708,0.04864 0,0.02653 -0.0177,0.04422 0.0265,0.05307 0.0265,0.119397 0,0.03538 -0.004,0.06633 -0.004,0.03095 -0.004,0.06633 0,0.01769 0.0177,0.01769 0.0177,0 0.0177,-0.01769 0.0398,0.06191 0.0486,0.154774 0.0133,0.08844 0.0221,0.185728 0.031,0.101708 0.0486,0.212261 0.0177,0.10613 0.0265,0.221105 0.004,0.03538 0.0133,0.07518 0.0133,0.0398 0.0133,0.07518 0,0.03538 -0.009,0.04422 0.0442,0.08844 0.0531,0.203416 0.0133,0.114975 0.0354,0.22995 0.0265,-0.0088 0.0398,-0.0398 0.0177,-0.03095 0.0265,-0.06191 0.009,-0.03538 0.0221,-0.06191 0.0177,-0.02653 0.0442,-0.02653 0.004,0 0.0309,0.0088 0,-0.02211 -0.009,-0.02653 -0.009,-0.0044 -0.0265,-0.0088 0.0354,-0.09286 0.0929,-0.234372 0.0575,-0.141507 0.11939,-0.269748 0.0663,-0.132663 0.1194,-0.225527 0.0575,-0.09729 0.0929,-0.09729 0.009,0 0.0221,0.0044 0.0177,0 0.031,0 0.0221,0 0.0221,-0.02211 0.0354,0.03538 0.031,0.05749 0,0.02211 0.0265,0.06633 0.0354,-0.0044 0.0442,-0.02211 0.0133,-0.02211 0.0265,-0.02211 0.009,0 0.0354,0.02653 0.004,-0.0044 0.004,-0.01769 0,-0.02211 -0.0177,-0.03538 -0.0177,-0.01769 -0.0177,-0.02653 0,-0.0088 0.031,-0.0088 0,0.03095 0.0133,0.03095 0.009,0 0.0177,0 0.0133,-0.0044 0.0265,-0.0044 0.009,0 0.0265,0.02211 0.0221,0.01769 0.0398,0.04422 0.0221,0.02653 0.0354,0.05749 0.0133,0.03096 0.0133,0.05307 0,0.01327 -0.009,0.03096 0.009,0.01327 0.031,0.02653 0.0221,0.0088 0.0221,0.02211 0,0.01769 -0.009,0.02211 -0.009,0.0044 -0.0221,0.01327 -0.009,0.0044 -0.0177,0.01327 -0.009,0.0088 -0.009,0.03095 0,0.03095 0.0177,0.04864 0.0177,0.01327 0.0177,0.03096 0,0.01327 -0.0133,0.02653 0.0354,0 0.0398,-0.02211 0.009,-0.02211 0.031,-0.03095 0,-0.03095 -0.031,-0.03095 -0.0265,-0.0044 -0.0265,-0.0398 0,-0.01327 0.004,-0.02211 z m 0.199,1.565425 q -0.009,0.01327 -0.0133,0.01327 -0.009,0 -0.0177,-0.0044 -0.009,-0.0088 -0.0265,-0.0088 0,0.04864 0.0398,0.04864 0.0354,0 0.0354,-0.02211 0,-0.01327 -0.0177,-0.02653 z m -1.85286,-2.609042 q 0,-0.02653 -0.009,-0.02653 -0.009,0 -0.009,0.01769 0,0.02211 0.009,0.02211 0,0 0.009,-0.01327 z m -0.0752,0.05749 q -0.009,0 -0.0221,0.0044 -0.0133,0 -0.0133,0.01327 0.009,-0.0044 0.0221,-0.0044 0.0133,0 0.0133,-0.01327 z m 1.31337,0.716381 q 0,-0.0088 -0.009,-0.0088 -0.009,0 -0.009,0.0088 0,0.01327 0.009,0.01327 0,0 0.009,-0.01327 z m 0.43336,0.486431 q 0.009,0 0.0133,0.0044 0.009,0 0.0177,0 0.0221,0 0.0221,-0.01327 0,-0.01769 -0.0177,-0.02653 -0.0133,-0.01327 -0.0221,-0.01327 -0.0133,0 -0.0133,0.01327 0.0133,0.0088 0.0133,0.0088 0,0.0088 -0.004,0.01327 -0.004,0.0044 -0.009,0.01327 z m 0.10613,0.08844 q 0,-0.01327 -0.0177,-0.01327 -0.0177,0 -0.0177,0.01327 0,0.01327 0.0133,0.01327 0.009,0 0.0221,-0.01327 z m 0.0177,1.154169 q -0.004,0 -0.004,-0.0044 0,-0.01769 0.0221,-0.01769 v 0.0044 q 0.004,-0.0044 -0.0177,-0.02211 -0.0177,-0.01769 -0.0265,-0.01769 0,-0.0044 0.009,0.02653 0.009,0.02653 0.0177,0.03096 z m -0.91537,0.08844 q 0,-0.01327 -0.009,-0.01327 -0.009,0 -0.009,0.01327 0,0.01327 0.009,0.01327 0,0 0.009,-0.01327 z m -0.52181,0.106131 q -0.009,-0.05307 -0.0354,-0.07075 v 0.0398 q 0,0.03538 0.0177,0.03538 0.009,0 0.0177,-0.0044 z m 1.54773,0.05749 q -0.009,0 -0.0221,0.0044 -0.0133,0 -0.0133,0.01327 0.009,-0.0044 0.0221,-0.0044 0.0133,0 0.0133,-0.01327 z m 0.44664,0.141507 q 0,-0.05307 -0.0354,-0.07075 -0.0133,0.01327 -0.0133,0.03538 0,0.03538 0.0487,0.03538 z m -0.14151,0.01769 q -0.009,0.0044 -0.0221,0.0044 -0.0133,0 -0.0133,0.01327 0.009,-0.0044 0.0221,-0.0044 0.0133,0 0.0133,-0.01327 z m -1.76442,0.09286 q 0.0575,0 0.0575,-0.05749 0,-0.01769 -0.0133,-0.01769 -0.0177,0 -0.0221,0.0088 -0.004,0.0088 -0.009,0.02211 0,0.01327 -0.004,0.02653 0,0.01327 -0.009,0.01769 z"
         style="font-style:normal;font-variant:normal;font-weight:normal;font-stretch:normal;font-size:4.4221px;font-family:'Catenary Stamp';-inkscape-font-specification:'Catenary Stamp';fill:#ff0000;fill-opacity:1;stroke-width:0.184254"
         id="path865"
         inkscape:connector-curvature="0" />
    </g>
  </g>
</svg>
