<?xml version="1.0" encoding="UTF-8" standalone="no"?>
<svg
   xmlns:dc="http://purl.org/dc/elements/1.1/"
   xmlns:cc="http://creativecommons.org/ns#"
   xmlns:rdf="http://www.w3.org/1999/02/22-rdf-syntax-ns#"
   xmlns:svg="http://www.w3.org/2000/svg"
   xmlns="http://www.w3.org/2000/svg"
   xmlns:sodipodi="http://sodipodi.sourceforge.net/DTD/sodipodi-0.dtd"
   xmlns:inkscape="http://www.inkscape.org/namespaces/inkscape"
   sodipodi:docname="retro_shirt.svg"
   inkscape:version="1.0 (4035a4fb49, 2020-05-01)"
   id="svg8"
   version="1.1"
   viewBox="0 0 24.636646 29.835097"
   height="29.835096mm"
   width="24.636646mm">
  <defs
     id="defs2" />
  <sodipodi:namedview
     inkscape:document-rotation="0"
     inkscape:window-maximized="1"
     inkscape:window-y="-9"
     inkscape:window-x="-9"
     inkscape:window-height="1001"
     inkscape:window-width="1920"
     fit-margin-bottom="0"
     fit-margin-right="0"
     fit-margin-left="0"
     fit-margin-top="0"
     inkscape:pagecheckerboard="true"
     showgrid="false"
     inkscape:current-layer="layer2"
     inkscape:document-units="mm"
     inkscape:cy="61.350542"
     inkscape:cx="54.55151"
     inkscape:zoom="3.959798"
     inkscape:pageshadow="2"
     inkscape:pageopacity="0.0"
     borderopacity="1.0"
     bordercolor="#666666"
     pagecolor="#ffffff"
     id="base" />
  <metadata
     id="metadata5">
    <rdf:RDF>
      <cc:Work
         rdf:about="">
        <dc:format>image/svg+xml</dc:format>
        <dc:type
           rdf:resource="http://purl.org/dc/dcmitype/StillImage" />
        <dc:title></dc:title>
      </cc:Work>
    </rdf:RDF>
  </metadata>
  <g
     sodipodi:insensitive="true"
     style="display:inline"
     transform="translate(-329.97283,-265.24728)"
     id="layer1"
     inkscape:groupmode="layer"
     inkscape:label="Layer 1">
    <g
       transform="translate(329.97283,264.31884)"
       id="g5165"
       style="display:inline">
      <g
         inkscape:label="Layer 1"
         id="layer1-0"
         transform="translate(-84.473399,-131.83647)"
         style="display:inline" />
      <g
         transform="translate(-7.8954188,-28.530371)"
         id="layer3-1"
         inkscape:label="Color">
        <path
           style="opacity:1;fill:#ffffff;fill-opacity:1;stroke:none;stroke-width:1.2;stroke-linecap:butt;stroke-linejoin:miter;stroke-miterlimit:4;stroke-dasharray:none;stroke-opacity:1"
           d="m 28.94971,30.372591 c 1.635877,2.807358 3.434163,11.019746 2.186079,19.813197 -0.03749,2.612124 -0.948812,7.588671 -0.948812,8.244208 0,0 -3.899134,0.09989 -7.229493,0.03625 -3.330358,-0.06364 -4.796869,0.06737 -8.216413,0.06336 0.02949,-1.657652 -5.3976359,-4.790926 -2.267857,-8.343822 0,-5.167442 -0.342243,-10.519109 0.47247,-15.449778 0.254528,-4.326972 4.855698,-2.933067 7.181548,-4.677457 2.923695,-0.409606 4.488693,-0.526788 8.822478,0.314035 z"
           id="path831-5"
           inkscape:connector-curvature="0"
           sodipodi:nodetypes="ccczcccccc" />
        <path
           style="fill:#0276b1;fill-opacity:1;stroke:none;stroke-width:0.264583px;stroke-linecap:butt;stroke-linejoin:miter;stroke-opacity:1"
           d="m 16.725446,36.81488 c 0.260421,-2.556769 3.987942,-6.623181 3.987942,-6.623181 0,0 -4.511124,-0.378288 -5.879929,1.069079 -4.368124,4.618829 -2.360245,18.925011 -2.360245,18.925011 0,0 -4.5795761,2.614718 -4.1562481,4.060169 0.59027,2.01547 5.9800391,4.399895 6.4241051,2.696156 0.444066,-1.703739 1.28661,-13.276693 1.984375,-20.127234 z"
           id="path847"
           inkscape:connector-curvature="0"
           sodipodi:nodetypes="scscszs" />
        <path
           style="fill:#0276b1;fill-opacity:1;stroke:none;stroke-width:0.264583px;stroke-linecap:butt;stroke-linejoin:miter;stroke-opacity:1"
           d="m 27.061041,29.785424 c 0,0 2.289171,3.879041 2.043123,8.635854 -0.246048,4.756813 2.173364,14.126862 2.173364,14.126862 0,0 2.178654,-16.525137 -1.476976,-21.955536 -0.567383,-0.842841 -2.739511,-0.80718 -2.739511,-0.80718 z"
           id="path849"
           inkscape:connector-curvature="0"
           sodipodi:nodetypes="czcsc" />
        <path
           style="fill:#0276b1;fill-opacity:1;stroke:none;stroke-width:0.264583px;stroke-linecap:butt;stroke-linejoin:miter;stroke-opacity:1"
           d="m 26.44683,30.125603 c 1.452313,2.918211 2.197082,5.166242 2.137617,8.295675 -0.07867,4.140228 1.866261,13.489026 1.866261,13.489026 0.739806,0.173775 1.252045,-13.016551 1.252045,-13.016551 l -1.792544,-7.594071 c 0,0 -4.132854,-2.519292 -3.463379,-1.174079 z"
           id="path853"
           inkscape:connector-curvature="0"
           sodipodi:nodetypes="sssccs" />
      </g>
      <g
         transform="translate(-7.8954188,-28.530371)"
         id="layer2-2"
         inkscape:label="Re-ink"
         style="display:inline">
        <path
           sodipodi:nodetypes="cc"
           id="path905"
           d="m 15.306227,52.99312 c -0.423415,4.241926 -0.479826,2.928287 -0.565156,5.536486"
           style="fill:none;stroke:#000000;stroke-width:1.2;stroke-linecap:butt;stroke-linejoin:miter;stroke-miterlimit:4;stroke-dasharray:none;stroke-opacity:1" />
        <path
           style="opacity:1;fill:none;fill-opacity:1;stroke:#000000;stroke-width:1.2;stroke-linecap:butt;stroke-linejoin:miter;stroke-miterlimit:4;stroke-dasharray:none;stroke-opacity:1"
           d="m 28.94971,30.372591 c 0.955508,0.116443 2.429233,6.042953 2.71946,9.24064 0.470339,5.182141 -0.391642,12.934909 -1.638964,15.524046"
           id="path831"
           inkscape:connector-curvature="0"
           sodipodi:nodetypes="cac" />
        <path
           style="fill:none;stroke:#000000;stroke-width:1.2;stroke-linecap:butt;stroke-linejoin:miter;stroke-miterlimit:4;stroke-dasharray:none;stroke-opacity:1"
           d="m 16.394717,36.578645 c -1.648817,5.874613 0.179145,15.295667 -1.702701,18.200412 -1.273861,7.360232 -11.7741761,-1.890817 -2.218802,-4.593268 0,-5.167441 -0.342243,-10.519106 0.47247,-15.449777 0.254528,-4.326971 4.655246,-4.603503 7.181548,-4.677456"
           id="path856"
           inkscape:connector-curvature="0"
           sodipodi:nodetypes="ccccc" />
        <path
           style="fill:none;stroke:#000000;stroke-width:1.2;stroke-linecap:butt;stroke-linejoin:miter;stroke-miterlimit:4;stroke-dasharray:none;stroke-opacity:1"
           d="m 29.104165,38.421279 c -0.654058,4.302781 1.087122,12.790482 1.082812,20.008717"
           id="path858"
           inkscape:connector-curvature="0"
           sodipodi:nodetypes="cc" />
      </g>
    </g>
  </g>
  <g
     style="display:inline"
     transform="translate(-106.0295,-13.937037)"
     inkscape:label="Re-ink"
     id="layer2"
     inkscape:groupmode="layer">
    <path
       sodipodi:nodetypes="csssszzcsc"
       inkscape:connector-curvature="0"
       id="path827-1"
       d="m 111.2673,15.729671 c -0.92152,4.271598 -1.10981,11.545021 -0.89428,15.292256 0.0769,1.336512 3.11298,0.146572 3.68236,1.350904 1.01203,2.140575 -4.00328,10.311165 -1.2883,10.650772 4.80707,0.601296 12.1488,0.265189 16.17434,-0.189436 1.20285,-0.135844 0.2755,-5.071641 0.94819,-8.803929 0.67269,-3.732287 0.55569,-18.343536 -1.92387,-19.371054 -2.47958,-1.027521 -2.11828,2.062706 -6.12475,0.962401 -2.64074,-0.614126 -10.12597,-1.967194 -10.57366,0.108076 z"
       style="display:inline;opacity:1;fill:#0066ff;fill-opacity:1;stroke:#000000;stroke-width:0.844482px;stroke-linecap:butt;stroke-linejoin:miter;stroke-opacity:1" />
    <path
       sodipodi:nodetypes="cc"
       inkscape:connector-curvature="0"
       id="path829-0"
       d="M 114.37102,33.426539 114.5288,19.998533"
       style="display:inline;fill:none;stroke:#000000;stroke-width:0.478761;stroke-linecap:butt;stroke-linejoin:miter;stroke-miterlimit:4;stroke-dasharray:none;stroke-opacity:1" />
    <path
       sodipodi:nodetypes="czc"
       inkscape:connector-curvature="0"
       id="path833-5"
       d="m 127.1015,23.889142 c 0,0 -0.25634,4.651306 0.1052,6.700494 0.36149,2.049185 2.55769,6.774269 2.55769,6.774269"
       style="display:inline;fill:none;stroke:#000000;stroke-width:0.478761;stroke-linecap:butt;stroke-linejoin:miter;stroke-miterlimit:4;stroke-dasharray:none;stroke-opacity:1" />
    <path
       inkscape:connector-curvature="0"
       id="path820"
       d="m 114.89413,24.204353 c 11.63473,-0.983472 11.63473,-0.983472 11.63473,-0.983472"
       style="display:inline;fill:#ff2ad4;fill-opacity:1;stroke:#ffaeae;stroke-width:0.6;stroke-linecap:butt;stroke-linejoin:miter;stroke-miterlimit:4;stroke-dasharray:none;stroke-opacity:1" />
    <path
       inkscape:connector-curvature="0"
       id="path867"
       d="m 115.53314,25.483277 c 3.77518,-0.267269 3.77518,-0.267269 3.77518,-0.267269 l -1.9377,4.777442 -1.1359,0.167044"
       style="display:inline;fill:none;stroke:#bcffa9;stroke-width:0.8;stroke-linecap:butt;stroke-linejoin:miter;stroke-miterlimit:4;stroke-dasharray:none;stroke-opacity:1" />
    <path
       sodipodi:nodetypes="cccc"
       inkscape:connector-curvature="0"
       id="path869"
       d="m 120.77831,25.14919 c -0.10023,1.637026 -0.30068,2.839739 -0.30068,2.839739 l 1.5368,0.267269 -0.96885,2.505652"
       style="display:inline;fill:none;stroke:#fff8ab;stroke-width:0.8;stroke-linecap:butt;stroke-linejoin:miter;stroke-miterlimit:4;stroke-dasharray:none;stroke-opacity:1" />
    <path
       inkscape:connector-curvature="0"
       id="path871"
       d="m 123.31737,28.055746 2.67269,-1.637026 -0.20045,4.142678 z"
       style="display:inline;fill:none;stroke:#e5abff;stroke-width:0.8;stroke-linecap:butt;stroke-linejoin:miter;stroke-miterlimit:4;stroke-dasharray:none;stroke-opacity:1" />
    <path
       inkscape:connector-curvature="0"
       id="path873"
       d="m 123.11691,26.084634 2.60588,-1.269531"
       style="display:inline;fill:none;stroke:#e5abff;stroke-width:0.8;stroke-linecap:butt;stroke-linejoin:miter;stroke-miterlimit:4;stroke-dasharray:none;stroke-opacity:1" />
    <path
       inkscape:connector-curvature="0"
       id="path820-4"
       d="m 115.15893,31.438331 c 11.63965,0.923536 11.63965,0.923536 11.63965,0.923536"
       style="display:inline;fill:#ff2ad4;fill-opacity:1;stroke:#ffaeae;stroke-width:0.6;stroke-linecap:butt;stroke-linejoin:miter;stroke-miterlimit:4;stroke-dasharray:none;stroke-opacity:1" />
    <path
       sodipodi:nodetypes="cc"
       inkscape:connector-curvature="0"
       id="path829"
       d="M 114.37102,33.426539 114.5288,19.998533"
       style="fill:none;stroke:#000000;stroke-width:0.478761;stroke-linecap:butt;stroke-linejoin:miter;stroke-miterlimit:4;stroke-dasharray:none;stroke-opacity:1" />
    <path
       sodipodi:nodetypes="czc"
       inkscape:connector-curvature="0"
       id="path833"
       d="m 127.1015,23.889142 c 0,0 -0.25634,4.651306 0.1052,6.700494 0.36149,2.049185 2.55769,6.774269 2.55769,6.774269"
       style="fill:none;stroke:#000000;stroke-width:0.478761;stroke-linecap:butt;stroke-linejoin:miter;stroke-miterlimit:4;stroke-dasharray:none;stroke-opacity:1" />
  </g>
</svg>
