<?xml version="1.0" encoding="UTF-8" standalone="no"?>
<!DOCTYPE svg PUBLIC "-//W3C//DTD SVG 1.1//EN" "http://www.w3.org/Graphics/SVG/1.1/DTD/svg11.dtd">
<svg width="100%" height="100%" viewBox="0 0 70 85" version="1.1" xmlns="http://www.w3.org/2000/svg" xmlns:xlink="http://www.w3.org/1999/xlink" xml:space="preserve" xmlns:serif="http://www.serif.com/" style="fill-rule:evenodd;clip-rule:evenodd;">
    <g id="Re-ink" transform="matrix(1,0,0,1,-300.556,-39.5066)">
        <path id="path827-1" d="M312.868,87.936C313.086,91.725 321.693,88.352 323.307,91.766C326.175,97.833 311.959,120.994 319.655,121.957C333.281,123.661 354.092,122.708 365.503,121.42C368.913,121.035 366.284,107.043 368.191,96.464C370.098,85.884 369.766,44.466 362.738,41.554C355.709,38.641 350.536,50.356 343.501,50.241C336.79,50.132 332.315,40.745 325.43,41.362C318.973,41.942 315.702,43.203 314.732,47.701C312.791,56.697 312.257,77.314 312.868,87.936Z" style="fill:rgb(0,102,255);fill-rule:nonzero;stroke:black;stroke-width:2.39px;"/>
        <path id="path829-0" d="M324.201,94.752L324.649,56.689" style="fill:none;fill-rule:nonzero;stroke:black;stroke-width:1.36px;"/>
        <path id="path833-5" d="M360.288,67.717C360.288,67.717 359.561,80.902 360.586,86.711C361.611,92.519 367.836,105.913 367.836,105.913" style="fill:none;fill-rule:nonzero;stroke:black;stroke-width:1.36px;"/>
        <path id="path820" d="M325.684,68.611L358.664,65.823" style="fill:none;fill-rule:nonzero;stroke:rgb(255,174,174);stroke-width:1.7px;"/>
        <path id="path867" d="M327.496,72.236L338.197,71.478L332.704,85.021L329.484,85.494" style="fill:none;fill-rule:nonzero;stroke:rgb(188,255,169);stroke-width:2.27px;"/>
        <path id="path869" d="M342.364,71.289C342.08,75.929 341.511,79.339 341.511,79.339L345.868,80.096L343.121,87.199" style="fill:none;fill-rule:nonzero;stroke:rgb(255,248,171);stroke-width:2.27px;"/>
        <path id="path871" d="M349.561,79.528L357.137,74.888L356.569,86.631L349.561,79.528Z" style="fill:none;fill-rule:nonzero;stroke:rgb(229,171,255);stroke-width:2.27px;"/>
        <path id="path873" d="M348.993,73.941L356.38,70.342" style="fill:none;fill-rule:nonzero;stroke:rgb(229,171,255);stroke-width:2.27px;"/>
        <path id="path820-4" d="M326.435,89.117L359.429,91.734" style="fill:none;fill-rule:nonzero;stroke:rgb(255,174,174);stroke-width:1.7px;"/>
        <path id="path829" d="M324.201,94.752L324.649,56.689" style="fill:none;fill-rule:nonzero;stroke:black;stroke-width:1.36px;"/>
        <path id="path833" d="M360.288,67.717C360.288,67.717 359.561,80.902 360.586,86.711C361.611,92.519 367.836,105.913 367.836,105.913" style="fill:none;fill-rule:nonzero;stroke:black;stroke-width:1.36px;"/>
    </g>
</svg>
