<?xml version="1.0" encoding="UTF-8" standalone="no"?>
<svg
   xmlns:dc="http://purl.org/dc/elements/1.1/"
   xmlns:cc="http://creativecommons.org/ns#"
   xmlns:rdf="http://www.w3.org/1999/02/22-rdf-syntax-ns#"
   xmlns:svg="http://www.w3.org/2000/svg"
   xmlns="http://www.w3.org/2000/svg"
   xmlns:sodipodi="http://sodipodi.sourceforge.net/DTD/sodipodi-0.dtd"
   xmlns:inkscape="http://www.inkscape.org/namespaces/inkscape"
   width="24.636646mm"
   height="29.835096mm"
   viewBox="0 0 24.636646 29.835097"
   version="1.1"
   id="svg8"
   inkscape:version="1.0 (4035a4fb49, 2020-05-01)"
   sodipodi:docname="retro_shirt.svg">
  <defs
     id="defs2" />
  <sodipodi:namedview
     id="base"
     pagecolor="#ffffff"
     bordercolor="#666666"
     borderopacity="1.0"
     inkscape:pageopacity="0.0"
     inkscape:pageshadow="2"
     inkscape:zoom="11.2"
     inkscape:cx="57.951723"
     inkscape:cy="16.861876"
     inkscape:document-units="mm"
     inkscape:current-layer="layer1"
     showgrid="false"
     inkscape:pagecheckerboard="true"
     fit-margin-top="0"
     fit-margin-left="0"
     fit-margin-right="0"
     fit-margin-bottom="0"
     inkscape:window-width="1920"
     inkscape:window-height="1001"
     inkscape:window-x="-9"
     inkscape:window-y="-9"
     inkscape:window-maximized="1"
     inkscape:document-rotation="0" />
  <metadata
     id="metadata5">
    <rdf:RDF>
      <cc:Work
         rdf:about="">
        <dc:format>image/svg+xml</dc:format>
        <dc:type
           rdf:resource="http://purl.org/dc/dcmitype/StillImage" />
        <dc:title />
      </cc:Work>
    </rdf:RDF>
  </metadata>
  <g
     inkscape:label="Layer 1"
     inkscape:groupmode="layer"
     id="layer1"
     transform="translate(-329.97283,-265.24728)"
     style="display:inline">
    <g
       style="display:inline"
       id="g5165"
       transform="translate(329.97283,264.31884)">
      <g
         style="display:inline"
         transform="translate(-84.473399,-131.83647)"
         id="layer1-0"
         inkscape:label="Layer 1" />
      <g
         inkscape:label="Color"
         id="layer3-1"
         transform="translate(-7.8954188,-28.530371)">
        <path
           sodipodi:nodetypes="ccczcccccc"
           inkscape:connector-curvature="0"
           id="path831-5"
           d="m 28.94971,30.372591 c 1.635877,2.807358 3.434163,11.019746 2.186079,19.813197 -0.03749,2.612124 -0.948812,7.588671 -0.948812,8.244208 0,0 -3.899134,0.09989 -7.229493,0.03625 -3.330358,-0.06364 -4.796869,0.06737 -8.216413,0.06336 0.02949,-1.657652 -5.3976359,-4.790926 -2.267857,-8.343822 0,-5.167442 -0.342243,-10.519109 0.47247,-15.449778 0.254528,-4.326972 4.855698,-2.933067 7.181548,-4.677457 2.923695,-0.409606 5.221022,-0.526781 8.822478,0.314042 z"
           style="opacity:1;fill:#ffffff;fill-opacity:1;stroke:none;stroke-width:1.2;stroke-linecap:butt;stroke-linejoin:miter;stroke-miterlimit:4;stroke-dasharray:none;stroke-opacity:1" />
        <path
           sodipodi:nodetypes="scscszs"
           inkscape:connector-curvature="0"
           id="path847"
           d="m 16.725446,36.81488 c 0.260421,-2.556769 3.401786,-6.756331 3.401786,-6.756331 0,0 -3.924968,-0.245138 -5.293773,1.202229 -4.368124,4.618829 -2.360245,18.925011 -2.360245,18.925011 0,0 -4.5795761,2.614718 -4.1562481,4.060169 0.59027,2.01547 5.9800391,4.399895 6.4241051,2.696156 0.444066,-1.703739 1.28661,-13.276693 1.984375,-20.127234 z"
           style="fill:#0276b1;fill-opacity:1;stroke:none;stroke-width:0.264583px;stroke-linecap:butt;stroke-linejoin:miter;stroke-opacity:1" />
        <path
           sodipodi:nodetypes="zzcsz"
           inkscape:connector-curvature="0"
           id="path849"
           d="m 28.454828,29.974412 c -2.411571,0.04514 0.895384,3.690053 0.649336,8.446866 -0.246048,4.756813 2.173364,14.126862 2.173364,14.126862 0,0 2.178654,-16.525137 -1.476976,-21.955536 -0.567383,-0.842841 1.065847,-0.663335 -1.345724,-0.618192 z"
           style="fill:#0276b1;fill-opacity:1;stroke:none;stroke-width:0.264583px;stroke-linecap:butt;stroke-linejoin:miter;stroke-opacity:1" />
      </g>
      <g
         style="display:inline"
         inkscape:label="Re-ink"
         id="layer2-2"
         transform="translate(-7.8954188,-28.530371)">
        <path
           style="fill:none;stroke:#000000;stroke-width:1.2;stroke-linecap:butt;stroke-linejoin:miter;stroke-miterlimit:4;stroke-dasharray:none;stroke-opacity:1"
           d="m 15.306227,52.99312 c -0.423415,4.241926 -0.479826,2.928287 -0.565156,5.536486"
           id="path905"
           sodipodi:nodetypes="cc" />
        <path
           sodipodi:nodetypes="cac"
           inkscape:connector-curvature="0"
           id="path831"
           d="m 28.94971,30.372591 c 0.955508,0.116443 2.429233,6.042953 2.71946,9.24064 0.470339,5.182141 -0.391642,12.934909 -1.638964,15.524046"
           style="opacity:1;fill:none;fill-opacity:1;stroke:#000000;stroke-width:1.2;stroke-linecap:butt;stroke-linejoin:miter;stroke-miterlimit:4;stroke-dasharray:none;stroke-opacity:1" />
        <path
           sodipodi:nodetypes="ccccc"
           inkscape:connector-curvature="0"
           id="path856"
           d="m 16.394717,36.578645 c -1.648817,5.874613 0.179145,15.295667 -1.702701,18.200412 -1.273861,7.360232 -11.7741761,-1.890817 -2.218802,-4.593268 0,-5.167441 -0.342243,-10.519106 0.47247,-15.449777 0.254528,-4.326971 1.914919,-4.083786 4.441221,-4.157739"
           style="fill:none;stroke:#000000;stroke-width:1.2;stroke-linecap:butt;stroke-linejoin:miter;stroke-miterlimit:4;stroke-dasharray:none;stroke-opacity:1" />
        <path
           sodipodi:nodetypes="cc"
           inkscape:connector-curvature="0"
           id="path858"
           d="m 29.104165,38.421279 c -0.654058,4.302781 1.087122,12.790482 1.082812,20.008717"
           style="fill:none;stroke:#000000;stroke-width:1.2;stroke-linecap:butt;stroke-linejoin:miter;stroke-miterlimit:4;stroke-dasharray:none;stroke-opacity:1" />
      </g>
    </g>
  </g>
  <g
     inkscape:groupmode="layer"
     id="layer2"
     inkscape:label="Re-ink"
     transform="translate(-106.0295,-13.937037)"
     style="display:inline">
    <path
       style="display:inline;opacity:1;fill:#0066ff;fill-opacity:1;stroke:#000000;stroke-width:0.844482px;stroke-linecap:butt;stroke-linejoin:miter;stroke-opacity:1"
       d="m 110.37302,31.021927 c 0.0769,1.336512 3.11298,0.146572 3.68236,1.350904 1.01203,2.140575 -4.00328,10.311165 -1.2883,10.650772 4.80707,0.601296 12.1488,0.265189 16.17434,-0.189436 1.20285,-0.135844 0.2755,-5.071641 0.94819,-8.803929 0.67269,-3.732287 0.55569,-18.343536 -1.92387,-19.371054 -2.47958,-1.027521 -4.30446,3.105203 -6.78621,3.064894 -2.36736,-0.03845 -3.94635,-3.350201 -6.37507,-3.132319 -2.27791,0.204353 -3.43175,0.649351 -3.77406,2.236071 -0.68462,3.173439 -0.87291,10.446862 -0.65738,14.194097 z"
       id="path827-1"
       inkscape:connector-curvature="0"
       sodipodi:nodetypes="sssszzascs" />
    <path
       style="display:inline;fill:none;stroke:#000000;stroke-width:0.478761;stroke-linecap:butt;stroke-linejoin:miter;stroke-miterlimit:4;stroke-dasharray:none;stroke-opacity:1"
       d="M 114.37102,33.426539 114.5288,19.998533"
       id="path829-0"
       inkscape:connector-curvature="0"
       sodipodi:nodetypes="cc" />
    <path
       style="display:inline;fill:none;stroke:#000000;stroke-width:0.478761;stroke-linecap:butt;stroke-linejoin:miter;stroke-miterlimit:4;stroke-dasharray:none;stroke-opacity:1"
       d="m 127.1015,23.889142 c 0,0 -0.25634,4.651306 0.1052,6.700494 0.36149,2.049185 2.55769,6.774269 2.55769,6.774269"
       id="path833-5"
       inkscape:connector-curvature="0"
       sodipodi:nodetypes="czc" />
    <path
       style="display:inline;fill:#ff2ad4;fill-opacity:1;stroke:#ffaeae;stroke-width:0.6;stroke-linecap:butt;stroke-linejoin:miter;stroke-miterlimit:4;stroke-dasharray:none;stroke-opacity:1"
       d="m 114.89413,24.204353 c 11.63473,-0.983472 11.63473,-0.983472 11.63473,-0.983472"
       id="path820"
       inkscape:connector-curvature="0" />
    <path
       style="display:inline;fill:none;stroke:#bcffa9;stroke-width:0.8;stroke-linecap:butt;stroke-linejoin:miter;stroke-miterlimit:4;stroke-dasharray:none;stroke-opacity:1"
       d="m 115.53314,25.483277 c 3.77518,-0.267269 3.77518,-0.267269 3.77518,-0.267269 l -1.9377,4.777442 -1.1359,0.167044"
       id="path867"
       inkscape:connector-curvature="0" />
    <path
       style="display:inline;fill:none;stroke:#fff8ab;stroke-width:0.8;stroke-linecap:butt;stroke-linejoin:miter;stroke-miterlimit:4;stroke-dasharray:none;stroke-opacity:1"
       d="m 120.77831,25.14919 c -0.10023,1.637026 -0.30068,2.839739 -0.30068,2.839739 l 1.5368,0.267269 -0.96885,2.505652"
       id="path869"
       inkscape:connector-curvature="0"
       sodipodi:nodetypes="cccc" />
    <path
       style="display:inline;fill:none;stroke:#e5abff;stroke-width:0.8;stroke-linecap:butt;stroke-linejoin:miter;stroke-miterlimit:4;stroke-dasharray:none;stroke-opacity:1"
       d="m 123.31737,28.055746 2.67269,-1.637026 -0.20045,4.142678 z"
       id="path871"
       inkscape:connector-curvature="0" />
    <path
       style="display:inline;fill:none;stroke:#e5abff;stroke-width:0.8;stroke-linecap:butt;stroke-linejoin:miter;stroke-miterlimit:4;stroke-dasharray:none;stroke-opacity:1"
       d="m 123.11691,26.084634 2.60588,-1.269531"
       id="path873"
       inkscape:connector-curvature="0" />
    <path
       style="display:inline;fill:#ff2ad4;fill-opacity:1;stroke:#ffaeae;stroke-width:0.6;stroke-linecap:butt;stroke-linejoin:miter;stroke-miterlimit:4;stroke-dasharray:none;stroke-opacity:1"
       d="m 115.15893,31.438331 c 11.63965,0.923536 11.63965,0.923536 11.63965,0.923536"
       id="path820-4"
       inkscape:connector-curvature="0" />
    <path
       style="fill:none;stroke:#000000;stroke-width:0.478761;stroke-linecap:butt;stroke-linejoin:miter;stroke-miterlimit:4;stroke-dasharray:none;stroke-opacity:1"
       d="M 114.37102,33.426539 114.5288,19.998533"
       id="path829"
       inkscape:connector-curvature="0"
       sodipodi:nodetypes="cc" />
    <path
       style="fill:none;stroke:#000000;stroke-width:0.478761;stroke-linecap:butt;stroke-linejoin:miter;stroke-miterlimit:4;stroke-dasharray:none;stroke-opacity:1"
       d="m 127.1015,23.889142 c 0,0 -0.25634,4.651306 0.1052,6.700494 0.36149,2.049185 2.55769,6.774269 2.55769,6.774269"
       id="path833"
       inkscape:connector-curvature="0"
       sodipodi:nodetypes="czc" />
  </g>
</svg>
