<?xml version="1.0" encoding="UTF-8" standalone="no"?>
<svg
   xmlns:dc="http://purl.org/dc/elements/1.1/"
   xmlns:cc="http://creativecommons.org/ns#"
   xmlns:rdf="http://www.w3.org/1999/02/22-rdf-syntax-ns#"
   xmlns:svg="http://www.w3.org/2000/svg"
   xmlns="http://www.w3.org/2000/svg"
   xmlns:sodipodi="http://sodipodi.sourceforge.net/DTD/sodipodi-0.dtd"
   xmlns:inkscape="http://www.inkscape.org/namespaces/inkscape"
   width="24.636646mm"
   height="29.835096mm"
   viewBox="0 0 24.636646 29.835097"
   version="1.1"
   id="svg8"
   inkscape:version="1.0 (4035a4fb49, 2020-05-01)"
   sodipodi:docname="skate_shirt.svg">
  <defs
     id="defs2" />
  <sodipodi:namedview
     id="base"
     pagecolor="#ffffff"
     bordercolor="#666666"
     borderopacity="1.0"
     inkscape:pageopacity="0.0"
     inkscape:pageshadow="2"
     inkscape:zoom="3.959798"
     inkscape:cx="54.55151"
     inkscape:cy="31.045966"
     inkscape:document-units="mm"
     inkscape:current-layer="layer2"
     showgrid="false"
     inkscape:pagecheckerboard="true"
     fit-margin-top="0"
     fit-margin-left="0"
     fit-margin-right="0"
     fit-margin-bottom="0"
     inkscape:window-width="1920"
     inkscape:window-height="1001"
     inkscape:window-x="-9"
     inkscape:window-y="-9"
     inkscape:window-maximized="1"
     inkscape:document-rotation="0" />
  <metadata
     id="metadata5">
    <rdf:RDF>
      <cc:Work
         rdf:about="">
        <dc:format>image/svg+xml</dc:format>
        <dc:type
           rdf:resource="http://purl.org/dc/dcmitype/StillImage" />
        <dc:title></dc:title>
      </cc:Work>
    </rdf:RDF>
  </metadata>
  <g
     inkscape:label="Layer 1"
     inkscape:groupmode="layer"
     id="layer1"
     transform="translate(-329.97283,-265.24728)"
     style="display:inline"
     sodipodi:insensitive="true">
    <g
       style="display:inline"
       id="g5165"
       transform="translate(329.97283,264.31884)">
      <g
         style="display:inline"
         transform="translate(-84.473399,-131.83647)"
         id="layer1-0"
         inkscape:label="Layer 1" />
      <g
         inkscape:label="Color"
         id="layer3-1"
         transform="translate(-7.8954188,-28.530371)">
        <path
           sodipodi:nodetypes="ccczcccccc"
           inkscape:connector-curvature="0"
           id="path831-5"
           d="m 28.94971,30.372591 c 1.635877,2.807358 3.434163,11.019746 2.186079,19.813197 -0.03749,2.612124 -0.948812,7.588671 -0.948812,8.244208 0,0 -3.899134,0.09989 -7.229493,0.03625 -3.330358,-0.06364 -4.796869,0.06737 -8.216413,0.06336 0.02949,-1.657652 -5.3976359,-4.790926 -2.267857,-8.343822 0,-5.167442 -0.342243,-10.519109 0.47247,-15.449778 0.254528,-4.326972 4.855698,-2.933067 7.181548,-4.677457 2.923695,-0.409606 4.488693,-0.526788 8.822478,0.314035 z"
           style="opacity:1;fill:#ffffff;fill-opacity:1;stroke:none;stroke-width:1.2;stroke-linecap:butt;stroke-linejoin:miter;stroke-miterlimit:4;stroke-dasharray:none;stroke-opacity:1" />
        <path
           sodipodi:nodetypes="scscszs"
           inkscape:connector-curvature="0"
           id="path847"
           d="m 16.725446,36.81488 c 0.260421,-2.556769 3.987942,-6.623181 3.987942,-6.623181 0,0 -4.511124,-0.378288 -5.879929,1.069079 -4.368124,4.618829 -2.360245,18.925011 -2.360245,18.925011 0,0 -4.5795761,2.614718 -4.1562481,4.060169 0.59027,2.01547 5.9800391,4.399895 6.4241051,2.696156 0.444066,-1.703739 1.28661,-13.276693 1.984375,-20.127234 z"
           style="fill:#0276b1;fill-opacity:1;stroke:none;stroke-width:0.264583px;stroke-linecap:butt;stroke-linejoin:miter;stroke-opacity:1" />
        <path
           sodipodi:nodetypes="czcsc"
           inkscape:connector-curvature="0"
           id="path849"
           d="m 27.061041,29.785424 c 0,0 2.289171,3.879041 2.043123,8.635854 -0.246048,4.756813 2.173364,14.126862 2.173364,14.126862 0,0 2.178654,-16.525137 -1.476976,-21.955536 -0.567383,-0.842841 -2.739511,-0.80718 -2.739511,-0.80718 z"
           style="fill:#0276b1;fill-opacity:1;stroke:none;stroke-width:0.264583px;stroke-linecap:butt;stroke-linejoin:miter;stroke-opacity:1" />
        <path
           sodipodi:nodetypes="sssccs"
           inkscape:connector-curvature="0"
           id="path853"
           d="m 26.44683,30.125603 c 1.452313,2.918211 2.197082,5.166242 2.137617,8.295675 -0.07867,4.140228 1.866261,13.489026 1.866261,13.489026 0.739806,0.173775 1.252045,-13.016551 1.252045,-13.016551 l -1.792544,-7.594071 c 0,0 -4.132854,-2.519292 -3.463379,-1.174079 z"
           style="fill:#0276b1;fill-opacity:1;stroke:none;stroke-width:0.264583px;stroke-linecap:butt;stroke-linejoin:miter;stroke-opacity:1" />
      </g>
      <g
         style="display:inline"
         inkscape:label="Re-ink"
         id="layer2-2"
         transform="translate(-7.8954188,-28.530371)">
        <path
           style="fill:none;stroke:#000000;stroke-width:1.2;stroke-linecap:butt;stroke-linejoin:miter;stroke-miterlimit:4;stroke-dasharray:none;stroke-opacity:1"
           d="m 15.306227,52.99312 c -0.423415,4.241926 -0.479826,2.928287 -0.565156,5.536486"
           id="path905"
           sodipodi:nodetypes="cc" />
        <path
           sodipodi:nodetypes="cac"
           inkscape:connector-curvature="0"
           id="path831"
           d="m 28.94971,30.372591 c 0.955508,0.116443 2.429233,6.042953 2.71946,9.24064 0.470339,5.182141 -0.391642,12.934909 -1.638964,15.524046"
           style="opacity:1;fill:none;fill-opacity:1;stroke:#000000;stroke-width:1.2;stroke-linecap:butt;stroke-linejoin:miter;stroke-miterlimit:4;stroke-dasharray:none;stroke-opacity:1" />
        <path
           sodipodi:nodetypes="ccccc"
           inkscape:connector-curvature="0"
           id="path856"
           d="m 16.394717,36.578645 c -1.648817,5.874613 0.179145,15.295667 -1.702701,18.200412 -1.273861,7.360232 -11.7741761,-1.890817 -2.218802,-4.593268 0,-5.167441 -0.342243,-10.519106 0.47247,-15.449777 0.254528,-4.326971 4.655246,-4.603503 7.181548,-4.677456"
           style="fill:none;stroke:#000000;stroke-width:1.2;stroke-linecap:butt;stroke-linejoin:miter;stroke-miterlimit:4;stroke-dasharray:none;stroke-opacity:1" />
        <path
           sodipodi:nodetypes="cc"
           inkscape:connector-curvature="0"
           id="path858"
           d="m 29.104165,38.421279 c -0.654058,4.302781 1.087122,12.790482 1.082812,20.008717"
           style="fill:none;stroke:#000000;stroke-width:1.2;stroke-linecap:butt;stroke-linejoin:miter;stroke-miterlimit:4;stroke-dasharray:none;stroke-opacity:1" />
      </g>
    </g>
  </g>
  <g
     inkscape:groupmode="layer"
     id="layer2"
     inkscape:label="Re-ink"
     transform="translate(-106.0295,-13.937037)"
     style="display:inline">
    <path
       style="display:inline;opacity:1;fill:#aaaaff;fill-opacity:1;stroke:#000000;stroke-width:0.844482px;stroke-linecap:butt;stroke-linejoin:miter;stroke-opacity:1"
       d="m 111.2673,15.729671 c -0.92152,4.271598 -1.10981,11.545021 -0.89428,15.292256 0.0769,1.336512 3.11298,0.146572 3.68236,1.350904 1.01203,2.140575 -4.00328,10.311165 -1.2883,10.650772 4.80707,0.601296 12.1488,0.265189 16.17434,-0.189436 1.20285,-0.135844 0.2755,-5.071641 0.94819,-8.803929 0.67269,-3.732287 0.55569,-18.343536 -1.92387,-19.371054 -2.47958,-1.027521 -2.11828,2.062706 -6.12475,0.962401 -2.64074,-0.614126 -10.12597,-1.967194 -10.57366,0.108076 z"
       id="path827-1"
       inkscape:connector-curvature="0"
       sodipodi:nodetypes="csssszzcsc" />
    <path
       style="display:inline;fill:none;stroke:#000000;stroke-width:0.478761;stroke-linecap:butt;stroke-linejoin:miter;stroke-miterlimit:4;stroke-dasharray:none;stroke-opacity:1"
       d="M 114.37102,33.426539 114.5288,19.998533"
       id="path829-0"
       inkscape:connector-curvature="0"
       sodipodi:nodetypes="cc" />
    <path
       style="display:inline;fill:none;stroke:#000000;stroke-width:0.478761;stroke-linecap:butt;stroke-linejoin:miter;stroke-miterlimit:4;stroke-dasharray:none;stroke-opacity:1"
       d="m 127.1015,23.889142 c 0,0 -0.25634,4.651306 0.1052,6.700494 0.36149,2.049185 2.55769,6.774269 2.55769,6.774269"
       id="path833-5"
       inkscape:connector-curvature="0"
       sodipodi:nodetypes="czc" />
    <path
       style="fill:none;stroke:#000000;stroke-width:0.478761;stroke-linecap:butt;stroke-linejoin:miter;stroke-miterlimit:4;stroke-dasharray:none;stroke-opacity:1"
       d="M 114.37102,33.426539 114.5288,19.998533"
       id="path829"
       inkscape:connector-curvature="0"
       sodipodi:nodetypes="cc" />
    <path
       style="fill:none;stroke:#000000;stroke-width:0.478761;stroke-linecap:butt;stroke-linejoin:miter;stroke-miterlimit:4;stroke-dasharray:none;stroke-opacity:1"
       d="m 127.1015,23.889142 c 0,0 -0.25634,4.651306 0.1052,6.700494 0.36149,2.049185 2.55769,6.774269 2.55769,6.774269"
       id="path833"
       inkscape:connector-curvature="0"
       sodipodi:nodetypes="czc" />
    <ellipse
       ry="4.6772165"
       rx="4.8776689"
       cy="28.035503"
       cx="120.72933"
       id="path9453"
       style="fill:#ffff00;stroke-width:1.02426" />
    <g
       transform="matrix(1.180012,0,0,1.3188279,16.891979,6.8717692)"
       id="g9451">
      <path
         fill="#a0041e"
         d="m 91.741515,12.1259 c 0.476514,0.475985 0.99986,0.724164 0,1.724289 l -5.173133,5.172869 c -1.215496,1.21576 -1.445419,2.00316 -3.017573,0.431271 -0.862013,-0.862013 0.07514,-0.937419 1.293283,-2.155825 L 90.017225,12.1259 c 0.47625,-0.47625 1.248304,-0.47625 1.72429,0 z"
         id="path9342"
         style="stroke-width:0.264583" />
      <path
         fill="#dd2e44"
         d="m 92.13839,12.522775 a 1.2186708,1.2186708 0 0 1 0,1.724289 l -5.172869,5.172869 c -1.077648,1.077648 -2.207154,1.241689 -3.017573,0.431271 -0.862012,-0.862013 0.07514,-0.937419 1.293284,-2.155825 l 5.173133,-5.172604 a 1.2186708,1.2186708 0 0 1 1.724025,0 z"
         id="path9344"
         style="stroke-width:0.264583" />
      <path
         fill="#3b88c3"
         d="m 87.20788,20.158385 c 0.245268,0.245798 0.710935,0.178064 1.040341,-0.151342 0.329142,-0.329141 0.39714,-0.794808 0.151342,-1.040341 -0.245269,-0.245534 -0.7112,-0.1778 -1.040342,0.151341 -0.329406,0.329406 -0.397139,0.795073 -0.151341,1.040342 z"
         id="path9346"
         style="stroke-width:0.264583" />
      <path
         fill="#3b88c3"
         d="m 88.204565,18.771174 -1.192213,1.192213 0.195528,0.194998 1.191683,-1.191683 z"
         id="path9348"
         style="stroke-width:0.264583" />
      <path
         fill="#88c9f9"
         d="m 87.025846,19.976616 c 0.245534,0.245533 0.7112,0.1778 1.040342,-0.151606 0.329406,-0.329142 0.397139,-0.794808 0.151606,-1.040342 -0.245533,-0.245533 -0.7112,-0.1778 -1.040342,0.151342 -0.329406,0.329671 -0.397139,0.795073 -0.151606,1.040606 z"
         id="path9350"
         style="stroke-width:0.264583" />
      <path
         fill="#808285"
         d="m 87.82965,19.157202 c 0.0799,0.0971 0.06429,0.257439 -0.05477,0.376502 -0.119063,0.119062 -0.27305,0.126206 -0.376238,0.05477 -0.917575,-0.633941 -0.811477,-1.004887 -0.692414,-1.12395 0.118797,-0.119062 0.303741,-0.303741 1.12342,0.69268 z"
         id="path9352"
         style="stroke-width:0.264583" />
      <path
         fill="#a7a9ac"
         d="m 87.457117,19.272031 c -0.291835,0.327289 -0.731044,0.161131 -1.041135,-0.148696 -0.310092,-0.309827 -0.344488,-0.652463 -0.0344,-0.962554 0.309827,-0.310092 0.624416,-0.186002 0.934244,0.124089 0.310091,0.309827 0.464608,0.624152 0.141287,0.987161 z"
         id="path9354"
         style="stroke-width:0.264583" />
      <path
         fill="#3b88c3"
         d="m 85.577517,18.629093 c 0.266171,0.2667 0.771525,0.192881 1.128448,-0.164306 0.357452,-0.357188 0.430742,-0.862277 0.164571,-1.128712 -0.266171,-0.266436 -0.771525,-0.192882 -1.128713,0.164306 -0.357452,0.357452 -0.431006,0.862806 -0.164306,1.128712 z"
         id="path9356"
         style="stroke-width:0.264583" />
      <path
         fill="#3b88c3"
         d="m 86.658869,17.124143 -1.293283,1.293813 0.211931,0.211137 1.292754,-1.292754 z"
         id="path9358"
         style="stroke-width:0.264583" />
      <path
         fill="#88c9f9"
         d="m 85.380138,18.431979 c 0.266435,0.266435 0.771789,0.192881 1.128712,-0.164571 0.357452,-0.357188 0.430742,-0.862277 0.164571,-1.128713 -0.266171,-0.266435 -0.771525,-0.192616 -1.128712,0.164307 -0.357452,0.357452 -0.431007,0.862541 -0.164571,1.128977 z"
         id="path9360"
         style="stroke-width:0.264583" />
      <path
         fill="#3b88c3"
         d="m 86.24215,17.569702 c 0.0889,0.08864 0.06429,0.257439 -0.05477,0.376502 -0.119063,0.119062 -0.287338,0.143404 -0.376238,0.05477 -0.08863,-0.0889 -0.06429,-0.257439 0.05503,-0.376502 0.118798,-0.119062 0.287073,-0.143139 0.375973,-0.05477 z m 4.670161,-1.115484 c 0.245268,0.245798 0.710935,0.178065 1.040077,-0.151341 0.329141,-0.329142 0.396875,-0.794809 0.151341,-1.040342 -0.245533,-0.245533 -0.710935,-0.1778 -1.040077,0.151342 -0.329406,0.32967 -0.397404,0.795073 -0.151341,1.040341 z"
         id="path9362"
         style="stroke-width:0.264583" />
      <path
         fill="#3b88c3"
         d="m 91.908732,15.067008 -1.191948,1.192477 0.195527,0.194733 1.191418,-1.191683 z"
         id="path9364"
         style="stroke-width:0.264583" />
      <path
         fill="#88c9f9"
         d="m 90.730277,16.272714 c 0.245534,0.245269 0.710936,0.177536 1.040077,-0.151606 0.329142,-0.329142 0.396875,-0.794808 0.151342,-1.040342 -0.245533,-0.245533 -0.710671,-0.1778 -1.040077,0.151342 -0.329142,0.329406 -0.39714,0.795073 -0.151342,1.040606 z"
         id="path9366"
         style="stroke-width:0.264583" />
      <path
         fill="#808285"
         d="m 91.533552,15.4533 c 0.08017,0.0971 0.06456,0.257439 -0.05477,0.376502 -0.118798,0.119062 -0.272521,0.126206 -0.375973,0.05477 -0.91784,-0.633941 -0.811742,-1.004887 -0.692415,-1.12395 0.118798,-0.119062 0.304006,-0.304006 1.123156,0.69268 z"
         id="path9368"
         style="stroke-width:0.264583" />
      <path
         fill="#a7a9ac"
         d="m 91.161284,15.568129 c -0.291836,0.327289 -0.731309,0.161131 -1.041136,-0.148696 -0.310091,-0.309827 -0.344487,-0.652463 -0.0344,-0.962554 0.310092,-0.310092 0.624152,-0.186002 0.934244,0.124089 0.310356,0.309563 0.464608,0.623888 0.141288,0.987161 z"
         id="path9370"
         style="stroke-width:0.264583" />
      <path
         fill="#3b88c3"
         d="m 89.281948,14.925191 c 0.266171,0.2667 0.771261,0.192881 1.128448,-0.164306 0.357452,-0.357188 0.430742,-0.862277 0.164571,-1.128713 -0.266435,-0.266435 -0.771525,-0.192881 -1.128712,0.164307 -0.357717,0.357452 -0.431007,0.862541 -0.164307,1.128712 z"
         id="path9372"
         style="stroke-width:0.264583" />
      <path
         fill="#3b88c3"
         d="m 89.070546,14.713525 1.293019,-1.293548 0.211667,0.211666 -1.292755,1.293813 z"
         id="path9374"
         style="stroke-width:0.264583" />
      <path
         fill="#88c9f9"
         d="m 89.084569,14.728077 c 0.266171,0.266435 0.771525,0.192881 1.128713,-0.164571 0.357187,-0.357188 0.430741,-0.862277 0.164306,-1.128713 -0.266171,-0.266435 -0.771525,-0.192881 -1.128713,0.164307 -0.357452,0.357452 -0.431006,0.862541 -0.164306,1.128977 z"
         id="path9376"
         style="stroke-width:0.264583" />
      <path
         fill="#3b88c3"
         d="m 89.946317,13.8658 c 0.0889,0.08864 0.06429,0.257439 -0.05477,0.376502 -0.119062,0.119062 -0.287337,0.143404 -0.376237,0.05477 -0.0889,-0.0889 -0.06429,-0.257439 0.05477,-0.376502 0.119327,-0.119062 0.287337,-0.143404 0.376237,-0.05477 z"
         id="path9378"
         style="stroke-width:0.264583" />
    </g>
  </g>
</svg>
