<?xml version="1.0" encoding="UTF-8" standalone="no"?>
<svg
   xmlns:dc="http://purl.org/dc/elements/1.1/"
   xmlns:cc="http://creativecommons.org/ns#"
   xmlns:rdf="http://www.w3.org/1999/02/22-rdf-syntax-ns#"
   xmlns:svg="http://www.w3.org/2000/svg"
   xmlns="http://www.w3.org/2000/svg"
   xmlns:sodipodi="http://sodipodi.sourceforge.net/DTD/sodipodi-0.dtd"
   xmlns:inkscape="http://www.inkscape.org/namespaces/inkscape"
   sodipodi:docname="sweat_pants.svg"
   inkscape:version="1.0 (4035a4fb49, 2020-05-01)"
   id="svg2007"
   version="1.1"
   viewBox="0 0 29.435812 33.446296"
   height="33.446297mm"
   width="29.435812mm">
  <defs
     id="defs2001" />
  <sodipodi:namedview
     inkscape:document-rotation="0"
     inkscape:window-maximized="1"
     inkscape:window-y="-9"
     inkscape:window-x="-9"
     inkscape:window-height="1001"
     inkscape:window-width="1920"
     showguides="false"
     fit-margin-bottom="0"
     fit-margin-right="0"
     fit-margin-left="0"
     fit-margin-top="0"
     inkscape:pagecheckerboard="true"
     showgrid="false"
     inkscape:current-layer="layer2"
     inkscape:document-units="mm"
     inkscape:cy="107.22418"
     inkscape:cx="125.41245"
     inkscape:zoom="2.8"
     inkscape:pageshadow="2"
     inkscape:pageopacity="0.0"
     borderopacity="1.0"
     bordercolor="#666666"
     pagecolor="#ffffff"
     id="base" />
  <metadata
     id="metadata2004">
    <rdf:RDF>
      <cc:Work
         rdf:about="">
        <dc:format>image/svg+xml</dc:format>
        <dc:type
           rdf:resource="http://purl.org/dc/dcmitype/StillImage" />
        <dc:title></dc:title>
      </cc:Work>
    </rdf:RDF>
  </metadata>
  <g
     sodipodi:insensitive="true"
     transform="translate(-75.717135,-133.15615)"
     id="layer1"
     inkscape:groupmode="layer"
     inkscape:label="Layer 1">
    <path
       style="opacity:1;fill:#ffffff;fill-opacity:1;stroke:none;stroke-width:1.2;stroke-linecap:butt;stroke-linejoin:miter;stroke-miterlimit:4;stroke-dasharray:none;stroke-opacity:1"
       d="m 101.94606,133.56129 c 0.12374,9.51018 1.59573,13.00297 0.8977,23.69911 5.98907,7.62246 -5.466145,9.2572 -8.457218,1.79539 0,-4.94654 0.06144,-10.80872 0.04725,-15.73327 -3.051778,4.57767 -6.271659,11.54186 -7.843006,17.10343 6.066786,9.10018 -9.274496,5.51039 -10.15811,0.18899 5.089364,-6.26383 9.457066,-19.11343 10.067485,-26.95404 6.174568,-0.18432 8.74291,-0.0556 15.445899,-0.0996 z"
       id="path831-5"
       inkscape:connector-curvature="0"
       sodipodi:nodetypes="cccccccc" />
    <path
       style="fill:#0276b1;fill-opacity:1;stroke:none;stroke-width:0.264583px;stroke-linecap:butt;stroke-linejoin:miter;stroke-opacity:1"
       d="m 85.938777,134.2511 c -0.52762,2.53327 6.446629,6.5124 8.920238,7.98475 4.74147,-1.55146 7.056165,-4.21484 7.606765,-7.65402 0.5506,-3.43919 0.37798,22.67857 0.37798,22.67857 0,0 2.67882,4.23321 0.56696,5.76414 -2.11185,1.53092 -7.638151,-0.21053 -9.024178,-3.96875 -1.386027,-3.75823 0.472473,-16.81994 0.472473,-16.81994 l -8.268229,18.1901 c 0,0 2.807966,4.17708 0.330729,5.76414 -2.477237,1.58706 -11.803334,-3.74333 -10.488839,-5.57515 3.262015,-4.5458 8.268229,-18.35547 8.268229,-18.35547 0,0 1.765492,-10.54164 1.237872,-8.00837 z"
       id="path857"
       inkscape:connector-curvature="0"
       sodipodi:nodetypes="zczczzcczscz" />
    <path
       style="display:inline;opacity:1;fill:none;fill-opacity:1;stroke:#000000;stroke-width:1.2;stroke-linecap:butt;stroke-linejoin:miter;stroke-miterlimit:4;stroke-dasharray:none;stroke-opacity:1"
       d="m 101.94606,133.56129 c -0.0511,9.15583 1.59573,13.00297 0.8977,23.69911 5.98907,7.62246 -5.466145,9.2572 -8.457218,1.79538 0,-4.94653 0.06144,-10.8087 0.04725,-15.73326 -3.051778,4.57767 -6.271659,11.54185 -7.843006,17.10343 6.066786,9.10018 -9.274496,5.51039 -10.15811,0.18899 5.089364,-6.26384 9.95316,-20.03475 10.067485,-26.95404"
       id="path831"
       inkscape:connector-curvature="0"
       sodipodi:nodetypes="ccccccc" />
  </g>
  <g
     transform="translate(3.2420942,0.86050551)"
     inkscape:label="Re-ink"
     id="layer2"
     inkscape:groupmode="layer">
    <path
       sodipodi:nodetypes="ssssscss"
       inkscape:connector-curvature="0"
       id="path2567"
       d="M -2.526553,25.010779 C 2.9305269,17.186233 6.1941491,-0.05256636 6.9586346,-0.03871764 11.098397,0.03627448 18.827125,-0.11705908 22.644647,-0.36114768 24.555479,-0.48332439 24.164332,14.02817 24.345538,22.72028 c 0.06654,3.191629 -10.098839,4.366766 -9.543897,1.22259 0.698309,-3.956459 0.377976,-12.413999 0.377976,-12.413999 0,0 -5.9386774,7.551179 -7.2287944,13.589569 -0.328044,1.535408 -12.5071103,2.802641 -10.4773756,-0.107661 z"
       style="fill:#a4a4fe;fill-opacity:1;stroke:#000000;stroke-width:0.997624;stroke-linecap:butt;stroke-linejoin:miter;stroke-miterlimit:4;stroke-dasharray:none;stroke-opacity:1" />
  </g>
</svg>
