<?xml version="1.0" encoding="UTF-8" standalone="no"?>
<!DOCTYPE svg PUBLIC "-//W3C//DTD SVG 1.1//EN" "http://www.w3.org/Graphics/SVG/1.1/DTD/svg11.dtd">
<svg width="100%" height="100%" viewBox="0 0 95 112" version="1.1" xmlns="http://www.w3.org/2000/svg" xmlns:xlink="http://www.w3.org/1999/xlink" xml:space="preserve" xmlns:serif="http://www.serif.com/" style="fill-rule:evenodd;clip-rule:evenodd;">
    <g id="Color" transform="matrix(1,0,0,1,14.8473,-1.40715)">
        <path id="path896" d="M1.768,46.587L2.121,70.275L-1.414,79.468C1.39,89.165 7.49,86.747 11.162,90.356L14.506,90.235C16.329,94.594 14.754,101.242 13.922,105.699L24.577,110.795L55.508,108.99C76.165,109.17 71.663,105.016 69.728,86.819L77.605,82.827L76.544,54.012L76.014,42.698L2.298,37.395L1.768,46.587Z" style="fill:rgb(0,63,0);fill-rule:nonzero;"/>
        <path id="path857" d="M24.308,109.328C24.308,109.328 25.798,95.572 28.905,86.347C30.215,82.457 53.147,83.973 61.078,83.519C67.483,83.152 65.674,110.035 65.674,110.035C65.674,110.035 54.528,110.347 48.955,110.28C40.734,110.182 24.308,109.328 24.308,109.328Z" style="fill:rgb(0,102,0);fill-rule:nonzero;stroke:black;stroke-width:1.13px;"/>
        <path id="path890" d="M1.591,49.769C1.591,49.769 12.869,53.599 17.147,50.653C18.268,49.882 17.277,47.554 18.385,46.764C30.811,37.897 51.142,39.868 64.17,47.825C66.173,49.048 66.389,51.961 67.529,54.012C70.642,59.615 76.544,54.012 76.544,54.012L74.425,26.9L70.191,6.574C67.159,-3.208 58.25,10.72 53.74,16.359L41.366,16.005L32.638,4.733L17.092,4.459L4.361,15.651L1.591,49.769Z" style="fill:rgb(0,102,0);fill-rule:nonzero;"/>
    </g>
    <g id="Re-Ink" transform="matrix(1,0,0,1,14.8473,-1.40715)">
        <path id="path864" d="M4.361,15.651C-0.23,26.392 2.226,72.724 2.226,72.724C2.226,72.724 -3.371,80.726 2.366,85.595C11.42,93.279 14.506,90.235 14.506,90.235C14.506,90.235 16.107,96.235 14.932,101.479C13.758,106.723 14.675,110.438 39.07,111.071C59.13,110.163 67.076,112.124 70.345,107.406C72.281,103.978 68.503,90.99 69.728,86.819C70.953,82.649 77.435,84.96 77.699,81.838C78.479,72.579 77.831,60.752 77.129,50.241C76.607,42.426 74.425,26.9 74.425,26.9C74.425,26.9 73.46,5.259 67.812,4.687C55.053,3.394 61.302,15.51 50.622,15.979C32.276,16.784 36.1,3.307 30.109,3.954C17.783,5.286 8.953,4.911 4.361,15.651Z" style="fill:none;fill-rule:nonzero;stroke:black;stroke-width:3.78px;"/>
        <path id="path870" d="M18.206,40.563L14.506,90.235" style="fill:none;fill-rule:nonzero;stroke:black;stroke-width:3.78px;"/>
        <path id="path872" d="M66.312,47.679L69.728,86.819" style="fill:none;fill-rule:nonzero;stroke:black;stroke-width:3.78px;"/>
    </g>
</svg>
