<?xml version="1.0" encoding="UTF-8" standalone="no"?>
<!-- Created with Inkscape (http://www.inkscape.org/) -->

<svg
   xmlns:dc="http://purl.org/dc/elements/1.1/"
   xmlns:cc="http://creativecommons.org/ns#"
   xmlns:rdf="http://www.w3.org/1999/02/22-rdf-syntax-ns#"
   xmlns:svg="http://www.w3.org/2000/svg"
   xmlns="http://www.w3.org/2000/svg"
   xmlns:sodipodi="http://sodipodi.sourceforge.net/DTD/sodipodi-0.dtd"
   xmlns:inkscape="http://www.inkscape.org/namespaces/inkscape"
   version="1.1"
   id="svg865"
   width="106"
   height="112"
   viewBox="0 0 106 112"
   sodipodi:docname="z_briefs.svg"
   inkscape:version="0.92.3 (2405546, 2018-03-11)">
  <metadata
     id="metadata871">
    <rdf:RDF>
      <cc:Work
         rdf:about="">
        <dc:format>image/svg+xml</dc:format>
        <dc:type
           rdf:resource="http://purl.org/dc/dcmitype/StillImage" />
        <dc:title></dc:title>
      </cc:Work>
    </rdf:RDF>
  </metadata>
  <defs
     id="defs869" />
  <sodipodi:namedview
     pagecolor="#ffffff"
     bordercolor="#666666"
     borderopacity="1"
     objecttolerance="10"
     gridtolerance="10"
     guidetolerance="10"
     inkscape:pageopacity="0"
     inkscape:pageshadow="2"
     inkscape:window-width="1920"
     inkscape:window-height="1001"
     id="namedview867"
     showgrid="false"
     inkscape:pagecheckerboard="true"
     inkscape:zoom="11.9198"
     inkscape:cx="70.364745"
     inkscape:cy="79.295955"
     inkscape:window-x="-9"
     inkscape:window-y="-9"
     inkscape:window-maximized="1"
     inkscape:current-layer="layer2" />
  <g
     inkscape:groupmode="layer"
     id="layer2"
     inkscape:label="Color">
    <path
       style="fill:#0066ff;fill-opacity:1;stroke:none;stroke-width:2;stroke-linecap:butt;stroke-linejoin:miter;stroke-miterlimit:4;stroke-dasharray:none;stroke-opacity:1"
       d="M 37.135593,14.118644 C 43.027868,20.752407 91.487239,18.48988 100.72881,14 c 1.54442,-0.750333 0.62094,2.781374 0.71187,5.101695 0.0909,2.320321 -5.163506,0.628407 -7.118646,2.194915 -2.49523,1.999243 -10.869289,30.780279 -21.59322,23.669493 C 61.588691,37.57935 66.637862,23.813841 35.830509,21.59322 33.307836,21.411384 35.455973,12.227659 37.135593,14.118644 Z"
       id="path1419-8-1"
       inkscape:connector-curvature="0"
       sodipodi:nodetypes="sszssss" />
    <path
       style="fill:#ffffff;stroke:none;stroke-width:1px;stroke-linecap:butt;stroke-linejoin:miter;stroke-opacity:1"
       d="m 50.084733,17.954798 -1.929563,5.6209 -13.506938,-1.929563 1.510093,-7.466568 z"
       id="path1566"
       inkscape:connector-curvature="0" />
  </g>
  <g
     inkscape:groupmode="layer"
     id="layer1"
     inkscape:label="Re-ink"
     sodipodi:insensitive="true">
    <path
       style="fill:none;fill-opacity:1;stroke:#000000;stroke-width:2;stroke-linecap:butt;stroke-linejoin:miter;stroke-miterlimit:4;stroke-dasharray:none;stroke-opacity:1"
       d="M 37.135593,14.118644 C 43.027868,20.752407 91.487239,18.48988 100.72881,14 c 1.54442,-0.750333 0.62094,2.781374 0.71187,5.101695 0.0909,2.320321 -5.163506,0.628407 -7.118646,2.194915 -2.49523,1.999242 -10.869289,30.780278 -21.59322,23.669492 C 61.588691,37.579349 66.637862,23.81384 35.830509,21.59322 33.307836,21.411384 35.455973,12.227659 37.135593,14.118644 Z"
       id="path1419-8"
       inkscape:connector-curvature="0"
       sodipodi:nodetypes="sszssss" />
    <path
       style="fill:none;stroke:#000000;stroke-width:0.5;stroke-linecap:butt;stroke-linejoin:miter;stroke-miterlimit:4;stroke-dasharray:none;stroke-opacity:1"
       d="m 101.73729,15.423728 c 0,0 -9.226533,5.073241 -25.271188,5.872882 C 60.421446,22.09625 50.355865,20.713159 43.601695,19.161017 36.847525,17.608875 35.59322,15.898305 35.59322,15.898305"
       id="path1421-5"
       inkscape:connector-curvature="0"
       sodipodi:nodetypes="czzc" />
    <path
       style="fill:none;stroke:#000000;stroke-width:0.60000002;stroke-linecap:butt;stroke-linejoin:miter;stroke-miterlimit:4;stroke-dasharray:none;stroke-opacity:1"
       d="m 68.398305,42.118644 c 0,0 4.375912,-5.632741 5.457627,-8.957627 1.196948,-3.67908 0.949153,-11.567797 0.949153,-11.567797"
       id="path1431-2"
       inkscape:connector-curvature="0"
       sodipodi:nodetypes="csc" />
    <path
       style="fill:none;stroke:#000000;stroke-width:0.60000002;stroke-linecap:butt;stroke-linejoin:miter;stroke-miterlimit:4;stroke-dasharray:none;stroke-opacity:1"
       d="m 73.855932,33.161017 c 0,0 1.879553,4.145002 1.838983,6.347457 -0.0395,2.144456 -2.016949,6.11017 -2.016949,6.11017"
       id="path1433-4"
       inkscape:connector-curvature="0"
       sodipodi:nodetypes="csc" />
    <path
       style="fill:none;stroke:#000000;stroke-width:0.60000002;stroke-linecap:butt;stroke-linejoin:miter;stroke-miterlimit:4;stroke-dasharray:none;stroke-opacity:1"
       d="m 83.228814,42.652543 c 0,0 3.157166,-12.834443 4.152542,-18.805086 0.196074,-1.176126 0.355932,-3.559322 0.355932,-3.559322"
       id="path1435-3"
       inkscape:connector-curvature="0"
       sodipodi:nodetypes="csc" />
    <path
       style="fill:none;stroke:#000000;stroke-width:0.60000002;stroke-linecap:butt;stroke-linejoin:miter;stroke-miterlimit:4;stroke-dasharray:none;stroke-opacity:1"
       d="m 82.457627,21 c 0,0 1.127312,2.955857 1.898305,4.330508 0.507164,0.904254 1.957627,3.262712 1.957627,3.262712"
       id="path1437-3"
       inkscape:connector-curvature="0"
       sodipodi:nodetypes="csc" />
  </g>
</svg>
