<?xml version="1.0" encoding="UTF-8" standalone="no"?>
<!-- Created with Inkscape (http://www.inkscape.org/) -->

<svg
   xmlns:dc="http://purl.org/dc/elements/1.1/"
   xmlns:cc="http://creativecommons.org/ns#"
   xmlns:rdf="http://www.w3.org/1999/02/22-rdf-syntax-ns#"
   xmlns:svg="http://www.w3.org/2000/svg"
   xmlns="http://www.w3.org/2000/svg"
   xmlns:sodipodi="http://sodipodi.sourceforge.net/DTD/sodipodi-0.dtd"
   xmlns:inkscape="http://www.inkscape.org/namespaces/inkscape"
   version="1.1"
   id="svg837"
   width="85"
   height="115"
   viewBox="0 0 85 115"
   sodipodi:docname="beyond_jacket.svg"
   inkscape:version="0.92.3 (2405546, 2018-03-11)">
  <metadata
     id="metadata843">
    <rdf:RDF>
      <cc:Work
         rdf:about="">
        <dc:format>image/svg+xml</dc:format>
        <dc:type
           rdf:resource="http://purl.org/dc/dcmitype/StillImage" />
        <dc:title></dc:title>
      </cc:Work>
    </rdf:RDF>
  </metadata>
  <defs
     id="defs841" />
  <sodipodi:namedview
     pagecolor="#ffffff"
     bordercolor="#666666"
     borderopacity="1"
     objecttolerance="10"
     gridtolerance="10"
     guidetolerance="10"
     inkscape:pageopacity="0"
     inkscape:pageshadow="2"
     inkscape:window-width="950"
     inkscape:window-height="991"
     id="namedview839"
     showgrid="false"
     inkscape:pagecheckerboard="true"
     fit-margin-top="0"
     fit-margin-left="0"
     fit-margin-right="0"
     fit-margin-bottom="0"
     inkscape:zoom="5.6568543"
     inkscape:cx="37.779955"
     inkscape:cy="59.939224"
     inkscape:window-x="960"
     inkscape:window-y="0"
     inkscape:window-maximized="0"
     inkscape:current-layer="layer3"
     showguides="false" />
  <g
     inkscape:groupmode="layer"
     id="layer1"
     inkscape:label="Original"
     transform="translate(17.592821,10.674505)"
     sodipodi:insensitive="true" />
  <g
     inkscape:groupmode="layer"
     id="layer3"
     inkscape:label="Color">
    <path
       style="display:inline;opacity:1;fill:#003380;fill-opacity:1;stroke:none;stroke-width:3.77952766;stroke-linecap:butt;stroke-linejoin:miter;stroke-miterlimit:4;stroke-dasharray:none;stroke-opacity:1"
       d="m 8.0736469,15.651414 c -3.000545,1.901906 -2.134901,57.073021 -2.134901,57.073021 -2.3101643,9.809195 1.7559102,10.522205 0.608284,17.795372 3.172745,1.81514 6.7511221,-1.62007 11.6707931,-0.28466 4.919671,1.33542 1.601085,5.99959 0.42698,11.243813 -1.174105,5.24423 13.404674,6.57995 20.637376,8.09176 6.041484,1.26281 12.406349,1.67677 18.502475,0.71164 7.9885,-1.26473 20.835815,-4.94864 22.772278,-8.37642 1.936463,-3.427783 -8.341438,-10.916233 -7.116337,-15.086632 1.225101,-4.170404 7.707079,-1.859528 7.970297,-4.981436 0.780656,-9.259011 0.132549,-21.086054 -0.569307,-31.596534 -0.521871,-7.815165 -2.704208,-23.341585 -2.704208,-23.341585 0,0 -5.708848,-12.627003 -11.386138,-12.66708 C 60.741934,14.190253 60.509291,27.100642 54.51114,27.46906 48.496563,27.838487 46.873273,13.029683 40.882224,13.676947 28.555535,15.008703 11.074193,13.749508 8.0736469,15.651414 Z"
       id="path864-9"
       inkscape:connector-curvature="0"
       sodipodi:nodetypes="zcczzaazzsacsssz" />
    <path
       style="fill:#0044aa;fill-opacity:1;stroke:none;stroke-width:1px;stroke-linecap:butt;stroke-linejoin:miter;stroke-opacity:1"
       d="M 44.546875,13.707031 25.626953,15.4375 8.0742188,15.652344 6.5410156,34.566406 16.970703,30.5 15.363281,53.541016 3.09375,46.144531 2.2089844,58.34375 14.365234,67.855469 12.75,91 20.516847,89.350492 19.359375,103.26172 44.5,112 68.25,109.25 80.523438,102.02539 71.5,89 78,84.25 75.681641,63.273438 79.814453,61.525391 79.107422,50.742188 74.546875,53.021484 71.939453,29.427734 78.136719,26.900391 71.240234,15.298828 64.701172,14.060547 59.75,24.5 54.800781,28.203125 Z"
       id="path2087"
       inkscape:connector-curvature="0"
       sodipodi:nodetypes="cccccccccccccccccccccccccccc" />
    <path
       style="fill:#ffff00;stroke:none;stroke-width:0.9295885px;stroke-linecap:butt;stroke-linejoin:miter;stroke-opacity:1"
       d="M 31.819805,13.737484 33.941126,26.774089 39.59798,24.824133 35.708892,13.721297 Z"
       id="path2055-4-4"
       inkscape:connector-curvature="0"
       sodipodi:nodetypes="ccccc" />
    <path
       style="fill:#ffff00;stroke:none;stroke-width:1px;stroke-linecap:butt;stroke-linejoin:miter;stroke-opacity:1"
       d="M 15.026019,16.712158 16.970563,30.50074 22.097087,28.732973 18.915106,15.828275 Z"
       id="path2055"
       inkscape:connector-curvature="0"
       sodipodi:nodetypes="ccccc" />
    <path
       style="fill:#ffff00;stroke:none;stroke-width:0.9295885px;stroke-linecap:butt;stroke-linejoin:miter;stroke-opacity:1"
       d="M 23.152765,15.437652 25.274086,28.474257 30.93094,26.524301 27.041852,15.421465 Z"
       id="path2055-4"
       inkscape:connector-curvature="0"
       sodipodi:nodetypes="ccccc" />
    <path
       style="fill:#ffff00;stroke:none;stroke-width:0.90405869px;stroke-linecap:butt;stroke-linejoin:miter;stroke-opacity:1"
       d="m 63.276764,15.406304 2.298097,13.567812 3.181981,0.453776 -0.176777,-15.097558 z"
       id="path2055-4-2"
       inkscape:connector-curvature="0"
       sodipodi:nodetypes="ccccc" />
    <path
       style="fill:#cccccc;stroke:none;stroke-width:1px;stroke-linecap:butt;stroke-linejoin:miter;stroke-opacity:1"
       d="M 16.970563,30.50074 45.75,22.250001 l 9.050775,5.952642 0.949224,7.297358 -5.499999,-7.25 -4,-3.5 z"
       id="path2091"
       inkscape:connector-curvature="0" />
    <path
       style="fill:none;stroke:#000000;stroke-width:2.00954032;stroke-linecap:butt;stroke-linejoin:miter;stroke-miterlimit:4;stroke-dasharray:none;stroke-opacity:1"
       d="m 56.631992,34.231635 3.62878,76.772945"
       id="path2095"
       inkscape:connector-curvature="0" />
    <path
       style="fill:#cccccc;fill-opacity:1;stroke:none;stroke-width:1px;stroke-linecap:butt;stroke-linejoin:miter;stroke-opacity:1"
       d="m 56.375,27.375001 0.999999,7.75 2.75,-6.875 11.813823,1.177891 z"
       id="path2093"
       inkscape:connector-curvature="0"
       sodipodi:nodetypes="ccccc" />
    <path
       style="fill:#0054d1;fill-opacity:1;stroke:none;stroke-width:1.00000012px;stroke-linecap:butt;stroke-linejoin:miter;stroke-opacity:1"
       d="M 21.25,48.999983 33.75,64.749986 27.75,108 19.358749,103.26231 20.5,92.999995 18.217822,90.235144 Z"
       id="path2097"
       inkscape:connector-curvature="0" />
    <path
       style="fill:#003380;fill-opacity:1;stroke:none;stroke-width:1px;stroke-linecap:butt;stroke-linejoin:miter;stroke-opacity:1"
       d="m 23.18566,46.205584 11.625,14.124999 2.875,-8.374999 -13.75,-10.5 z"
       id="path2099"
       inkscape:connector-curvature="0" />
    <path
       style="fill:#0054d1;fill-opacity:1;stroke:none;stroke-width:0.68006837px;stroke-linecap:butt;stroke-linejoin:miter;stroke-opacity:1"
       d="m 69.84449,54.070219 -5.410538,9.452541 6.988191,43.35405 9.101342,-4.85194 C 73.747444,90.013202 70.585165,69.697814 69.84449,54.070219 Z"
       id="path2097-9"
       inkscape:connector-curvature="0"
       sodipodi:nodetypes="ccccc" />
    <path
       style="fill:#003380;fill-opacity:1;stroke:none;stroke-width:0.68006825px;stroke-linecap:butt;stroke-linejoin:miter;stroke-opacity:1"
       d="m 68.787658,51.70312 -6.523796,8.07602 -1.569693,-7.094356 7.684004,-5.005329 z"
       id="path2099-0"
       inkscape:connector-curvature="0"
       sodipodi:nodetypes="ccccc" />
  </g>
  <g
     inkscape:groupmode="layer"
     id="layer2"
     inkscape:label="Re-Ink"
     style="display:inline"
     sodipodi:insensitive="true">
    <path
       style="opacity:1;fill:none;fill-opacity:1;stroke:#000000;stroke-width:3.77952766;stroke-linecap:butt;stroke-linejoin:miter;stroke-miterlimit:4;stroke-dasharray:none;stroke-opacity:1"
       d="m 8.0736469,15.651414 c -1.916671,16.5657 -7.0806162,60.446928 0.2411497,73.984505 1.7291064,3.220442 4.9833544,-0.736187 9.9030254,0.59923 4.919671,1.335417 1.601085,5.999584 0.42698,11.243811 -1.174105,5.24423 13.404674,6.57995 20.637376,8.09176 6.041484,1.26281 12.406349,1.67677 18.502475,0.71164 7.9885,-1.26473 20.835815,-4.94864 22.772278,-8.37642 1.936463,-3.427781 -8.341438,-10.916229 -7.116337,-15.086633 1.225101,-4.170404 7.707079,-1.859528 7.970297,-4.981436 0.780656,-9.259011 0.132549,-21.086054 -0.569307,-31.596534 -0.521871,-7.815165 -2.704208,-23.341585 -2.704208,-23.341585 0,0 -5.708848,-12.627002 -11.386138,-12.667079 C 60.741933,14.190253 60.50929,27.100641 54.511139,27.469059 48.496562,27.838486 47.580379,11.615469 41.58933,12.262733 29.262641,13.594489 11.074192,13.749508 8.0736469,15.651414 Z"
       id="path864"
       inkscape:connector-curvature="0"
       sodipodi:nodetypes="cczzaazzsacsssc" />
    <path
       style="opacity:1;fill:none;stroke:#000000;stroke-width:3.77952766;stroke-linecap:butt;stroke-linejoin:miter;stroke-miterlimit:4;stroke-dasharray:none;stroke-opacity:1"
       d="m 21.918317,40.563119 -3.700495,49.67203"
       id="path870"
       inkscape:connector-curvature="0" />
    <path
       style="opacity:1;fill:none;stroke:#000000;stroke-width:3.77952766;stroke-linecap:butt;stroke-linejoin:miter;stroke-miterlimit:4;stroke-dasharray:none;stroke-opacity:1"
       d="m 70.024752,47.679455 3.415842,39.139852"
       id="path872"
       inkscape:connector-curvature="0" />
  </g>
</svg>
