<?xml version="1.0" encoding="UTF-8" standalone="no"?>
<!-- Created with Inkscape (http://www.inkscape.org/) -->

<svg
   xmlns:dc="http://purl.org/dc/elements/1.1/"
   xmlns:cc="http://creativecommons.org/ns#"
   xmlns:rdf="http://www.w3.org/1999/02/22-rdf-syntax-ns#"
   xmlns:svg="http://www.w3.org/2000/svg"
   xmlns="http://www.w3.org/2000/svg"
   xmlns:sodipodi="http://sodipodi.sourceforge.net/DTD/sodipodi-0.dtd"
   xmlns:inkscape="http://www.inkscape.org/namespaces/inkscape"
   version="1.1"
   id="svg898"
   width="85"
   height="115"
   viewBox="0 0 85 115"
   sodipodi:docname="biker_jacket.svg"
   inkscape:version="0.92.3 (2405546, 2018-03-11)">
  <metadata
     id="metadata904">
    <rdf:RDF>
      <cc:Work
         rdf:about="">
        <dc:format>image/svg+xml</dc:format>
        <dc:type
           rdf:resource="http://purl.org/dc/dcmitype/StillImage" />
        <dc:title></dc:title>
      </cc:Work>
    </rdf:RDF>
  </metadata>
  <defs
     id="defs902" />
  <sodipodi:namedview
     pagecolor="#ffffff"
     bordercolor="#666666"
     borderopacity="1"
     objecttolerance="10"
     gridtolerance="10"
     guidetolerance="10"
     inkscape:pageopacity="0"
     inkscape:pageshadow="2"
     inkscape:window-width="1920"
     inkscape:window-height="1001"
     id="namedview900"
     showgrid="false"
     inkscape:pagecheckerboard="true"
     fit-margin-top="0"
     fit-margin-left="0"
     fit-margin-right="0"
     fit-margin-bottom="0"
     inkscape:zoom="5.8044244"
     inkscape:cx="97.258101"
     inkscape:cy="51.215311"
     inkscape:window-x="-9"
     inkscape:window-y="-9"
     inkscape:window-maximized="1"
     inkscape:current-layer="layer4" />
  <g
     inkscape:groupmode="layer"
     id="layer4"
     inkscape:label="Original"
     transform="translate(171.63136,61.398304)" />
  <g
     inkscape:groupmode="layer"
     id="layer5"
     inkscape:label="Re-Ink"
     sodipodi:insensitive="true">
    <path
       style="fill:#ffffff;stroke:#000000;stroke-width:1.5;stroke-linecap:butt;stroke-linejoin:miter;stroke-miterlimit:4;stroke-dasharray:none;stroke-opacity:1"
       d="m 52.890688,14.731659 c 0.764515,4.752056 10.201502,11.594198 12.232049,2.584236 2.030547,-9.0099623 1.378259,92.860195 1.378259,92.860195 0,0 -15.133064,4.19525 -19.640191,2.41196 -4.42667,-1.75147 -7.063577,-3.27337 -7.063577,-3.27337 L 48.411347,84.678302 49.617323,47.293028 54.44123,25.413166 c 0,0 -2.315057,-15.433563 -1.550542,-10.681507 z"
       id="path1474"
       inkscape:connector-curvature="0"
       sodipodi:nodetypes="zzcsccccz" />
    <path
       style="fill:#333333;fill-opacity:1;stroke:#000000;stroke-width:2.5;stroke-linecap:butt;stroke-linejoin:miter;stroke-miterlimit:4;stroke-dasharray:none;stroke-opacity:1"
       d="m 49.272759,3.8778696 c 3.143488,5.5450393 5.100023,14.1533374 5.168471,21.5352964 0.06925,7.46812 -4.015167,14.455339 -4.823907,21.879862 -0.715149,6.565322 0.226214,13.21219 0,19.812472 -0.201114,5.867933 0.02899,11.832773 -1.205976,17.572802 -2.048545,9.521451 -6.74312,20.985118 -9.130966,24.636378 -1.184018,1.81049 -15.029674,4.68044 -16.194543,-0.34456 -1.311136,-5.65597 0,-22.568994 0,-22.568994 0,0 -11.719986,6.228599 -12.576613,2.067389 -3.466686,-16.840018 -2.5913083,-55.623654 0.344564,-66.673279 1.129259,-4.250145 5.839099,-7.168701 9.992378,-8.614118 2.605626,-0.906806 5.524187,0.07154 8.269554,0.344564 3.297651,0.327945 6.540835,2.028564 9.820095,1.550542 1.448807,-0.211194 3.962495,-1.895106 3.962495,-1.895106 L 44.27657,5.428411 c 0,0 4.136228,-3.0674931 4.996189,-1.5505414 z"
       id="path1470"
       inkscape:connector-curvature="0"
       sodipodi:nodetypes="ssssssscsssssccs" />
    <path
       style="fill:#333333;fill-opacity:1;stroke:#000000;stroke-width:2.5;stroke-linecap:butt;stroke-linejoin:miter;stroke-miterlimit:4;stroke-dasharray:none;stroke-opacity:1"
       d="m 64.60589,3.0164578 c 0,0 1.904385,28.4684072 2.239671,42.7260282 0.504947,21.472239 -4.195334,52.337177 -0.344565,64.433604 1.544108,4.85051 11.009589,-2.05041 13.954872,-6.20216 3.267134,-4.605438 1.378259,-16.883674 1.378259,-16.883674 L 80.62815,33.165873 c 0,0 -3.441056,-8.167319 -6.029883,-11.715201 -2.010604,-2.755451 -5.560635,-4.264554 -7.235859,-7.23586 C 65.474434,10.866155 64.60589,3.0164578 64.60589,3.0164578 Z"
       id="path1472"
       inkscape:connector-curvature="0"
       sodipodi:nodetypes="csssccssc" />
    <path
       style="fill:none;stroke:#000000;stroke-width:2.5;stroke-linecap:butt;stroke-linejoin:miter;stroke-miterlimit:4;stroke-dasharray:none;stroke-opacity:1"
       d="m 23.085838,86.401126 c 0,0 -1.47813,-26.442444 -0.344565,-35.145604 1.133565,-8.70316 4.651624,-16.883672 4.651624,-16.883672"
       id="path1476"
       inkscape:connector-curvature="0"
       sodipodi:nodetypes="czc" />
    <path
       style="fill:none;stroke:#000000;stroke-width:2.5;stroke-linecap:butt;stroke-linejoin:miter;stroke-miterlimit:4;stroke-dasharray:none;stroke-opacity:1"
       d="m 82.523257,93.464704 c 0,0 -9.070578,-22.894678 -10.509225,-31.355392 -1.438647,-8.460714 0.172282,-20.501603 0.172282,-20.501603"
       id="path1478"
       inkscape:connector-curvature="0"
       sodipodi:nodetypes="czc" />
    <path
       style="fill:none;stroke:#6b6b6b;stroke-width:1px;stroke-linecap:butt;stroke-linejoin:miter;stroke-opacity:1"
       d="m 33.767345,35.405544 11.887484,-0.68913"
       id="path1480"
       inkscape:connector-curvature="0" />
    <ellipse
       style="opacity:1;fill:#6b6b6b;fill-opacity:1;stroke:none;stroke-width:2.5;stroke-miterlimit:4;stroke-dasharray:none;stroke-opacity:1"
       id="path1482"
       cx="46.602383"
       cy="19.211"
       rx="2.1535296"
       ry="2.5842357" />
    <ellipse
       style="opacity:1;fill:#6b6b6b;fill-opacity:1;stroke:none;stroke-width:2.5;stroke-miterlimit:4;stroke-dasharray:none;stroke-opacity:1"
       id="path1482-2"
       cx="46.34396"
       cy="26.446859"
       rx="2.1535296"
       ry="2.5842357" />
    <ellipse
       style="opacity:1;fill:#a3a3a3;fill-opacity:1;stroke:none;stroke-width:1.70983768;stroke-miterlimit:4;stroke-dasharray:none;stroke-opacity:1"
       id="path1482-6"
       cx="70.979523"
       cy="96.845749"
       rx="1.4221421"
       ry="1.8305" />
    <ellipse
       style="opacity:1;fill:#a3a3a3;fill-opacity:1;stroke:none;stroke-width:1.70983768;stroke-miterlimit:4;stroke-dasharray:none;stroke-opacity:1"
       id="path1482-2-0"
       cx="70.808868"
       cy="101.97115"
       rx="1.4221421"
       ry="1.8305" />
    <path
       style="fill:none;stroke:#6b6b6b;stroke-width:1px;stroke-linecap:butt;stroke-linejoin:miter;stroke-opacity:1"
       d="m 70.162418,35.680779 c 7.580424,0.516847 7.063577,1.550541 7.063577,1.550541"
       id="path1517"
       inkscape:connector-curvature="0" />
  </g>
</svg>
