<?xml version="1.0" encoding="UTF-8" standalone="no"?>
<!-- Created with Inkscape (http://www.inkscape.org/) -->

<svg
   xmlns:dc="http://purl.org/dc/elements/1.1/"
   xmlns:cc="http://creativecommons.org/ns#"
   xmlns:rdf="http://www.w3.org/1999/02/22-rdf-syntax-ns#"
   xmlns:svg="http://www.w3.org/2000/svg"
   xmlns="http://www.w3.org/2000/svg"
   xmlns:sodipodi="http://sodipodi.sourceforge.net/DTD/sodipodi-0.dtd"
   xmlns:inkscape="http://www.inkscape.org/namespaces/inkscape"
   width="28.045834mm"
   height="29.633333mm"
   viewBox="0 0 28.045834 29.633333"
   version="1.1"
   id="svg2007"
   inkscape:version="0.92.4 (5da689c313, 2019-01-14)"
   sodipodi:docname="blue_skirt.svg">
  <defs
     id="defs2001" />
  <sodipodi:namedview
     id="base"
     pagecolor="#ffffff"
     bordercolor="#666666"
     borderopacity="1.0"
     inkscape:pageopacity="0.0"
     inkscape:pageshadow="2"
     inkscape:zoom="7.9195959"
     inkscape:cx="78.143852"
     inkscape:cy="76.635925"
     inkscape:document-units="mm"
     inkscape:current-layer="layer2"
     showgrid="false"
     inkscape:pagecheckerboard="true"
     fit-margin-top="0"
     fit-margin-left="0"
     fit-margin-right="0"
     fit-margin-bottom="0"
     showguides="false"
     inkscape:window-width="1920"
     inkscape:window-height="1001"
     inkscape:window-x="1911"
     inkscape:window-y="-9"
     inkscape:window-maximized="1" />
  <metadata
     id="metadata2004">
    <rdf:RDF>
      <cc:Work
         rdf:about="">
        <dc:format>image/svg+xml</dc:format>
        <dc:type
           rdf:resource="http://purl.org/dc/dcmitype/StillImage" />
        <dc:title />
      </cc:Work>
    </rdf:RDF>
  </metadata>
  <g
     inkscape:label="Layer 1"
     inkscape:groupmode="layer"
     id="layer1"
     transform="translate(-78.959229,-134.01666)" />
  <g
     inkscape:groupmode="layer"
     id="layer2"
     inkscape:label="Re-ink">
    <path
       style="fill:#4791ff;fill-opacity:1;stroke:#000000;stroke-width:0.99800003;stroke-linecap:butt;stroke-linejoin:miter;stroke-miterlimit:4;stroke-dasharray:none;stroke-opacity:1"
       d="M 10.089425,2.5388847 26.192414,0.50095454 c 0,0 1.102652,8.28470726 1.570209,16.00276246 0.0682,1.125724 -2.223008,0.683836 -3.34087,0.53454 -0.375462,-0.05015 -0.656939,-0.460713 -1.03567,-0.467722 -1.238515,-0.02292 -2.203485,1.455757 -3.441095,1.403165 -0.587163,-0.02495 -0.983564,-0.766695 -1.570208,-0.801809 -1.255555,-0.07515 -2.06806,1.45325 -3.541321,1.302939 -0.411705,-0.042 -0.722174,-0.491133 -1.135896,-0.50113 -1.240516,-0.02998 -2.234561,1.288171 -3.474503,1.336348 C 9.131624,19.352455 8.1694591,18.48351 7.0826425,18.374604 5.9700902,18.263119 3.2661714,19.687213 3.7417734,18.675282 8.4283356,8.7037569 10.089425,2.5388847 10.089425,2.5388847 Z"
       id="path824"
       inkscape:connector-curvature="0"
       sodipodi:nodetypes="ccssssssssssc" />
    <path
       style="fill:none;stroke:#000000;stroke-width:0.26458332px;stroke-linecap:butt;stroke-linejoin:miter;stroke-opacity:1"
       d="M 8.3187639,16.904622 C 13.931424,5.2783972 12.795528,5.6458929 12.795528,5.6458929"
       id="path826"
       inkscape:connector-curvature="0" />
    <path
       style="fill:none;stroke:#000000;stroke-width:0.26458332px;stroke-linecap:butt;stroke-linejoin:miter;stroke-opacity:1"
       d="m 12.828937,9.3542576 c -0.7684,4.2763124 -0.233861,7.3165034 -0.233861,7.3165034"
       id="path828"
       inkscape:connector-curvature="0" />
    <path
       style="fill:none;stroke:#000000;stroke-width:0.26458332px;stroke-linecap:butt;stroke-linejoin:miter;stroke-opacity:1"
       d="M 15.935946,16.069405 C 17.907058,9.187214 17.071841,5.6124842 17.071841,5.6124842"
       id="path830"
       inkscape:connector-curvature="0" />
    <path
       style="fill:none;stroke:#000000;stroke-width:0.26458332px;stroke-linecap:butt;stroke-linejoin:miter;stroke-opacity:1"
       d="m 17.895223,8.575149 c 0.360691,4.329803 1.661365,7.129221 1.661365,7.129221"
       id="path828-1"
       inkscape:connector-curvature="0" />
    <path
       style="fill:none;stroke:#000000;stroke-width:0.26458332px;stroke-linecap:butt;stroke-linejoin:miter;stroke-opacity:1"
       d="M 23.175166,15.213039 C 22.814475,10.883236 21.513801,8.0838183 21.513801,8.0838183"
       id="path828-1-6"
       inkscape:connector-curvature="0" />
    <path
       style="fill:none;stroke:#000000;stroke-width:0.26458332px;stroke-linecap:butt;stroke-linejoin:miter;stroke-opacity:1"
       d="M 24.578978,15.782268 C 22.607866,8.9000772 23.443083,5.3253473 23.443083,5.3253473"
       id="path830-6"
       inkscape:connector-curvature="0" />
  </g>
</svg>
