<?xml version="1.0" encoding="UTF-8" standalone="no"?>
<!-- Created with Inkscape (http://www.inkscape.org/) -->

<svg
   xmlns:dc="http://purl.org/dc/elements/1.1/"
   xmlns:cc="http://creativecommons.org/ns#"
   xmlns:rdf="http://www.w3.org/1999/02/22-rdf-syntax-ns#"
   xmlns:svg="http://www.w3.org/2000/svg"
   xmlns="http://www.w3.org/2000/svg"
   xmlns:sodipodi="http://sodipodi.sourceforge.net/DTD/sodipodi-0.dtd"
   xmlns:inkscape="http://www.inkscape.org/namespaces/inkscape"
   width="28.045834mm"
   height="29.633333mm"
   viewBox="0 0 28.045834 29.633333"
   version="1.1"
   id="svg2007"
   inkscape:version="0.92.3 (2405546, 2018-03-11)"
   sodipodi:docname="blue_camo_jeans.svg">
  <defs
     id="defs2001" />
  <sodipodi:namedview
     id="base"
     pagecolor="#ffffff"
     bordercolor="#666666"
     borderopacity="1.0"
     inkscape:pageopacity="0.0"
     inkscape:pageshadow="2"
     inkscape:zoom="5.6"
     inkscape:cx="67.738265"
     inkscape:cy="72.758833"
     inkscape:document-units="mm"
     inkscape:current-layer="layer2"
     showgrid="false"
     inkscape:pagecheckerboard="true"
     fit-margin-top="0"
     fit-margin-left="0"
     fit-margin-right="0"
     fit-margin-bottom="0"
     showguides="false"
     inkscape:window-width="1920"
     inkscape:window-height="1001"
     inkscape:window-x="-9"
     inkscape:window-y="-9"
     inkscape:window-maximized="1"
     inkscape:lockguides="true" />
  <metadata
     id="metadata2004">
    <rdf:RDF>
      <cc:Work
         rdf:about="">
        <dc:format>image/svg+xml</dc:format>
        <dc:type
           rdf:resource="http://purl.org/dc/dcmitype/StillImage" />
        <dc:title></dc:title>
      </cc:Work>
    </rdf:RDF>
  </metadata>
  <g
     inkscape:groupmode="layer"
     id="layer2"
     inkscape:label="Re-ink"
     style="display:inline"
     sodipodi:insensitive="true">
    <path
       style="fill:#003366;fill-opacity:1;stroke:#000000;stroke-width:0.9976235;stroke-linecap:butt;stroke-linejoin:miter;stroke-miterlimit:4;stroke-dasharray:none;stroke-opacity:1"
       d="M 0.7201694,27.454536 C 6.1772493,19.62999 9.4499316,2.5232009 10.205357,2.4050384 13.339093,1.9148645 21.153632,2.0908693 25.796875,0.66519761 27.627272,0.10318858 27.411054,16.471927 27.59226,25.164037 c 0.06654,3.191629 -10.098839,4.366766 -9.543897,1.22259 0.698309,-3.956459 0.377976,-12.413999 0.377976,-12.413999 0,0 -5.938677,7.551179 -7.228794,13.589569 -0.328044,1.535408 -12.5071103,2.802641 -10.4773756,-0.107661 z"
       id="path2567"
       inkscape:connector-curvature="0"
       sodipodi:nodetypes="ssssscss" />
    <path
       style="fill:#cccccc;fill-opacity:1;stroke:none;stroke-width:0.16287224px;stroke-linecap:butt;stroke-linejoin:miter;stroke-opacity:1"
       d="m 16.470484,16.035996 c -1.222803,0.75645 -2.464166,-0.108141 -3.689404,0.146852 -1.003152,0.208774 0.117583,3.77469 1.874943,2.51747"
       id="path2614"
       inkscape:connector-curvature="0" />
    <path
       style="fill:none;stroke:#000000;stroke-width:0.80000001;stroke-linecap:butt;stroke-linejoin:miter;stroke-miterlimit:4;stroke-dasharray:none;stroke-opacity:1"
       d="m 18.427399,13.900863 c 0,0 1.115929,-2.081231 1.202639,-3.9103052 0.08671,-1.8290746 -0.589529,-6.9226402 -0.589529,-6.9226402"
       id="path2571"
       inkscape:connector-curvature="0"
       sodipodi:nodetypes="czc" />
    <path
       style="fill:none;stroke:#000000;stroke-width:0.80000001;stroke-linecap:butt;stroke-linejoin:miter;stroke-miterlimit:4;stroke-dasharray:none;stroke-opacity:1"
       d="M 19.627919,9.5159193 20.501823,2.9925194"
       id="path2573"
       inkscape:connector-curvature="0"
       sodipodi:nodetypes="cc" />
    <path
       style="fill:#cccccc;fill-opacity:1;stroke:none;stroke-width:0.26458332px;stroke-linecap:butt;stroke-linejoin:miter;stroke-opacity:1"
       d="M 9.5548856,8.7194926 C 8.7305392,14.948757 19.548317,14.654826 15.334589,9.3876666 14.556928,8.4155909 13.98844,7.6940682 12.828937,7.4499625"
       id="path2612"
       inkscape:connector-curvature="0" />
    <path
       style="fill:#333333;fill-opacity:1;stroke:#000000;stroke-width:0.5;stroke-linecap:butt;stroke-linejoin:miter;stroke-miterlimit:4;stroke-dasharray:none;stroke-opacity:1"
       d="m 8.2727251,8.6461754 c 0,0 3.4286959,-0.075289 4.2758559,-1.1339288 0.84716,-1.0586401 0.241967,-3.842526 0.241967,-3.842526 l -3.1712826,0.086388 z"
       id="path2569"
       inkscape:connector-curvature="0"
       sodipodi:nodetypes="czccc" />
    <path
       style="fill:none;stroke:#000000;stroke-width:0.5;stroke-linecap:butt;stroke-linejoin:miter;stroke-miterlimit:4;stroke-dasharray:none;stroke-opacity:1"
       d="M 9.6192654,3.7561084 18.999166,3.2834424 26.326292,2.1234846"
       id="path2579"
       inkscape:connector-curvature="0" />
    <path
       style="fill:none;stroke:#000000;stroke-width:0.30000001;stroke-linecap:butt;stroke-linejoin:miter;stroke-miterlimit:4;stroke-dasharray:none;stroke-opacity:1"
       d="M 17.378461,10.423336 C 18.358853,9.5255596 20.263676,8.8393651 21.548606,9.4878927"
       id="path2598"
       inkscape:connector-curvature="0" />
    <path
       style="fill:none;stroke:#000000;stroke-width:0.30000001;stroke-linecap:butt;stroke-linejoin:miter;stroke-miterlimit:4;stroke-dasharray:none;stroke-opacity:1"
       d="m 18.37478,11.191736 c -1.268353,0.549435 -2.308696,1.415572 -3.474504,2.071338"
       id="path2600"
       inkscape:connector-curvature="0" />
    <path
       style="fill:none;stroke:#000000;stroke-width:0.30000001;stroke-linecap:butt;stroke-linejoin:miter;stroke-miterlimit:4;stroke-dasharray:none;stroke-opacity:1"
       d="m 20.713388,10.256292 c 0.114075,1.271813 0.770932,2.519239 1.135896,3.674956"
       id="path2602"
       inkscape:connector-curvature="0" />
    <path
       style="fill:none;stroke:#000000;stroke-width:0.30000001;stroke-linecap:butt;stroke-linejoin:miter;stroke-miterlimit:4;stroke-dasharray:none;stroke-opacity:1"
       d="m 20.112032,12.661718 c 0.198181,0.379098 0.133634,0.857634 0.133634,1.302939"
       id="path2610"
       inkscape:connector-curvature="0" />
    <path
       style="fill:#cccccc;fill-opacity:1;stroke:none;stroke-width:0.26458332px;stroke-linecap:butt;stroke-linejoin:miter;stroke-opacity:1"
       d="m 7.9178596,11.626049 c 0.5494409,0.355012 -0.068162,1.434333 0.233861,1.937704 0.3749281,0.62488 2.1547794,0.04998 2.5056514,0.634765 1.766519,2.944198 -2.8505017,2.980279 -4.3097208,2.104747"
       id="path2616"
       inkscape:connector-curvature="0" />
    <path
       style="fill:#cccccc;fill-opacity:1;stroke:none;stroke-width:0.26458332px;stroke-linecap:butt;stroke-linejoin:miter;stroke-opacity:1"
       d="m 26.593318,5.6458931 c -0.60844,-0.024347 -1.962783,0.1128086 -2.238383,0.8018087 -0.470092,1.1752313 0.412183,1.8266262 0.835218,2.6726951 0.997922,1.9958451 -2.894534,5.5730161 1.804068,5.3119821"
       id="path2618"
       inkscape:connector-curvature="0"
       sodipodi:nodetypes="cssc" />
    <path
       style="fill:#cccccc;fill-opacity:1;stroke:none;stroke-width:0.26458332px;stroke-linecap:butt;stroke-linejoin:miter;stroke-opacity:1"
       d="m 18.976136,17.171891 c 1.274456,-0.196445 2.381553,-0.316593 3.407687,0.367496 0.537516,0.358344 2.923452,1.185894 3.507912,0.835217 0.360982,-0.216589 0.991069,-1.189224 1.002261,-0.7684 0.120692,4.538158 0.820713,2.816793 -4.810852,1.971113 -1.100592,-0.165274 -2.590903,1.43981 -3.006782,0.534539 0,0 -0.270632,-1.974328 -0.100226,-2.939965 z"
       id="path2620"
       inkscape:connector-curvature="0"
       sodipodi:nodetypes="cscsssc" />
    <path
       style="fill:#cccccc;fill-opacity:1;stroke:none;stroke-width:0.26458332px;stroke-linecap:butt;stroke-linejoin:miter;stroke-opacity:1"
       d="m 5.6794774,18.274379 c 1.9041041,-0.300696 1.5167695,1.017868 2.5056519,2.171564 0.4997965,0.583096 1.6614499,0.325103 2.0713387,0.734991 0.119753,0.119753 0.07008,1.005778 0,1.169304 -1.1679449,2.725205 -4.2555834,0.764116 -5.9801555,-0.467721"
       id="path2622"
       inkscape:connector-curvature="0"
       sodipodi:nodetypes="csscc" />
    <path
       style="fill:#cccccc;fill-opacity:1;stroke:none;stroke-width:0.26458332px;stroke-linecap:butt;stroke-linejoin:miter;stroke-opacity:1"
       d="m 3.0067821,24.555212 c 5.2682351,2.02902 0.5412926,5.21361 -1.6184389,2.932734"
       id="path2630"
       inkscape:connector-curvature="0"
       sodipodi:nodetypes="cc" />
    <path
       style="fill:none;stroke:#000000;stroke-width:0.30000001;stroke-linecap:butt;stroke-linejoin:miter;stroke-miterlimit:4;stroke-dasharray:none;stroke-opacity:1"
       d="m 2.4722431,27.261317 c 2.4690673,0.273878 4.4470478,-0.03985 6.6483295,-0.734991"
       id="path2624"
       inkscape:connector-curvature="0" />
    <path
       style="fill:#cccccc;fill-opacity:1;stroke:none;stroke-width:0.26458332px;stroke-linecap:butt;stroke-linejoin:miter;stroke-opacity:1"
       d="m 27.061041,25.022933 c -5.126407,-2.816767 -5.239849,-1.161859 -5.879931,2.672695 2.302396,0.345091 5.634272,-0.584621 5.879931,-2.672695 z"
       id="path2632"
       inkscape:connector-curvature="0"
       sodipodi:nodetypes="ccc" />
    <path
       style="fill:none;stroke:#000000;stroke-width:0.30000001;stroke-linecap:butt;stroke-linejoin:miter;stroke-miterlimit:4;stroke-dasharray:none;stroke-opacity:1"
       d="m 19.510675,26.259055 c 2.42248,0.323735 4.741824,0.77491 6.748556,-0.801809"
       id="path2626"
       inkscape:connector-curvature="0" />
    <g
       id="g2657">
      <path
         inkscape:connector-curvature="0"
         id="path2604"
         d="m 18.999166,3.2834423 c -0.04805,1.5545165 -0.562287,2.9032809 -1.459603,4.0997026"
         style="fill:none;stroke:#000000;stroke-width:0.26458332px;stroke-linecap:butt;stroke-linejoin:miter;stroke-opacity:1" />
      <ellipse
         ry="0.28397387"
         rx="0.25056517"
         cy="7.3664403"
         cx="17.472746"
         id="path2634"
         style="opacity:1;fill:#000000;fill-opacity:1;stroke:none;stroke-width:0.31317234;stroke-miterlimit:4;stroke-dasharray:none;stroke-opacity:1" />
    </g>
    <g
       id="g2653">
      <path
         inkscape:connector-curvature="0"
         id="path2606"
         d="m 20.501823,2.9925195 c 0.561916,1.1250721 1.083725,2.4049651 1.848591,3.3883647"
         style="fill:none;stroke:#000000;stroke-width:0.26458332px;stroke-linecap:butt;stroke-linejoin:miter;stroke-opacity:1" />
      <ellipse
         ry="0.28397387"
         rx="0.25056517"
         cy="6.3808842"
         cx="22.367119"
         id="path2634-8"
         style="opacity:1;fill:#000000;fill-opacity:1;stroke:none;stroke-width:0.31317234;stroke-miterlimit:4;stroke-dasharray:none;stroke-opacity:1" />
    </g>
  </g>
</svg>
