<?xml version="1.0" encoding="UTF-8" standalone="no"?>
<svg
   xmlns:dc="http://purl.org/dc/elements/1.1/"
   xmlns:cc="http://creativecommons.org/ns#"
   xmlns:rdf="http://www.w3.org/1999/02/22-rdf-syntax-ns#"
   xmlns:svg="http://www.w3.org/2000/svg"
   xmlns="http://www.w3.org/2000/svg"
   xmlns:sodipodi="http://sodipodi.sourceforge.net/DTD/sodipodi-0.dtd"
   xmlns:inkscape="http://www.inkscape.org/namespaces/inkscape"
   version="1.0"
   width="40pt"
   height="40pt"
   viewBox="0 0 40 39.999999"
   preserveAspectRatio="xMidYMid meet"
   id="svg8"
   sodipodi:docname="exit_symbol.svg"
   inkscape:version="0.92.3 (2405546, 2018-03-11)">
  <metadata
     id="metadata14">
    <rdf:RDF>
      <cc:Work
         rdf:about="">
        <dc:format>image/svg+xml</dc:format>
        <dc:type
           rdf:resource="http://purl.org/dc/dcmitype/StillImage" />
        <dc:title></dc:title>
      </cc:Work>
    </rdf:RDF>
  </metadata>
  <defs
     id="defs12" />
  <sodipodi:namedview
     pagecolor="#ffffff"
     bordercolor="#666666"
     borderopacity="1"
     objecttolerance="10"
     gridtolerance="10"
     guidetolerance="10"
     inkscape:pageopacity="0"
     inkscape:pageshadow="2"
     inkscape:window-width="1920"
     inkscape:window-height="1001"
     id="namedview10"
     showgrid="false"
     inkscape:pagecheckerboard="true"
     inkscape:zoom="5.6568543"
     inkscape:cx="19.438064"
     inkscape:cy="24.135632"
     inkscape:window-x="-9"
     inkscape:window-y="-9"
     inkscape:window-maximized="1"
     inkscape:current-layer="svg8"
     fit-margin-top="0"
     fit-margin-left="0"
     fit-margin-right="0"
     fit-margin-bottom="0" />
  <path
     inkscape:connector-curvature="0"
     style="fill:#ffffff;stroke:none;stroke-width:0.0037296"
     id="path2"
     d="M 17.591034,1.0597325 C 16.973197,1.1944783 16.485432,1.4793694 16.019344,1.9798538 15.658036,2.3686917 15.448478,2.7228807 15.300341,3.1964159 15.17027,3.6122029 15.13414,3.9124936 15.13414,4.5708231 v 0.5890316 h 8.508803 c 6.120558,0 8.559387,0.01155 8.696684,0.042349 0.603384,0.1347458 1.087537,0.6544796 1.217608,1.2974095 0.05781,0.2925909 0.05781,26.2099828 0,26.5025738 -0.130071,0.64293 -0.617837,1.162664 -1.217608,1.29741 -0.137297,0.0308 -2.576126,0.04235 -8.696684,0.04235 H 15.13414 v 0.585182 c 0,0.662179 0.03613,0.96247 0.166201,1.378257 0.148137,0.469685 0.357695,0.823874 0.719003,1.216562 0.48054,0.515884 1.004436,0.812325 1.658404,0.935521 0.148136,0.0308 2.915755,0.04235 8.6461,0.04235 9.282003,0 8.653327,0.0154 9.260324,-0.234843 0.3866,-0.157845 0.693712,-0.384988 1.047794,-0.766126 0.455248,-0.488935 0.726229,-1.058717 0.827395,-1.732446 0.0542,-0.350339 0.0542,-31.6806625 0,-32.0310016 C 37.260642,2.3956409 36.270658,1.3138246 35.013306,1.0558826 34.630319,0.97888498 17.955955,0.98273488 17.591034,1.0597325 Z" />
  <path
     inkscape:connector-curvature="0"
     style="fill:#ffffff;stroke:none;stroke-width:0.0037296"
     id="path4"
     d="m 18.169699,9.918306 c -0.158976,0.0539 -0.281821,0.165545 -1.044181,0.97017 -0.961079,1.020218 -1.03334,1.124165 -1.03334,1.528403 0,0.142445 0.0289,0.29259 0.06865,0.388837 0.04697,0.107797 0.737068,0.873923 2.33405,2.57942 l 2.269014,2.421575 -9.300068,0.01925 -9.3000678,0.01925 -0.1481363,0.0847 c -0.2023325,0.115496 -0.4299565,0.396537 -0.4805397,0.596731 -0.032518,0.119346 -0.039744,0.550533 -0.032518,1.474504 0.010839,1.262761 0.014452,1.312809 0.090327,1.466804 0.090327,0.184795 0.2998857,0.388838 0.4660873,0.461986 0.1011663,0.0462 1.6114338,0.0539 9.4084605,0.0539 5.105282,0 9.285616,0.01155 9.285616,0.02695 0,0.0154 -1.015276,1.112615 -2.258175,2.436974 -1.727052,1.844092 -2.272628,2.448523 -2.326824,2.579419 -0.09755,0.230993 -0.09755,0.577482 0,0.808475 0.10478,0.246392 1.640339,1.890291 1.889641,2.021187 0.231237,0.123196 0.567254,0.130896 0.791265,0.01925 0.112005,-0.05775 1.311548,-1.312809 4.400731,-4.608306 4.191173,-4.473561 4.248982,-4.539008 4.364601,-4.8162 0.108392,-0.254092 0.119231,-0.30799 0.108392,-0.577482 -0.01807,-0.373438 -0.126458,-0.619831 -0.444409,-1.012518 -0.12646,-0.157852 -2.034166,-2.202139 -4.234531,-4.546716 C 20.214702,11.308113 18.989868,10.033803 18.877862,9.972205 18.671917,9.860558 18.397323,9.841309 18.169699,9.918306 Z" />
</svg>
