<?xml version="1.0" encoding="UTF-8" standalone="no"?>
<!-- Created with Inkscape (http://www.inkscape.org/) -->

<svg
   xmlns:dc="http://purl.org/dc/elements/1.1/"
   xmlns:cc="http://creativecommons.org/ns#"
   xmlns:rdf="http://www.w3.org/1999/02/22-rdf-syntax-ns#"
   xmlns:svg="http://www.w3.org/2000/svg"
   xmlns="http://www.w3.org/2000/svg"
   xmlns:sodipodi="http://sodipodi.sourceforge.net/DTD/sodipodi-0.dtd"
   xmlns:inkscape="http://www.inkscape.org/namespaces/inkscape"
   version="1.1"
   id="svg5861"
   width="106"
   height="112"
   viewBox="0 0 106 112"
   sodipodi:docname="owo_censor.svg"
   inkscape:version="0.92.3 (2405546, 2018-03-11)">
  <metadata
     id="metadata5867">
    <rdf:RDF>
      <cc:Work
         rdf:about="">
        <dc:format>image/svg+xml</dc:format>
        <dc:type
           rdf:resource="http://purl.org/dc/dcmitype/StillImage" />
        <dc:title></dc:title>
      </cc:Work>
    </rdf:RDF>
  </metadata>
  <defs
     id="defs5865" />
  <sodipodi:namedview
     pagecolor="#ffffff"
     bordercolor="#666666"
     borderopacity="1"
     objecttolerance="10"
     gridtolerance="10"
     guidetolerance="10"
     inkscape:pageopacity="0"
     inkscape:pageshadow="2"
     inkscape:window-width="1920"
     inkscape:window-height="1001"
     id="namedview5863"
     showgrid="false"
     fit-margin-top="0"
     fit-margin-left="0"
     fit-margin-right="0"
     fit-margin-bottom="0"
     inkscape:pagecheckerboard="true"
     inkscape:zoom="11.9198"
     inkscape:cx="59.544802"
     inkscape:cy="77.188526"
     inkscape:window-x="-9"
     inkscape:window-y="-9"
     inkscape:window-maximized="1"
     inkscape:current-layer="layer5" />
  <g
     inkscape:groupmode="layer"
     id="layer5"
     inkscape:label="Re-ink"
     transform="translate(-32.423729,-45.084747)">
    <path
       style="fill:#000000;stroke:none;stroke-width:1px;stroke-linecap:butt;stroke-linejoin:miter;stroke-opacity:1"
       d="m 59.437605,65.304684 c -0.678597,3.381977 -5.604293,23.15058 -4.278595,27.09777 1.325698,3.94719 30.286204,2.637458 45.47056,2.768503 12.20372,0.105321 36.37387,3.074763 36.5778,-1.593987 0.28901,-6.616554 -1.90632,-19.361934 0.83894,-28.440074 1.29465,-4.281223 -23.6464,1.523975 -35.48718,1.593986 -14.38145,0.08503 -42.442928,-4.808175 -43.121525,-1.426198 z"
       id="path6430"
       inkscape:connector-curvature="0"
       sodipodi:nodetypes="zzssssz" />
    <g
       aria-label="OwO"
       style="font-style:normal;font-weight:normal;font-size:40px;line-height:1.25;font-family:sans-serif;letter-spacing:0px;word-spacing:0px;fill:#000000;fill-opacity:1;stroke:none"
       id="text6445"
       transform="matrix(0.38088161,0,0,0.39176487,47.846968,54.981177)">
      <path
         d="m 96.914116,83.107109 q -5.507813,0 -9.335938,-3.300781 -4.0625,-3.515625 -4.0625,-9.0625 0,-6.757813 4.003907,-12.285156 4.472656,-6.132813 11.152343,-6.132813 6.425782,0 9.550782,2.890625 3.26172,3.007813 3.26172,9.492188 0,6.757812 -3.67188,12.1875 -4.21875,6.210937 -10.898434,6.210937 z m 1.757812,-26.777344 q -4.785156,0 -8.105468,4.765625 -3.066407,4.375 -3.066407,9.648438 0,3.769531 2.792969,6.132812 2.675781,2.226563 6.621094,2.226563 4.746094,0 7.832034,-4.785156 2.7539,-4.277344 2.7539,-9.609375 0,-4.667969 -2.08984,-6.5625 -1.99219,-1.816407 -6.738282,-1.816407 z"
         style="font-style:normal;font-variant:normal;font-weight:normal;font-stretch:normal;font-family:'Comic Sans MS';-inkscape-font-specification:'Comic Sans MS';fill:#ffffff"
         id="path6447"
         inkscape:connector-curvature="0" />
      <path
         d="m 139.29693,64.435234 q -1.52344,6.367188 -3.98438,14.394531 -0.54687,1.777344 -1.8164,3.652344 -0.6836,1.035156 -1.85547,1.015625 -2.12891,-0.03906 -3.32031,-5.292969 -0.39063,-1.679687 -0.80079,-4.570312 l -0.64453,-4.355469 -1.60156,3.730469 -2.96875,8.066406 q -0.25391,0.742188 -0.74219,1.132813 -0.58593,1.132812 -1.875,1.171875 -1.48437,0.05859 -2.87109,-5.820313 -0.70313,-3.027344 -1.40625,-8.203125 l -0.46875,-2.929687 q -0.25391,-1.757813 -0.25391,-2.949219 0,-0.820313 0.56641,-1.347656 0.58594,-0.546875 1.40625,-0.546875 1.48437,0 1.83594,1.621093 0.2539,1.152344 0.41015,2.851563 l 0.29297,2.871094 1.15235,8.769531 q 2.16796,-6.015625 4.49218,-13.867188 0.64453,-2.167968 2.2461,-2.167968 1.54297,0 2.08984,2.421875 0.50781,2.285156 1.26953,7.03125 0.78125,4.921875 1.38672,7.675781 l 1.42578,-5.3125 2.51953,-10.644531 q 0.29297,-1.191407 1.67969,-1.191407 0.82031,0 1.42578,0.566407 0.60547,0.546875 0.60547,1.328125 0,0.09766 -0.19531,0.898437 z"
         style="font-style:normal;font-variant:normal;font-weight:normal;font-stretch:normal;font-family:'Comic Sans MS';-inkscape-font-specification:'Comic Sans MS';fill:#ffffff"
         id="path6449"
         inkscape:connector-curvature="0" />
      <path
         d="m 156.21099,83.107109 q -5.50781,0 -9.33594,-3.300781 -4.0625,-3.515625 -4.0625,-9.0625 0,-6.757813 4.00391,-12.285156 4.47266,-6.132813 11.15234,-6.132813 6.42578,0 9.55078,2.890625 3.26172,3.007813 3.26172,9.492188 0,6.757812 -3.67187,12.1875 -4.21875,6.210937 -10.89844,6.210937 z m 1.75781,-26.777344 q -4.78515,0 -8.10547,4.765625 -3.0664,4.375 -3.0664,9.648438 0,3.769531 2.79297,6.132812 2.67578,2.226563 6.62109,2.226563 4.74609,0 7.83203,-4.785156 2.75391,-4.277344 2.75391,-9.609375 0,-4.667969 -2.08985,-6.5625 -1.99218,-1.816407 -6.73828,-1.816407 z"
         style="font-style:normal;font-variant:normal;font-weight:normal;font-stretch:normal;font-family:'Comic Sans MS';-inkscape-font-specification:'Comic Sans MS';fill:#ffffff"
         id="path6451"
         inkscape:connector-curvature="0" />
    </g>
  </g>
</svg>
