<?xml version="1.0" encoding="UTF-8" standalone="no"?>
<!-- Created with Inkscape (http://www.inkscape.org/) -->

<svg
   xmlns:dc="http://purl.org/dc/elements/1.1/"
   xmlns:cc="http://creativecommons.org/ns#"
   xmlns:rdf="http://www.w3.org/1999/02/22-rdf-syntax-ns#"
   xmlns:svg="http://www.w3.org/2000/svg"
   xmlns="http://www.w3.org/2000/svg"
   xmlns:sodipodi="http://sodipodi.sourceforge.net/DTD/sodipodi-0.dtd"
   xmlns:inkscape="http://www.inkscape.org/namespaces/inkscape"
   width="22.489584mm"
   height="30.427084mm"
   viewBox="0 0 22.489584 30.427084"
   version="1.1"
   id="svg8"
   inkscape:version="0.92.3 (2405546, 2018-03-11)"
   sodipodi:docname="raw_shirt.svg">
  <defs
     id="defs2" />
  <sodipodi:namedview
     id="base"
     pagecolor="#ffffff"
     bordercolor="#666666"
     borderopacity="1.0"
     inkscape:pageopacity="0.0"
     inkscape:pageshadow="2"
     inkscape:zoom="7.9195959"
     inkscape:cx="64.594173"
     inkscape:cy="60.44025"
     inkscape:document-units="mm"
     inkscape:current-layer="layer2"
     showgrid="false"
     inkscape:pagecheckerboard="true"
     fit-margin-top="0"
     fit-margin-left="0"
     fit-margin-right="0"
     fit-margin-bottom="0"
     inkscape:window-width="1920"
     inkscape:window-height="1001"
     inkscape:window-x="-9"
     inkscape:window-y="-9"
     inkscape:window-maximized="1" />
  <metadata
     id="metadata5">
    <rdf:RDF>
      <cc:Work
         rdf:about="">
        <dc:format>image/svg+xml</dc:format>
        <dc:type
           rdf:resource="http://purl.org/dc/dcmitype/StillImage" />
        <dc:title></dc:title>
      </cc:Work>
    </rdf:RDF>
  </metadata>
  <g
     inkscape:label="Layer 1"
     inkscape:groupmode="layer"
     id="layer1"
     transform="translate(-332.89496,-265.48813)"
     style="display:inline"
     sodipodi:insensitive="true" />
  <g
     inkscape:groupmode="layer"
     id="layer2"
     inkscape:label="Re-ink"
     transform="translate(-108.95163,-14.177885)"
     style="display:inline">
    <path
       style="opacity:1;fill:#333333;fill-opacity:1;stroke:#000000;stroke-width:0.84448189px;stroke-linecap:butt;stroke-linejoin:miter;stroke-opacity:1"
       d="m 111.2673,16.788005 c -0.92152,4.271598 -1.10981,11.545021 -0.89428,15.292256 0.0769,1.336512 3.11298,0.146572 3.68236,1.350904 1.01203,2.140575 -1.07895,6.609747 -0.15778,9.186161 0.93166,2.605817 14.62642,1.077743 16.78107,-1.314586 0.81011,-0.899459 -1.46175,-2.48188 -0.78906,-6.214168 0.67269,-3.732287 0.63838,-17.327085 -1.84118,-18.354603 -2.47958,-1.027521 -2.20097,1.046255 -6.20744,-0.05405 -1.05993,-1.401319 -10.12597,-1.967194 -10.57366,0.108076 z"
       id="path827"
       inkscape:connector-curvature="0"
       sodipodi:nodetypes="csssszzcsc" />
    <path
       style="fill:none;stroke:#000000;stroke-width:0.47876143;stroke-linecap:butt;stroke-linejoin:miter;stroke-miterlimit:4;stroke-dasharray:none;stroke-opacity:1"
       d="M 114.37102,34.484873 114.5288,21.056867"
       id="path829"
       inkscape:connector-curvature="0"
       sodipodi:nodetypes="cc" />
    <path
       style="fill:none;stroke:#000000;stroke-width:0.47876143;stroke-linecap:butt;stroke-linejoin:miter;stroke-miterlimit:4;stroke-dasharray:none;stroke-opacity:1"
       d="m 127.1015,24.947476 c 0,0 -0.25634,4.651306 0.1052,6.700494 0.36149,2.049185 2.55769,6.774269 2.55769,6.774269"
       id="path833"
       inkscape:connector-curvature="0"
       sodipodi:nodetypes="czc" />
    <g
       aria-label="PAW"
       transform="matrix(1.4855401,-0.0817837,0.06524991,1.3627427,-55.936131,-3.3636711)"
       style="font-style:normal;font-weight:normal;font-size:7.37017298px;line-height:1.25;font-family:sans-serif;letter-spacing:0px;word-spacing:0px;fill:#ff0000;fill-opacity:1;stroke:none;stroke-width:0.18425432;opacity:0.463"
       id="text831">
      <path
         d="m 115.10089,31.233654 q -0.0221,0.02211 -0.0354,0.02211 -0.0265,0 -0.0265,-0.01769 0,-0.0088 0.0265,-0.0088 0.0177,0 0.0354,0.0044 z m -0.84462,1.202813 q 0,0.02211 -0.0221,0.02211 -0.0133,0 -0.031,-0.0044 -0.0133,0 -0.0221,0 h -0.0133 q 0,-0.03538 0.0442,-0.03538 0.0265,0 0.0442,0.01769 z m 0.28744,-0.07075 q -0.009,-0.01769 -0.0265,-0.01327 -0.0177,0.0044 -0.0619,-0.0044 -0.0221,0.0088 -0.0221,0.01327 0,0.0088 0.0133,0.02653 0.0133,0.01327 0.0133,0.03096 0,0.02211 -0.0177,0.02211 -0.0177,-0.0044 -0.0309,-0.0044 -0.0221,0 -0.0442,-0.0044 -0.0177,-0.0088 -0.0221,-0.03095 -0.0177,0.01327 -0.0221,0.02653 -0.004,0.0088 -0.0309,0.0088 v -0.02211 q 0,-0.01769 -0.009,-0.02653 -0.004,-0.0088 -0.004,-0.01769 0,-0.0088 0.0133,-0.02211 -0.0486,0.02653 -0.084,0.02653 -0.031,-0.0044 -0.0752,0.0088 -0.004,-0.0088 -0.004,-0.01769 0,-0.02653 0.009,-0.03538 0.0133,-0.01327 0.0133,-0.03538 0,-0.05306 -0.0265,-0.05306 -0.009,0 -0.0221,0.0044 -0.009,0.0044 -0.0221,0.0044 -0.009,0 -0.0221,-0.01327 0.004,-0.03095 0.004,-0.06191 0,-0.03095 0,-0.05749 0,-0.06191 -0.004,-0.123819 0,-0.06633 0,-0.141507 v -0.06191 q 0.0221,0.01769 0.0309,0.04422 0.009,0.02653 0.0442,0.02653 -0.0177,-0.03095 -0.0133,-0.04422 0.004,-0.01327 -0.0442,-0.02653 v -0.02211 q 0,-0.03095 -0.0177,-0.03538 v -0.194573 q 0.0221,0.02653 0.0398,0.04422 0.0177,0.01327 0.0177,0.06191 0.0354,-0.0088 0.0354,-0.04422 0,-0.01769 -0.009,-0.02211 -0.009,-0.0044 -0.0221,-0.0088 -0.009,-0.0044 -0.0177,-0.0088 -0.009,-0.0088 -0.009,-0.03096 v -0.03095 q 0,-0.02211 -0.0133,-0.02211 -0.0133,0 -0.0221,0.0044 v -0.04864 q 0,-0.03538 -0.004,-0.06633 0,-0.03538 0,-0.07075 0,-0.101709 0.0442,-0.137085 -0.009,-0.02211 -0.0265,-0.03095 -0.0177,-0.0088 -0.0177,-0.03538 0,-0.01327 0.004,-0.02211 v -0.0088 q 0,-0.02653 0.0398,-0.02653 -0.009,-0.02211 -0.0221,-0.03538 -0.009,-0.01327 -0.0177,-0.03538 0.004,-0.03096 0.004,-0.06191 0,-0.03538 0,-0.07075 0,-0.07075 -0.004,-0.14593 0,-0.07518 0,-0.159195 v -0.06633 q 0.0177,0.01327 0.0265,0.01327 0.009,0 0.009,-0.01327 0,-0.01327 -0.009,-0.03538 -0.004,-0.02211 -0.009,-0.0398 0.0177,0.01769 0.031,0.01769 0.0221,0 0.0265,-0.02211 0.009,-0.02653 0.0177,-0.04864 0.0133,0.0088 0.0177,0.02653 0.009,0.01327 0.0177,0.02653 0.0442,-0.0398 0.0442,-0.114974 0,-0.02653 -0.004,-0.04864 0,-0.02653 -0.004,-0.04864 -0.0221,0.0088 -0.0177,0.04422 0.009,0.03095 -0.0221,0.03095 -0.0486,0 -0.0663,-0.02211 -0.0177,-0.02653 -0.0575,-0.03538 0,-0.0398 0,-0.0796 0.004,-0.0398 0.004,-0.0796 0,-0.101708 -0.004,-0.203417 -0.004,-0.101708 -0.004,-0.203417 0,-0.08844 0.004,-0.172462 0.004,-0.08402 0.0177,-0.163617 0.009,0 0.0221,0.0044 0.0133,0 0.0221,0 0.0309,0 0.0575,0 0.0265,-0.0044 0.0575,-0.0044 0.0442,0 0.0752,0.0088 0.0354,0.0044 0.0575,0.02653 0.0177,-0.0398 0.1194,-0.0398 0.031,0 0.0752,0.0044 0.0486,0 0.0929,0.0088 0.0442,0.0044 0.0752,0.01327 0.031,0.0044 0.031,0.01769 0,0.03538 0.0265,0.03538 0.0265,0 0.0265,-0.02211 0.004,-0.02211 0.0177,-0.03538 0.0177,0.01769 0.0398,0.01769 0.0221,0 0.0442,-0.0088 0.0221,-0.01327 0.0531,-0.01327 0.009,0 0.0133,0.0044 0.004,0 0.0133,0 -0.0177,0.02211 -0.0177,0.07518 0.0354,-0.02211 0.0708,-0.05307 0.0354,-0.03095 0.0707,-0.03095 0.0177,0 0.0265,0.01769 0.009,0.01327 0.009,0.03538 0.004,0.01769 0.009,0.0398 0.004,0.01769 0.0133,0.02653 0.009,-0.01327 0.0177,-0.02653 0.0133,-0.01327 0.0398,-0.01327 0.0486,0 0.0486,0.07518 v 0.01769 q 0.0486,-0.0044 0.0486,-0.0398 0,-0.0088 -0.004,-0.02211 0,-0.01769 0,-0.03095 0,-0.03095 0.0221,-0.03095 0.0265,0 0.031,0.01769 0.009,0.01769 0.009,0.0398 v 0.08402 q 0.0177,0 0.031,-0.01327 0.0177,-0.01327 0.0265,-0.03095 0.0133,-0.01769 0.0221,-0.04422 0.0221,0 0.0354,0.03538 0.0133,0.03095 0.0221,0.03095 0,0 0.009,-0.01327 0,0.02653 0.0177,0.05749 0.0221,0.03095 0.0221,0.06191 0,0.01327 -0.004,0.02211 0.0133,0.0044 0.0309,0.0044 0.0531,0 0.0531,-0.03538 0,-0.02211 -0.031,-0.0398 0.0177,-0.0088 0.0265,-0.0088 0.0221,0 0.031,0.03095 0.009,0.03095 0.0133,0.07075 0.004,0.03538 0.009,0.07518 0.009,0.03538 0.031,0.04864 0.009,-0.0044 0.009,-0.02653 0,-0.0088 -0.004,-0.01769 0,-0.0088 0,-0.01769 0,-0.02653 0.031,-0.04422 0.1194,0.114974 0.19015,0.291859 0.0708,0.172462 0.0708,0.371456 0,0.194573 -0.0752,0.362613 -0.0752,0.16804 -0.18573,0.283014 -0.031,-0.0044 -0.031,-0.02653 0,-0.01327 0.009,-0.03095 0.009,-0.01769 0.009,-0.0398 0,-0.02653 -0.0265,-0.02653 -0.0398,0 -0.0398,0.03538 0,0.0044 0,0.0088 0.004,0 0.004,0.0088 0.0133,0 0.0133,-0.01327 0.004,-0.01327 0.009,-0.02211 0.009,0.0088 0.009,0.03096 0,0.03538 -0.0398,0.06633 -0.0354,0.03096 -0.0796,0.03096 0,0.03095 0.004,0.04864 0.004,0.01769 0.004,0.03095 0,0.02211 -0.0265,0.06191 -0.0133,-0.01327 -0.0133,-0.03095 0,-0.01327 0.004,-0.02653 0.004,-0.01769 0.009,-0.03095 -0.009,0 -0.0133,0 -0.004,-0.0044 -0.009,-0.0044 -0.0221,0 -0.0309,0.01769 -0.009,0.01327 -0.0133,0.03538 -0.004,0.01769 -0.0133,0.03538 -0.009,0.01327 -0.031,0.01327 -0.004,0 -0.031,-0.0088 0.031,-0.01327 0.031,-0.03538 0,-0.02211 -0.0398,-0.02211 -0.0354,0 -0.0486,0.01769 -0.0133,0.01769 -0.0221,0.04422 -0.004,0.02653 -0.0133,0.05749 -0.004,0.02653 -0.0177,0.04422 -0.0486,0 -0.0486,-0.01769 0,-0.0088 0.004,-0.02653 0.009,-0.02211 0.009,-0.04422 -0.031,0.02211 -0.0708,0.02653 -0.0354,0.0044 -0.0354,0.05307 v 0.0088 q -0.0177,-0.0044 -0.0442,-0.0044 h -0.0265 q -0.0265,0 -0.0398,-0.03095 -0.0177,0.0044 -0.031,0.0088 -0.0133,0.0044 -0.0221,0.0044 -0.0177,0 -0.0354,-0.03095 -0.0354,0 -0.0354,0.03095 0,0.01327 0.004,0.03095 0.004,0.01327 0.004,0.02211 0,0.0088 -0.0133,0.01327 -0.0133,0 -0.0177,0 -0.0265,0 -0.031,-0.02211 -0.004,-0.02211 -0.0265,-0.02211 h -0.0133 v -0.05307 q -0.0354,0.0088 -0.0398,0.02211 0,0.0088 -0.0133,0.0088 -0.009,0 -0.0354,-0.01327 -0.004,0.0044 -0.004,0.01769 0,0.02653 0.0309,0.02653 0.0354,-0.0044 0.0442,0.01327 -0.0398,0.03095 -0.0796,0.03095 -0.031,0 -0.0442,-0.03095 -0.0221,0.0398 -0.0796,0.0398 -0.009,0 -0.0177,0 -0.004,-0.0044 -0.0133,-0.0044 v 1.185124 h -0.10613 q 0.009,-0.02211 0.009,-0.04864 0.004,-0.03095 0.0265,-0.0398 z m -0.42895,-0.25206 q -0.004,-0.02211 -0.004,-0.04422 0.004,-0.02211 -0.0133,-0.02653 -0.0177,0.01327 -0.0177,0.03538 0,0.03538 0.0354,0.03538 z m 0.0708,-0.340502 q -0.0486,0 -0.0486,-0.02211 0,-0.01327 0.031,-0.03538 h -0.009 q -0.0265,0 -0.0398,-0.01327 -0.009,-0.01769 -0.0221,-0.01769 -0.009,0 -0.0221,0.01327 0.009,0.03095 0.0265,0.04864 0.0177,0.01769 0.031,0.04422 v -0.0088 q 0,-0.0088 0.004,-0.0088 0.004,0 0.0133,0.01327 0.0133,0.0088 0.0221,0.0088 0.0133,0 0.0133,-0.02211 z m 0.84462,-1.945726 q -0.10613,0.02653 -0.21226,0.02653 -0.10613,0 -0.20342,0.0088 v 0.831356 q 0.0221,0.01769 0.084,0.01769 h 0.0486 q 0.0221,0 0.0265,0.0088 0.009,0.0044 0.009,0.01327 0,0.0044 0,0.0088 0,0.0044 0.0133,0.0044 0.004,-0.02211 0.0221,-0.02211 0.0133,0 0.0265,0.01769 0.0133,0.01769 0.0221,0.02211 -0.004,-0.0088 -0.004,-0.02211 0,-0.03095 0.0442,-0.03095 0.0221,0 0.0486,0 0.0265,-0.0044 0.0265,0.01769 0,0.01769 -0.0133,0.03095 -0.009,0.0088 -0.009,0.01769 0,0.0044 0.0398,0.0044 0.009,0 0.009,-0.0044 0,-0.0088 -0.009,-0.02211 -0.009,-0.01769 -0.009,-0.02653 0,-0.0088 0.0177,-0.01769 0.0221,-0.0088 0.0309,-0.0088 0.0265,0 0.0221,0.02653 0,0.02653 0.0221,0.03538 v -0.01769 q 0,-0.02653 0.0133,-0.03538 0.0177,-0.01327 0.0354,-0.01769 0.0221,-0.0088 0.0398,-0.0088 0.0177,0 0.0177,0 0.0177,0 0.0398,0.0088 0,-0.0044 -0.004,-0.0044 0,-0.0044 0,-0.0088 0,-0.02211 0.0221,-0.02211 0.0221,-0.0044 0.0354,-0.02211 0.004,0.01327 0.004,0.02653 0,0.0088 0.0133,0.0088 0.0133,-0.04864 0.0442,-0.07075 0.0354,-0.02211 0.0619,-0.05306 0.004,0.0088 0.004,0.02211 0.004,0.01327 0.0133,0.01327 0.0177,-0.06191 0.0221,-0.128241 0.004,-0.07075 0.0354,-0.159196 -0.004,-0.07075 -0.0265,-0.119397 -0.0177,-0.05307 -0.0442,-0.09729 -0.0265,-0.04422 -0.0575,-0.08402 -0.031,-0.04422 -0.0531,-0.09286 -0.0929,0 -0.14593,-0.02653 -0.0531,-0.03095 -0.12382,-0.04864 z m -0.82693,0.596984 q 0,-0.01327 -0.009,-0.01327 -0.009,0 -0.009,0.01327 0,0.0088 0.009,0.0088 0.004,0 0.009,-0.0088 z m 0.37588,1.976681 q 0.004,-0.0088 0.009,-0.01769 0.009,-0.0088 0.009,-0.01769 0,-0.01327 -0.0177,-0.01769 0,0.0088 -0.009,0.02211 -0.004,0.0088 -0.004,0.01769 0,0.0088 0.0133,0.01327 z m 0.63236,-3.077785 -0.0133,-0.01327 q 0,-0.0044 0.0133,0.01327 0.0133,0.01327 0.0133,0.01769 -0.004,0 -0.004,-0.0044 -0.004,-0.0044 -0.009,-0.01327 z"
         style="font-style:normal;font-variant:normal;font-weight:normal;font-stretch:normal;font-size:4.42210388px;font-family:'Catenary Stamp';-inkscape-font-specification:'Catenary Stamp';fill:#ff0000;fill-opacity:1;stroke-width:0.18425432"
         id="path861"
         inkscape:connector-curvature="0" />
      <path
         d="m 118.01458,31.282297 q -0.009,0.01327 -0.0133,0.01327 -0.009,0 -0.0133,-0.02211 -0.004,-0.02653 -0.004,-0.04864 v -0.02653 q 0.009,0 0.0133,0.04864 0,0.0088 0.009,0.01769 0.009,0.0044 0.009,0.01769 z m -0.0531,-0.181306 q 0,0.03538 -0.0177,0.03538 -0.0177,-0.0044 -0.0221,0.01769 0.004,0.03095 0.009,0.05749 0.004,0.02211 0.004,0.04422 0,0.01769 -0.004,0.03095 0,0.01327 -0.009,0.03095 0.009,0.02211 0.0177,0.02211 0.009,0 0.0221,-0.01327 0.0133,-0.01327 0.0354,-0.01327 0.0133,0 0.0177,0.0044 0.0973,0.274171 0.17688,0.561607 0.0796,0.283015 0.16362,0.570452 -0.0265,0 -0.0531,0.0044 -0.0265,0 -0.0531,0 -0.0884,0 -0.18131,-0.0044 -0.0929,-0.0044 -0.16804,-0.0044 -0.0354,0 -0.0663,0 -0.0265,0 -0.0531,0.0044 -0.0177,-0.03095 -0.0221,-0.05307 -0.004,-0.02653 -0.009,-0.04864 -0.004,-0.02653 -0.0133,-0.04864 -0.004,-0.02211 -0.0265,-0.04864 -0.009,-0.114975 -0.0575,-0.238793 -0.0486,-0.123819 -0.10613,-0.318392 -0.0265,-0.08844 -0.0442,-0.176884 -0.0177,-0.09286 -0.0619,-0.163618 -0.0177,0 -0.0354,0.0044 -0.0133,0 -0.031,0 -0.0531,0 -0.11055,-0.0044 -0.0575,-0.0044 -0.11055,-0.0044 -0.0575,0 -0.10613,0.01327 -0.0486,0.0088 -0.084,0.0088 -0.0354,0 -0.0442,-0.02653 -0.009,-0.02653 -0.0442,-0.02653 -0.0398,0 -0.0398,0.02211 0,0.01327 0.004,0.02653 0.004,0.01327 0.004,0.02653 0,0.02653 -0.0265,0.07518 -0.0221,0.04422 -0.0531,0.09286 -0.031,0.04422 -0.0575,0.0796 -0.0221,0.03095 -0.0221,0.02653 0,0.02211 0.004,0.04422 0.009,0.01769 0.009,0.0398 0,0.03095 -0.031,0.03538 0.009,0.01769 0.009,0.04422 0,0 -0.004,0.03538 -0.004,0.03538 -0.0177,0.0796 -0.009,0.0398 -0.031,0.07518 -0.0177,0.03538 -0.0486,0.03538 0.0265,0.01327 0.0265,0.03538 0,0.02653 -0.0133,0.0796 -0.0133,0.04864 -0.031,0.101709 -0.0177,0.04864 -0.0398,0.08844 -0.0177,0.03538 -0.0309,0.03538 -0.009,0.0088 -0.009,0.02211 0,0.01327 0.0265,0.01327 -0.0354,0.01327 -0.0752,0.01769 -0.0398,0.0044 -0.0884,0.0044 -0.0486,0 -0.10171,-0.0044 -0.0531,-0.0044 -0.10171,-0.0044 -0.031,0 -0.0575,0.0044 -0.0265,0.0044 -0.0486,0.0044 -0.0265,0 -0.031,-0.01769 -0.004,-0.02211 -0.0398,-0.02211 -0.0133,0 -0.0133,0.0044 0,0.0044 0.009,0.01327 0.009,0.0044 0.009,0.01327 0,0.0044 -0.0265,0.0044 -0.0265,0 -0.0265,-0.0088 0,-0.0088 0.0221,-0.08402 0.0221,-0.0796 0.0575,-0.198995 0.0354,-0.123819 0.0796,-0.27417 0.0486,-0.154774 0.0973,-0.31397 0.0531,-0.163618 0.1017,-0.318391 0.0531,-0.159196 0.0929,-0.291859 0,-0.03538 0.004,-0.03538 0.009,0 0.0133,0.0044 0.004,0.0044 0.0133,0.0044 0.0133,0 0.0221,-0.01327 -0.031,-0.01769 -0.031,-0.0398 0,0 0.004,-0.02211 0.004,-0.02211 0.009,-0.04864 0.009,-0.02653 0.0221,-0.04422 0.0133,-0.02211 0.031,-0.02211 -0.004,-0.01327 -0.004,-0.04422 0,-0.0796 0.0177,-0.154774 0.0221,-0.0796 0.0486,-0.150351 0.0265,-0.07518 0.0531,-0.14593 0.0309,-0.07075 0.0486,-0.137085 0.0354,-0.16804 0.084,-0.318392 0.0486,-0.150351 0.0929,-0.309547 0.031,-0.0044 0.0354,-0.02653 0.004,-0.02653 0.0177,-0.04422 0.0619,-0.04422 0.13266,-0.08402 0.0752,-0.04422 0.17246,-0.04422 0.0929,0 0.16804,0.05307 0.0796,0.04864 0.14151,0.09286 0.0752,0.198995 0.12824,0.424522 0.0575,0.221105 0.14151,0.4201 0,0.09286 0.0309,0.185728 0.031,0.09286 0.0663,0.185728 0.0398,0.09286 0.0707,0.190151 0.031,0.09286 0.0354,0.19015 0,0.02211 -0.009,0.05749 0,0.0088 0.009,0.0088 0.009,0 0.009,0 0.004,-0.0044 0.0133,-0.0044 0.009,0 0.009,0.01327 z m -1.00824,-1.671555 q -0.0177,0.0044 -0.0354,0.0044 -0.0177,-0.0044 -0.0177,0.01327 0.0133,-0.0044 0.031,0 0.0177,0 0.0221,-0.01769 z m 0.0354,1.36643 h 0.28743 q -0.0309,-0.114975 -0.0663,-0.229949 -0.031,-0.119397 -0.0752,-0.221106 -0.0442,0.106131 -0.0796,0.221106 -0.031,0.114974 -0.0663,0.229949 z m -0.68543,0.468743 q -0.009,0 -0.009,0.0088 0,0.01327 0.0177,0.01327 0.0133,0 0.0221,-0.0088 0.009,-0.0088 0.004,-0.01769 -0.009,0 -0.0177,0.0044 -0.009,0 -0.0177,0 z m 0.43337,0.269748 q 0,-0.01327 -0.0177,-0.01327 -0.0177,0 -0.0177,0.01327 0,0.01327 0.009,0.01327 0.009,0 0.0133,-0.0044 0.004,-0.0044 0.0133,-0.0088 z m 1.33105,0.07075 q 0,-0.03096 -0.004,-0.05749 0,-0.03095 -0.031,-0.03095 0,0.0088 -0.004,0.01769 0,0.0044 0,0.01327 0,0.05307 0.0398,0.05749 z m -1.47256,0.35819 q 0,-0.0088 -0.0133,-0.0088 -0.009,0 -0.009,0.0088 0,0.01327 0.009,0.01327 0.004,0 0.0133,-0.01327 z m -0.12824,0.234372 q 0.0265,0.0088 0.0265,0.02211 0,0.02211 -0.0265,0.06191 -0.0221,0.03538 -0.0221,0.07075 0,0.02653 0.0221,0.04422 0.0531,-0.05307 0.0575,-0.128241 0.004,-0.0796 0.0133,-0.141508 0.0177,0 0.0177,-0.0088 0,-0.0088 -0.004,-0.0088 -0.0442,0 -0.0531,0.03538 -0.004,0.03095 -0.0309,0.05307 z m 1.36643,0.145929 q 0,-0.01327 -0.009,-0.01327 -0.009,0 -0.009,0.01327 0,0.0088 0.009,0.0088 0.004,0 0.009,-0.0088 z m 0.0884,0.08844 v -0.05306 q -0.0221,0.01327 -0.0354,0.01327 -0.009,0 -0.0177,0 -0.009,-0.0044 -0.0177,-0.0044 -0.0133,0 -0.0177,0.0088 0.0265,0.0088 0.0398,0.02211 0.0133,0.01327 0.0486,0.01327 z"
         style="font-style:normal;font-variant:normal;font-weight:normal;font-stretch:normal;font-size:4.42210388px;font-family:'Catenary Stamp';-inkscape-font-specification:'Catenary Stamp';fill:#ff0000;fill-opacity:1;stroke-width:0.18425432"
         id="path863"
         inkscape:connector-curvature="0" />
      <path
         d="m 118.65032,32.303803 q 0,-0.01327 0.0177,-0.01327 0.0177,0 0.0177,0.01327 -0.0133,0.01327 -0.0265,0.01327 -0.009,0 -0.009,-0.01327 z m 1.34874,-1.852861 q 0.0398,0.01769 0.0752,0.08844 0.0354,0.06633 0.0354,0.110553 0,0.02653 -0.0265,0.03095 -0.0221,0 -0.0309,0.02211 0.004,0.02211 0.0177,0.02211 0.0133,0 0.0221,-0.01769 0.0133,-0.02211 0.0354,-0.02211 0.009,0 0.0398,0.06633 0.0354,0.06633 0.0708,0.150352 0.0398,0.08402 0.0708,0.163617 0.0354,0.0796 0.0486,0.106131 0.0487,-0.128241 0.0663,-0.278593 0.0177,-0.150351 0.0442,-0.296281 0.0486,-0.269748 0.0929,-0.543918 0.0442,-0.274171 0.084,-0.552763 0.009,0 0.0133,0.0088 0.009,0.0088 0.0221,0.0088 -0.0133,-0.03095 -0.0133,-0.06633 0,-0.0398 0.009,-0.0796 0.0133,-0.0398 0.0221,-0.08844 0.0531,0.0044 0.0973,0.0044 0.0486,0 0.0884,0 0.084,0 0.16362,0 0.084,-0.0044 0.20784,-0.0044 -0.11055,0.738492 -0.23879,1.463717 -0.12824,0.720803 -0.22553,1.468138 -0.0177,0.02211 -0.031,0.04864 -0.009,0.02653 -0.0221,0.05307 -0.0133,0.02211 -0.0354,0.0398 -0.0177,0.01769 -0.0531,0.01769 -0.0221,0 -0.0398,-0.01769 0.004,-0.01327 0.0133,-0.01327 0.009,0 0.0177,0.0088 0.0133,0.0044 0.0221,0.0044 0.004,0.0044 -0.009,-0.01769 -0.0133,-0.02653 -0.0133,-0.03538 -0.0221,0 -0.031,0.01327 -0.009,0.01327 -0.0133,0.03095 -0.004,0.01769 -0.009,0.03538 0,0.01769 -0.0133,0.03095 -0.0354,-0.01769 -0.0398,-0.01769 -0.009,0 -0.009,0.01327 0,0.01327 0.0133,0.0398 h -0.0929 q 0.0265,-0.0398 0.0221,-0.04864 -0.004,-0.01327 0.0177,-0.04422 -0.0221,-0.02211 -0.0575,-0.03538 -0.004,0.03538 -0.009,0.05749 -0.009,0.05749 -0.031,0.05749 -0.0221,0 -0.031,-0.0088 -0.009,-0.0088 -0.0177,-0.02211 -0.009,-0.01327 -0.0221,-0.02211 -0.009,-0.0088 -0.031,-0.0088 0.031,-0.01769 0.031,-0.03538 0,-0.01327 -0.009,-0.02211 -0.009,-0.01327 -0.0221,-0.03095 -0.0133,0 -0.0133,0.01327 0,0.01327 -0.004,0.02211 -0.0177,-0.02211 -0.0486,-0.07075 -0.031,-0.04864 -0.031,-0.08402 0,-0.03096 0.0265,-0.04422 -0.0354,-0.0088 -0.0752,-0.04864 -0.0354,-0.0398 -0.0354,-0.06633 0,-0.02211 0.0177,-0.02211 0.0177,0 0.0177,-0.0088 0,-0.02211 -0.0309,-0.01327 -0.0265,0.0044 -0.0265,-0.01769 0,-0.01769 0.0133,-0.01769 0.009,0 0.009,0.01769 0,-0.0044 0,-0.0044 0.004,-0.0044 0.004,-0.01327 0,-0.02653 -0.0221,-0.04864 -0.0221,-0.02653 -0.0221,-0.07075 0,-0.0088 0,-0.01327 0.004,-0.0044 0.004,-0.01327 0,-0.01327 -0.0133,-0.02211 -0.0133,-0.01327 -0.0265,-0.01327 -0.0133,0 -0.0133,0.01769 -0.031,-0.05749 -0.0708,-0.128241 -0.0398,-0.07075 -0.0796,-0.14593 -0.0398,-0.07517 -0.0708,-0.154773 -0.0265,-0.08402 -0.031,-0.163618 -0.004,-0.01769 -0.0265,-0.04422 -0.0221,-0.02653 -0.0309,-0.02653 -0.0221,0 -0.0354,0.01327 -0.009,0.0088 -0.0177,0.02211 -0.004,0.01327 -0.0133,0.02653 -0.004,0.0088 -0.0177,0.0088 -0.0177,0 -0.0398,-0.01769 -0.004,0.0044 -0.004,0.01769 0,0.01769 0.009,0.02653 0.0133,0.0088 0.0133,0.01769 0,0.0088 -0.0177,0.02653 -0.0133,0.01327 -0.031,0.03538 -0.0133,0.01769 -0.031,0.04422 -0.0133,0.02211 -0.0133,0.04864 0,0.02211 0.009,0.03095 0.0133,0.0044 0.0133,0.02653 0,0.0088 -0.0133,0.03095 -0.0133,0.01769 -0.031,0.0398 -0.0133,0.02211 -0.0309,0.04422 -0.0177,0.01769 -0.031,0.02211 0,0.01327 0.0133,0.01769 0.0133,0 0.0221,0 -0.0177,0.04422 -0.0442,0.0796 -0.0221,0.03096 -0.0663,0.04864 0,0.0088 0.009,0.0088 0.009,0 0.0177,-0.0044 0.0133,-0.0044 0.0309,-0.0044 -0.0354,0.04864 -0.0575,0.110552 -0.0177,0.05749 -0.0708,0.08844 0.009,0.02653 0.009,0.0398 0,0.04864 -0.0398,0.101709 -0.0398,0.04864 -0.0398,0.110552 -0.0133,-0.01327 -0.0265,-0.01327 -0.009,0 -0.0133,0.0044 0,0.0044 -0.009,0.0044 -0.009,0 -0.0221,-0.01327 0,0.02211 -0.009,0.03095 -0.009,0.0044 -0.009,0.01769 0,0.02653 0.009,0.04422 0.009,0.01327 0.009,0.04422 0,0.0044 -0.009,0.02211 -0.004,0.01327 -0.0177,0.03538 -0.0133,0.01769 -0.031,0.03538 -0.0177,0.01327 -0.0354,0.01327 -0.0133,0 -0.0177,-0.01327 -0.031,0.04422 -0.084,0.06191 -0.0486,0.01327 -0.1194,0.01327 -0.004,0 -0.0442,-0.01327 -0.0398,-0.01327 -0.0398,-0.05307 0,-0.02211 0.0177,-0.02211 0.0177,0 0.0177,-0.02211 -0.0221,-0.03538 -0.0442,-0.07518 -0.0221,-0.0398 -0.0575,-0.0398 -0.0265,0 -0.0398,0.0088 -0.004,-0.02211 -0.004,-0.04864 0,-0.02653 0,-0.06191 0,-0.05307 0.004,-0.110552 0.004,-0.05749 0.0177,-0.101709 -0.009,-0.0044 -0.0265,-0.0044 -0.031,0 -0.031,0.03096 0,0.01769 0.004,0.02653 -0.0398,-0.03095 -0.0442,-0.09286 0,-0.06633 -0.0133,-0.123819 l 0.009,-0.0088 q 0.004,0 0.009,0.01769 0.004,0.01327 0.004,0.03095 0.004,0.01769 0.009,0.03538 0.009,0.01327 0.0221,0.01327 0.0133,0 0.0177,-0.01327 0.004,-0.01327 0.004,-0.02653 0,-0.01769 -0.004,-0.03538 0,-0.01769 0,-0.0398 0,-0.01769 0.004,-0.02653 -0.0177,-0.03096 -0.0442,-0.03096 -0.0265,0 -0.0309,0.03096 -0.0177,-0.01327 -0.0177,-0.02653 0,-0.02211 0.0265,-0.04422 0.031,-0.02211 0.031,-0.05749 -0.009,-0.0044 -0.009,-0.0044 -0.0133,0 -0.0265,0.01327 -0.0133,0.0088 -0.0221,0.0088 -0.009,0 -0.0221,-0.05307 -0.0133,-0.05306 -0.031,-0.132663 -0.0133,-0.08402 -0.031,-0.185728 -0.0133,-0.106131 -0.0309,-0.203417 -0.0133,-0.101708 -0.0265,-0.185728 -0.0133,-0.08844 -0.0177,-0.137086 0.0354,0 0.0354,-0.03095 0,-0.02211 -0.0221,-0.02211 -0.0221,-0.0044 -0.0309,-0.01769 -0.0133,-0.16804 -0.0442,-0.31397 -0.031,-0.145929 -0.0486,-0.313969 0.009,0 0.009,0 0.004,-0.0044 0.009,-0.0044 0.0221,0 0.0221,0.03095 0,0.01769 -0.004,0.03538 0,0.01327 0,0.02653 0.0398,-0.01327 0.0398,-0.110553 0,-0.02211 -0.004,-0.04422 0,-0.02653 0,-0.04864 0,-0.04422 0.004,-0.06633 -0.0354,0 -0.0354,0.0088 0,0.0088 0.004,0.01769 0.004,0.0088 0.004,0.01769 0,0.0088 -0.0133,0.0088 -0.0354,0 -0.0531,-0.02211 -0.0133,-0.02211 -0.0221,-0.05307 -0.004,-0.03096 -0.0133,-0.06191 -0.004,-0.03538 -0.0177,-0.06191 0.0133,-0.01769 0.0133,-0.0398 0,-0.01769 -0.004,-0.03095 0,-0.01327 0,-0.02211 0,-0.02653 0.0265,-0.03096 0,-0.03095 -0.0177,-0.03095 -0.009,0 -0.0133,0.0044 -0.004,0.0044 -0.0133,0.0044 -0.009,0 -0.009,-0.01769 0,-0.01327 0.004,-0.01327 0.009,-0.0044 0.009,-0.01327 0,-0.0044 -0.004,-0.0044 0,-0.0044 0,-0.0088 -0.004,-0.0044 -0.004,-0.0088 0.009,0 0.031,0.01769 0,-0.0088 0,-0.01327 0.004,-0.0044 0.004,-0.01327 0,-0.0398 -0.0221,-0.06191 -0.0177,-0.02211 -0.0177,-0.05749 0.031,0 0.0398,0.01327 0.009,0.0088 0.031,0.0088 0.009,0 0.0177,-0.0044 v 0.110552 q 0.0354,-0.0088 0.0398,-0.04864 0.004,-0.04422 0.0354,-0.06191 0.0221,0.01327 0.0265,0.02211 0.009,0.0088 0.0221,0.0088 0.004,0 0.0398,-0.01327 -0.0177,0.01769 -0.0177,0.02211 0,0 0.0442,0.01769 0.0177,0.0088 0.0486,0.01327 0.0221,0 0.0133,-0.02653 -0.004,-0.03096 0.0177,-0.03096 0.0133,0 0.031,0.02653 0.0177,0.02653 0.031,0.06191 0.0177,0.03538 0.031,0.07518 0.0133,0.03538 0.0177,0.05749 0.031,-0.03095 0.031,-0.0796 0,-0.03095 -0.0133,-0.06633 0.0708,0 0.0708,0.04864 0,0.02653 -0.0177,0.04422 0.0265,0.05307 0.0265,0.119397 0,0.03538 -0.004,0.06633 -0.004,0.03095 -0.004,0.06633 0,0.01769 0.0177,0.01769 0.0177,0 0.0177,-0.01769 0.0398,0.06191 0.0486,0.154774 0.0133,0.08844 0.0221,0.185728 0.031,0.101708 0.0486,0.212261 0.0177,0.10613 0.0265,0.221105 0.004,0.03538 0.0133,0.07518 0.0133,0.0398 0.0133,0.07518 0,0.03538 -0.009,0.04422 0.0442,0.08844 0.0531,0.203416 0.0133,0.114975 0.0354,0.22995 0.0265,-0.0088 0.0398,-0.0398 0.0177,-0.03095 0.0265,-0.06191 0.009,-0.03538 0.0221,-0.06191 0.0177,-0.02653 0.0442,-0.02653 0.004,0 0.0309,0.0088 0,-0.02211 -0.009,-0.02653 -0.009,-0.0044 -0.0265,-0.0088 0.0354,-0.09286 0.0929,-0.234372 0.0575,-0.141507 0.11939,-0.269748 0.0663,-0.132663 0.1194,-0.225527 0.0575,-0.09729 0.0929,-0.09729 0.009,0 0.0221,0.0044 0.0177,0 0.031,0 0.0221,0 0.0221,-0.02211 0.0354,0.03538 0.031,0.05749 0,0.02211 0.0265,0.06633 0.0354,-0.0044 0.0442,-0.02211 0.0133,-0.02211 0.0265,-0.02211 0.009,0 0.0354,0.02653 0.004,-0.0044 0.004,-0.01769 0,-0.02211 -0.0177,-0.03538 -0.0177,-0.01769 -0.0177,-0.02653 0,-0.0088 0.031,-0.0088 0,0.03095 0.0133,0.03095 0.009,0 0.0177,0 0.0133,-0.0044 0.0265,-0.0044 0.009,0 0.0265,0.02211 0.0221,0.01769 0.0398,0.04422 0.0221,0.02653 0.0354,0.05749 0.0133,0.03096 0.0133,0.05307 0,0.01327 -0.009,0.03096 0.009,0.01327 0.031,0.02653 0.0221,0.0088 0.0221,0.02211 0,0.01769 -0.009,0.02211 -0.009,0.0044 -0.0221,0.01327 -0.009,0.0044 -0.0177,0.01327 -0.009,0.0088 -0.009,0.03095 0,0.03095 0.0177,0.04864 0.0177,0.01327 0.0177,0.03096 0,0.01327 -0.0133,0.02653 0.0354,0 0.0398,-0.02211 0.009,-0.02211 0.031,-0.03095 0,-0.03095 -0.031,-0.03095 -0.0265,-0.0044 -0.0265,-0.0398 0,-0.01327 0.004,-0.02211 z m 0.199,1.565425 q -0.009,0.01327 -0.0133,0.01327 -0.009,0 -0.0177,-0.0044 -0.009,-0.0088 -0.0265,-0.0088 0,0.04864 0.0398,0.04864 0.0354,0 0.0354,-0.02211 0,-0.01327 -0.0177,-0.02653 z m -1.85286,-2.609042 q 0,-0.02653 -0.009,-0.02653 -0.009,0 -0.009,0.01769 0,0.02211 0.009,0.02211 0,0 0.009,-0.01327 z m -0.0752,0.05749 q -0.009,0 -0.0221,0.0044 -0.0133,0 -0.0133,0.01327 0.009,-0.0044 0.0221,-0.0044 0.0133,0 0.0133,-0.01327 z m 1.31337,0.716381 q 0,-0.0088 -0.009,-0.0088 -0.009,0 -0.009,0.0088 0,0.01327 0.009,0.01327 0,0 0.009,-0.01327 z m 0.43336,0.486431 q 0.009,0 0.0133,0.0044 0.009,0 0.0177,0 0.0221,0 0.0221,-0.01327 0,-0.01769 -0.0177,-0.02653 -0.0133,-0.01327 -0.0221,-0.01327 -0.0133,0 -0.0133,0.01327 0.0133,0.0088 0.0133,0.0088 0,0.0088 -0.004,0.01327 -0.004,0.0044 -0.009,0.01327 z m 0.10613,0.08844 q 0,-0.01327 -0.0177,-0.01327 -0.0177,0 -0.0177,0.01327 0,0.01327 0.0133,0.01327 0.009,0 0.0221,-0.01327 z m 0.0177,1.154169 q -0.004,0 -0.004,-0.0044 0,-0.01769 0.0221,-0.01769 v 0.0044 q 0.004,-0.0044 -0.0177,-0.02211 -0.0177,-0.01769 -0.0265,-0.01769 0,-0.0044 0.009,0.02653 0.009,0.02653 0.0177,0.03096 z m -0.91537,0.08844 q 0,-0.01327 -0.009,-0.01327 -0.009,0 -0.009,0.01327 0,0.01327 0.009,0.01327 0,0 0.009,-0.01327 z m -0.52181,0.106131 q -0.009,-0.05307 -0.0354,-0.07075 v 0.0398 q 0,0.03538 0.0177,0.03538 0.009,0 0.0177,-0.0044 z m 1.54773,0.05749 q -0.009,0 -0.0221,0.0044 -0.0133,0 -0.0133,0.01327 0.009,-0.0044 0.0221,-0.0044 0.0133,0 0.0133,-0.01327 z m 0.44664,0.141507 q 0,-0.05307 -0.0354,-0.07075 -0.0133,0.01327 -0.0133,0.03538 0,0.03538 0.0487,0.03538 z m -0.14151,0.01769 q -0.009,0.0044 -0.0221,0.0044 -0.0133,0 -0.0133,0.01327 0.009,-0.0044 0.0221,-0.0044 0.0133,0 0.0133,-0.01327 z m -1.76442,0.09286 q 0.0575,0 0.0575,-0.05749 0,-0.01769 -0.0133,-0.01769 -0.0177,0 -0.0221,0.0088 -0.004,0.0088 -0.009,0.02211 0,0.01327 -0.004,0.02653 0,0.01327 -0.009,0.01769 z"
         style="font-style:normal;font-variant:normal;font-weight:normal;font-stretch:normal;font-size:4.42210388px;font-family:'Catenary Stamp';-inkscape-font-specification:'Catenary Stamp';fill:#ff0000;fill-opacity:1;stroke-width:0.18425432"
         id="path865"
         inkscape:connector-curvature="0" />
    </g>
  </g>
</svg>
