<?xml version="1.0" standalone="no"?>
<!DOCTYPE svg PUBLIC "-//W3C//DTD SVG 20010904//EN"
 "http://www.w3.org/TR/2001/REC-SVG-20010904/DTD/svg10.dtd">
<svg version="1.0" xmlns="http://www.w3.org/2000/svg"
 width="1101.000000pt" height="1280.000000pt" viewBox="0 0 1101.000000 1280.000000"
 preserveAspectRatio="xMidYMid meet">
<g transform="translate(0.000000,1280.000000) scale(0.100000,-0.100000)"
fill="#000000" stroke="none">
<path d="M6445 12541 c-15 -25 -94 -54 -184 -67 -53 -8 -163 -34 -246 -59
-384 -113 -467 -126 -830 -130 -203 -3 -326 0 -410 10 -66 8 -203 21 -305 29
-159 14 -193 14 -243 2 -64 -15 -122 -51 -182 -112 -28 -29 -52 -43 -80 -48
-75 -13 -140 -38 -225 -87 -47 -27 -128 -66 -180 -88 -52 -21 -122 -51 -155
-66 -33 -14 -100 -43 -150 -62 -49 -20 -119 -50 -155 -69 -36 -18 -122 -55
-192 -83 -145 -58 -358 -156 -598 -276 -91 -45 -214 -102 -274 -125 -59 -23
-163 -70 -230 -105 -66 -34 -139 -68 -161 -75 -22 -7 -67 -28 -100 -48 -73
-43 -269 -206 -326 -270 -180 -205 -296 -509 -358 -939 -12 -78 -45 -261 -76
-405 -57 -276 -87 -433 -130 -685 -18 -108 -32 -163 -50 -195 -19 -33 -25 -57
-25 -108 0 -77 -20 -156 -50 -205 -18 -28 -24 -59 -30 -138 -6 -82 -13 -112
-34 -154 -22 -42 -28 -67 -30 -140 -3 -77 -17 -167 -56 -373 -6 -29 -18 -78
-27 -107 -10 -33 -13 -56 -7 -62 5 -4 43 -17 84 -29 173 -49 395 -83 830 -126
467 -47 603 -56 850 -56 222 0 249 -2 288 -20 117 -53 133 -84 133 -258 0 -70
-7 -183 -15 -252 -37 -313 -41 -413 -39 -960 0 -300 5 -586 10 -636 6 -62 4
-126 -4 -200 -11 -99 -36 -430 -63 -849 -6 -88 -22 -286 -36 -440 -14 -154
-30 -356 -35 -449 -5 -94 -12 -179 -15 -189 -3 -11 -10 -180 -15 -376 -4 -196
-13 -426 -20 -511 -9 -118 -9 -214 0 -405 8 -180 9 -271 1 -325 -6 -41 -15
-163 -20 -270 -7 -145 -15 -213 -30 -265 -26 -92 -26 -141 0 -155 28 -15 275
-47 504 -65 105 -9 241 -20 301 -25 197 -18 967 -63 1290 -75 154 -6 569 -30
685 -40 311 -26 1216 -71 1745 -87 610 -18 1007 -17 1110 5 157 34 222 83 245
182 29 125 4 530 -45 745 -50 217 -49 203 -25 275 26 77 25 46 17 625 -9 717
-31 1094 -78 1296 -30 131 -31 147 -25 269 8 177 -10 822 -29 1025 -20 217
-52 471 -74 591 -13 72 -16 112 -9 155 4 33 7 124 6 204 l-2 145 36 82 c70
156 108 343 108 529 0 88 5 127 25 193 33 112 43 171 55 340 11 138 13 148 47
208 32 58 37 80 62 253 14 104 29 191 32 194 7 7 22 -27 73 -159 39 -102 55
-164 56 -216 0 -19 7 -56 16 -81 14 -43 18 -47 57 -54 66 -11 429 -8 567 5
475 45 1011 161 1585 342 88 28 166 56 173 62 17 14 8 66 -23 126 -30 60 -135
484 -135 547 0 36 -8 62 -30 99 -60 102 -80 150 -80 193 0 47 -32 135 -61 167
-32 36 -59 109 -59 160 0 51 -29 127 -69 182 -11 15 -74 190 -139 388 -109
330 -134 402 -209 610 -14 39 -61 154 -104 256 -44 103 -104 259 -134 347
-147 434 -328 767 -496 912 -35 30 -121 110 -191 177 -77 75 -138 125 -155
129 -41 9 -355 115 -378 127 -11 5 -80 31 -155 57 -74 26 -189 68 -255 94
-181 71 -309 117 -661 236 -176 60 -351 120 -388 134 -81 31 -242 72 -316 82
-30 4 -87 19 -126 35 -88 34 -139 45 -149 30z"/>
</g>
</svg>
