<?xml version="1.0" encoding="UTF-8" standalone="no"?>
<!-- Created with Inkscape (http://www.inkscape.org/) -->

<svg
   xmlns:dc="http://purl.org/dc/elements/1.1/"
   xmlns:cc="http://creativecommons.org/ns#"
   xmlns:rdf="http://www.w3.org/1999/02/22-rdf-syntax-ns#"
   xmlns:svg="http://www.w3.org/2000/svg"
   xmlns="http://www.w3.org/2000/svg"
   xmlns:sodipodi="http://sodipodi.sourceforge.net/DTD/sodipodi-0.dtd"
   xmlns:inkscape="http://www.inkscape.org/namespaces/inkscape"
   version="1.1"
   id="svg837"
   width="85"
   height="115"
   viewBox="0 0 85 115"
   sodipodi:docname="whatsnew_shirt.svg"
   inkscape:version="0.92.3 (2405546, 2018-03-11)">
  <metadata
     id="metadata843">
    <rdf:RDF>
      <cc:Work
         rdf:about="">
        <dc:format>image/svg+xml</dc:format>
        <dc:type
           rdf:resource="http://purl.org/dc/dcmitype/StillImage" />
        <dc:title></dc:title>
      </cc:Work>
    </rdf:RDF>
  </metadata>
  <defs
     id="defs841" />
  <sodipodi:namedview
     pagecolor="#ffffff"
     bordercolor="#666666"
     borderopacity="1"
     objecttolerance="10"
     gridtolerance="10"
     guidetolerance="10"
     inkscape:pageopacity="0"
     inkscape:pageshadow="2"
     inkscape:window-width="1920"
     inkscape:window-height="1001"
     id="namedview839"
     showgrid="false"
     inkscape:pagecheckerboard="true"
     fit-margin-top="0"
     fit-margin-left="0"
     fit-margin-right="0"
     fit-margin-bottom="0"
     inkscape:zoom="5.6568543"
     inkscape:cx="57.175153"
     inkscape:cy="57.852419"
     inkscape:window-x="-9"
     inkscape:window-y="-9"
     inkscape:window-maximized="1"
     inkscape:current-layer="layer2" />
  <g
     inkscape:groupmode="layer"
     id="layer1"
     inkscape:label="Original"
     transform="translate(17.592821,10.674505)"
     sodipodi:insensitive="true" />
  <g
     inkscape:groupmode="layer"
     id="layer3"
     inkscape:label="Color">
    <path
       style="fill:#003f00;fill-opacity:1;stroke:none;stroke-width:1px;stroke-linecap:butt;stroke-linejoin:miter;stroke-opacity:1"
       d="m 5.4800775,46.58742 0.3535534,23.688076 -3.5355339,9.192389 1.5909903,9.722718 4.4194173,1.944543 9.9093174,-0.899997 3.172158,4.965861 -3.005204,7.24784 12.904699,4.5962 27.930718,1.94455 20.859649,-5.65686 0.883884,-3.889089 L 73.440594,86.819307 81.317279,82.826642 80.256618,54.012041 79.726289,42.698332 6.0104076,37.395031 Z"
       id="path896"
       inkscape:connector-curvature="0"
       sodipodi:nodetypes="cccccccccccccccccc" />
    <path
       style="display:inline;fill:#006600;fill-opacity:1;stroke:#000000;stroke-width:1.13385832;stroke-linecap:butt;stroke-linejoin:miter;stroke-miterlimit:4;stroke-dasharray:none;stroke-opacity:1"
       d="m 28.020807,107.32817 c 0,0 1.489065,-13.755682 4.596194,-22.980958 1.310161,-3.889957 24.242128,-2.373791 32.173357,-2.828426 6.405129,-0.367155 4.596195,26.516494 4.596195,26.516494 0,0 -10.185625,3.33296 -15.469661,3.49505 -8.740826,0.26813 -25.896085,-4.20216 -25.896085,-4.20216 z"
       id="path857"
       inkscape:connector-curvature="0"
       sodipodi:nodetypes="csscac" />
    <path
       style="fill:#006600;fill-opacity:1;stroke:none;stroke-width:1.88976383;stroke-linecap:butt;stroke-linejoin:miter;stroke-miterlimit:4;stroke-dasharray:none;stroke-opacity:1"
       d="m 5.3033008,49.7694 c 0,0 11.2785072,3.829348 15.5563492,0.883883 1.120484,-0.771498 0.13007,-3.098877 1.237437,-3.889087 12.426374,-8.867376 32.757196,-6.896551 45.785163,1.06066 2.002682,1.223197 2.218976,4.135882 3.358758,6.187185 3.112963,5.602502 9.01561,0 9.01561,0 L 78.137376,26.899752 68.766134,15.297945 62.57895,15.828275 56.745319,27.141983 52.679455,26.611653 44.194173,16.535382 10.253048,15.121168 8.0736469,15.651414 Z"
       id="path890"
       inkscape:connector-curvature="0"
       sodipodi:nodetypes="caaascccccccccc" />
  </g>
  <g
     inkscape:groupmode="layer"
     id="layer2"
     inkscape:label="Re-Ink"
     style="display:inline">
    <path
       style="opacity:1;fill:#003f00;fill-opacity:1;stroke:#000000;stroke-width:3.77952766;stroke-linecap:butt;stroke-linejoin:miter;stroke-miterlimit:4;stroke-dasharray:none;stroke-opacity:1"
       d="m 20.92203,15.22896 c 0,0 -4.320995,-7.0225477 0.89194,-9.0880412 4.013907,-1.5904089 18.973672,3.1143052 22.320898,3.7467605 4.35966,0.8237537 -3.429422,5.9105877 -3.429422,5.9105877"
       id="path866"
       inkscape:connector-curvature="0"
       sodipodi:nodetypes="cssc" />
    <path
       style="opacity:1;fill:#003f00;fill-opacity:1;stroke:#000000;stroke-width:3.77952766;stroke-linecap:butt;stroke-linejoin:miter;stroke-miterlimit:4;stroke-dasharray:none;stroke-opacity:1"
       d="m 66.751238,14.232673 c 0,0 -0.736893,-8.3150049 2.300858,-9.299268 1.946842,-0.630797 3.485848,2.307421 4.689494,3.9625141 2.939318,4.0417579 5.250189,6.8177929 5.676727,13.8763579 0.08689,1.437935 -1.280941,4.127475 -1.280941,4.127475"
       id="path874"
       inkscape:connector-curvature="0"
       sodipodi:nodetypes="caasc" />
    <path
       style="opacity:1;fill:none;fill-opacity:1;stroke:#000000;stroke-width:3.77952766;stroke-linecap:butt;stroke-linejoin:miter;stroke-miterlimit:4;stroke-dasharray:none;stroke-opacity:1"
       d="m 8.0736469,15.651414 c -3.0005452,1.901906 -2.134901,57.07302 -2.134901,57.07302 0,0 -4.5852834,5.412284 -4.3731518,8.828784 0.2121316,3.4165 1.8086912,7.15144 4.9814356,8.966584 3.1727444,1.815144 6.7511213,-1.62007 11.6707923,-0.284653 4.919671,1.335417 1.601085,5.999584 0.42698,11.243811 -1.174105,5.24423 13.404674,6.57995 20.637376,8.09176 6.041484,1.26281 12.406349,1.67677 18.502475,0.71164 7.9885,-1.26473 20.835815,-4.94864 22.772278,-8.37642 1.936463,-3.427781 -8.341438,-10.916229 -7.116337,-15.086633 1.225101,-4.170404 7.707079,-1.859528 7.970297,-4.981436 0.780656,-9.259011 0.132549,-21.086054 -0.569307,-31.596534 -0.521871,-7.815165 -2.704208,-23.341585 -2.704208,-23.341585 0,0 -5.708848,-12.627002 -11.386138,-12.667079 C 60.741933,14.190253 60.50929,27.100641 54.511139,27.469059 48.496562,27.838486 46.696495,15.151003 40.705446,15.798267 28.378757,17.130023 11.074192,13.749508 8.0736469,15.651414 Z"
       id="path864"
       inkscape:connector-curvature="0"
       sodipodi:nodetypes="zczzzzaazzsacsssz" />
    <path
       style="opacity:1;fill:none;stroke:#000000;stroke-width:3.77952766;stroke-linecap:butt;stroke-linejoin:miter;stroke-miterlimit:4;stroke-dasharray:none;stroke-opacity:1"
       d="m 21.918317,40.563119 -3.700495,49.67203"
       id="path870"
       inkscape:connector-curvature="0" />
    <path
       style="opacity:1;fill:none;stroke:#000000;stroke-width:3.77952766;stroke-linecap:butt;stroke-linejoin:miter;stroke-miterlimit:4;stroke-dasharray:none;stroke-opacity:1"
       d="m 70.024752,47.679455 3.415842,39.139852"
       id="path872"
       inkscape:connector-curvature="0" />
  </g>
</svg>
