<?xml version="1.0" encoding="UTF-8" standalone="no"?>
<svg
   xmlns:dc="http://purl.org/dc/elements/1.1/"
   xmlns:cc="http://creativecommons.org/ns#"
   xmlns:rdf="http://www.w3.org/1999/02/22-rdf-syntax-ns#"
   xmlns:svg="http://www.w3.org/2000/svg"
   xmlns="http://www.w3.org/2000/svg"
   xmlns:sodipodi="http://sodipodi.sourceforge.net/DTD/sodipodi-0.dtd"
   xmlns:inkscape="http://www.inkscape.org/namespaces/inkscape"
   width="24.504625mm"
   height="29.090412mm"
   viewBox="0 0 24.504625 29.090412"
   version="1.1"
   id="svg8"
   inkscape:version="1.0 (4035a4fb49, 2020-05-01)"
   sodipodi:docname="character_base_top.svg">
  <defs
     id="defs2" />
  <sodipodi:namedview
     id="base"
     pagecolor="#ffffff"
     bordercolor="#666666"
     borderopacity="1.0"
     inkscape:pageopacity="0.0"
     inkscape:pageshadow="2"
     inkscape:zoom="5.6"
     inkscape:cx="134.93017"
     inkscape:cy="43.549062"
     inkscape:document-units="mm"
     inkscape:current-layer="layer2"
     showgrid="false"
     fit-margin-top="0"
     fit-margin-left="0"
     fit-margin-right="0"
     fit-margin-bottom="0"
     inkscape:pagecheckerboard="true"
     showguides="true"
     inkscape:window-width="1920"
     inkscape:window-height="1001"
     inkscape:window-x="-9"
     inkscape:window-y="-9"
     inkscape:window-maximized="1"
     inkscape:lockguides="false"
     inkscape:document-rotation="0" />
  <metadata
     id="metadata5">
    <rdf:RDF>
      <cc:Work
         rdf:about="">
        <dc:format>image/svg+xml</dc:format>
        <dc:type
           rdf:resource="http://purl.org/dc/dcmitype/StillImage" />
        <dc:title />
      </cc:Work>
    </rdf:RDF>
  </metadata>
  <g
     inkscape:label="Layer 1"
     inkscape:groupmode="layer"
     id="layer1"
     transform="translate(-113.05078,-148.95219)"
     style="display:inline" />
  <g
     sodipodi:insensitive="true"
     transform="translate(-36.472798,-45.646095)"
     inkscape:groupmode="layer"
     id="layer3"
     inkscape:label="Color" />
  <g
     transform="translate(-36.472798,-45.646095)"
     inkscape:groupmode="layer"
     id="layer2"
     inkscape:label="Re-ink"
     style="display:inline">
    <g
       inkscape:label="Layer 1"
       id="layer1-0"
       transform="translate(-48.000601,-87.118817)"
       style="display:inline" />
    <path
       sodipodi:nodetypes="ccczccccc"
       inkscape:connector-curvature="0"
       id="path831-5"
       d="m 57.527089,46.559873 c 1.635877,2.807358 3.434163,11.019746 2.186079,19.813197 -0.03749,2.612124 -0.948812,7.588671 -0.948812,8.244208 0,0 -3.899134,0.09989 -7.229493,0.03625 -3.330358,-0.06364 -4.796869,0.06737 -8.216413,0.06336 0.02949,-1.657652 -5.397636,-4.790926 -2.267857,-8.343822 0,-5.167442 -0.342243,-10.519109 0.47247,-15.449778 0.254528,-4.326972 4.855698,-2.933067 7.181548,-4.677457 3.827799,-0.363949 5.983656,0.09357 8.822478,0.314042 z"
       style="fill:#ffffff;fill-opacity:1;stroke:none;stroke-width:1.2;stroke-linecap:butt;stroke-linejoin:miter;stroke-miterlimit:4;stroke-dasharray:none;stroke-opacity:1" />
    <path
       sodipodi:nodetypes="scscszs"
       inkscape:connector-curvature="0"
       id="path847"
       d="m 45.302825,53.002162 c 0.260421,-2.556769 3.987942,-6.623181 3.987942,-6.623181 0,0 -4.511124,-0.378288 -5.879929,1.069079 -4.368124,4.618829 -2.360245,18.925011 -2.360245,18.925011 0,0 -4.579576,2.614718 -4.156248,4.060169 0.59027,2.01547 5.980039,4.399895 6.424105,2.696156 0.444066,-1.703739 1.28661,-13.276693 1.984375,-20.127234 z"
       style="fill:#0276b1;fill-opacity:1;stroke:none;stroke-width:0.264583px;stroke-linecap:butt;stroke-linejoin:miter;stroke-opacity:1" />
    <path
       sodipodi:nodetypes="cssccc"
       inkscape:connector-curvature="0"
       id="path853"
       d="m 56.524303,46.501874 c 0.397347,2.617171 0.696988,4.977253 0.637523,8.106686 -0.07867,4.140228 1.866261,13.489026 1.866261,13.489026 0.739806,0.173775 1.252045,-13.016551 1.252045,-13.016551 l -2.753043,-8.521162 c 0,0 -0.262351,-0.114351 -1.002786,-0.058 z"
       style="fill:#0276b1;fill-opacity:1;stroke:none;stroke-width:0.264583px;stroke-linecap:butt;stroke-linejoin:miter;stroke-opacity:1" />
    <g
       transform="translate(28.577379,16.187282)"
       id="layer2-2"
       inkscape:label="Re-ink"
       style="display:inline">
      <path
         sodipodi:nodetypes="cc"
         id="path905"
         d="m 15.306227,52.99312 c -0.423415,4.241926 -0.479826,2.928287 -0.565156,5.536486"
         style="fill:none;stroke:#000000;stroke-width:1.2;stroke-linecap:butt;stroke-linejoin:miter;stroke-miterlimit:4;stroke-dasharray:none;stroke-opacity:1" />
      <path
         style="opacity:1;fill:none;fill-opacity:1;stroke:#000000;stroke-width:1.2;stroke-linecap:butt;stroke-linejoin:miter;stroke-miterlimit:4;stroke-dasharray:none;stroke-opacity:1"
         d="m 26.888591,30.314592 c 0.477754,0.05822 2.484723,0.06781 3.008871,1.963701 0.524148,1.895893 1.626594,5.736094 1.771708,7.334938 0.470339,5.182141 -0.391642,12.934909 -1.638964,15.524046"
         id="path831"
         inkscape:connector-curvature="0"
         sodipodi:nodetypes="cssc" />
      <path
         style="fill:none;stroke:#000000;stroke-width:1.2;stroke-linecap:butt;stroke-linejoin:miter;stroke-miterlimit:4;stroke-dasharray:none;stroke-opacity:1"
         d="m 16.394717,36.578645 c -1.648817,5.874613 0.179145,15.295667 -1.702701,18.200412 -1.273861,7.360232 -11.7741761,-1.890817 -2.218802,-4.593268 0,-5.167441 -0.342243,-10.519106 0.47247,-15.449777 0.254528,-4.326971 4.655246,-4.603503 7.181548,-4.677456"
         id="path856"
         inkscape:connector-curvature="0"
         sodipodi:nodetypes="ccccc" />
      <path
         style="fill:none;stroke:#000000;stroke-width:1.2;stroke-linecap:butt;stroke-linejoin:miter;stroke-miterlimit:4;stroke-dasharray:none;stroke-opacity:1"
         d="m 29.104165,38.421279 c -0.654058,4.302781 1.087122,12.790482 1.082812,20.008717"
         id="path858"
         inkscape:connector-curvature="0"
         sodipodi:nodetypes="cc" />
    </g>
  </g>
</svg>
