<?xml version="1.0" encoding="UTF-8" standalone="no"?>
<svg
   xmlns:dc="http://purl.org/dc/elements/1.1/"
   xmlns:cc="http://creativecommons.org/ns#"
   xmlns:rdf="http://www.w3.org/1999/02/22-rdf-syntax-ns#"
   xmlns:svg="http://www.w3.org/2000/svg"
   xmlns="http://www.w3.org/2000/svg"
   xmlns:sodipodi="http://sodipodi.sourceforge.net/DTD/sodipodi-0.dtd"
   xmlns:inkscape="http://www.inkscape.org/namespaces/inkscape"
   sodipodi:docname="character_base_head.svg"
   inkscape:version="1.0 (4035a4fb49, 2020-05-01)"
   id="svg8"
   version="1.1"
   viewBox="0 0 43.377263 31.415143"
   height="31.415144mm"
   width="43.377262mm">
  <defs
     id="defs2" />
  <sodipodi:namedview
     inkscape:document-rotation="0"
     inkscape:lockguides="false"
     inkscape:window-maximized="1"
     inkscape:window-y="-9"
     inkscape:window-x="-9"
     inkscape:window-height="1001"
     inkscape:window-width="1920"
     showguides="true"
     inkscape:pagecheckerboard="true"
     fit-margin-bottom="0"
     fit-margin-right="0"
     fit-margin-left="0"
     fit-margin-top="0"
     showgrid="false"
     inkscape:current-layer="layer2"
     inkscape:document-units="mm"
     inkscape:cy="116.76192"
     inkscape:cx="99.955459"
     inkscape:zoom="11.2"
     inkscape:pageshadow="2"
     inkscape:pageopacity="0.0"
     borderopacity="1.0"
     bordercolor="#666666"
     pagecolor="#ffffff"
     id="base" />
  <metadata
     id="metadata5">
    <rdf:RDF>
      <cc:Work
         rdf:about="">
        <dc:format>image/svg+xml</dc:format>
        <dc:type
           rdf:resource="http://purl.org/dc/dcmitype/StillImage" />
        <dc:title />
      </cc:Work>
    </rdf:RDF>
  </metadata>
  <g
     style="display:inline"
     transform="translate(-76.736396,-103.45983)"
     id="layer1"
     inkscape:groupmode="layer"
     inkscape:label="Layer 1" />
  <g
     transform="translate(-0.15841594,-0.15372664)"
     inkscape:label="Color"
     id="layer3"
     inkscape:groupmode="layer">
    <path
       sodipodi:nodetypes="cccc"
       inkscape:connector-curvature="0"
       id="path864"
       d="m 12.756696,20.042186 c -3.0330485,3.485978 -6.9287479,8.842867 -10.6778266,9.780135 5.411336,2.216856 13.7737856,1.25077 18.6153276,-3.590773 -1.673498,-3.036966 -4.542199,-5.822302 -7.937501,-6.189362 z"
       style="fill:#333333;fill-opacity:1;stroke:#000000;stroke-width:1.2;stroke-linecap:butt;stroke-linejoin:miter;stroke-miterlimit:4;stroke-dasharray:none;stroke-opacity:1" />
    <path
       sodipodi:nodetypes="cccccccsczcccccccc"
       inkscape:connector-curvature="0"
       id="path831-5"
       d="m 34.726561,20.939881 c 1.424506,0.409095 2.905617,0.519717 4.441219,0.519717 -0.631436,0.891699 -1.802839,1.33673 -2.834817,1.795387 0.679627,2.000634 1.918615,4.085352 2.55134,6.236608 -0.196308,-1.699022 -1.726382,-2.566554 -2.976563,-3.449034 -1.289203,1.845106 -2.413179,3.349977 -4.441222,4.110492 -0.02396,-1.807178 -0.561611,-3.490928 -2.102492,-4.464845 -1.266898,0.154353 -2.719548,0.200395 -2.62221,1.063057 0.225306,1.996779 1.30686,2.63964 1.30686,2.63964 0,0 -8.345508,0.489002 -7.070998,-0.277287 1.27451,-0.766289 1.029477,-3.184133 -3.16555,-3.401786 -1.654478,0.194645 -1.540993,1.586536 -1.417411,3.023812 -1.143466,-0.96755 -1.993973,-1.935806 -2.315104,-3.449035 -0.922523,0.41001 -1.163668,0.859591 -1.464658,1.937128 -0.205894,-1.750106 0.388371,-3.429513 1.228423,-4.960938 -0.815374,-0.582409 -1.342158,-1.351465 -2.078869,-2.078869 1.223677,0.71981 2.536848,1.181155 3.96875,1.181176 8.399753,-4.993925 13.806413,-4.295882 18.993302,-0.425223 z"
       style="opacity:1;fill:#ffffff;fill-opacity:1;stroke:none;stroke-width:1.2;stroke-linecap:butt;stroke-linejoin:miter;stroke-miterlimit:4;stroke-dasharray:none;stroke-opacity:1" />
    <path
       sodipodi:nodetypes="cccc"
       inkscape:connector-curvature="0"
       id="path868-9"
       d="M 31.513766,4.4697399 33.171594,0.92059932 36.191219,5.9184807 Z"
       style="fill:#0276b1;fill-opacity:1;stroke:none;stroke-width:1.42187;stroke-linecap:butt;stroke-linejoin:miter;stroke-miterlimit:4;stroke-dasharray:none;stroke-opacity:1" />
    <path
       inkscape:connector-curvature="0"
       id="path845"
       d="m 15.733259,21.365104 c 8.031531,-1.988559 12.40585,-4.181396 18.993303,-0.425223 4.457472,-16.6670615 -22.644325,-7.978795 -21.296268,-1.23851 0.0953,0.476477 1.928934,1.360996 2.302965,1.663733"
       style="fill:#0276b1;fill-opacity:1;stroke:none;stroke-width:0.264583px;stroke-linecap:butt;stroke-linejoin:miter;stroke-opacity:1" />
    <path
       inkscape:connector-curvature="0"
       id="path833-7"
       d="M 12.756695,20.042186 C 18.416439,16.062161 25.70522,12.477728 32.978422,13.285862 32.369584,9.9866232 33.699225,7.6646882 36.19122,6.1988082 29.207101,0.4402425 18.893463,6.8361942 13.370906,11.25424 c -0.378768,2.73809 -0.978309,7.149508 -0.614211,8.787946 z"
       style="fill:#6699cc;fill-opacity:1;stroke:none;stroke-width:1.2;stroke-linecap:butt;stroke-linejoin:miter;stroke-miterlimit:4;stroke-dasharray:none;stroke-opacity:1" />
    <path
       inkscape:connector-curvature="0"
       id="path5043"
       d="M 24.993675,13.852831 C 23.111329,11.112846 22.776665,7.1008422 24.899181,4.5924141 28.443308,3.5516118 32.34615,3.7638575 35.151786,5.8680839 34.290793,8.2025937 31.848954,10.704232 32.978422,13.285862"
       style="fill:#333333;stroke:none;stroke-width:0.264583px;stroke-linecap:butt;stroke-linejoin:miter;stroke-opacity:1" />
    <path
       inkscape:connector-curvature="0"
       id="path5045"
       d="m 32.97842,13.285862 c -1.622684,-1.035005 -4.693573,-0.02406 -6.709075,0.0945"
       style="fill:none;stroke:#000000;stroke-width:0.264583px;stroke-linecap:butt;stroke-linejoin:miter;stroke-opacity:1" />
    <path
       sodipodi:nodetypes="ccsccc"
       inkscape:connector-curvature="0"
       id="path5057"
       d="m 6.1354861,0.8014286 2.416225,12.2009554 c 0,0 4.4513719,9.762022 4.2049839,7.039802 C 11.698277,8.3482626 18.952931,7.8743621 18.952931,7.8743621 L 10.961309,2.4662981 6.1354861,0.8014286"
       style="fill:#0276b1;fill-opacity:1;stroke:none;stroke-width:0.264583px;stroke-linecap:butt;stroke-linejoin:miter;stroke-opacity:1" />
    <path
       inkscape:connector-curvature="0"
       id="path5059"
       d="M 15.537908,8.9384397 C 13.980201,6.756896 10.705056,5.0717367 8.3808294,3.6521391 8.0327779,4.6634621 8.1572432,5.7312218 8.0376818,6.7672806 8.4787557,6.6562752 8.5984797,6.227326 8.8710403,5.9648957 8.9919797,7.3299488 9.1194496,8.5491118 9.7534199,9.6936258 10.049714,9.24812 10.142439,8.5379754 10.341673,7.9944576 c 0.285982,1.3580005 0.172484,2.8610974 0.392168,4.2007214 0.248875,-0.839177 0.348466,-1.693489 0.588254,-2.5015532 1.028074,0.8901012 1.251834,2.2544372 1.715738,3.4455352 0.08118,-1.814112 1.504476,-2.893544 2.500075,-4.2007213 z"
       style="fill:#ffffff;fill-opacity:1;stroke:none;stroke-width:0.509042;stroke-linecap:butt;stroke-linejoin:miter;stroke-miterlimit:4;stroke-dasharray:none;stroke-opacity:1" />
  </g>
  <g
     transform="translate(-0.15841594,-0.15372664)"
     style="display:inline"
     inkscape:label="Re-ink"
     id="layer2"
     inkscape:groupmode="layer">
    <path
       sodipodi:nodetypes="csc"
       inkscape:connector-curvature="0"
       id="path868"
       d="m 31.324776,3.8055155 c 0,0 1.628858,-3.7746833 2.315104,-2.93216171 2.908313,3.57061041 2.551339,5.04512691 2.551339,5.04512691"
       style="fill:none;fill-opacity:1;stroke:#000000;stroke-width:1.2;stroke-linecap:butt;stroke-linejoin:miter;stroke-miterlimit:4;stroke-dasharray:none;stroke-opacity:1" />
    <path
       sodipodi:nodetypes="cccccccsccccccccc"
       inkscape:connector-curvature="0"
       id="path831"
       d="m 34.726562,20.939881 c 1.424506,0.409095 2.905615,0.519717 4.441219,0.519717 -0.631435,0.891699 -1.802841,1.33673 -2.83482,1.795387 0.679627,2.000634 1.918617,4.085351 2.55134,6.236607 -0.196308,-1.69902 -1.726382,-2.566552 -2.976563,-3.449033 -1.289202,1.845105 -2.41318,3.349976 -4.44122,4.110491 -0.02396,-1.807178 -0.561611,-3.490926 -2.102492,-4.464844 -1.266898,0.154353 -2.347681,0.239471 -2.62221,1.063059 -0.342642,1.027925 -0.599606,1.694028 1.30686,2.639638 M 20.457961,29.20811 c 2.922238,-0.08554 0.01367,-4.318062 -2.645833,-3.49628 -1.654478,0.194645 -1.540993,1.586537 -1.417411,3.02381 -1.143466,-0.967549 -1.993973,-1.935805 -2.315104,-3.449033 -0.922523,0.41001 -1.163668,0.859591 -1.464658,1.937128 -0.205894,-1.750106 0.388371,-3.429513 1.228423,-4.960938 -0.815374,-0.582409 -1.342158,-1.351465 -2.078869,-2.078869 1.223677,0.71981 2.536848,1.181155 3.96875,1.181176"
       style="opacity:1;fill:none;fill-opacity:1;stroke:#000000;stroke-width:1.2;stroke-linecap:butt;stroke-linejoin:miter;stroke-miterlimit:4;stroke-dasharray:none;stroke-opacity:1" />
    <path
       inkscape:connector-curvature="0"
       id="path833"
       d="M 12.756696,20.042186 C 18.41644,16.062161 25.705221,12.477728 32.978422,13.285862 32.369584,9.9866232 33.699225,7.6646882 36.19122,6.1988086 29.207102,0.4402425 18.893464,6.8361949 13.370907,11.25424 c -0.378768,2.73809 -0.978309,7.149508 -0.614211,8.787946 z"
       style="fill:none;fill-opacity:1;stroke:#000000;stroke-width:1.2;stroke-linecap:butt;stroke-linejoin:miter;stroke-miterlimit:4;stroke-dasharray:none;stroke-opacity:1" />
    <path
       inkscape:connector-curvature="0"
       id="path852"
       d="m 25.088169,19.569717 c 1.190156,-0.763595 2.367736,-0.865038 3.449032,0 -0.218392,0.862046 -0.809812,1.244368 -1.464656,1.653646 -0.887893,-0.606787 -1.473948,-1.058147 -1.984376,-1.653646 z"
       style="fill:#ff99cc;fill-opacity:1;stroke:none;stroke-width:1;stroke-linecap:butt;stroke-linejoin:miter;stroke-miterlimit:4;stroke-dasharray:none;stroke-opacity:1" />
    <path
       sodipodi:nodetypes="cccccccccc"
       inkscape:connector-curvature="0"
       id="path860"
       d="m 36.191221,6.1988083 c 1.475475,0.093714 2.749367,-0.7672527 3.685267,-1.937128 -0.984779,1.0141105 -1.765835,2.2334628 -2.504093,3.3072918 2.133612,1.7021153 3.912086,3.8270629 5.24442,6.0476189 -0.586645,-1.102272 -1.544523,-1.49074 -2.456845,-1.889881 1.783386,2.334899 2.199066,5.602939 2.785607,8.389009 C 42.57481,18.1 41.656138,15.640345 39.970982,14.797767 c 1.672285,4.035542 -5.032759,5.990928 -5.24442,6.142114 0.232289,-2.788186 -0.103225,-5.882573 -1.74814,-7.654019 -0.337072,-3.356912 1.47948,-6.5602442 3.212799,-7.0870537 z"
       style="fill:#954b02;fill-opacity:1;stroke:#000000;stroke-width:1.2;stroke-linecap:butt;stroke-linejoin:miter;stroke-miterlimit:4;stroke-dasharray:none;stroke-opacity:1" />
    <path
       inkscape:connector-curvature="0"
       id="path870"
       d="M 23.765253,4.4979163 23.623512,2.4662944 26.836309,2.4190474 V 3.836458 Z"
       style="fill:#6699cc;fill-opacity:1;stroke:#000000;stroke-width:0.8;stroke-linecap:butt;stroke-linejoin:miter;stroke-miterlimit:4;stroke-dasharray:none;stroke-opacity:1" />
    <path
       inkscape:connector-curvature="0"
       id="path5047"
       d="M 12.757044,20.045314 C 8.5429472,14.783337 6.1354862,7.5554427 6.1354862,0.80142861 11.351958,1.2722088 15.093613,5.0085232 18.952931,7.8743621"
       style="fill:none;stroke:#000000;stroke-width:1.18376;stroke-linecap:butt;stroke-linejoin:miter;stroke-miterlimit:4;stroke-dasharray:none;stroke-opacity:1" />
  </g>
</svg>
