<?xml version="1.0" encoding="UTF-8" standalone="no"?>
<svg
   width="79"
   height="79"
   viewBox="0 0 79 79"
   version="1.1"
   xml:space="preserve"
   style="clip-rule:evenodd;fill-rule:evenodd"
   id="svg1"
   sodipodi:docname="blue_camo_jeans.svg"
   inkscape:version="1.3.2 (091e20e, 2023-11-25)"
   xmlns:inkscape="http://www.inkscape.org/namespaces/inkscape"
   xmlns:sodipodi="http://sodipodi.sourceforge.net/DTD/sodipodi-0.dtd"
   xmlns="http://www.w3.org/2000/svg"
   xmlns:svg="http://www.w3.org/2000/svg"
   xmlns:rdf="http://www.w3.org/1999/02/22-rdf-syntax-ns#"
   xmlns:cc="http://creativecommons.org/ns#"><defs
   id="defs1" /><sodipodi:namedview
   id="namedview1"
   pagecolor="#ffffff"
   bordercolor="#000000"
   borderopacity="0.25"
   inkscape:showpageshadow="2"
   inkscape:pageopacity="0.0"
   inkscape:pagecheckerboard="0"
   inkscape:deskcolor="#d1d1d1"
   inkscape:zoom="8.5773196"
   inkscape:cx="48.616586"
   inkscape:cy="33.984976"
   inkscape:window-width="1392"
   inkscape:window-height="1184"
   inkscape:window-x="559"
   inkscape:window-y="25"
   inkscape:window-maximized="0"
   inkscape:current-layer="Re-ink" />
    <g
   id="Re-ink"
   transform="translate(3.786409,0.56047467)">
        <path
   id="path2567"
   d="M -1.662,72.921 C 14.964,51.595 22.307,3.585 24.463,3.364 c 8.944,-0.915 32.536,0.84 45.894,-2.496 5.266,-1.315 2.188,44.986 1.391,69.618 -0.292,9.044 -29.244,10.839 -27.199,2.023 2.572,-11.095 2.94,-35.083 2.94,-35.083 0,0 -10.984058,23.744423 -19.51,37.378 -1.16,4.297 -35.825,6.049 -29.641,-1.883 z"
   style="fill:#003366;fill-rule:nonzero;stroke:#000000;stroke-width:2.83px"
   sodipodi:nodetypes="cccccccc" />
        <path
   id="path2616"
   d="m 18.906,29.424 c 1.574,0.981 -0.127,4.068 0.752,5.481 1.091,1.754 6.109,0.044 7.13,1.685 5.142,8.264 -7.943,8.577 -12.119,6.162"
   style="fill:#cccccc;fill-rule:nonzero" />
        <path
   id="path2614"
   d="m 41.642,42.972 c -3.576,1.957 -6.959,-0.677 -10.466,-0.14 -2.871,0.44 -0.236,10.702 4.928,7.408"
   style="fill:#cccccc;fill-rule:nonzero" />
        <path
   id="path2571"
   d="m 47.503,37.223 c 0,0 3.472,-5.723 3.993,-10.888 C 52.017,21.171 50.87,6.651 50.87,6.651"
   style="fill:none;fill-rule:nonzero;stroke:#000000;stroke-width:2.27px" />
        <path
   id="path2573"
   d="M 51.561,24.992 55.018,6.658"
   style="fill:none;fill-rule:nonzero;stroke:#000000;stroke-width:2.27px" />
        <path
   id="path2612"
   d="m 23.168,21.22 c -3.272,17.508 27.394,18.306 16.26,2.762 -2.055,-2.869 -3.555,-4.997 -6.801,-5.863"
   style="fill:#cccccc;fill-rule:nonzero" />
        <path
   id="path2622"
   d="m 12.345,47.392 c 5.403,-0.812 4.277,2.918 7.056,6.209 1.404,1.664 4.702,0.957 5.855,2.128 0.337,0.342 0.177,2.852 -0.025,3.314 -3.369,7.7 -12.079,2.075 -16.941,-1.454"
   style="fill:#cccccc;fill-rule:nonzero" />
        <path
   id="path2569"
   d="m 19.55,20.819 c 0,0 9.717,0.303 12.274,-2.566 2.558,-2.869 1.264,-10.84 1.264,-10.84 L 24.098,7.18 Z"
   style="fill:#333333;fill-rule:nonzero;stroke:#000000;stroke-width:1.42px" />
        <path
   id="path2579"
   d="M 24.098,7.18 50.721,7.255 71.636,5.075"
   style="fill:none;fill-rule:nonzero;stroke:#000000;stroke-width:1.42px" />
        <path
   id="path2598"
   d="m 45.057,27.221 c 2.911,-2.393 8.406,-4.049 11.945,-2.019"
   style="fill:none;fill-rule:nonzero;stroke:#000000;stroke-width:0.85px" />
        <path
   id="path2600"
   d="m 47.762,29.546 c -3.673,1.365 -6.749,3.66 -10.147,5.34"
   style="fill:none;fill-rule:nonzero;stroke:#000000;stroke-width:0.85px" />
        <path
   id="path2602"
   d="m 54.522,27.251 c 0.132,3.617 1.803,7.247 2.662,10.573"
   style="fill:none;fill-rule:nonzero;stroke:#000000;stroke-width:0.85px" />
        <path
   id="path2610"
   d="m 52.458,33.969 c 0.504,1.103 0.249,2.448 0.182,3.708"
   style="fill:none;fill-rule:nonzero;stroke:#000000;stroke-width:0.85px" />
        <path
   id="path2618"
   d="m 71.861,15.086 c -1.719,-0.16 -5.573,0.024 -6.457,1.933 -1.508,3.256 0.892,5.232 1.962,7.691 2.524,5.8 -9.033,15.339 4.306,15.308"
   style="fill:#cccccc;fill-rule:nonzero" />
        <path
   id="path2620"
   d="m 48.563,46.565 c 3.637,-0.364 6.789,-0.538 9.591,1.553 1.467,1.096 8.096,3.798 9.803,2.893 1.055,-0.559 2.985,-3.217 2.953,-2.024 -0.342,12.864 1.899,8.097 -13.915,4.855 -3.09,-0.634 -7.55,3.685 -8.591,1.06 0,0 -0.469,-5.63 0.159,-8.337 z"
   style="fill:#cccccc;fill-rule:nonzero" />
        <path
   id="path2630"
   d="m 5.247,65.058 c 14.607,6.537 0.747,14.84 -5.023,8.058"
   style="fill:#cccccc;fill-rule:nonzero" />
        <path
   id="path2624"
   d="m 0.326,72.638 c 6.948,1.147 12.594,0.557 18.93,-1.079"
   style="fill:none;fill-rule:nonzero;stroke:#000000;stroke-width:0.85px" />
        <path
   id="path2632"
   d="M 70.266,70.006 C 56.179,61.261 55.609,65.928 53.219,76.686 59.684,78.01 69.256,75.88 70.266,70.006 Z"
   style="fill:#cccccc;fill-rule:nonzero" />
        <path
   id="path2626"
   d="m 48.707,72.368 c 6.809,1.281 13.306,2.908 19.224,-1.253"
   style="fill:none;fill-rule:nonzero;stroke:#000000;stroke-width:0.85px" />
        <g
   id="g2657"
   transform="rotate(3.0465618,90.878122,-50.668814)">
            <path
   id="path2604"
   d="m 53.856,9.307 c -0.136,4.407 -1.594,8.23 -4.138,11.622"
   style="fill:none;fill-rule:nonzero;stroke:#000000;stroke-width:0.75px" />
            <ellipse
   id="path2634"
   cx="49.528999"
   cy="20.881001"
   rx="0.70999998"
   ry="0.80500001" />
        </g>
        <g
   id="g2653"
   transform="rotate(3.0465618,90.878122,-50.668814)">
            <path
   id="path2606"
   d="m 58.115,8.483 c 1.593,3.189 3.072,6.817 5.241,9.605"
   style="fill:none;fill-rule:nonzero;stroke:#000000;stroke-width:0.75px" />
            <ellipse
   id="path2634-8"
   cx="63.403"
   cy="18.087999"
   rx="0.70999998"
   ry="0.80500001" />
        </g>
    </g>
<metadata
   id="metadata1"><rdf:RDF><cc:Work
       rdf:about=""><cc:license
         rdf:resource="http://creativecommons.org/publicdomain/zero/1.0/" /></cc:Work><cc:License
       rdf:about="http://creativecommons.org/publicdomain/zero/1.0/"><cc:permits
         rdf:resource="http://creativecommons.org/ns#Reproduction" /><cc:permits
         rdf:resource="http://creativecommons.org/ns#Distribution" /><cc:permits
         rdf:resource="http://creativecommons.org/ns#DerivativeWorks" /></cc:License></rdf:RDF></metadata></svg>
