<?xml version="1.0" encoding="UTF-8" standalone="no"?>
<svg
   xmlns:dc="http://purl.org/dc/elements/1.1/"
   xmlns:cc="http://creativecommons.org/ns#"
   xmlns:rdf="http://www.w3.org/1999/02/22-rdf-syntax-ns#"
   xmlns:svg="http://www.w3.org/2000/svg"
   xmlns="http://www.w3.org/2000/svg"
   xmlns:sodipodi="http://sodipodi.sourceforge.net/DTD/sodipodi-0.dtd"
   xmlns:inkscape="http://www.inkscape.org/namespaces/inkscape"
   inkscape:version="1.0 (4035a4fb49, 2020-05-01)"
   sodipodi:docname="fundosi.svg"
   viewBox="0 0 110.95358 129.13097"
   height="129.13097"
   width="110.95358"
   id="svg1568"
   version="1.1">
  <metadata
     id="metadata1574">
    <rdf:RDF>
      <cc:Work
         rdf:about="">
        <dc:format>image/svg+xml</dc:format>
        <dc:type
           rdf:resource="http://purl.org/dc/dcmitype/StillImage" />
        <dc:title></dc:title>
      </cc:Work>
    </rdf:RDF>
  </metadata>
  <defs
     id="defs1572" />
  <sodipodi:namedview
     inkscape:document-rotation="0"
     fit-margin-bottom="0"
     fit-margin-right="0"
     fit-margin-left="0"
     fit-margin-top="0"
     inkscape:current-layer="layer3"
     inkscape:window-maximized="1"
     inkscape:window-y="-9"
     inkscape:window-x="-9"
     inkscape:cy="21.411065"
     inkscape:cx="78.237963"
     inkscape:zoom="11.9198"
     inkscape:pagecheckerboard="true"
     showgrid="false"
     id="namedview1570"
     inkscape:window-height="1001"
     inkscape:window-width="1920"
     inkscape:pageshadow="2"
     inkscape:pageopacity="0"
     guidetolerance="10"
     gridtolerance="10"
     objecttolerance="10"
     borderopacity="1"
     bordercolor="#666666"
     pagecolor="#ffffff" />
  <g
     transform="translate(1.1973547,-7.5003284)"
     sodipodi:insensitive="true"
     inkscape:label="Base"
     id="layer2"
     inkscape:groupmode="layer">
    <g
       transform="matrix(3.7795276,0,0,3.7795276,-1.1973547,2.4649935)"
       id="g4521">
      <g
         style="display:inline"
         transform="translate(-81.705925,-154.45556)"
         id="layer1"
         inkscape:label="Layer 1" />
      <g
         transform="translate(-5.1279453,-51.149461)"
         inkscape:label="Color"
         id="layer3-6">
        <path
           sodipodi:nodetypes="cccccccc"
           inkscape:connector-curvature="0"
           id="path831-5"
           d="m 31.277528,52.54814 c 0.123737,9.510183 1.595727,14.061304 0.897694,24.75744 5.989076,7.622458 -5.466142,9.257207 -8.457219,1.795388 0,-4.946536 0.06144,-10.808711 0.04725,-15.73326 -3.051778,4.577667 -6.271659,11.54185 -7.843006,17.103423 6.066786,9.10018 -9.274496,5.51039 -10.15811,0.18899 5.089364,-6.263833 7.053048,-18.83034 9.506101,-26.36384 5.531825,-0.758534 10.854887,-0.961768 16.00729,-1.748141 z"
           style="opacity:1;fill:#ffffff;fill-opacity:1;stroke:none;stroke-width:1.2;stroke-linecap:butt;stroke-linejoin:miter;stroke-miterlimit:4;stroke-dasharray:none;stroke-opacity:1" />
        <path
           sodipodi:nodetypes="zczczzcczscz"
           inkscape:connector-curvature="0"
           id="path857"
           d="m 15.270238,54.296281 c -0.52762,2.533268 6.446629,6.5124 8.920238,7.984749 4.741466,-1.55146 7.056167,-4.214834 7.606771,-7.654018 0.550604,-3.439184 0.377976,22.678568 0.377976,22.678568 0,0 2.67882,4.233216 0.566965,5.76414 -2.111855,1.530924 -7.638158,-0.210531 -9.024185,-3.968752 -1.386027,-3.758221 0.472473,-16.819938 0.472473,-16.819938 l -8.268229,18.1901 c 0,0 2.807966,4.177084 0.330729,5.764141 -2.477237,1.587057 -11.6490399,-3.641913 -10.488839,-5.57515 2.8840394,-4.80566 7.654018,-18.520832 7.654018,-18.520832 0,0 2.379703,-10.376276 1.852083,-7.843008 z"
           style="fill:#0276b1;fill-opacity:1;stroke:none;stroke-width:0.264583px;stroke-linecap:butt;stroke-linejoin:miter;stroke-opacity:1" />
      </g>
      <g
         transform="translate(-5.1279453,-51.149461)"
         style="display:inline"
         inkscape:label="Re-ink"
         id="layer2-9">
        <path
           sodipodi:nodetypes="ccccccc"
           inkscape:connector-curvature="0"
           id="path831"
           d="m 31.277528,52.54814 c 1.05918,9.510183 1.595725,14.061303 0.897695,24.75744 5.989074,7.622458 -5.466143,9.257205 -8.45722,1.795387 0,-4.946535 0.06144,-10.808709 0.04725,-15.733259 -3.051778,4.577668 -6.271659,11.541849 -7.843006,17.103422 6.066786,9.10018 -9.2744956,5.510391 -10.1581101,0.188989 C 10.853501,74.396286 12.817185,61.82978 15.270238,54.296281"
           style="opacity:1;fill:none;fill-opacity:1;stroke:#000000;stroke-width:1.2;stroke-linecap:butt;stroke-linejoin:miter;stroke-miterlimit:4;stroke-dasharray:none;stroke-opacity:1" />
      </g>
    </g>
  </g>
  <g
     transform="translate(1.1973547,-7.5003284)"
     inkscape:label="Color"
     id="layer4"
     inkscape:groupmode="layer">
    <path
       sodipodi:nodetypes="cccccc"
       inkscape:connector-curvature="0"
       id="path5859"
       d="M 55.95731,16.444706 67.95416,43.794158 C 80.013679,37.232834 84.637888,32.21308 89.598819,15.689659 l 0.41947,-1.090622 -14.429772,3.020185 -19.631207,-1.174516"
       style="fill:#005500;stroke:none;stroke-width:1px;stroke-linecap:butt;stroke-linejoin:miter;stroke-opacity:1" />
  </g>
  <g
     transform="translate(198.94311,97.381032)"
     inkscape:label="Re-ink"
     id="layer3"
     inkscape:groupmode="layer">
    <path
       sodipodi:nodetypes="cac"
       inkscape:connector-curvature="0"
       id="path2137"
       d="m -162.51027,-90.450111 c 0,0 25.48378,3.852316 38.25568,3.104079 9.08292,-0.532119 26.762192,-5.369218 26.762192,-5.369218"
       style="fill:none;stroke:#000000;stroke-width:2;stroke-linecap:butt;stroke-linejoin:miter;stroke-miterlimit:4;stroke-dasharray:none;stroke-opacity:1" />
    <path
       sodipodi:nodetypes="ccc"
       inkscape:connector-curvature="0"
       id="path2139"
       d="m -106.63685,-90.617899 c -7.98941,19.930049 -12.63986,23.196015 -22.3997,29.111227 -2.73984,0.292841 -12.7519,-26.929982 -12.7519,-26.929982"
       style="fill:none;stroke:#000000;stroke-width:2;stroke-linecap:butt;stroke-linejoin:miter;stroke-miterlimit:4;stroke-dasharray:none;stroke-opacity:1" />
    <path
       inkscape:connector-curvature="0"
       id="path2145"
       d="m -131.38559,-64.610751 0.75505,8.808872 4.86585,-7.71825 -3.27186,2.013457 z"
       style="fill:#000000;fill-opacity:1;stroke:none;stroke-width:1px;stroke-linecap:butt;stroke-linejoin:miter;stroke-opacity:1" />
  </g>
</svg>
