<?xml version="1.0" encoding="UTF-8" standalone="no"?>
<!DOCTYPE svg PUBLIC "-//W3C//DTD SVG 1.1//EN" "http://www.w3.org/Graphics/SVG/1.1/DTD/svg11.dtd">
<svg width="100%" height="100%" viewBox="0 0 111 125" version="1.1" xmlns="http://www.w3.org/2000/svg" xmlns:xlink="http://www.w3.org/1999/xlink" xml:space="preserve" xmlns:serif="http://www.serif.com/" style="fill-rule:evenodd;clip-rule:evenodd;stroke-linejoin:round;stroke-miterlimit:2;">
    <g id="g6791" transform="matrix(1,0,0,1,-27.2834,-59.4719)">
        <g id="Re-ink">
            <g id="g67911" serif:id="g6791">
                <path id="path6430" d="M59.438,65.305C58.759,68.687 53.833,88.455 55.159,92.402C56.485,96.35 85.445,95.04 100.63,95.171C112.833,95.276 137.003,98.246 137.207,93.577C137.496,86.96 135.301,74.215 138.046,65.137C139.341,60.856 114.4,66.661 102.559,66.731C88.178,66.816 60.116,61.923 59.438,65.305Z" style="fill-rule:nonzero;"/>
                <g id="text6445" transform="matrix(0.380882,0,0,0.391765,47.847,54.9812)">
                    <path id="path6447" d="M96.914,83.107C93.242,83.107 90.13,82.007 87.578,79.806C84.87,77.463 83.516,74.442 83.516,70.744C83.516,66.239 84.85,62.144 87.52,58.459C90.501,54.37 94.219,52.326 98.672,52.326C102.956,52.326 106.139,53.289 108.223,55.216C110.397,57.222 111.484,60.386 111.484,64.709C111.484,69.214 110.26,73.276 107.813,76.896C105,81.037 101.367,83.107 96.914,83.107ZM98.672,56.33C95.482,56.33 92.78,57.918 90.566,61.095C88.522,64.012 87.5,67.228 87.5,70.744C87.5,73.257 88.431,75.301 90.293,76.877C92.077,78.361 94.284,79.103 96.914,79.103C100.078,79.103 102.689,77.508 104.746,74.318C106.582,71.466 107.5,68.263 107.5,64.709C107.5,61.597 106.803,59.409 105.41,58.146C104.082,56.935 101.836,56.33 98.672,56.33Z" style="fill:white;fill-rule:nonzero;"/>
                    <path id="path6449" d="M139.297,64.435C138.281,68.68 136.953,73.478 135.313,78.83C134.948,80.015 134.343,81.232 133.496,82.482C133.04,83.172 132.422,83.511 131.641,83.498C130.221,83.472 129.115,81.707 128.32,78.205C128.06,77.085 127.793,75.562 127.52,73.634L126.875,69.279L125.273,73.009L122.305,81.076C122.135,81.571 121.888,81.948 121.563,82.209C121.172,82.964 120.547,83.355 119.688,83.381C118.698,83.42 117.741,81.48 116.816,77.56C116.348,75.542 115.879,72.808 115.41,69.357L114.941,66.427C114.772,65.256 114.688,64.272 114.688,63.478C114.688,62.931 114.876,62.482 115.254,62.131C115.645,61.766 116.113,61.584 116.66,61.584C117.65,61.584 118.262,62.124 118.496,63.205C118.665,63.973 118.802,64.924 118.906,66.056L119.199,68.927L120.352,77.697C121.797,73.687 123.294,69.064 124.844,63.83C125.273,62.384 126.022,61.662 127.09,61.662C128.119,61.662 128.815,62.469 129.18,64.084C129.518,65.607 129.941,67.951 130.449,71.115C130.97,74.396 131.432,76.955 131.836,78.791L133.262,73.478L135.781,62.834C135.977,62.039 136.537,61.642 137.461,61.642C138.008,61.642 138.483,61.831 138.887,62.209C139.29,62.573 139.492,63.016 139.492,63.537C139.492,63.602 139.427,63.901 139.297,64.435Z" style="fill:white;fill-rule:nonzero;"/>
                    <path id="path6451" d="M156.211,83.107C152.539,83.107 149.427,82.007 146.875,79.806C144.167,77.463 142.813,74.442 142.813,70.744C142.813,66.239 144.147,62.144 146.816,58.459C149.798,54.37 153.516,52.326 157.969,52.326C162.253,52.326 165.436,53.289 167.52,55.216C169.694,57.222 170.781,60.386 170.781,64.709C170.781,69.214 169.557,73.276 167.109,76.896C164.297,81.037 160.664,83.107 156.211,83.107ZM157.969,56.33C154.779,56.33 152.077,57.918 149.863,61.095C147.819,64.012 146.797,67.228 146.797,70.744C146.797,73.257 147.728,75.301 149.59,76.877C151.374,78.361 153.581,79.103 156.211,79.103C159.375,79.103 161.986,77.508 164.043,74.318C165.879,71.466 166.797,68.263 166.797,64.709C166.797,61.597 166.1,59.409 164.707,58.146C163.379,56.935 161.133,56.33 157.969,56.33Z" style="fill:white;fill-rule:nonzero;"/>
                </g>
            </g>
        </g>
    </g>
</svg>
