<?xml version="1.0" encoding="UTF-8" standalone="no"?>
<!DOCTYPE svg PUBLIC "-//W3C//DTD SVG 1.1//EN" "http://www.w3.org/Graphics/SVG/1.1/DTD/svg11.dtd">
<svg width="100%" height="100%" viewBox="0 0 96 113" version="1.1" xmlns="http://www.w3.org/2000/svg" xmlns:xlink="http://www.w3.org/1999/xlink" xml:space="preserve" xmlns:serif="http://www.serif.com/" style="fill-rule:evenodd;clip-rule:evenodd;">
    <g id="Re-Ink" transform="matrix(1,0,0,1,6.00287,-0.639181)">
        <path id="path864" d="M13.907,13.884C10.907,15.786 11.772,70.957 11.772,70.957C10.239,85.673 20.763,81.555 24.051,88.467C23.668,99.526 17.216,104.635 19.882,105.378C46.831,112.889 72.254,109.127 76.314,108.457C80.294,107.8 79.64,95.586 80.865,91.416C90.921,82.081 87.629,62.903 86.675,48.474C86.153,40.658 83.971,25.132 83.971,25.132C83.971,25.132 80.143,6.246 74.529,5.394C55.615,2.523 69.284,22.333 54.158,20.928C35.935,19.237 43.868,1.893 37.877,2.54C25.55,3.872 16.908,11.982 13.907,13.884Z" style="fill:rgb(0,51,255);fill-rule:nonzero;stroke:black;stroke-width:3.78px;"/>
        <path id="path870" d="M27.752,30.119L24.051,88.467" style="fill:none;fill-rule:nonzero;stroke:black;stroke-width:2.16px;"/>
        <path id="path872" d="M75.858,31.594L79.422,92.638" style="fill:none;fill-rule:nonzero;stroke:black;stroke-width:2.32px;"/>
        <g id="path953" transform="matrix(0.489307,0.724774,-0.705285,0.47615,57.3716,-29.1375)">
            <path d="M70.564,39.177L61.782,42.987L55.444,35.812L60.31,27.567L69.655,29.647L70.564,39.177Z" style="fill:rgb(102,0,128);fill-rule:nonzero;"/>
        </g>
        <g id="g945" transform="matrix(0.292893,0,0,0.292893,71.4208,27.7737)">
            <path id="path881" d="M-41.625,44.095L-9.625,44.095L-20.625,27.095L-30.625,27.095L-41.625,44.095Z" style="fill:rgb(167,169,172);fill-rule:nonzero;"/>
            <path id="path883" d="M-38.625,44.095L-12.625,44.095L-22.625,27.095L-28.625,27.095L-38.625,44.095Z" style="fill:rgb(88,89,91);fill-rule:nonzero;"/>
            <path id="path885" d="M-35.625,44.095L-15.625,44.095L-24.625,27.095L-26.625,27.095L-35.625,44.095Z" style="fill:rgb(128,130,133);fill-rule:nonzero;"/>
            <path id="path887" d="M-15.625,43.095C-15.625,43.644 -16.076,44.095 -16.625,44.095L-34.625,44.095C-35.174,44.095 -35.625,43.644 -35.625,43.095C-35.625,42.546 -35.174,42.095 -34.625,42.095L-16.625,42.095C-16.076,42.095 -15.625,42.546 -15.625,43.095ZM-17.625,39.095C-17.625,39.644 -18.076,40.095 -18.625,40.095L-32.625,40.095C-33.174,40.095 -33.625,39.644 -33.625,39.095C-33.625,38.546 -33.174,38.095 -32.625,38.095L-18.625,38.095C-18.076,38.095 -17.625,38.546 -17.625,39.095Z" style="fill:rgb(167,169,172);fill-rule:nonzero;"/>
            <path id="path889" d="M-16.549,33.395L-20.625,27.095L-30.625,27.095L-34.701,33.395C-32.812,35.912 -29.903,38.094 -25.625,38.094C-21.348,38.094 -18.437,35.911 -16.549,33.395Z" style="fill:rgb(88,89,91);fill-rule:nonzero;"/>
            <path id="path891" d="M-25.625,8.095C-34.625,8.095 -37.625,11.095 -37.625,17.095L-37.625,25.095C-37.625,27.094 -34.625,36.095 -25.625,36.095C-16.625,36.095 -13.625,27.094 -13.625,25.095L-13.625,17.095C-13.625,11.095 -16.625,8.095 -25.625,8.095Z" style="fill:rgb(167,169,172);fill-rule:nonzero;"/>
            <path id="path893" d="M-35.625,19.095C-35.625,10.095 -31.148,9.095 -25.625,9.095C-20.102,9.095 -15.625,10.095 -15.625,19.095C-15.625,25.095 -20.102,30.095 -25.625,30.095C-31.148,30.094 -35.625,25.095 -35.625,19.095Z" style="fill:rgb(230,231,232);fill-rule:nonzero;"/>
            <path id="path895" d="M-25.625,30.094C-23.983,30.094 -22.44,29.644 -21.072,28.866C-21.855,27.824 -23.595,27.095 -25.625,27.095C-27.655,27.095 -29.394,27.824 -30.177,28.867C-28.811,29.644 -27.266,30.094 -25.625,30.094Z" style="fill:rgb(255,172,51);fill-rule:nonzero;"/>
            <path id="path897" d="M-24.625,13.092L-24.625,18.057C-21.137,17.825 -18.625,16.436 -18.625,15.594L-18.625,13.928C-18.625,13.137 -22.317,13.09 -24.625,13.092ZM-26.625,13.092C-28.933,13.09 -32.625,13.136 -32.625,13.928L-32.625,15.595C-32.625,16.437 -30.113,17.826 -26.625,18.058L-26.625,13.092Z" style="fill:rgb(85,172,238);fill-rule:nonzero;"/>
            <path id="path899" d="M-37.625,18.095C-37.625,18.095 -37.625,21.095 -33.625,27.095C-33.625,27.095 -37.625,25.095 -37.625,21.095L-37.625,18.095ZM-13.625,18.095C-13.625,18.095 -13.625,21.095 -17.625,27.095C-17.625,27.095 -13.625,25.095 -13.625,21.095L-13.625,18.095Z" style="fill:rgb(34,102,153);fill-rule:nonzero;"/>
        </g>
        <path id="path961" d="M30.06,108.771C35.775,103.334 34.038,94.484 33.949,89.326C44.257,86.771 57.063,88.27 67.006,87.204C70.059,94.213 70.035,102.366 70.541,109.832" style="fill:none;fill-rule:nonzero;stroke:black;stroke-width:1px;"/>
    </g>
</svg>
