<?xml version="1.0" encoding="UTF-8" standalone="no"?>
<!-- Created with Inkscape (http://www.inkscape.org/) -->

<svg
   xmlns:dc="http://purl.org/dc/elements/1.1/"
   xmlns:cc="http://creativecommons.org/ns#"
   xmlns:rdf="http://www.w3.org/1999/02/22-rdf-syntax-ns#"
   xmlns:svg="http://www.w3.org/2000/svg"
   xmlns="http://www.w3.org/2000/svg"
   xmlns:sodipodi="http://sodipodi.sourceforge.net/DTD/sodipodi-0.dtd"
   xmlns:inkscape="http://www.inkscape.org/namespaces/inkscape"
   version="1.1"
   id="svg3384"
   width="147.76741"
   height="162.31744"
   viewBox="0 0 147.76741 162.31745"
   sodipodi:docname="icrazy_frame.svg"
   inkscape:version="0.92.3 (2405546, 2018-03-11)">
  <metadata
     id="metadata3390">
    <rdf:RDF>
      <cc:Work
         rdf:about="">
        <dc:format>image/svg+xml</dc:format>
        <dc:type
           rdf:resource="http://purl.org/dc/dcmitype/StillImage" />
        <dc:title></dc:title>
      </cc:Work>
    </rdf:RDF>
  </metadata>
  <defs
     id="defs3388" />
  <sodipodi:namedview
     pagecolor="#ffffff"
     bordercolor="#666666"
     borderopacity="1"
     objecttolerance="10"
     gridtolerance="10"
     guidetolerance="10"
     inkscape:pageopacity="0"
     inkscape:pageshadow="2"
     inkscape:window-width="1920"
     inkscape:window-height="1001"
     id="namedview3386"
     showgrid="false"
     fit-margin-top="0"
     fit-margin-left="0"
     fit-margin-right="0"
     fit-margin-bottom="0"
     inkscape:zoom="2.8780488"
     inkscape:cx="83.221823"
     inkscape:cy="106.26122"
     inkscape:window-x="-9"
     inkscape:window-y="-9"
     inkscape:window-maximized="1"
     inkscape:current-layer="layer7"
     inkscape:pagecheckerboard="true"
     inkscape:measure-start="0,0"
     inkscape:measure-end="0,0" />
  <g
     inkscape:groupmode="layer"
     id="layer6"
     inkscape:label="Original"
     transform="translate(129.69725,29.222815)"
     style="display:inline"
     sodipodi:insensitive="true" />
  <g
     inkscape:groupmode="layer"
     id="layer7"
     inkscape:label="Re-ink"
     transform="translate(0.49386922,-1.3534553)"
     style="display:inline">
    <path
       style="fill:#999999;fill-opacity:1;stroke:none;stroke-width:1px;stroke-linecap:butt;stroke-linejoin:miter;stroke-opacity:1"
       d="m 11.301724,1.3534553 44.961205,0.737069 36.362067,1.4741378 c 0,0 32.971984,0.2949943 41.767244,0.9827586 8.79526,0.6877643 8.15433,-0.8426806 11.05603,1.4741379 2.9017,2.3168185 1.47414,53.8060324 1.47414,53.8060324 l -2.4569,32.431033 0.49138,44.715516 c 0,0 4.94211,25.65709 -4.43512,24.68731 -13.32684,-1.37824 -54.284705,1.35579 -54.284705,1.35579 0,0 -41.468389,0.84824 -62.15948,-0.24569 -8.056286,-0.42593 -15.8525898,3.62213 -20.9504664,-2.63062 -3.58910849,-4.40218 -1.4072911,-16.77886 -1.4072911,-16.77886 0,0 -2.29969955,-32.08678 -2.21120679,-48.15517 C -0.42000286,82.246466 1.7198275,56.387936 1.7198275,56.387936 L 1.9655172,43.120695 c 0,0 3.1628142,-22.438417 0.4913792,-33.1681021 C 2.0052672,8.1386466 -0.61084691,6.8721113 -0.24568964,5.0388 0.06161864,3.4959257 3.439655,2.0905243 3.439655,2.0905243 Z"
       id="path3994"
       inkscape:connector-curvature="0"
       sodipodi:nodetypes="ccczzcccscsscsccsscc" />
    <path
       style="fill:#0276b1;fill-opacity:1;stroke:none;stroke-width:1px;stroke-linecap:butt;stroke-linejoin:miter;stroke-opacity:1"
       d="M 8.3534479,7.7413861 C 18.56337,5.8017989 50.898555,8.480147 72.969824,8.9698343 95.041093,9.4595216 132.45394,6.8477796 140.78017,10.689662 c 5.75251,2.654315 0.25564,57.286498 0.24569,81.568962 -0.01,24.282466 -0.24569,64.124996 -0.24569,64.124996 L 96.064651,156.62931 8.1077583,155.40086 7.616379,125.42673 c 0,0 -2.9314718,-25.696211 -2.4568965,-36.607761 C 5.6340578,77.907419 6.2641653,73.68849 7.1496927,60.145241 8.0352201,46.601992 4.4459127,8.4837037 8.3534479,7.7413861 Z"
       id="path3992"
       inkscape:connector-curvature="0"
       sodipodi:nodetypes="szszcccczzs" />
    <path
       style="fill:#ffffff;stroke:none;stroke-width:1px;stroke-linecap:butt;stroke-linejoin:miter;stroke-opacity:1"
       d="M 15.809322,91.902542 V 79.394068 l 14.072034,0.347457 0.173729,13.550848 z"
       id="path3958"
       inkscape:connector-curvature="0" />
    <ellipse
       style="display:inline;opacity:1;fill:#999999;fill-opacity:1;stroke:none;stroke-width:9.44881916;stroke-miterlimit:4;stroke-dasharray:none;stroke-opacity:1"
       id="path3968"
       cx="22.454454"
       cy="94.204453"
       rx="5.2987289"
       ry="4.9078388" />
    <path
       style="opacity:1;fill:#000000;fill-opacity:1;stroke:none;stroke-width:1px;stroke-linecap:butt;stroke-linejoin:miter;stroke-opacity:1"
       d="m 61.847458,78.351695 c 0,0 -3.051049,1.987729 -5.472457,0.60805 -2.421409,-1.379679 -3.254694,-0.280655 -1.129238,1.824153 2.315684,2.293189 5.385593,3.648305 5.385593,3.648305 0,0 -3.490517,3.204062 -7.470339,2.779661 -0.521438,-0.0556 -0.633271,1.310954 -0.173729,1.56356 6.476332,3.559984 14.810337,5.470006 16.504237,4.864406 2.674165,-0.956063 -2.432203,8.16525 -2.432203,8.16525 0,0 -28.589685,-7.878727 -33.008475,-8.860165 -4.418789,-0.981439 -3.995762,0.347458 -3.995762,0.347458 0,0 -10.266001,-1.247801 -14.245763,-1.389831 -1.447738,-0.05167 -1.253908,5.116759 -0.521186,6.949153 0.501949,1.255275 3.995762,0.694915 3.995762,0.694915 0,0 -3.109478,0.395167 -3.127118,1.04238 -0.06208,2.27788 -2.713698,5.34484 -0.694916,5.55932 6.641733,0.70563 8.514971,2.1381 12.855933,2.08474 1.885257,-0.0232 3.680678,-1.20183 5.559322,-1.04237 6.645519,0.56409 18.762712,6.94915 18.762712,6.94915 l 11.466101,5.90678 c 0,0 0.0014,13.93423 -0.868644,19.97881 -0.870001,6.04458 -3.965052,16.12607 -3.965052,16.12607 l 64.320914,0.31752 c 0,0 -2.97708,-20.85855 -6.3262,-30.51562 -1.93476,-5.57882 -3.78174,-11.66876 -7.99153,-15.80932 -1.51414,-1.48925 -4.57113,-1.0019 -5.73305,-2.77966 -1.64869,-2.52253 -0.34745,-9.033902 -0.34745,-9.033902 0,0 9.68637,1.238732 14.41949,5.385592 -1.29848,-4.854844 -1.98903,-5.319588 -4.16949,-7.12288 0,0 13.5973,-0.682647 7.12288,-2.605932 -4.72852,-1.40465 -4.51695,-5.90678 -4.51695,-5.90678 l 1.73729,-6.254237 1.73728,-20.673729 c 0,0 8.15905,-15.217873 14.4195,-20.326271 2.08141,-1.698387 0.10771,-5.563752 -1.04238,-7.991525 -0.57877,-1.221758 -1.5503,-3.515827 -2.77966,-2.95339 -7.35742,3.366039 -24.84322,7.817796 -24.84322,7.817796 L 83.911017,29.186441 71.402542,31.271186 c 0,0 -22.776586,-9.00545 -32.661017,-11.466101 -1.745652,-0.434566 -2.456918,1.759744 -2.953389,4.516949 -0.496472,2.757205 -1.246729,8.517581 0.78178,9.641949 9.505473,5.26872 13.290254,19.71822 13.290254,19.71822 0,0 -8.18426,14.419763 -15.114407,17.199153 -1.757324,0.704789 3.318556,2.241149 5.211864,2.258474 4.258442,0.03897 11.813559,-4.864406 11.813559,-4.864406 0,0 -7.20241,9.539495 -7.644067,10.076271 -5.219329,6.343399 3.474576,1.563559 3.474576,1.563559 l 11.63983,-4.34322 z"
       id="path3954"
       inkscape:connector-curvature="0"
       sodipodi:nodetypes="czscsssczcsscsssscczccssscccscccssscccszscsscsccc" />
    <path
       style="fill:#1e1e1e;fill-opacity:1;stroke:none;stroke-width:1px;stroke-linecap:butt;stroke-linejoin:miter;stroke-opacity:1"
       d="m 83.216102,79.220339 6.427966,1.911017 -3.300848,3.474576 z"
       id="path3956"
       inkscape:connector-curvature="0" />
    <path
       style="fill:#1e1e1e;fill-opacity:1;stroke:none;stroke-width:1px;stroke-linecap:butt;stroke-linejoin:miter;stroke-opacity:1"
       d="m 73.747881,30.228813 44.040259,51.597458 v 0 c 0,0 4.45746,-10.107188 2.95339,-18.067797 -1.50407,-7.960609 -9.25921,-20.178985 -15.46187,-26.059322 -6.202663,-5.880337 -10.445566,-7.758268 -16.623465,-8.991744 -4.898564,-0.978045 -14.908314,1.521405 -14.908314,1.521405 z"
       id="path3960"
       inkscape:connector-curvature="0"
       sodipodi:nodetypes="ccczzac" />
    <path
       style="fill:#1e1e1e;fill-opacity:1;stroke:none;stroke-width:1px;stroke-linecap:butt;stroke-linejoin:miter;stroke-opacity:1"
       d="m 113.27119,41.347457 5.21186,6.949153 7.8178,-7.644068 z"
       id="path3962"
       inkscape:connector-curvature="0" />
    <path
       style="fill:#1e1e1e;fill-opacity:1;stroke:none;stroke-width:1px;stroke-linecap:butt;stroke-linejoin:miter;stroke-opacity:1"
       d="M 57.677966,42.911017 64.45339,36.135593 49.338983,31.792373 Z"
       id="path3964"
       inkscape:connector-curvature="0" />
    <path
       style="fill:#262626;fill-opacity:1;stroke:none;stroke-width:1px;stroke-linecap:butt;stroke-linejoin:miter;stroke-opacity:1"
       d="m 73.747881,30.228813 -2.345339,1.042373 46.211868,52.205509 0.17373,-1.650424 z"
       id="path3966"
       inkscape:connector-curvature="0"
       sodipodi:nodetypes="ccccc" />
    <rect
       style="display:inline;opacity:1;fill:#666666;fill-opacity:1;stroke:none;stroke-width:9.44881916;stroke-miterlimit:4;stroke-dasharray:none;stroke-opacity:1"
       id="rect3970"
       width="10.771187"
       height="6.3411016"
       x="17.590036"
       y="82.086861"
       ry="1.1292373" />
    <path
       style="fill:#1e1e1e;fill-opacity:1;stroke:none;stroke-width:1px;stroke-linecap:butt;stroke-linejoin:miter;stroke-opacity:1"
       d="m 103.76644,108.06186 c 0,0 8.1952,13.60404 10.68432,21.7161 2.48912,8.11206 4.47661,26.68905 4.47661,26.68905 l 4.66578,0.002 c 0,0 -2.44475,-19.7197 -5.23349,-29.21024 -1.3174,-4.48331 -3.34299,-10.11674 -5.38559,-12.9428 -2.04261,-2.82607 -2.70115,-3.93971 -4.69067,-5.125 -1.33331,-0.79434 -4.51696,-1.12924 -4.51696,-1.12924 z"
       id="path3996"
       inkscape:connector-curvature="0"
       sodipodi:nodetypes="czccazac" />
    <path
       style="fill:none;stroke:#ffffff;stroke-width:1px;stroke-linecap:butt;stroke-linejoin:miter;stroke-opacity:1"
       d="M 23.156272,79.483476 C 30.526828,69.214139 69.864324,35.510643 57.380848,25.801273"
       id="path4000"
       inkscape:connector-curvature="0"
       sodipodi:nodetypes="cc" />
    <path
       style="fill:none;stroke:#ffffff;stroke-width:1px;stroke-linecap:butt;stroke-linejoin:miter;stroke-opacity:1"
       d="m 43.969172,41.23224 c 1.381117,15.457388 31.710912,13.004603 39.801722,4.913793 3.424389,-3.424389 8.663359,-9.574321 13.267241,-11.547414 5.436185,-2.329791 18.127175,-1.575601 17.875735,0.272941"
       id="path4004"
       inkscape:connector-curvature="0"
       sodipodi:nodetypes="cssc" />
    <path
       style="fill:none;stroke:#ffffff;stroke-width:1px;stroke-linecap:butt;stroke-linejoin:miter;stroke-opacity:1"
       d="m 128.27053,47.649977 c 2.38313,2.65887 3.36396,5.727528 1.44433,14.711572 -1.40729,6.586181 -6.1176,10.859631 -3.93103,15.232758"
       id="path4006"
       inkscape:connector-curvature="0"
       sodipodi:nodetypes="csc" />
    <path
       style="fill:none;stroke:#ffffff;stroke-width:1px;stroke-linecap:butt;stroke-linejoin:miter;stroke-opacity:1"
       d="M 23.156272,79.483476 C 66.565777,62.461544 78.42051,136.19231 119.15021,129.9262"
       id="path4008"
       inkscape:connector-curvature="0" />
    <path
       style="fill:none;stroke:#000000;stroke-width:1px;stroke-linecap:butt;stroke-linejoin:miter;stroke-opacity:1"
       d="m 63.870033,136.55982 c 8.254808,10.16681 41.301217,13.01233 57.491377,7.125"
       id="path4010"
       inkscape:connector-curvature="0" />
    <path
       style="fill:none;stroke:#ffffff;stroke-width:1px;stroke-linecap:butt;stroke-linejoin:miter;stroke-opacity:1"
       d="m 63.870033,127.96068 c -4.34516,-0.13729 -2.261816,11.79007 8.353448,15.47845 10.615264,3.68838 61.822449,3.27114 48.892239,-3.19397"
       id="path4014"
       inkscape:connector-curvature="0"
       sodipodi:nodetypes="czc" />
    <path
       style="fill:none;stroke:#ffffff;stroke-width:1px;stroke-linecap:butt;stroke-linejoin:miter;stroke-opacity:1"
       d="m 62.395895,147.61585 c 7.405256,4.92059 22.704672,5.81852 34.150861,8.10776"
       id="path4018"
       inkscape:connector-curvature="0" />
    <ellipse
       style="opacity:1;fill:#ffffff;fill-opacity:1;stroke:none;stroke-width:12.78266239;stroke-miterlimit:4;stroke-dasharray:none;stroke-opacity:1"
       id="path4020"
       cx="125.94231"
       cy="78.313896"
       rx="1.8197874"
       ry="1.9426321" />
  </g>
</svg>
