<?xml version="1.0" encoding="UTF-8" standalone="no"?>
<!-- Created with Inkscape (http://www.inkscape.org/) -->

<svg
   xmlns:dc="http://purl.org/dc/elements/1.1/"
   xmlns:cc="http://creativecommons.org/ns#"
   xmlns:rdf="http://www.w3.org/1999/02/22-rdf-syntax-ns#"
   xmlns:svg="http://www.w3.org/2000/svg"
   xmlns="http://www.w3.org/2000/svg"
   xmlns:sodipodi="http://sodipodi.sourceforge.net/DTD/sodipodi-0.dtd"
   xmlns:inkscape="http://www.inkscape.org/namespaces/inkscape"
   width="56.476265mm"
   height="12.531273mm"
   viewBox="0 0 56.476265 12.531273"
   version="1.1"
   id="svg8"
   inkscape:version="0.92.3 (2405546, 2018-03-11)"
   sodipodi:docname="sixam_wordmark.svg"
   inkscape:export-filename="sixam_wiki.png"
   inkscape:export-xdpi="34.285717"
   inkscape:export-ydpi="34.285717">
  <defs
     id="defs2" />
  <sodipodi:namedview
     id="base"
     pagecolor="#ffffff"
     bordercolor="#666666"
     borderopacity="1.0"
     inkscape:pageopacity="0.0"
     inkscape:pageshadow="2"
     inkscape:zoom="0.98994949"
     inkscape:cx="512.74497"
     inkscape:cy="81.566596"
     inkscape:document-units="mm"
     inkscape:current-layer="layer1"
     showgrid="false"
     inkscape:pagecheckerboard="true"
     borderlayer="true"
     fit-margin-top="0"
     fit-margin-left="0"
     fit-margin-right="0"
     fit-margin-bottom="0"
     inkscape:window-width="1920"
     inkscape:window-height="1001"
     inkscape:window-x="-9"
     inkscape:window-y="-9"
     inkscape:window-maximized="1"
     showguides="false" />
  <metadata
     id="metadata5">
    <rdf:RDF>
      <cc:Work
         rdf:about="">
        <dc:format>image/svg+xml</dc:format>
        <dc:type
           rdf:resource="http://purl.org/dc/dcmitype/StillImage" />
        <dc:title></dc:title>
      </cc:Work>
    </rdf:RDF>
  </metadata>
  <g
     inkscape:label="Layer 1"
     inkscape:groupmode="layer"
     id="layer1"
     transform="translate(-64.198021,-57.855863)">
    <g
       id="g822"
       transform="matrix(0.30493373,0,0,0.31574862,44.621879,48.162494)">
      <path
         d="m 64.198021,70.387138 v -2.645833 h 23.8125 v 2.645833 z m 0,-5.291666 v -2.645833 h 26.458333 v 2.645833 z m 18.520833,-5.291667 v -2.645833 h 7.9375 v 2.645833 z m -7.9375,-5.291666 v -2.645833 h 10.583333 v 2.645833 z m -5.291666,-5.291667 v -2.645833 h 10.583333 v 2.645833 z m -5.291667,-5.291666 v -2.645833 h 7.9375 v 2.645833 z m 0,-5.291667 v -2.645833 h 26.458333 v 2.645833 z m 2.645834,-5.291666 V 30.69964 h 23.812499 v 2.645833 z"
         style="font-style:normal;font-variant:normal;font-weight:normal;font-stretch:normal;font-size:42.33333206px;line-height:1.25;font-family:'IBM Logo';-inkscape-font-specification:'IBM Logo';text-align:center;letter-spacing:0px;word-spacing:0px;text-anchor:middle;fill:#008dc6;fill-opacity:1;stroke:none;stroke-width:0.26458332"
         id="path836"
         inkscape:connector-curvature="0" />
      <path
         d="m 98.593853,70.387138 v -2.645833 h 13.229167 v 2.645833 z m 0,-5.291666 v -2.645833 h 13.229167 v 2.645833 z m 2.645837,-5.291667 v -2.645833 h 7.9375 v 2.645833 z m 0,-5.291666 v -2.645833 h 7.9375 v 2.645833 z m 0,-5.291667 v -2.645833 h 7.9375 v 2.645833 z m 0,-5.291666 v -2.645833 h 7.9375 v 2.645833 z m -2.645837,-5.291667 v -2.645833 h 13.229167 v 2.645833 z m 0,-5.291666 V 30.69964 h 13.229167 v 2.645833 z"
         style="font-style:normal;font-variant:normal;font-weight:normal;font-stretch:normal;font-size:42.33333206px;line-height:1.25;font-family:'IBM Logo';-inkscape-font-specification:'IBM Logo';text-align:center;letter-spacing:0px;word-spacing:0px;text-anchor:middle;fill:#8c398d;fill-opacity:1;stroke:none;stroke-width:0.26458332"
         id="path838"
         inkscape:connector-curvature="0" />
      <path
         d="m 119.76052,70.387138 v -2.645833 h 13.22917 v 2.645833 z m 21.16667,0 v -2.645833 h 13.22916 v 2.645833 z m -21.16667,-5.291666 v -2.645833 h 13.22917 v 2.645833 z m 21.16667,0 v -2.645833 h 13.22916 v 2.645833 z m -18.52084,-5.291667 v -2.645833 h 7.9375 v 2.645833 z m 21.16667,0 v -2.645833 h 7.9375 v 2.645833 z m -18.52083,-5.291666 v -2.645833 h 23.8125 v 2.645833 z m 0,-5.291667 v -2.645833 h 23.8125 v 2.645833 z m -2.64584,-5.291666 v -2.645833 h 7.9375 v 2.645833 z m 21.16667,0 v -2.645833 h 7.9375 v 2.645833 z m -23.8125,-5.291667 v -2.645833 h 13.22917 v 2.645833 z m 21.16667,0 v -2.645833 h 13.22916 v 2.645833 z M 119.76052,33.345473 V 30.69964 h 13.22917 v 2.645833 z m 21.16667,0 V 30.69964 h 13.22916 v 2.645833 z"
         style="font-style:normal;font-variant:normal;font-weight:normal;font-stretch:normal;font-size:42.33333206px;line-height:1.25;font-family:'IBM Logo';-inkscape-font-specification:'IBM Logo';text-align:center;letter-spacing:0px;word-spacing:0px;text-anchor:middle;fill:#ab1b1e;fill-opacity:1;stroke:none;stroke-width:0.26458332"
         id="path840"
         inkscape:connector-curvature="0" />
      <path
         d="m 162.09385,70.387138 v -2.645833 h 13.22917 v 2.645833 z m 21.16667,0 v -2.645833 h 13.22916 v 2.645833 z m -18.52084,-5.291666 v -2.645833 h 7.9375 v 2.645833 z m 21.16667,0 v -2.645833 h 7.9375 v 2.645833 z m -21.16667,-5.291667 v -2.645833 h 29.10417 v 2.645833 z m 2.64584,-5.291666 v -2.645833 h 23.8125 v 2.645833 z m 0,-5.291667 v -2.645833 h 7.9375 v 2.645833 z m 15.875,0 v -2.645833 h 7.9375 v 2.645833 z m -13.22917,-5.291666 v -2.645833 h 7.9375 v 2.645833 z m 10.58333,0 v -2.645833 h 7.9375 v 2.645833 z m -10.58333,-5.291667 v -2.645833 h 18.52083 v 2.645833 z m -2.64583,-5.291666 V 30.69964 h 23.8125 v 2.645833 z"
         style="font-style:normal;font-variant:normal;font-weight:normal;font-stretch:normal;font-size:42.33333206px;line-height:1.25;font-family:'IBM Logo';-inkscape-font-specification:'IBM Logo';text-align:center;letter-spacing:0px;word-spacing:0px;text-anchor:middle;fill:#be5c08;fill-opacity:1;stroke:none;stroke-width:0.26458332"
         id="path842"
         inkscape:connector-curvature="0" />
      <path
         d="m 204.42718,70.387138 v -2.645833 h 13.22916 v 2.645833 z m 21.16666,0 v -2.645833 h 2.64584 v 2.645833 z m 10.58334,0 v -2.645833 h 13.22916 v 2.645833 z m -31.75,-5.291666 v -2.645833 h 13.22916 v 2.645833 z m 18.52083,0 v -2.645833 h 7.9375 v 2.645833 z m 15.875,0 v -2.645833 h 7.9375 v 2.645833 z m -31.75,-5.291667 v -2.645833 h 7.9375 v 2.645833 z m 13.22917,0 v -2.645833 h 13.22916 v 2.645833 z m 18.52083,0 v -2.645833 h 7.9375 v 2.645833 z m -31.75,-5.291666 v -2.645833 h 7.9375 v 2.645833 z m 10.58333,0 v -2.645833 h 18.52084 v 2.645833 z m 21.16667,0 v -2.645833 h 7.9375 v 2.645833 z m -31.75,-5.291667 v -2.645833 h 18.52083 v 2.645833 z m 21.16667,0 v -2.645833 h 18.52083 v 2.645833 z m -21.16667,-5.291666 v -2.645833 h 15.875 v 2.645833 z m 23.8125,0 v -2.645833 h 15.875 v 2.645833 z m -26.45833,-5.291667 v -2.645833 h 15.875 v 2.645833 z m 29.10416,0 v -2.645833 h 15.875 v 2.645833 z M 204.42718,33.345473 V 30.69964 h 13.22916 v 2.645833 z m 31.75,0 V 30.69964 h 13.22916 v 2.645833 z"
         style="font-style:normal;font-variant:normal;font-weight:normal;font-stretch:normal;font-size:42.33333206px;line-height:1.25;font-family:'IBM Logo';-inkscape-font-specification:'IBM Logo';text-align:center;letter-spacing:0px;word-spacing:0px;text-anchor:middle;fill:#4a9135;fill-opacity:1;stroke:none;stroke-width:0.26458332"
         id="path844"
         inkscape:connector-curvature="0" />
    </g>
  </g>
</svg>
