<?xml version="1.0" encoding="UTF-8" standalone="no"?>
<!-- Created with Inkscape (http://www.inkscape.org/) -->

<svg
   xmlns:dc="http://purl.org/dc/elements/1.1/"
   xmlns:cc="http://creativecommons.org/ns#"
   xmlns:rdf="http://www.w3.org/1999/02/22-rdf-syntax-ns#"
   xmlns:svg="http://www.w3.org/2000/svg"
   xmlns="http://www.w3.org/2000/svg"
   xmlns:sodipodi="http://sodipodi.sourceforge.net/DTD/sodipodi-0.dtd"
   xmlns:inkscape="http://www.inkscape.org/namespaces/inkscape"
   version="1.1"
   id="svg837"
   width="85"
   height="115"
   viewBox="0 0 85 115"
   sodipodi:docname="train_hoodie.svg"
   inkscape:version="0.92.3 (2405546, 2018-03-11)">
  <metadata
     id="metadata843">
    <rdf:RDF>
      <cc:Work
         rdf:about="">
        <dc:format>image/svg+xml</dc:format>
        <dc:type
           rdf:resource="http://purl.org/dc/dcmitype/StillImage" />
        <dc:title></dc:title>
      </cc:Work>
    </rdf:RDF>
  </metadata>
  <defs
     id="defs841" />
  <sodipodi:namedview
     pagecolor="#ffffff"
     bordercolor="#666666"
     borderopacity="1"
     objecttolerance="10"
     gridtolerance="10"
     guidetolerance="10"
     inkscape:pageopacity="0"
     inkscape:pageshadow="2"
     inkscape:window-width="1920"
     inkscape:window-height="1001"
     id="namedview839"
     showgrid="false"
     inkscape:pagecheckerboard="true"
     fit-margin-top="0"
     fit-margin-left="0"
     fit-margin-right="0"
     fit-margin-bottom="0"
     inkscape:zoom="5.6568543"
     inkscape:cx="61.06424"
     inkscape:cy="71.518993"
     inkscape:window-x="-9"
     inkscape:window-y="-9"
     inkscape:window-maximized="1"
     inkscape:current-layer="layer2" />
  <g
     inkscape:groupmode="layer"
     id="layer1"
     inkscape:label="Original"
     transform="translate(17.592821,10.674505)"
     sodipodi:insensitive="true" />
  <g
     inkscape:groupmode="layer"
     id="layer2"
     inkscape:label="Re-Ink"
     style="display:inline">
    <path
       style="fill:#0033ff;fill-opacity:1;stroke:#000000;stroke-width:3.77952766;stroke-linecap:butt;stroke-linejoin:miter;stroke-miterlimit:4;stroke-dasharray:none;stroke-opacity:1"
       d="m 20.92203,15.22896 c 0,0 7.16949,-9.3206447 12.382425,-11.3861382 4.013907,-1.5904089 9.604507,-0.7747821 12.951733,-0.1423268 4.35966,0.8237536 -5.550742,12.097772 -5.550742,12.097772"
       id="path866"
       inkscape:connector-curvature="0"
       sodipodi:nodetypes="cssc" />
    <path
       style="fill:#0033ff;fill-opacity:1;stroke:#000000;stroke-width:3.77952766;stroke-linecap:butt;stroke-linejoin:miter;stroke-miterlimit:4;stroke-dasharray:none;stroke-opacity:1"
       d="m 66.751238,14.232673 c 0,0 -7.432449,-7.8329473 -5.123763,-11.2438116 1.703814,-2.51722345 6.596768,-1.2843159 9.108911,0.4269802 5.844273,3.981175 8.255393,12.2978704 8.681931,19.3564354 0.08689,1.437935 -1.280941,4.127475 -1.280941,4.127475"
       id="path874"
       inkscape:connector-curvature="0"
       sodipodi:nodetypes="caasc" />
    <path
       style="fill:#0033ff;fill-opacity:1;stroke:#000000;stroke-width:3.77952766;stroke-linecap:butt;stroke-linejoin:miter;stroke-miterlimit:4;stroke-dasharray:none;stroke-opacity:1"
       d="m 8.0736469,15.651414 c -3.0005452,1.901906 -2.134901,57.07302 -2.134901,57.07302 0,0 -4.5852834,5.412284 -4.3731518,8.828784 0.2121316,3.4165 1.8086912,7.15144 4.9814356,8.966584 3.1727444,1.815144 6.7511213,-1.62007 11.6707923,-0.284653 4.919671,1.335417 1.601085,5.999584 0.42698,11.243811 -1.174105,5.24423 14.347292,10.08062 20.637376,10.38985 6.290084,0.30923 14.358639,1.44548 18.502475,0.71164 4.143836,-0.73384 20.835815,-7.24673 22.772278,-10.67451 1.936463,-3.427781 -8.341438,-10.916229 -7.116337,-15.086633 1.225101,-4.170404 7.707079,-1.859528 7.970297,-4.981436 0.780656,-9.259011 0.132549,-21.086054 -0.569307,-31.596534 -0.521871,-7.815165 -2.704208,-23.341585 -2.704208,-23.341585 0,0 -5.708848,-12.627002 -11.386138,-12.667079 C 60.741933,14.190253 60.50929,27.100641 54.511139,27.469059 48.496562,27.838486 46.696495,15.151003 40.705446,15.798267 28.378757,17.130023 11.074192,13.749508 8.0736469,15.651414 Z"
       id="path864"
       inkscape:connector-curvature="0"
       sodipodi:nodetypes="zczzzzzzzzsacsssz" />
    <path
       style="fill:none;stroke:#000000;stroke-width:3.77952766;stroke-linecap:butt;stroke-linejoin:miter;stroke-miterlimit:4;stroke-dasharray:none;stroke-opacity:1"
       d="m 21.918317,40.563119 -3.700495,49.67203"
       id="path870"
       inkscape:connector-curvature="0" />
    <path
       style="fill:none;stroke:#000000;stroke-width:3.77952766;stroke-linecap:butt;stroke-linejoin:miter;stroke-miterlimit:4;stroke-dasharray:none;stroke-opacity:1"
       d="m 70.024752,47.679455 3.415842,39.139852"
       id="path872"
       inkscape:connector-curvature="0" />
    <g
       id="g888"
       transform="translate(-0.17677669,-5.8336309)">
      <path
         sodipodi:nodetypes="cc"
         inkscape:connector-curvature="0"
         id="path876"
         d="m 56.75,49.9375 2.5625,-4.78125"
         style="fill:none;stroke:#ffffff;stroke-width:1px;stroke-linecap:butt;stroke-linejoin:miter;stroke-opacity:1" />
      <path
         sodipodi:nodetypes="cc"
         inkscape:connector-curvature="0"
         id="path878"
         d="m 63.59375,45.15625 2.21875,4.8125"
         style="fill:none;stroke:#ffffff;stroke-width:1px;stroke-linecap:butt;stroke-linejoin:miter;stroke-opacity:1" />
      <path
         sodipodi:nodetypes="cc"
         inkscape:connector-curvature="0"
         id="path880"
         d="m 58.34375,46.46875 6,0.03125"
         style="fill:none;stroke:#ffffff;stroke-width:1px;stroke-linecap:butt;stroke-linejoin:miter;stroke-opacity:1" />
      <path
         inkscape:connector-curvature="0"
         id="path882"
         d="m 57.3125,48.8125 8.0625,0.21875"
         style="fill:none;stroke:#ffffff;stroke-width:1px;stroke-linecap:butt;stroke-linejoin:miter;stroke-opacity:1" />
    </g>
  </g>
</svg>
