<?xml version="1.0" encoding="UTF-8" standalone="no"?>
<svg
   xmlns:dc="http://purl.org/dc/elements/1.1/"
   xmlns:cc="http://creativecommons.org/ns#"
   xmlns:rdf="http://www.w3.org/1999/02/22-rdf-syntax-ns#"
   xmlns:svg="http://www.w3.org/2000/svg"
   xmlns="http://www.w3.org/2000/svg"
   xmlns:sodipodi="http://sodipodi.sourceforge.net/DTD/sodipodi-0.dtd"
   xmlns:inkscape="http://www.inkscape.org/namespaces/inkscape"
   sodipodi:docname="character_base_legs.svg"
   inkscape:version="1.0 (4035a4fb49, 2020-05-01)"
   id="svg8"
   version="1.1"
   viewBox="0 0 29.356466 33.044505"
   height="33.044506mm"
   width="29.356466mm">
  <defs
     id="defs2" />
  <sodipodi:namedview
     inkscape:document-rotation="0"
     inkscape:lockguides="false"
     inkscape:window-maximized="1"
     inkscape:window-y="-9"
     inkscape:window-x="-9"
     inkscape:window-height="1001"
     inkscape:window-width="1920"
     showguides="true"
     inkscape:pagecheckerboard="true"
     fit-margin-bottom="0"
     fit-margin-right="0"
     fit-margin-left="0"
     fit-margin-top="0"
     showgrid="false"
     inkscape:current-layer="layer3"
     inkscape:document-units="mm"
     inkscape:cy="-7.1041414"
     inkscape:cx="188.27602"
     inkscape:zoom="2.8"
     inkscape:pageshadow="2"
     inkscape:pageopacity="0.0"
     borderopacity="1.0"
     bordercolor="#666666"
     pagecolor="#ffffff"
     id="base" />
  <metadata
     id="metadata5">
    <rdf:RDF>
      <cc:Work
         rdf:about="">
        <dc:format>image/svg+xml</dc:format>
        <dc:type
           rdf:resource="http://purl.org/dc/dcmitype/StillImage" />
        <dc:title></dc:title>
      </cc:Work>
    </rdf:RDF>
  </metadata>
  <g
     style="display:inline"
     transform="translate(-81.705925,-156.90922)"
     id="layer1"
     inkscape:groupmode="layer"
     inkscape:label="Layer 1" />
  <g
     transform="translate(-5.1279453,-53.603123)"
     inkscape:label="Color"
     id="layer3"
     inkscape:groupmode="layer">
    <path
       sodipodi:nodetypes="cccccccc"
       inkscape:connector-curvature="0"
       id="path831-5"
       d="m 31.277528,53.606473 c 0.123737,9.510183 1.595727,13.002971 0.897694,23.699107 5.989076,7.622458 -5.466142,9.257207 -8.457219,1.795388 0,-4.946536 0.06144,-10.808711 0.04725,-15.73326 -3.051778,4.577667 -6.271659,11.54185 -7.843006,17.103423 6.066786,9.10018 -9.274496,5.51039 -10.15811,0.18899 5.089364,-6.263833 9.457066,-19.113432 10.067485,-26.954038 6.174568,-0.184322 8.74291,-0.05561 15.445906,-0.09961 z"
       style="opacity:1;fill:#ffffff;fill-opacity:1;stroke:none;stroke-width:1.2;stroke-linecap:butt;stroke-linejoin:miter;stroke-miterlimit:4;stroke-dasharray:none;stroke-opacity:1" />
    <path
       sodipodi:nodetypes="zczczzcczscz"
       inkscape:connector-curvature="0"
       id="path857"
       d="m 15.270238,54.296281 c -0.52762,2.533268 6.446629,6.5124 8.920238,7.984749 4.741466,-1.55146 7.056167,-4.214834 7.606771,-7.654018 0.550604,-3.439184 0.377976,22.678568 0.377976,22.678568 0,0 2.67882,4.233216 0.566965,5.76414 -2.111855,1.530924 -7.638158,-0.210531 -9.024185,-3.968752 -1.386027,-3.758221 0.472473,-16.819938 0.472473,-16.819938 l -8.268229,18.1901 c 0,0 2.807966,4.177084 0.330729,5.764141 -2.477237,1.587057 -11.8033341,-3.743327 -10.488839,-5.57515 3.2620156,-4.545801 8.268229,-18.355467 8.268229,-18.355467 0,0 1.765492,-10.541641 1.237872,-8.008373 z"
       style="fill:#0276b1;fill-opacity:1;stroke:none;stroke-width:0.264583px;stroke-linecap:butt;stroke-linejoin:miter;stroke-opacity:1" />
  </g>
  <g
     transform="translate(-5.1279453,-53.603123)"
     style="display:inline"
     inkscape:label="Re-ink"
     id="layer2"
     inkscape:groupmode="layer">
    <path
       sodipodi:nodetypes="ccccccc"
       inkscape:connector-curvature="0"
       id="path831"
       d="m 31.277528,53.606473 c -0.05112,9.15583 1.595725,13.00297 0.897695,23.699107 5.989074,7.622458 -5.466143,9.257205 -8.45722,1.795387 0,-4.946535 0.06144,-10.808709 0.04725,-15.733259 -3.051778,4.577668 -6.271659,11.541849 -7.843006,17.103422 6.066786,9.10018 -9.2744956,5.510391 -10.1581101,0.188989 C 10.853501,74.396286 15.717297,60.625371 15.831622,53.706083"
       style="opacity:1;fill:none;fill-opacity:1;stroke:#000000;stroke-width:1.2;stroke-linecap:butt;stroke-linejoin:miter;stroke-miterlimit:4;stroke-dasharray:none;stroke-opacity:1" />
  </g>
</svg>
